<svg width="918" height="895" viewBox="0 0 918 895" fill="none" xmlns="http://www.w3.org/2000/svg">
<path d="M353.563 752.206C333.755 721.299 307.958 694.839 281.187 669.54C274.2 662.937 267.148 656.414 260.119 649.912C240.201 631.488 220.463 613.232 202.892 593.788C179.128 567.492 159.365 539.064 148.543 505.207C137.723 471.357 135.829 432.043 147.86 383.956C159.897 335.844 176.712 304.262 198.425 282.599C220.136 260.938 246.789 249.148 278.598 240.702C299.392 235.181 322.349 231.096 347.549 226.614C360.926 224.234 374.936 221.741 389.589 218.862C431.821 210.563 479.326 199.06 532.249 177.784C585.03 156.564 632.762 156.622 673.153 170.526C713.55 184.432 746.638 212.202 770.1 246.46C817.043 315.006 825.366 409.377 776.791 470.453L776.1 471.322C727.81 532.039 702.439 563.939 685.814 594.866C669.1 625.958 661.23 656.056 647.762 713.386C634.349 770.477 580.55 810.968 520.165 821.78C459.802 832.588 392.981 813.711 353.563 752.206Z" stroke="#D8D7DB"/>
<path d="M357.868 740.667C338.867 711.019 314.121 685.638 288.443 661.371C281.741 655.037 274.976 648.78 268.233 642.543C249.129 624.872 230.198 607.361 213.344 588.712C190.552 563.49 171.597 536.225 161.218 503.754C150.841 471.289 149.024 433.583 160.563 387.462C172.109 341.316 188.236 311.027 209.059 290.252C229.88 269.478 255.442 258.171 285.951 250.07C305.895 244.774 327.914 240.857 352.085 236.557C364.916 234.274 378.354 231.884 392.41 229.122C432.919 221.162 478.487 210.127 529.252 189.719C579.874 169.367 625.653 169.423 664.39 182.757C703.134 196.095 734.868 222.728 757.37 255.585C802.394 321.328 810.375 411.838 763.789 470.412L763.124 471.248C716.807 529.484 692.47 560.084 676.523 589.75C660.49 619.575 652.941 648.448 640.022 703.438C627.159 758.189 575.564 797.023 517.65 807.392C459.756 817.758 395.672 799.653 357.868 740.667Z" stroke="#D8D7DB"/>
<path d="M362.439 728.415C344.295 700.104 320.666 675.868 296.147 652.697C289.747 646.649 283.288 640.674 276.85 634.719C258.608 617.846 240.534 601.128 224.443 583.322C202.681 559.241 184.585 533.211 174.676 502.211C164.769 471.217 163.034 435.219 174.051 391.185C185.075 347.126 200.471 318.21 220.35 298.377C240.227 278.546 264.63 267.751 293.758 260.017C312.801 254.961 333.823 251.221 356.901 247.115C369.153 244.936 381.984 242.653 395.406 240.015C434.086 232.415 477.596 221.879 526.069 202.392C574.4 182.961 618.104 183.015 655.086 195.745C692.074 208.478 722.371 233.904 743.854 265.273C786.84 328.041 794.457 414.45 749.984 470.368L749.348 471.167C705.125 526.771 681.886 555.99 666.658 584.318C651.348 612.799 644.14 640.369 631.804 692.874C619.525 745.141 570.271 782.215 514.979 792.115C459.708 802.011 398.529 784.727 362.439 728.415Z" stroke="#D8D7DB"/>
<path d="M367.198 715.66C349.946 688.741 327.479 665.697 304.168 643.667C298.083 637.916 291.941 632.236 285.82 626.574C268.478 610.533 251.294 594.639 235.997 577.711C215.308 554.818 198.106 530.072 188.687 500.604C179.269 471.142 177.619 436.922 188.093 395.061C198.573 353.175 213.209 325.688 232.104 306.837C250.998 287.986 274.194 277.725 301.885 270.372C319.989 265.565 339.974 262.01 361.914 258.106C373.563 256.034 385.763 253.864 398.525 251.356C435.3 244.13 476.669 234.112 522.756 215.584C568.701 197.113 610.246 197.164 645.4 209.266C680.561 221.369 709.361 245.54 729.783 275.36C770.648 335.029 777.886 417.17 735.612 470.322L735.004 471.087C692.962 523.947 670.868 551.728 656.389 578.662C641.831 605.744 634.977 631.959 623.25 681.878C611.578 731.557 564.76 766.8 512.198 776.211C459.658 785.618 401.504 769.188 367.198 715.66Z" stroke="#D8D7DB"/>
<path d="M371.79 703.351C355.398 677.776 334.053 655.882 311.907 634.954C306.125 629.49 300.291 624.093 294.476 618.714C278 603.475 261.678 588.377 247.145 572.297C227.492 550.549 211.153 527.044 202.206 499.054C193.261 471.07 191.693 438.565 201.642 398.801C211.597 359.012 225.501 332.904 243.447 314.999C261.391 297.096 283.423 287.349 309.728 280.364C326.925 275.798 345.909 272.42 366.752 268.712C377.818 266.744 389.409 264.682 401.534 262.299C436.471 255.434 475.774 245.917 519.559 228.314C563.201 210.769 602.664 210.818 636.054 222.312C669.451 233.809 696.807 256.767 716.206 285.092C755.023 341.772 761.896 419.794 721.745 470.278L721.165 471.006C681.227 521.222 660.235 547.615 646.479 573.205C632.647 598.936 626.136 623.844 614.995 671.266C603.91 718.45 559.442 751.925 509.515 760.865C459.61 769.8 404.374 754.194 371.79 703.351Z" stroke="#D8D7DB"/>
<path d="M376.561 690.562C361.064 666.382 340.884 645.684 319.949 625.899C314.483 620.734 308.968 615.632 303.47 610.547C287.896 596.142 272.467 581.871 258.731 566.67C240.154 546.114 224.711 523.898 216.255 497.443C207.801 470.994 206.318 440.273 215.722 402.688C225.132 365.078 238.273 340.402 255.233 323.481C272.192 306.562 293.013 297.349 317.877 290.747C334.133 286.431 352.077 283.239 371.779 279.734C382.241 277.873 393.198 275.923 404.661 273.671C437.689 267.181 474.844 258.184 516.236 241.543C557.487 224.959 594.784 225.006 626.342 235.87C657.906 246.735 683.762 268.434 702.097 295.206C738.787 348.78 745.279 422.521 707.334 470.232L706.784 470.923C669.032 518.39 649.187 543.342 636.182 567.535C623.104 591.862 616.948 615.411 606.416 660.24C595.941 704.829 553.916 736.469 506.727 744.918C459.559 753.363 407.356 738.612 376.561 690.562Z" stroke="#D8D7DB"/>
<path d="M381.047 678.538C366.391 655.67 347.306 636.096 327.51 617.387C322.341 612.502 317.125 607.677 311.926 602.869C297.199 589.247 282.611 575.753 269.622 561.381C252.057 541.944 237.457 520.939 229.462 495.928C221.47 470.924 220.068 441.878 228.959 406.342C237.857 370.78 250.281 347.452 266.314 331.455C282.345 315.461 302.03 306.751 325.539 300.509C340.91 296.427 357.876 293.409 376.506 290.095C386.398 288.335 396.76 286.492 407.601 284.361C438.834 278.224 473.969 269.716 513.113 253.98C552.114 238.3 587.377 238.345 617.211 248.615C647.052 258.888 671.498 279.402 688.832 304.714C723.522 355.368 729.658 425.085 693.786 470.188L693.263 470.845C657.567 515.728 638.8 539.324 626.501 562.203C614.133 585.211 608.311 607.483 598.352 649.873C588.449 692.024 548.721 721.937 504.106 729.925C459.512 737.91 410.16 723.964 381.047 678.538Z" stroke="#D8D7DB"/>
<path d="M385.277 667.2C371.414 645.57 353.362 627.055 334.638 609.361C329.749 604.74 324.816 600.177 319.899 595.629C305.971 582.746 292.175 569.985 279.892 556.393C263.281 538.012 249.475 518.15 241.915 494.5C234.358 470.857 233.032 443.392 241.44 409.787C249.854 376.156 261.603 354.098 276.762 338.974C291.919 323.852 310.531 315.616 332.763 309.713C347.299 305.853 363.343 302.999 380.962 299.865C390.318 298.2 400.119 296.457 410.373 294.442C439.913 288.637 473.145 280.59 510.168 265.706C547.049 250.879 580.392 250.922 608.602 260.633C636.819 270.346 659.934 289.744 676.326 313.679C709.13 361.579 714.929 427.502 681.012 470.148L680.515 470.772C646.757 513.218 629.006 535.536 617.373 557.177C605.674 578.94 600.166 600.008 590.748 640.099C581.385 679.951 543.823 708.235 501.635 715.789C459.468 723.339 412.804 710.152 385.277 667.2Z" stroke="#D8D7DB"/>
<path d="M389.131 656.869C375.991 636.365 358.88 618.817 341.135 602.046C336.501 597.667 331.825 593.342 327.165 589.031C313.965 576.822 300.891 564.729 289.25 551.848C273.509 534.429 260.427 515.608 253.264 493.199C246.103 470.796 244.846 444.771 252.814 412.926C260.788 381.056 271.921 360.156 286.283 345.826C300.644 331.498 318.278 323.695 339.346 318.101C353.122 314.443 368.326 311.738 385.023 308.768C393.891 307.19 403.18 305.538 412.899 303.628C440.896 298.126 472.394 290.499 507.484 276.392C542.432 262.342 574.027 262.383 600.756 271.585C627.493 280.788 649.395 299.169 664.928 321.849C696.014 367.24 701.506 429.705 669.37 470.11L668.898 470.704C636.905 510.93 620.081 532.084 609.054 552.596C597.965 573.226 592.744 593.196 583.818 631.191C574.948 668.948 539.359 695.749 499.382 702.907C459.427 710.061 415.213 697.565 389.131 656.869Z" stroke="#D8D7DB"/>
<path d="M393.395 645.44C381.054 626.184 364.985 609.703 348.321 593.956C343.969 589.843 339.578 585.781 335.202 581.733C322.808 570.269 310.533 558.915 299.603 546.821C284.823 530.466 272.542 512.796 265.817 491.759C259.095 470.729 257.915 446.297 265.395 416.399C272.882 386.476 283.334 366.856 296.816 353.406C310.295 339.957 326.848 332.631 346.628 327.379C359.563 323.944 373.837 321.405 389.515 318.616C397.842 317.135 406.565 315.583 415.694 313.789C441.984 308.623 471.563 301.461 504.515 288.213C537.326 275.022 566.986 275.062 592.078 283.699C617.176 292.339 637.738 309.594 652.321 330.887C681.505 373.502 686.658 432.142 656.493 470.069L656.047 470.63C626.008 508.399 610.208 528.265 599.853 547.529C589.437 566.904 584.535 585.661 576.153 621.338C567.827 656.777 534.421 681.937 496.891 688.657C459.382 695.373 417.879 683.642 393.395 645.44Z" stroke="#D8D7DB"/>
<path d="M398.137 632.73C386.685 614.861 371.773 599.568 356.313 584.958C352.275 581.141 348.2 577.373 344.14 573.617C332.641 562.981 321.255 552.449 311.116 541.229C297.405 526.058 286.014 509.669 279.778 490.158C273.544 470.654 272.448 447.994 279.387 420.261C286.332 392.503 296.027 374.307 308.528 361.835C321.028 349.364 336.378 342.569 354.727 337.697C366.726 334.511 379.967 332.156 394.511 329.568C402.237 328.194 410.331 326.754 418.801 325.089C443.194 320.296 470.639 313.651 501.214 301.359C531.647 289.124 559.156 289.161 582.427 297.172C605.704 305.185 624.775 321.188 638.3 340.937C665.37 380.465 670.146 434.851 642.172 470.024L641.755 470.549C613.889 505.586 599.228 524.019 589.62 541.893C579.954 559.874 575.405 577.28 567.628 610.38C559.908 643.242 528.93 666.577 494.12 672.809C459.332 679.038 420.842 668.159 398.137 632.73Z" stroke="#D8D7DB"/>
<path d="M402.776 620.295C392.193 603.783 378.415 589.653 364.132 576.155C360.4 572.628 356.636 569.146 352.885 565.677C342.262 555.851 331.745 546.123 322.379 535.759C309.715 521.745 299.196 506.609 293.437 488.592C287.679 470.581 286.667 449.654 293.076 424.04C299.491 398.4 308.445 381.597 319.988 370.081C331.529 358.567 345.703 352.292 362.65 347.792C373.734 344.849 385.963 342.674 399.398 340.284C406.536 339.014 414.014 337.683 421.842 336.145C444.378 331.717 469.734 325.577 497.984 314.22C526.091 302.92 551.495 302.955 572.984 310.353C594.479 317.752 612.091 332.53 624.583 350.77C649.585 387.278 653.991 437.503 628.162 469.979L627.773 470.468C602.032 502.832 588.487 519.864 579.608 536.38C570.676 552.997 566.472 569.082 559.288 599.66C552.161 629.999 523.557 651.549 491.41 657.305C459.284 663.057 423.742 653.01 402.776 620.295Z" stroke="#D8D7DB"/>
<path d="M407.432 607.815C397.723 592.665 385.081 579.701 371.979 567.319C368.556 564.084 365.103 560.89 361.662 557.707C351.919 548.695 342.273 539.773 333.684 530.269C322.07 517.417 312.426 503.539 307.146 487.02C301.867 470.508 300.939 451.321 306.816 427.832C312.699 404.319 320.909 388.914 331.489 378.358C342.068 367.804 355.061 362.051 370.603 357.924C380.767 355.225 391.982 353.23 404.304 351.038C410.852 349.874 417.712 348.653 424.893 347.242C445.566 343.18 468.827 337.548 494.742 327.129C520.515 316.768 543.806 316.801 563.507 323.582C583.214 330.366 599.361 343.915 610.814 360.639C633.741 394.116 637.776 440.164 614.099 469.934L613.739 470.387C590.132 500.069 577.705 515.694 569.56 530.846C561.363 546.094 557.507 560.853 550.917 588.9C544.384 616.708 518.165 636.466 488.689 641.743C459.235 647.017 426.653 637.805 407.432 607.815Z" stroke="#D8D7DB"/>
<path d="M412.088 595.334C403.252 581.546 391.748 569.749 379.827 558.484C376.712 555.539 373.57 552.633 370.439 549.737C361.575 541.538 352.802 533.424 344.989 524.779C334.426 513.089 325.656 500.468 320.855 485.448C316.056 470.435 315.211 452.987 320.555 431.625C325.906 410.238 333.373 396.232 342.991 386.635C352.607 377.041 364.42 371.81 378.555 368.057C387.801 365.602 398.001 363.787 409.21 361.793C415.167 360.734 421.409 359.623 427.945 358.339C446.754 354.643 467.919 349.518 491.5 340.038C514.938 330.615 536.117 330.646 554.029 336.812C571.948 342.98 586.631 355.3 597.046 370.509C617.897 400.954 621.562 442.825 600.037 469.889L599.705 470.307C578.232 497.306 566.924 511.524 559.511 525.313C552.051 539.19 548.541 552.624 542.547 578.14C536.608 603.417 512.772 621.382 485.968 626.182C459.186 630.977 429.563 622.601 412.088 595.334Z" stroke="#D8D7DB"/>
<path d="M416.335 583.951C408.295 571.405 397.828 560.672 386.985 550.425C384.151 547.746 381.292 545.102 378.444 542.467C370.382 535.011 362.405 527.632 355.301 519.771C345.695 509.141 337.722 497.667 333.358 484.014C328.996 470.368 328.227 454.507 333.087 435.084C337.953 415.636 344.741 402.905 353.481 394.185C362.22 385.466 372.956 380.711 385.809 377.298C394.217 375.066 403.49 373.416 413.684 371.602C419.103 370.639 424.782 369.628 430.728 368.46C447.838 365.098 467.092 360.436 488.543 351.812C509.852 343.245 529.104 343.274 545.385 348.879C561.672 354.485 575.02 365.684 584.489 379.51C603.446 407.191 606.773 445.252 587.211 469.848L586.905 470.233C567.377 494.785 557.09 507.72 550.346 520.266C543.558 532.894 540.364 545.118 534.912 568.326C529.516 591.294 507.854 607.625 483.487 611.988C459.141 616.347 432.218 608.733 416.335 583.951Z" stroke="#D8D7DB"/>
<path d="M421.199 570.913C414.071 559.79 404.792 550.275 395.183 541.194C392.671 538.82 390.137 536.476 387.613 534.142C380.47 527.535 373.405 520.999 367.111 514.035C358.602 504.62 351.544 494.46 347.68 482.372C343.818 470.291 343.137 456.248 347.44 439.046C351.75 421.82 357.762 410.549 365.497 402.832C373.23 395.116 382.732 390.906 394.116 387.883C401.565 385.906 409.778 384.444 418.809 382.838C423.611 381.984 428.644 381.088 433.916 380.052C449.079 377.073 466.144 372.941 485.156 365.298C504.026 357.711 521.071 357.738 535.484 362.699C549.903 367.663 561.721 377.578 570.106 389.82C586.894 414.335 589.834 448.032 572.52 469.802L572.244 470.148C554.945 491.899 545.827 503.364 539.849 514.485C533.829 525.683 530.998 536.522 526.167 557.085C521.392 577.409 502.221 591.868 480.645 595.731C459.09 599.59 435.258 592.849 421.199 570.913Z" stroke="#D8D7DB"/>
<path d="M426.415 556.933C420.264 547.335 412.259 539.127 403.974 531.297C401.806 529.249 399.621 527.228 397.444 525.214C391.287 519.519 385.198 513.887 379.774 507.885C372.442 499.771 366.363 491.02 363.036 480.611C359.711 470.209 359.122 458.114 362.83 443.294C366.545 428.449 371.723 418.745 378.38 412.103C385.036 405.463 393.215 401.837 403.024 399.233C409.443 397.528 416.52 396.269 424.304 394.885C428.445 394.148 432.786 393.376 437.334 392.482C450.41 389.913 465.127 386.349 481.525 379.757C497.78 373.222 512.459 373.246 524.868 377.518C537.284 381.792 547.462 390.33 554.684 400.875C569.147 421.994 571.671 451.013 556.768 469.751L556.524 470.058C541.615 488.803 533.75 498.693 528.593 508.287C523.398 517.95 520.955 527.304 516.79 545.032C512.682 562.521 496.181 574.972 477.597 578.3C459.035 581.623 438.518 575.818 426.415 556.933Z" stroke="#D8D7DB"/>
<path d="M431.549 543.172C426.36 535.077 419.609 528.155 412.626 521.556C410.798 519.828 408.956 518.124 407.121 516.427C401.933 511.629 396.807 506.887 392.239 501.832C386.064 494.999 380.949 487.635 378.15 478.878C375.353 470.128 374.857 459.951 377.979 447.476C381.106 434.975 385.465 426.813 391.061 421.229C396.656 415.647 403.534 412.597 411.792 410.404C417.198 408.968 423.156 407.909 429.713 406.742C433.203 406.122 436.862 405.471 440.699 404.717C451.72 402.551 464.127 399.547 477.95 393.99C491.632 388.489 503.981 388.511 514.419 392.105C524.863 395.7 533.427 402.882 539.504 411.756C551.678 429.533 553.794 453.947 541.264 469.702L541.052 469.969C528.495 485.757 521.863 494.095 517.514 502.186C513.131 510.339 511.071 518.231 507.561 533.169C504.108 547.867 490.235 558.343 474.598 561.143C458.981 563.939 441.727 559.054 431.549 543.172Z" stroke="#D8D7DB"/>
</svg>
