<svg width="2001" height="1286" viewBox="0 0 2001 1286" fill="none" xmlns="http://www.w3.org/2000/svg">
<rect x="0.5" width="2000" height="1285.78" fill="#F5F5F5"/>
<mask id="mask0_93_403" style="mask-type:alpha" maskUnits="userSpaceOnUse" x="0" y="0" width="2001" height="1286">
<rect x="0.5" y="0.224976" width="2000" height="1285.78" fill="#F3F3F5"/>
</mask>
<g mask="url(#mask0_93_403)">
<g opacity="0.9">
<path d="M2653.87 1391.67C2668.36 1191.07 2327.04 1002.96 1891.51 971.511C1455.98 940.062 1091.17 1077.19 1076.69 1277.79C1062.2 1478.38 1403.52 1666.5 1839.05 1697.94C2274.58 1729.39 2639.39 1592.27 2653.87 1391.67Z" stroke="#D8D7DB" stroke-width="0.8" stroke-miterlimit="10"/>
<path d="M2624.99 1349.89C2630.67 1153.77 2290.04 984.772 1864.17 972.43C1438.29 960.088 1088.45 1109.07 1082.76 1305.19C1077.08 1501.32 1417.71 1670.31 1843.58 1682.65C2269.46 1694.99 2619.3 1546.01 2624.99 1349.89Z" stroke="#D8D7DB" stroke-width="0.8" stroke-miterlimit="10"/>
<path d="M1848.06 1667.67C2264.3 1660.92 2599.2 1500.06 2596.09 1308.39C2592.98 1116.72 2253.03 966.822 1836.8 973.579C1420.56 980.336 1085.65 1141.19 1088.77 1332.86C1091.88 1524.53 1431.83 1674.43 1848.06 1667.67Z" stroke="#D8D7DB" stroke-width="0.8" stroke-miterlimit="10"/>
<path d="M1852.59 1652.49C2259.15 1626.63 2579.07 1453.87 2567.16 1266.62C2555.25 1079.37 2216.01 948.54 1809.45 974.403C1402.89 1000.27 1082.97 1173.03 1094.88 1360.28C1106.79 1547.53 1446.03 1678.35 1852.59 1652.49Z" stroke="#D8D7DB" stroke-width="0.8" stroke-miterlimit="10"/>
<path d="M1856.95 1637.25C2253.84 1592.31 2558.81 1407.69 2538.12 1224.89C2517.42 1042.09 2178.89 930.332 1781.99 975.272C1385.1 1020.21 1080.13 1204.83 1100.82 1387.63C1121.52 1570.43 1460.05 1682.19 1856.95 1637.25Z" stroke="#D8D7DB" stroke-width="0.8" stroke-miterlimit="10"/>
<path d="M1861.45 1622.01C2248.67 1557.98 2538.67 1361.5 2509.18 1183.18C2479.69 1004.85 2141.88 912.194 1754.66 976.229C1367.43 1040.26 1077.43 1236.74 1106.92 1415.07C1136.41 1593.4 1474.23 1686.05 1861.45 1622.01Z" stroke="#D8D7DB" stroke-width="0.8" stroke-miterlimit="10"/>
<path d="M1865.97 1606.72C2243.52 1523.57 2518.55 1315.21 2480.25 1141.32C2441.96 967.438 2104.85 893.883 1727.29 977.032C1349.73 1060.18 1074.71 1268.55 1113 1442.43C1151.3 1616.32 1488.41 1689.87 1865.97 1606.72Z" stroke="#D8D7DB" stroke-width="0.8" stroke-miterlimit="10"/>
<path d="M1870.39 1591.44C2238.28 1489.21 2498.35 1269 2451.28 1099.58C2404.2 930.17 2067.8 875.71 1699.9 977.943C1332.01 1080.18 1071.93 1300.39 1119.01 1469.8C1166.09 1639.22 1502.49 1693.68 1870.39 1591.44Z" stroke="#D8D7DB" stroke-width="0.8" stroke-miterlimit="10"/>
<path d="M1874.95 1576.01C2233.18 1454.61 2478.28 1222.48 2422.38 1057.52C2366.48 892.565 2030.76 857.253 1672.52 978.65C1314.28 1100.05 1069.18 1332.18 1125.08 1497.14C1180.98 1662.09 1516.71 1697.4 1874.95 1576.01Z" stroke="#D8D7DB" stroke-width="0.8" stroke-miterlimit="10"/>
<path d="M1879.36 1560.88C2227.92 1420.4 2458.05 1176.4 2393.36 1015.88C2328.67 855.367 1993.66 839.122 1645.1 979.598C1296.53 1120.07 1066.4 1364.08 1131.09 1524.59C1195.78 1685.11 1530.79 1701.35 1879.36 1560.88Z" stroke="#D8D7DB" stroke-width="0.8" stroke-miterlimit="10"/>
<path d="M1883.8 1545.64C2222.71 1386.08 2437.88 1130.22 2364.41 974.143C2290.93 818.068 1956.63 820.886 1617.72 980.437C1278.81 1139.99 1063.63 1395.85 1137.11 1551.93C1210.58 1708 1544.89 1705.19 1883.8 1545.64Z" stroke="#D8D7DB" stroke-width="0.8" stroke-miterlimit="10"/>
<path d="M1888.31 1530.27C2217.53 1351.59 2417.72 1083.83 2335.43 932.219C2253.14 780.604 1919.55 802.544 1590.32 981.225C1261.1 1159.91 1060.91 1427.66 1143.2 1579.28C1225.48 1730.9 1559.08 1708.95 1888.31 1530.27Z" stroke="#D8D7DB" stroke-width="0.8" stroke-miterlimit="10"/>
<path d="M1892.71 1515.09C2212.31 1317.31 2397.57 1037.68 2306.51 890.52C2215.44 743.358 1882.53 784.388 1562.93 982.163C1243.33 1179.94 1058.06 1459.57 1149.13 1606.73C1240.2 1753.89 1573.11 1712.86 1892.71 1515.09Z" stroke="#D8D7DB" stroke-width="0.8" stroke-miterlimit="10"/>
<path d="M1897.27 1499.33C2207.19 1282.41 2377.45 990.89 2277.58 848.201C2177.7 705.512 1845.51 765.69 1535.6 982.611C1225.68 1199.53 1055.42 1491.05 1155.29 1633.74C1255.17 1776.43 1587.36 1716.26 1897.27 1499.33Z" stroke="#D8D7DB" stroke-width="0.8" stroke-miterlimit="10"/>
<path d="M1901.78 1484.08C2202.03 1248.06 2357.34 944.671 2248.67 806.434C2140.01 668.198 1808.52 747.465 1508.27 983.484C1208.02 1219.5 1052.71 1522.9 1161.37 1661.13C1270.04 1799.37 1601.53 1720.1 1901.78 1484.08Z" stroke="#D8D7DB" stroke-width="0.8" stroke-miterlimit="10"/>
<path d="M1906.15 1468.79C2196.74 1213.68 2337.1 898.43 2219.66 764.653C2102.21 630.876 1771.44 729.233 1480.85 984.34C1190.27 1239.45 1049.91 1554.7 1167.35 1688.48C1284.79 1822.25 1615.57 1723.9 1906.15 1468.79Z" stroke="#D8D7DB" stroke-width="0.8" stroke-miterlimit="10"/>
<path d="M1910.64 1453.42C2191.54 1179.2 2316.92 852.075 2190.69 722.761C2064.45 593.448 1734.4 710.915 1453.5 985.132C1172.6 1259.35 1047.22 1586.47 1173.45 1715.79C1299.69 1845.1 1629.74 1727.63 1910.64 1453.42Z" stroke="#D8D7DB" stroke-width="0.8" stroke-miterlimit="10"/>
<path d="M1915.16 1438.21C2186.4 1144.89 2296.8 805.88 2161.76 681.005C2026.72 556.13 1697.36 692.681 1426.13 986C1154.89 1279.32 1044.48 1618.33 1179.53 1743.21C1314.57 1868.08 1643.92 1731.53 1915.16 1438.21Z" stroke="#D8D7DB" stroke-width="0.8" stroke-miterlimit="10"/>
<path d="M1919.51 1422.99C2181.09 1110.59 2276.57 759.724 2132.77 639.317C1988.97 518.911 1660.35 674.555 1398.77 986.959C1137.19 1299.36 1041.71 1650.22 1185.51 1770.63C1329.31 1891.04 1657.93 1735.39 1919.51 1422.99Z" stroke="#D8D7DB" stroke-width="0.8" stroke-miterlimit="10"/>
<path d="M1924 1407.66C2175.91 1076.14 2256.42 713.395 2103.82 597.44C1951.22 481.484 1623.3 656.231 1371.39 987.747C1119.48 1319.26 1038.98 1682.01 1191.58 1797.97C1344.18 1913.92 1672.1 1739.17 1924 1407.66Z" stroke="#D8D7DB" stroke-width="0.8" stroke-miterlimit="10"/>
<path d="M1928.42 1392.33C2170.66 1041.71 2236.2 667.079 2074.8 555.573C1913.41 444.068 1586.2 637.91 1343.96 988.531C1101.72 1339.15 1036.18 1713.78 1197.58 1825.29C1358.97 1936.79 1686.18 1742.95 1928.42 1392.33Z" stroke="#D8D7DB" stroke-width="0.8" stroke-miterlimit="10"/>
<path d="M1932.9 1377.25C2165.52 1007.57 2216.15 621.088 2045.99 514.014C1875.83 406.94 1549.31 619.821 1316.69 989.497C1084.07 1359.17 1033.44 1745.66 1203.61 1852.73C1373.77 1959.8 1700.29 1746.92 1932.9 1377.25Z" stroke="#D8D7DB" stroke-width="0.8" stroke-miterlimit="10"/>
</g>
<g opacity="0.9">
<path d="M1404.27 43.4412C1418.76 -157.158 1077.43 -345.27 641.906 -376.718C206.377 -408.166 -158.431 -271.042 -172.916 -70.4432C-187.4 130.156 153.923 318.267 589.452 349.716C1024.98 381.164 1389.79 244.04 1404.27 43.4412Z" stroke="#D8D7DB" stroke-width="0.8" stroke-miterlimit="10"/>
<path d="M1375.38 1.65922C1381.07 -194.463 1040.44 -363.456 614.564 -375.798C188.691 -388.14 -161.155 -239.157 -166.839 -43.0353C-172.522 153.087 168.109 322.08 593.982 334.422C1019.85 346.764 1369.7 197.781 1375.38 1.65922Z" stroke="#D8D7DB" stroke-width="0.8" stroke-miterlimit="10"/>
<path d="M598.461 319.232C1014.7 312.475 1349.6 151.62 1346.49 -40.0486C1343.38 -231.717 1003.43 -381.618 587.194 -374.861C170.957 -368.104 -163.947 -207.249 -160.836 -15.5802C-157.725 176.088 182.224 325.989 598.461 319.232Z" stroke="#D8D7DB" stroke-width="0.8" stroke-miterlimit="10"/>
<path d="M602.988 304.049C1009.55 278.186 1329.47 105.424 1317.56 -81.824C1305.65 -269.073 966.411 -399.901 559.851 -374.037C153.291 -348.174 -166.634 -175.412 -154.723 11.8362C-142.811 199.085 196.428 329.913 602.988 304.049Z" stroke="#D8D7DB" stroke-width="0.8" stroke-miterlimit="10"/>
<path d="M607.346 288.805C1004.24 243.865 1309.21 59.2461 1288.51 -123.553C1267.82 -306.352 929.288 -418.108 532.391 -373.168C135.495 -328.228 -169.475 -143.609 -148.777 39.1895C-128.079 221.988 210.449 333.745 607.346 288.805Z" stroke="#D8D7DB" stroke-width="0.8" stroke-miterlimit="10"/>
<path d="M611.848 273.574C999.072 209.539 1289.07 13.0641 1259.58 -165.264C1230.09 -343.593 892.278 -436.246 505.055 -372.211C117.831 -308.176 -172.169 -111.702 -142.679 66.6268C-113.188 244.955 224.625 337.609 611.848 273.574Z" stroke="#D8D7DB" stroke-width="0.8" stroke-miterlimit="10"/>
<path d="M616.365 258.284C993.922 175.135 1268.95 -33.2327 1230.65 -207.117C1192.36 -381.002 855.245 -454.558 477.688 -371.408C100.132 -288.259 -174.895 -79.8917 -136.6 93.993C-98.3052 267.878 238.809 341.433 616.365 258.284Z" stroke="#D8D7DB" stroke-width="0.8" stroke-miterlimit="10"/>
<path d="M620.785 243.004C988.68 140.771 1248.75 -79.4428 1201.67 -248.857C1154.6 -418.27 818.195 -472.731 450.3 -370.497C82.4062 -268.263 -177.667 -48.0497 -130.589 121.364C-83.5104 290.778 252.891 345.238 620.785 243.004Z" stroke="#D8D7DB" stroke-width="0.8" stroke-miterlimit="10"/>
<path d="M625.344 227.567C983.583 106.171 1228.68 -125.964 1172.78 -290.919C1116.88 -455.875 781.156 -491.187 422.917 -369.79C64.6784 -248.394 -180.417 -16.2596 -124.518 148.696C-68.6194 313.652 267.105 348.964 625.344 227.567Z" stroke="#D8D7DB" stroke-width="0.8" stroke-miterlimit="10"/>
<path d="M629.756 212.435C978.323 71.9592 1208.45 -172.043 1143.76 -332.558C1079.07 -493.074 744.061 -509.319 395.495 -368.842C46.9283 -228.366 -183.199 15.6359 -118.51 176.151C-53.8203 336.667 281.19 352.912 629.756 212.435Z" stroke="#D8D7DB" stroke-width="0.8" stroke-miterlimit="10"/>
<path d="M634.197 197.195C973.106 37.6438 1188.28 -218.222 1114.81 -374.297C1041.33 -530.372 707.024 -527.555 368.114 -368.003C29.2038 -208.452 -185.972 47.4136 -112.496 203.489C-39.0191 359.564 295.286 356.746 634.197 197.195Z" stroke="#D8D7DB" stroke-width="0.8" stroke-miterlimit="10"/>
<path d="M638.705 181.833C967.931 3.15262 1168.12 -264.605 1085.83 -416.221C1003.54 -567.837 669.946 -545.896 340.72 -367.215C11.494 -188.534 -188.69 79.2237 -106.404 230.839C-24.1178 382.455 309.479 360.514 638.705 181.833Z" stroke="#D8D7DB" stroke-width="0.8" stroke-miterlimit="10"/>
<path d="M643.107 166.644C962.708 -31.1308 1147.97 -310.758 1056.9 -457.92C965.838 -605.083 632.926 -564.053 313.325 -366.278C-6.27638 -168.503 -191.54 111.125 -100.473 258.287C-9.40625 405.449 323.506 364.42 643.107 166.644Z" stroke="#D8D7DB" stroke-width="0.8" stroke-miterlimit="10"/>
<path d="M647.673 151.105C957.584 -65.8165 1127.85 -357.338 1027.98 -500.027C928.103 -642.716 595.906 -582.539 285.995 -365.617C-23.9167 -148.695 -194.185 142.827 -94.3103 285.516C5.56443 428.204 337.762 368.027 647.673 151.105Z" stroke="#D8D7DB" stroke-width="0.8" stroke-miterlimit="10"/>
<path d="M652.176 135.855C952.425 -100.164 1107.74 -403.557 999.071 -541.794C890.406 -680.031 558.916 -600.763 258.667 -364.745C-41.5823 -128.726 -196.892 174.668 -88.228 312.904C20.4364 451.141 351.926 371.873 652.176 135.855Z" stroke="#D8D7DB" stroke-width="0.8" stroke-miterlimit="10"/>
<path d="M656.552 120.561C947.139 -134.546 1087.5 -449.798 970.056 -583.575C852.613 -717.352 521.839 -618.995 231.253 -363.888C-59.3336 -108.781 -199.694 206.471 -82.2506 340.248C35.1927 474.025 365.966 375.668 656.552 120.561Z" stroke="#D8D7DB" stroke-width="0.8" stroke-miterlimit="10"/>
<path d="M661.039 105.188C941.941 -169.028 1067.32 -496.154 941.087 -625.467C814.851 -754.78 484.801 -637.313 203.899 -363.097C-77.0028 -88.8802 -202.385 238.245 -76.1489 367.559C50.0867 496.872 380.137 379.405 661.039 105.188Z" stroke="#D8D7DB" stroke-width="0.8" stroke-miterlimit="10"/>
<path d="M665.557 89.9859C936.794 -203.334 1047.2 -542.348 912.159 -667.223C777.117 -792.098 447.763 -655.547 176.526 -362.228C-94.7109 -68.9082 -205.119 270.106 -70.0764 394.981C64.9657 519.857 394.32 383.306 665.557 89.9859Z" stroke="#D8D7DB" stroke-width="0.8" stroke-miterlimit="10"/>
<path d="M669.912 74.76C931.492 -237.643 1026.97 -588.505 883.172 -708.911C739.372 -829.317 410.746 -673.673 149.166 -361.27C-112.415 -48.8665 -207.895 301.995 -64.0946 422.401C79.7056 542.807 408.332 387.163 669.912 74.76Z" stroke="#D8D7DB" stroke-width="0.8" stroke-miterlimit="10"/>
<path d="M674.402 59.4302C926.31 -272.086 1006.82 -634.833 854.215 -750.788C701.616 -866.744 373.697 -691.998 121.79 -360.482C-130.118 -28.966 -210.624 333.781 -58.0238 449.737C94.5759 565.692 422.494 390.946 674.402 59.4302Z" stroke="#D8D7DB" stroke-width="0.8" stroke-miterlimit="10"/>
<path d="M678.819 44.0987C921.058 -306.522 986.595 -681.15 825.2 -792.655C663.806 -904.16 336.596 -710.318 94.3572 -359.697C-147.882 -9.07569 -213.419 365.552 -52.0241 477.057C109.371 588.562 436.58 394.72 678.819 44.0987Z" stroke="#D8D7DB" stroke-width="0.8" stroke-miterlimit="10"/>
<path d="M683.302 29.0185C915.919 -340.657 966.548 -727.14 796.386 -834.214C626.224 -941.288 299.706 -728.407 67.0892 -358.731C-165.528 10.9452 -216.158 397.427 -45.9954 504.501C124.167 611.575 450.684 398.695 683.302 29.0185Z" stroke="#D8D7DB" stroke-width="0.8" stroke-miterlimit="10"/>
</g>
</g>
</svg>
