<svg width="360" height="1474" viewBox="0 0 360 1474" fill="none" xmlns="http://www.w3.org/2000/svg">
<rect y="0.184448" width="360" height="1473.82" fill="#F5F5F5"/>
<mask id="mask0_107_1572" style="mask-type:alpha" maskUnits="userSpaceOnUse" x="0" y="0" width="360" height="1474">
<rect y="0.184448" width="360" height="1473.82" fill="#F5F5F5"/>
</mask>
<g mask="url(#mask0_107_1572)">
<g opacity="0.9">
<path d="M1403.77 43.6244C1418.26 -156.975 1076.93 -345.086 641.406 -376.535C205.877 -407.983 -158.931 -270.859 -173.416 -70.26C-187.9 130.339 153.423 318.451 588.952 349.899C1024.48 381.347 1389.29 244.224 1403.77 43.6244Z" stroke="#D8D7DB" stroke-width="0.8" stroke-miterlimit="10"/>
<path d="M1374.88 1.84245C1380.57 -194.279 1039.94 -363.273 614.064 -375.615C188.191 -387.957 -161.655 -238.974 -167.339 -42.8521C-173.022 153.27 167.609 322.263 593.482 334.605C1019.35 346.947 1369.2 197.964 1374.88 1.84245Z" stroke="#D8D7DB" stroke-width="0.8" stroke-miterlimit="10"/>
<path d="M597.961 319.398C1014.2 312.642 1349.1 151.786 1345.99 -39.8825C1342.88 -231.551 1002.93 -381.452 586.694 -374.695C170.457 -367.938 -164.447 -207.083 -161.336 -15.4141C-158.225 176.255 181.724 326.155 597.961 319.398Z" stroke="#D8D7DB" stroke-width="0.8" stroke-miterlimit="10"/>
<path d="M602.488 304.217C1009.05 278.353 1328.97 105.592 1317.06 -81.6569C1305.15 -268.905 965.911 -399.734 559.351 -373.87C152.791 -348.007 -167.134 -175.245 -155.223 12.0033C-143.311 199.252 195.928 330.08 602.488 304.217Z" stroke="#D8D7DB" stroke-width="0.8" stroke-miterlimit="10"/>
<path d="M606.846 288.971C1003.74 244.031 1308.71 59.4122 1288.01 -123.387C1267.32 -306.186 928.788 -417.942 531.891 -373.002C134.995 -328.062 -169.975 -143.443 -149.277 39.3555C-128.579 222.154 209.949 333.911 606.846 288.971Z" stroke="#D8D7DB" stroke-width="0.8" stroke-miterlimit="10"/>
<path d="M611.348 273.74C998.572 209.705 1288.57 13.2303 1259.08 -165.098C1229.59 -343.427 891.778 -436.08 504.555 -372.045C117.331 -308.01 -172.669 -111.536 -143.179 66.793C-113.688 245.121 224.125 337.775 611.348 273.74Z" stroke="#D8D7DB" stroke-width="0.8" stroke-miterlimit="10"/>
<path d="M615.865 258.45C993.422 175.301 1268.45 -33.0667 1230.15 -206.951C1191.86 -380.836 854.745 -454.392 477.188 -371.242C99.6316 -288.093 -175.395 -79.7256 -137.1 94.1591C-98.8052 268.044 238.309 341.599 615.865 258.45Z" stroke="#D8D7DB" stroke-width="0.8" stroke-miterlimit="10"/>
<path d="M620.285 243.17C988.18 140.937 1248.25 -79.2767 1201.17 -248.69C1154.1 -418.104 817.695 -472.565 449.8 -370.331C81.9062 -268.097 -178.167 -47.8837 -131.089 121.53C-84.0104 290.944 252.391 345.404 620.285 243.17Z" stroke="#D8D7DB" stroke-width="0.8" stroke-miterlimit="10"/>
<path d="M624.844 227.733C983.083 106.337 1228.18 -125.797 1172.28 -290.753C1116.38 -455.709 780.656 -491.021 422.417 -369.624C64.1784 -248.228 -180.917 -16.0934 -125.018 148.862C-69.1194 313.818 266.605 349.13 624.844 227.733Z" stroke="#D8D7DB" stroke-width="0.8" stroke-miterlimit="10"/>
<path d="M629.256 212.602C977.823 72.126 1207.95 -171.876 1143.26 -332.391C1078.57 -492.907 743.561 -509.152 394.995 -368.675C46.4283 -228.199 -183.699 15.8028 -119.01 176.318C-54.3203 336.834 280.69 353.079 629.256 212.602Z" stroke="#D8D7DB" stroke-width="0.8" stroke-miterlimit="10"/>
<path d="M633.697 197.361C972.606 37.8099 1187.78 -218.056 1114.31 -374.131C1040.83 -530.206 706.524 -527.389 367.614 -367.837C28.7038 -208.286 -186.472 47.5797 -112.996 203.655C-39.5191 359.73 294.786 356.912 633.697 197.361Z" stroke="#D8D7DB" stroke-width="0.8" stroke-miterlimit="10"/>
<path d="M638.205 182C967.431 3.31876 1167.62 -264.439 1085.33 -416.055C1003.04 -567.67 669.446 -545.73 340.22 -367.049C10.994 -188.368 -189.19 79.3899 -106.904 231.005C-24.6178 382.621 308.979 360.68 638.205 182Z" stroke="#D8D7DB" stroke-width="0.8" stroke-miterlimit="10"/>
<path d="M642.607 166.812C962.208 -30.9634 1147.47 -310.591 1056.4 -457.753C965.338 -604.915 632.426 -563.886 312.825 -366.11C-6.77638 -168.335 -192.04 111.292 -100.973 258.454C-9.90625 405.617 323.006 364.587 642.607 166.812Z" stroke="#D8D7DB" stroke-width="0.8" stroke-miterlimit="10"/>
<path d="M647.173 151.288C957.084 -65.6332 1127.35 -357.155 1027.48 -499.844C927.603 -642.533 595.406 -582.355 285.495 -365.434C-24.4167 -148.512 -194.685 143.01 -94.8103 285.699C5.06443 428.388 337.262 368.21 647.173 151.288Z" stroke="#D8D7DB" stroke-width="0.8" stroke-miterlimit="10"/>
<path d="M651.676 136.038C951.925 -99.9803 1107.24 -403.374 998.571 -541.611C889.906 -679.847 558.416 -600.58 258.167 -364.561C-42.0823 -128.543 -197.392 174.851 -88.728 313.088C19.9364 451.324 351.426 372.057 651.676 136.038Z" stroke="#D8D7DB" stroke-width="0.8" stroke-miterlimit="10"/>
<path d="M656.052 120.744C946.639 -134.362 1087 -449.615 969.556 -583.392C852.113 -717.169 521.339 -618.812 230.753 -363.705C-59.8336 -108.598 -200.194 206.654 -82.7506 340.431C34.6927 474.208 365.466 375.851 656.052 120.744Z" stroke="#D8D7DB" stroke-width="0.8" stroke-miterlimit="10"/>
<path d="M660.539 105.371C941.441 -168.845 1066.82 -495.971 940.587 -625.284C814.351 -754.597 484.301 -637.13 203.399 -362.913C-77.5028 -88.697 -202.885 238.428 -76.6489 367.742C49.5867 497.055 379.637 379.588 660.539 105.371Z" stroke="#D8D7DB" stroke-width="0.8" stroke-miterlimit="10"/>
<path d="M665.057 90.1691C936.294 -203.15 1046.7 -542.164 911.659 -667.04C776.617 -791.915 447.263 -655.364 176.026 -362.045C-95.2109 -68.7249 -205.619 270.289 -70.5764 395.164C64.4657 520.04 393.82 383.489 665.057 90.1691Z" stroke="#D8D7DB" stroke-width="0.8" stroke-miterlimit="10"/>
<path d="M669.412 74.9432C930.992 -237.46 1026.47 -588.322 882.672 -708.728C738.872 -829.134 410.246 -673.49 148.666 -361.087C-112.915 -48.6833 -208.395 302.178 -64.5946 422.584C79.2056 542.991 407.832 387.346 669.412 74.9432Z" stroke="#D8D7DB" stroke-width="0.8" stroke-miterlimit="10"/>
<path d="M673.902 59.6134C925.81 -271.902 1006.32 -634.65 853.715 -750.605C701.116 -866.561 373.197 -691.814 121.29 -360.299C-130.618 -28.7827 -211.124 333.964 -58.5238 449.92C94.0759 565.875 421.994 391.129 673.902 59.6134Z" stroke="#D8D7DB" stroke-width="0.8" stroke-miterlimit="10"/>
<path d="M678.319 44.282C920.558 -306.339 986.095 -680.967 824.7 -792.472C663.306 -903.977 336.096 -710.135 93.8572 -359.514C-148.382 -8.89247 -213.919 365.735 -52.5241 477.24C108.871 588.745 436.08 394.903 678.319 44.282Z" stroke="#D8D7DB" stroke-width="0.8" stroke-miterlimit="10"/>
<path d="M682.802 29.2017C915.419 -340.474 966.048 -726.956 795.886 -834.03C625.724 -941.104 299.206 -728.224 66.5892 -358.548C-166.028 11.1284 -216.658 397.611 -46.4954 504.685C123.667 611.759 450.184 398.878 682.802 29.2017Z" stroke="#D8D7DB" stroke-width="0.8" stroke-miterlimit="10"/>
</g>
</g>
</svg>
