<svg width="120" height="120" viewBox="0 0 120 120" fill="none" xmlns="http://www.w3.org/2000/svg">
<path d="M62.7185 119.995H57.3204C56.9178 119.91 56.5053 119.937 56.1002 119.912C54.4075 119.805 52.7249 119.612 51.0472 119.365C48.2593 118.952 45.5165 118.335 42.8187 117.53C38.3107 116.184 34.0227 114.327 29.9473 111.974C26.0118 109.701 22.3839 107.008 19.0585 103.91C16.5157 101.542 14.2005 98.9643 12.1077 96.1888C8.42482 91.3006 5.5495 85.9798 3.49176 80.2164C2.18161 76.5508 1.24401 72.7927 0.661442 68.9421C0.328904 66.7293 0.0938773 64.509 0.0363708 62.2761C-0.0161352 60.2108 -0.0311369 58.143 0.126381 56.0752C0.243894 54.5324 0.393911 52.9972 0.608936 51.4669C1.01398 48.5865 1.63405 45.7536 2.46165 42.9681C4.97693 34.5068 9.15491 26.9632 14.9706 20.3296C17.1483 17.8443 19.5311 15.5689 22.0939 13.4811C26.7844 9.6605 31.935 6.61753 37.5406 4.35218C42.1612 2.48439 46.9417 1.2192 51.8823 0.546596C53.83 0.281555 55.7877 0.0815243 57.7504 0.0340169C60.1057 -0.0209915 62.4635 -0.0334935 64.8162 0.18654C66.2064 0.31656 67.5915 0.464083 68.9742 0.666614C71.762 1.07668 74.5048 1.69427 77.2026 2.4994C81.7206 3.8471 86.0186 5.70739 90.1016 8.06525C94.037 10.3406 97.6625 13.0335 100.988 16.1315C103.088 18.0893 105.033 20.1946 106.834 22.435C109.584 25.8605 111.929 29.5461 113.872 33.4842C115.992 37.7848 117.575 42.2755 118.612 46.9562C119.277 49.9592 119.727 52.9922 119.915 56.0677C119.94 56.4852 119.92 56.9053 120 57.3203V62.7187C119.987 62.8062 119.965 62.8962 119.965 62.9837C119.945 64.1414 119.83 65.2941 119.707 66.4442C119.515 68.2295 119.24 69.9998 118.89 71.7626C117.835 77.0709 116.092 82.1442 113.662 86.9799C111.156 91.9632 108.019 96.5114 104.243 100.622C101.968 103.102 99.5027 105.373 96.8474 107.438C92.2643 110.996 87.2713 113.834 81.8632 115.939C76.105 118.182 70.1443 119.522 63.9711 119.915C63.5561 119.942 63.1335 119.915 62.721 120L62.7185 119.995ZM60.0932 14.9813C47.7243 15.1864 37.0706 19.4295 28.3246 28.1133C19.4961 36.8772 15.2281 47.6239 15.0006 60.0208C15.1156 85.0346 35.1579 105.078 60.1057 105.015C84.8185 104.955 104.816 85.2522 104.978 60.0658C104.768 48.284 100.973 37.8623 92.8419 29.256C83.9734 19.8646 72.9497 15.2089 60.0907 14.9813H60.0932ZM3.06672 60.2358C3.10922 61.291 3.02921 62.5962 3.11672 63.9014C3.18173 64.854 3.27424 65.8066 3.38425 66.7518C3.59928 68.5796 3.95432 70.3899 4.29435 72.1976C4.58939 73.7554 5.09445 75.2631 5.50699 76.7933C5.77202 77.7735 6.21207 78.7011 6.50211 79.6713C6.81964 80.729 7.3422 81.6991 7.69974 82.7368C7.99227 83.5919 8.46233 84.377 8.84487 85.1971C9.32493 86.2348 9.88749 87.2349 10.4576 88.2276C11.0701 89.2928 11.7327 90.3304 12.3728 91.3806C12.4078 91.4406 12.4378 91.5206 12.5178 91.5131C12.7078 91.4956 12.9328 90.9555 12.8253 90.788C11.1776 88.2626 9.75497 85.6147 8.52983 82.8618C7.61473 80.8015 6.82714 78.6961 6.17207 76.5383C5.27697 73.5803 4.60689 70.5774 4.20434 67.5094C3.98432 65.8317 3.8443 64.1489 3.74929 62.4611C3.69679 61.5485 3.73179 60.6309 3.74179 59.7157C3.75179 58.8881 3.73429 58.0605 3.7868 57.2328C3.8343 56.4977 3.86431 55.7601 3.93431 55.0275C4.06183 53.6823 4.23435 52.3421 4.45187 51.0069C4.87442 48.409 5.48949 45.8561 6.26708 43.3457C7.01966 40.9153 7.93727 38.5475 9.02489 36.2496C10.0875 34.0043 11.2676 31.8239 12.6228 29.7386C13.6229 28.2009 14.6805 26.7081 15.8157 25.2679C16.8083 24.0077 17.8459 22.785 18.951 21.6248C19.8611 20.6722 20.7912 19.7396 21.7613 18.8444C22.6114 18.0593 23.474 17.2942 24.3691 16.5641C26.1143 15.1438 27.942 13.8311 29.8423 12.6235C31.94 11.2908 34.1227 10.1206 36.373 9.06791C38.6983 7.98274 41.0885 7.0726 43.5413 6.32999C46.4791 5.43985 49.4645 4.77725 52.5123 4.37719C54.19 4.15715 55.8727 4.01713 57.5604 3.92212C58.473 3.86961 59.3906 3.91462 60.3057 3.90961C61.4833 3.90461 62.656 3.93212 63.8311 4.02213C64.6137 4.08214 65.3988 4.13465 66.1789 4.22716C67.4715 4.38219 68.7592 4.56471 70.0418 4.80225C72.3146 5.22232 74.5573 5.7724 76.7601 6.46501C78.6628 7.0626 80.5255 7.76021 82.3557 8.56033C84.3209 9.42046 86.2387 10.3756 88.0939 11.4508C90.1641 12.6485 92.1468 13.9812 94.0496 15.4314C95.5722 16.5916 97.0399 17.8168 98.4225 19.137C100.145 20.7847 101.8 22.5 103.308 24.3553C104.331 25.6155 105.318 26.9032 106.236 28.2409C107.381 29.9086 108.446 31.6264 109.399 33.4117C110.351 35.1969 111.229 37.0197 111.992 38.895C112.847 40.9903 113.582 43.1282 114.169 45.3135C114.642 47.0713 115.052 48.8465 115.349 50.6443C115.542 51.822 115.695 53.0047 115.835 54.1874C115.977 55.385 116.042 56.5852 116.112 57.7854C116.165 58.6981 116.117 59.6157 116.125 60.5308C116.14 61.9486 116.065 63.3588 115.955 64.7715C115.875 65.7841 115.765 66.7918 115.63 67.7945C115.389 69.5897 115.049 71.3675 114.622 73.1278C114.079 75.3756 113.417 77.586 112.602 79.7538C112.097 81.0965 111.552 82.4217 110.941 83.7219C110.274 85.1496 109.574 86.5599 108.781 87.9201C108.296 88.7552 107.789 89.5778 107.291 90.4054C107.239 90.4905 107.164 90.5705 107.249 90.6755C107.374 90.8305 107.506 90.9805 107.631 91.1331C107.714 91.2356 107.749 91.2131 107.824 91.1055C108.446 90.2279 108.969 89.2928 109.506 88.3651C110.176 87.2024 110.829 86.0298 111.369 84.7946C111.742 83.9419 112.164 83.1093 112.534 82.2517C113.144 80.8365 113.627 79.3787 114.169 77.9385C114.564 76.8884 114.782 75.7882 115.112 74.7205C115.437 73.6729 115.685 72.6027 115.89 71.525C116.135 70.2373 116.34 68.9396 116.532 67.6444C116.667 66.7393 116.775 65.8317 116.85 64.919C116.915 64.1389 116.975 63.3563 116.97 62.5662C116.95 60.4408 117.03 58.3155 116.922 56.1927C116.862 55.01 116.717 53.8373 116.57 52.6621C116.365 51.0319 116.037 49.4216 115.745 47.8064C115.469 46.2861 114.954 44.8209 114.572 43.3232C114.272 42.1505 113.764 41.0428 113.404 39.8877C113.134 39.0275 112.709 38.2224 112.389 37.3773C112.034 36.4396 111.559 35.5445 111.111 34.6494C110.529 33.4842 109.916 32.334 109.246 31.2138C108.666 30.2437 108.081 29.2735 107.451 28.3359C106.859 27.4557 106.241 26.5931 105.606 25.738C105.078 25.0279 104.523 24.3428 103.966 23.6627C103.536 23.1376 103.093 22.6175 102.631 22.1124C101.855 21.2698 101.098 20.4097 100.278 19.6095C99.2051 18.5594 98.1275 17.5142 96.9524 16.5766C96.4723 16.194 96.0523 15.7439 95.5397 15.3964C95.1072 15.1013 94.7271 14.7263 94.2996 14.4212C93.1345 13.5911 91.9693 12.761 90.7667 11.9834C89.8666 11.4008 88.9465 10.8507 88.0139 10.3281C86.8787 9.69051 85.7436 9.04791 84.541 8.53283C83.7459 8.19277 82.9858 7.77771 82.1732 7.47266C81.4181 7.19012 80.7005 6.80256 79.938 6.55752C78.5278 6.10495 77.1551 5.53736 75.7075 5.19231C74.2198 4.83726 72.7621 4.36718 71.2445 4.11465C69.4318 3.8121 67.6291 3.44954 65.7938 3.28202C64.7737 3.1895 63.7561 3.05698 62.731 3.05698C60.7708 3.05698 58.813 3.05448 56.8528 3.05948C56.4753 3.05948 56.0952 3.08449 55.7202 3.12449C54.5551 3.24951 53.3874 3.36953 52.2248 3.52455C50.9322 3.69708 49.657 3.96212 48.3744 4.17716C46.7867 4.4447 45.244 4.93727 43.6913 5.36984C42.5237 5.69489 41.3786 6.10745 40.2359 6.52002C39.3108 6.85507 38.3982 7.22763 37.4956 7.62019C36.4455 8.07776 35.4004 8.54783 34.3803 9.06291C33.8227 9.34545 33.2851 9.673 32.7176 9.94054C32.0325 10.2631 31.4149 10.6982 30.7524 11.0607C30.0323 11.4508 29.3497 11.9234 28.6571 12.3684C28.2296 12.641 27.842 12.976 27.4145 13.2461C26.2719 13.9712 25.2242 14.8263 24.1641 15.6614C23.624 16.0865 23.1065 16.5491 22.5864 17.0066C21.6038 17.8668 20.6487 18.7569 19.7161 19.6695C19.0835 20.2896 18.501 20.9597 17.8909 21.6023C17.2358 22.2924 16.6108 23.0126 16.0182 23.7527C15.4931 24.4078 14.9581 25.0579 14.4555 25.738C13.8229 26.5931 13.2104 27.4607 12.6078 28.3334C11.8652 29.411 11.1851 30.5337 10.5426 31.6739C9.88999 32.8341 9.22741 33.9918 8.69485 35.2169C8.31981 36.0796 7.89226 36.9197 7.51722 37.7873C6.90965 39.1926 6.4271 40.6403 5.89204 42.0705C5.537 43.0181 5.34447 44.0108 5.04194 44.9709C4.53438 46.5912 4.21435 48.2539 3.91931 49.9192C3.66678 51.3369 3.43426 52.7596 3.29674 54.1974C3.20923 55.1175 3.09672 56.0377 3.07672 56.9628C3.05421 57.9704 3.07172 58.9781 3.07172 60.2358H3.06672ZM91.5168 107.691C90.9267 106.75 90.3866 105.878 89.8316 105.015C89.6916 104.798 89.6766 104.61 89.7841 104.375C90.1916 103.475 90.5842 102.567 90.9767 101.662C91.0067 101.595 91.0842 101.512 91.0217 101.445C90.9617 101.38 90.8717 101.44 90.7967 101.46C89.8516 101.707 88.904 101.945 87.9639 102.207C87.7063 102.28 87.5388 102.22 87.3488 102.047C86.6462 101.412 85.9261 100.792 85.2111 100.169C85.156 100.122 85.1035 100.027 85.0135 100.077C84.9535 100.109 84.9435 100.194 84.9385 100.264C84.8585 101.247 84.771 102.227 84.6985 103.212C84.6835 103.412 84.621 103.542 84.4435 103.642C83.6209 104.115 82.8033 104.598 81.9882 105.078C81.8832 105.14 81.7506 105.173 81.6906 105.32C82.6357 105.693 83.5559 106.068 84.4885 106.415C84.816 106.538 85.001 106.705 85.066 107.076C85.2411 108.053 85.4661 109.021 85.6736 109.996C85.8211 109.968 85.8686 109.861 85.9361 109.781C86.5437 109.053 87.1513 108.323 87.7488 107.588C87.8764 107.431 88.0114 107.358 88.2089 107.376C88.7739 107.431 89.339 107.478 89.9041 107.533C90.4166 107.581 90.9292 107.633 91.5193 107.691H91.5168ZM37.8732 105.115C37.7057 105.013 37.6031 104.95 37.5031 104.89C36.6855 104.41 35.8679 103.93 35.0479 103.452C34.9228 103.38 34.8228 103.3 34.8103 103.135C34.7328 102.142 34.6478 101.15 34.5678 100.157C34.5603 100.057 34.5753 99.9344 34.4778 99.8894C34.3853 99.8494 34.3228 99.9594 34.2578 100.014C33.5427 100.637 32.8276 101.26 32.12 101.892C31.955 102.04 31.8075 102.095 31.5825 102.032C30.6298 101.772 29.6747 101.53 28.7196 101.282C28.6371 101.26 28.5371 101.187 28.4721 101.272C28.4246 101.337 28.4996 101.422 28.5296 101.492C28.9247 102.397 29.3197 103.302 29.7247 104.205C29.8248 104.43 29.8148 104.613 29.6772 104.82C29.3847 105.26 29.1097 105.713 28.8296 106.16C28.5621 106.588 28.2921 107.018 28.0095 107.468C28.2671 107.533 28.4796 107.446 28.6921 107.431C29.4747 107.368 30.2573 107.278 31.0399 107.211C31.2774 107.191 31.5274 107.121 31.7275 107.371C32.225 107.996 32.7351 108.611 33.2526 109.218C33.4277 109.423 33.5652 109.671 33.8252 109.833C34.0477 108.781 34.2728 107.761 34.4753 106.735C34.5203 106.508 34.6378 106.385 34.8353 106.308C35.3554 106.105 35.8754 105.903 36.393 105.7C36.8631 105.515 37.3331 105.328 37.8732 105.115ZM65.1263 110.884C64.9537 110.814 64.8312 110.794 64.7037 110.776C63.7661 110.644 62.831 110.501 61.8934 110.376C61.6934 110.349 61.5984 110.249 61.5184 110.088C61.0858 109.233 60.6458 108.381 60.2057 107.531C60.1607 107.446 60.1407 107.311 60.0307 107.308C59.9132 107.303 59.9007 107.443 59.8582 107.528C59.4331 108.376 59.0081 109.226 58.588 110.076C58.503 110.248 58.403 110.356 58.1905 110.381C57.4779 110.461 56.7678 110.566 56.0577 110.664C55.6927 110.714 55.3252 110.764 54.9601 110.814C54.9476 110.844 54.9351 110.874 54.9201 110.904C54.9801 110.941 55.0476 110.969 55.0976 111.016C55.8102 111.701 56.5153 112.396 57.2379 113.071C57.4454 113.266 57.5029 113.459 57.4504 113.732C57.2804 114.642 57.1254 115.557 56.9678 116.469C56.9528 116.554 56.8728 116.657 56.9628 116.719C57.0453 116.78 57.1304 116.687 57.2054 116.647C58.043 116.202 58.8856 115.764 59.7157 115.307C59.9532 115.177 60.1407 115.177 60.3807 115.307C61.2108 115.767 62.0509 116.204 62.891 116.649C62.966 116.689 63.0485 116.785 63.1335 116.717C63.2211 116.649 63.1385 116.549 63.1235 116.464C62.956 115.512 62.796 114.559 62.611 113.609C62.5685 113.391 62.616 113.251 62.771 113.109C63.3636 112.559 63.9486 111.999 64.5387 111.444C64.7262 111.269 64.9112 111.091 65.1263 110.889V110.884ZM18.636 27.6808C18.6535 27.6633 18.6735 27.6458 18.691 27.6283C18.726 27.6408 18.7635 27.6483 18.7935 27.6683C19.4761 28.1684 20.1612 28.6634 20.8387 29.1685C21.3313 29.5361 21.3338 29.5461 20.9888 30.0786C20.8387 30.3087 21.0563 30.3437 21.1588 30.4412C21.2613 30.5387 21.3663 30.6137 21.4813 30.4562C21.9214 29.8536 22.3639 29.251 22.804 28.6509C22.904 28.5159 22.884 28.4209 22.7239 28.3459C22.5839 28.2809 22.4639 28.0708 22.3014 28.2984C22.0114 28.7034 21.9964 28.7834 21.4838 28.3934C21.4288 28.3509 21.3663 28.3159 21.3113 28.2759C20.5962 27.7533 19.8811 27.2332 19.166 26.7106C18.9835 26.5781 18.931 26.4206 19.0785 26.2281C19.126 26.1655 19.1635 26.0905 19.216 26.033C19.3211 25.918 19.3286 25.803 19.181 25.7455C19.046 25.693 18.9385 25.3979 18.7435 25.6605C18.371 26.163 18.0059 26.6731 17.6309 27.1757C17.5359 27.3032 17.5609 27.4057 17.6409 27.5283C17.9934 28.0708 18.341 28.6159 18.6885 29.161C18.866 29.4385 19.041 29.7161 19.2185 29.9911C19.3086 30.1287 19.2461 30.1737 19.111 30.1537C19.0235 30.1412 18.941 30.1012 18.8535 30.0736C18.0159 29.8136 17.1808 29.5561 16.3457 29.2935C16.1932 29.246 16.0782 29.2635 15.9807 29.3985C15.6256 29.8911 15.2731 30.3862 14.9056 30.8688C14.763 31.0563 14.778 31.1813 14.9681 31.3138C15.1481 31.4389 15.2631 31.4414 15.4031 31.2363C15.6206 30.9113 15.7056 30.9038 16.0282 31.1363C16.8008 31.6964 17.5709 32.264 18.3359 32.8341C18.726 33.1241 18.726 33.1491 18.4635 33.5467C18.4185 33.6142 18.3134 33.6592 18.3685 33.7742C18.496 34.0418 18.821 34.0793 18.996 33.8442C19.3336 33.3892 19.6636 32.9266 20.0111 32.479C20.1762 32.2665 20.1612 32.1415 19.9286 31.9839C19.7011 31.8289 19.6211 31.9539 19.5061 32.1015C19.2461 32.439 19.1985 32.4465 18.856 32.2015C18.4285 31.8939 18.0084 31.5739 17.5834 31.2613C17.2408 31.0113 16.8783 30.7888 16.5682 30.4787C16.7008 30.3837 16.8008 30.4587 16.8983 30.4887C18.0509 30.8388 19.201 31.1938 20.3537 31.5414C20.4762 31.5789 20.6062 31.6689 20.7237 31.4939C20.8362 31.3263 20.9112 31.1888 20.7737 30.9863C20.4587 30.5262 20.1687 30.0486 19.8661 29.5811C19.4561 28.946 19.046 28.3134 18.6335 27.6783L18.636 27.6808ZM45.5015 12.956C45.179 12.956 45.144 12.7085 45.079 12.5309C44.759 11.6633 44.4514 10.7882 44.1464 9.91554C43.9839 9.44797 43.9889 9.42296 44.4714 9.25044C44.7039 9.16542 44.6714 9.0429 44.6139 8.86038C44.5539 8.66535 44.4764 8.60534 44.2714 8.68285C43.5813 8.94289 42.8887 9.18793 42.1937 9.43297C42.0336 9.49047 41.9936 9.57049 42.0386 9.74801C42.1062 10.0256 42.2312 10.0656 42.4837 9.97055C42.9087 9.81052 42.9487 9.83803 43.1213 10.2606C43.2263 10.5181 43.3188 10.7807 43.4163 11.0432C43.4713 11.1882 43.4388 11.2833 43.2763 11.3358C42.9162 11.4533 42.5637 11.5858 42.2037 11.7083C41.4336 11.9684 41.4386 11.9659 41.1685 11.2057C40.946 10.5806 40.8785 10.5256 41.5436 10.2931C41.7961 10.2056 41.6411 10.0381 41.6161 9.89804C41.5861 9.73551 41.4936 9.683 41.3336 9.74051C40.631 9.99305 39.9309 10.2506 39.2258 10.4931C38.9758 10.5806 39.0333 10.7207 39.0883 10.9107C39.1533 11.1407 39.2683 11.1182 39.4459 11.0582C39.8434 10.9257 39.9409 10.9832 40.0859 11.3858C40.406 12.2759 40.731 13.1635 41.0535 14.0537C41.1835 14.4112 41.1235 14.5613 40.761 14.6863C40.561 14.7538 40.481 14.8338 40.566 15.0488C40.6485 15.2614 40.7435 15.3439 40.986 15.2489C41.6336 14.9938 42.2912 14.7563 42.9487 14.5313C43.1738 14.4537 43.1988 14.3487 43.1413 14.1337C43.0563 13.8086 42.8662 13.9262 42.6812 13.9887C42.2787 14.1212 42.2087 14.0887 42.0661 13.6961C41.9711 13.4336 41.8886 13.166 41.7761 12.911C41.6636 12.656 41.7511 12.5234 41.9961 12.4409C42.5062 12.2684 43.0163 12.0984 43.5188 11.9083C43.6813 11.8458 43.7288 11.9158 43.7713 12.0434C43.8638 12.3059 43.9589 12.5684 44.0489 12.831C44.2439 13.3911 44.2439 13.3961 43.6863 13.6311C43.5238 13.6986 43.4638 13.7836 43.5538 13.9487C43.6288 14.0837 43.6213 14.3012 43.8914 14.1937C44.2689 14.0437 44.6614 13.9237 45.0465 13.7861C45.374 13.6686 45.6991 13.5436 46.0266 13.4236C46.1816 13.3661 46.1991 13.2811 46.1491 13.1235C46.0691 12.8735 45.9516 12.7735 45.6966 12.901C45.6266 12.936 45.5465 12.946 45.5015 12.9585V12.956ZM109.596 50.7693C109.649 50.9544 109.519 51.0019 109.389 51.0294C109.136 51.0844 108.881 51.1219 108.626 51.1719C108.036 51.2869 107.991 51.2669 107.861 50.6793C107.816 50.4718 107.681 50.4768 107.546 50.5168C107.426 50.5518 107.224 50.5243 107.276 50.7768C107.431 51.517 107.576 52.2571 107.714 53.0022C107.749 53.1897 107.849 53.2197 108.009 53.2097C108.309 53.1922 108.311 53.0047 108.276 52.7771C108.224 52.4121 108.284 52.3271 108.621 52.2596C109.569 52.0745 110.519 51.9095 111.462 51.7045C111.932 51.602 112.002 51.682 112.087 52.1245C112.139 52.3971 112.282 52.3346 112.449 52.3171C112.644 52.2971 112.702 52.2146 112.662 52.0195C112.512 51.2894 112.372 50.5568 112.232 49.8242C112.189 49.5967 112.052 49.6167 111.874 49.6517C111.694 49.6867 111.589 49.7367 111.659 49.9442C111.684 50.0192 111.667 50.1042 111.687 50.1817C111.749 50.4343 111.627 50.5618 111.402 50.6143C111.101 50.6818 110.796 50.7368 110.496 50.8018C110.311 50.8418 110.229 50.7768 110.194 50.5868C110.106 50.1067 109.999 49.6317 109.904 49.1541C109.821 48.7365 109.824 48.7365 110.259 48.644C110.434 48.6065 110.609 48.5665 110.784 48.534C111.304 48.439 111.342 48.454 111.449 48.9666C111.507 49.2466 111.659 49.2441 111.879 49.1966C112.129 49.1416 112.059 48.9766 112.029 48.824C111.899 48.1614 111.759 47.4988 111.642 46.8337C111.604 46.6162 111.567 46.4787 111.292 46.5362C111.034 46.5887 111.001 46.7137 111.056 46.9437C111.136 47.2763 111.059 47.3763 110.729 47.4438C109.794 47.6314 108.856 47.8164 107.921 48.0064C107.441 48.1039 107.399 48.0839 107.249 47.6113C107.191 47.4288 107.101 47.3638 106.894 47.4213C106.698 47.4763 106.623 47.5413 106.668 47.7489C106.811 48.419 106.939 49.0941 107.071 49.7667C107.136 50.0942 107.196 50.1167 107.519 50.0467C107.816 49.9817 107.671 49.7917 107.646 49.6517C107.599 49.3966 107.606 49.1841 107.911 49.1166C108.279 49.0366 108.651 48.9691 109.021 48.8915C109.156 48.864 109.216 48.9015 109.244 49.0441C109.356 49.6192 109.479 50.1917 109.599 50.7668L109.596 50.7693ZM7.75975 68.8296C7.75225 68.4071 7.78975 68.347 8.2473 68.287C9.1349 68.1695 10.0225 68.0645 10.9126 67.9745C11.4552 67.9195 11.4577 67.937 11.6052 68.4421C11.6427 68.5671 11.6852 68.6446 11.8477 68.6371C12.1627 68.6221 12.2328 68.5571 12.1903 68.2345C12.1753 68.117 12.1502 67.9995 12.1377 67.882C12.0727 67.3294 12.0177 66.7743 11.9402 66.2242C11.9227 66.0942 11.9152 65.8942 11.6852 65.9342C11.4927 65.9667 11.2701 65.9767 11.3402 66.2842C11.3602 66.3692 11.3377 66.4642 11.3402 66.5543C11.3502 66.7418 11.2376 66.8393 11.0776 66.8643C10.7251 66.9193 10.3675 66.9518 10.0125 66.9993C9.80998 67.0243 9.70997 66.9193 9.68747 66.7393C9.61996 66.2067 9.55995 65.6741 9.49745 65.139C9.47494 64.939 9.55495 64.854 9.76748 64.849C10.005 64.8465 10.245 64.814 10.4801 64.774C11.0551 64.674 11.1451 64.7265 11.2201 65.2991C11.2451 65.4941 11.3577 65.5391 11.5102 65.5016C11.6477 65.4666 11.8527 65.4841 11.8202 65.2316C11.7227 64.4739 11.6227 63.7138 11.5402 62.9537C11.5127 62.7012 11.3652 62.7762 11.2201 62.7937C11.0676 62.8112 10.8876 62.7987 10.9476 63.0337C11.0526 63.4463 11.0326 63.6338 10.4 63.7013C9.63996 63.7813 8.88238 63.8864 8.12229 63.9814C7.91477 64.0064 7.70724 64.0464 7.49972 64.0489C7.13968 64.0489 7.13968 63.7413 7.11217 63.5113C7.06967 63.1712 6.84214 63.3713 6.70213 63.3463C6.52711 63.3163 6.52461 63.4388 6.54211 63.5788C6.62962 64.3289 6.70963 65.0815 6.79464 65.8317C6.81464 66.0017 6.92465 66.0692 7.09217 66.0467C7.3722 66.0092 7.42971 65.9167 7.3697 65.6116C7.3147 65.3241 7.41221 65.1491 7.68224 65.1065C8.00478 65.054 8.33231 65.0215 8.65735 64.984C8.77986 64.969 8.86737 65.0015 8.88488 65.1516C8.95238 65.7441 9.02739 66.3367 9.1049 66.9268C9.1224 67.0618 9.0674 67.1043 8.94738 67.1194C8.67235 67.1544 8.39732 67.2094 8.11979 67.2344C7.62723 67.2794 7.58223 67.2369 7.52222 66.7343C7.50472 66.5793 7.45721 66.4392 7.27219 66.4743C7.09967 66.5068 6.86965 66.5043 6.90965 66.7968C7.01216 67.5344 7.11217 68.272 7.20219 69.0121C7.21969 69.1422 7.26969 69.1722 7.39221 69.1747C7.75225 69.1847 7.76725 69.1747 7.75975 68.8271V68.8296ZM10.6501 41.873C10.7601 41.8405 10.7951 41.8255 10.8326 41.818C12.0852 41.5979 13.3354 41.3554 14.5905 41.1679C15.0906 41.0928 15.4031 40.9228 15.5306 40.4027C15.6256 40.0177 15.6681 40.0327 15.2831 39.8802C14.198 39.4551 13.1154 39.03 12.0327 38.6C11.5727 38.4174 11.5627 38.4099 11.7127 37.9299C11.7902 37.6823 11.6427 37.6548 11.4752 37.5873C11.3001 37.5173 11.2176 37.5198 11.1451 37.7248C10.9351 38.3049 10.7126 38.8825 10.4651 39.4476C10.365 39.6751 10.4226 39.7526 10.6276 39.8527C10.9426 40.0052 10.9776 39.7751 11.0526 39.5876C11.1976 39.2276 11.2776 39.1901 11.6352 39.3301C12.2378 39.5651 12.8428 39.7926 13.4429 40.0377C13.5804 40.0952 13.7529 40.1127 13.8604 40.2727C13.7504 40.3052 13.6579 40.3452 13.5604 40.3627C12.4053 40.5653 11.2501 40.7678 10.095 40.9578C9.93249 40.9853 9.84248 41.0453 9.78498 41.1879C9.57245 41.7354 9.35743 42.283 9.1399 42.8281C9.0899 42.9556 9.1149 43.0256 9.24742 43.0832C9.59246 43.2332 9.60746 43.2357 9.75747 42.8656C9.85999 42.6081 10.01 42.5031 10.2875 42.6206C10.7176 42.8031 11.1551 42.9706 11.5902 43.1407C12.0802 43.3332 12.5753 43.5182 13.0654 43.7157C13.4354 43.8658 13.4729 43.9558 13.3479 44.3233C13.3329 44.3708 13.3254 44.4234 13.3004 44.4659C13.1579 44.7009 13.3604 44.7309 13.4954 44.7909C13.6429 44.8584 13.7629 44.8834 13.8404 44.6684C14.0605 44.0708 14.3005 43.4807 14.548 42.8931C14.653 42.6431 14.6055 42.5331 14.338 42.4406C14.1155 42.363 14.083 42.4756 14.0205 42.6181C13.7954 43.1282 13.7929 43.1257 13.2729 42.9206C12.8853 42.7656 12.4928 42.6206 12.1027 42.4681C11.6352 42.283 11.1701 42.093 10.6426 41.878L10.6501 41.873ZM111.567 66.8468C111.472 67.0143 111.339 67.0493 111.224 67.0968C110.146 67.5394 109.081 68.012 107.984 68.4021C107.484 68.5796 107.214 68.8321 107.206 69.3572C107.206 69.3772 107.196 69.3947 107.194 69.4147C107.169 69.6147 107.194 69.7448 107.451 69.7848C108.639 69.9648 109.824 70.1723 111.009 70.3673C111.504 70.4474 111.552 70.4924 111.479 70.9849C111.437 71.275 111.652 71.185 111.777 71.2325C111.934 71.2925 112.027 71.2425 112.054 71.075C112.154 70.4574 112.259 69.8398 112.352 69.2222C112.372 69.0797 112.439 68.8871 112.177 68.8621C111.974 68.8421 111.814 68.8021 111.774 69.1147C111.714 69.5822 111.564 69.6522 111.091 69.5672C110.876 69.5297 110.661 69.4972 110.444 69.4597C109.921 69.3722 109.399 69.2847 108.834 69.1897C108.974 69.0246 109.124 68.9971 109.254 68.9421C110.276 68.5221 111.299 68.1095 112.322 67.6894C112.459 67.6344 112.614 67.5819 112.642 67.4069C112.729 66.8368 112.804 66.2667 112.899 65.6991C112.932 65.4991 112.894 65.3966 112.677 65.3816C112.482 65.3666 112.344 65.3491 112.324 65.6316C112.294 66.0417 112.147 66.1467 111.827 66.0942C110.916 65.9417 110.004 65.7866 109.094 65.6316C108.484 65.5291 108.479 65.5266 108.521 64.914C108.531 64.7615 108.534 64.654 108.341 64.664C108.186 64.6715 107.989 64.519 107.944 64.839C107.849 65.5066 107.724 66.1717 107.609 66.8368C107.571 67.0543 107.736 67.0818 107.879 67.1219C108.034 67.1644 108.159 67.1218 108.204 66.9518C108.231 66.8468 108.251 66.7393 108.274 66.6318C108.311 66.4392 108.429 66.3642 108.616 66.3942C109.586 66.5468 110.556 66.6993 111.562 66.8568L111.567 66.8468ZM95.8523 22.0649C95.9398 22.1924 95.8798 22.2849 95.8573 22.38C95.5747 23.5301 95.2922 24.6778 95.0122 25.828C94.8296 26.5781 94.8396 26.5706 95.3697 27.1132C95.5372 27.2832 95.6372 27.2832 95.8022 27.1132C96.6073 26.2931 97.4224 25.4854 98.235 24.6728C98.6701 24.2377 98.6726 24.2327 99.1951 24.5778C99.3852 24.7028 99.4402 24.5278 99.5352 24.4478C99.6277 24.3703 99.7277 24.2828 99.5977 24.1527C99.1176 23.6727 98.6376 23.1926 98.1575 22.7125C98.0625 22.615 97.9775 22.6225 97.8725 22.71C97.6 22.93 97.5949 22.9651 97.855 23.2351C98.135 23.5276 98.135 23.6477 97.8525 23.9327C97.3674 24.4203 96.8799 24.9079 96.3898 25.3929C96.3223 25.4604 96.2673 25.5555 96.1523 25.5529C96.0748 25.4554 96.1348 25.3629 96.1573 25.2679C96.4273 24.1552 96.6948 23.0426 96.9724 21.9349C97.0274 21.7099 97.0124 21.5423 96.8324 21.3723C96.4523 21.0173 96.0898 20.6472 95.7297 20.2721C95.5897 20.1271 95.4947 20.1121 95.3397 20.2621C95.1647 20.4322 95.1497 20.5422 95.3347 20.7197C95.6322 21.0022 95.6222 21.1298 95.3397 21.4123C94.6921 22.0624 94.0396 22.7125 93.3895 23.3626C92.9644 23.7877 92.9544 23.7977 92.5444 23.3826C92.3669 23.2026 92.2719 23.2801 92.1318 23.4151C91.9843 23.5551 91.9668 23.6552 92.1243 23.8052C92.5769 24.2427 93.0169 24.6928 93.462 25.1379C93.712 25.3879 93.737 25.3804 93.9645 25.1179C94.1646 24.8878 93.9345 24.8003 93.8295 24.6853C93.557 24.3903 93.5495 24.3353 93.832 24.0502C94.3396 23.5401 94.8471 23.0301 95.3572 22.525C95.5122 22.3725 95.6447 22.1949 95.8548 22.0724L95.8523 22.0649ZM9.31742 50.1967C8.36982 50.2418 7.64974 50.5818 7.25469 51.4644C7.07717 51.862 6.99466 52.2746 6.93965 52.6996C6.83464 53.4973 6.71213 54.2924 6.61212 55.0875C6.59462 55.2225 6.52461 55.4126 6.79964 55.4401C7.02716 55.4601 7.19468 55.4501 7.19968 55.1725C7.20469 54.825 7.39721 54.7299 7.70724 54.7725C7.80475 54.785 7.90726 54.78 8.00478 54.7925C8.83987 54.905 9.67747 55.02 10.5126 55.135C10.9651 55.1975 11.1426 55.3025 11.0051 55.7601C10.9551 55.9276 11.0251 56.0426 11.2126 56.0301C11.3627 56.0201 11.5827 56.1602 11.6052 55.8351C11.6302 55.4601 11.7102 55.0875 11.7502 54.7124C11.8352 53.8773 12.0702 53.0547 11.9602 52.2021C11.8877 51.642 11.6827 51.1594 11.2226 50.7918C10.6501 50.3368 9.9725 50.2668 9.32242 50.1967H9.31742ZM55.7027 6.47251C54.7826 6.48001 54.055 6.64754 53.4724 7.19762C52.7099 7.91523 52.5523 8.80787 52.7574 9.80052C52.8999 10.4781 53.2424 11.0182 53.8275 11.3883C54.5301 11.8333 55.2951 11.8958 56.0952 11.7408C56.6478 11.6333 57.1529 11.4158 57.5379 11.0107C58.4355 10.0656 58.4605 8.61534 57.7904 7.58518C57.2779 6.79756 56.4903 6.47751 55.7027 6.47001V6.47251ZM108.456 71.5475C107.951 71.555 107.806 71.605 107.519 71.7101C106.286 72.1551 105.698 73.8204 105.848 74.9181C106.081 76.6208 107.921 77.3584 109.219 77.0409C110.914 76.6258 111.589 74.4655 111.049 73.1503C110.576 72.0001 109.624 71.585 108.454 71.55L108.456 71.5475ZM8.97239 62.1536C9.89499 62.2186 10.7226 61.7785 11.1676 61.1209C11.5752 60.5158 11.6777 59.8407 11.6602 59.1281C11.6327 57.9729 10.8426 56.9578 9.71997 56.7103C8.69485 56.4852 7.74475 56.6352 7.00716 57.4504C6.39709 58.128 6.25708 58.9456 6.34959 59.8432C6.50211 61.311 7.66474 62.2261 8.97239 62.1561V62.1536ZM70.3194 12.736C71.0719 12.771 71.7245 12.5284 72.2321 11.9809C72.8721 11.2908 73.0397 10.4331 72.9297 9.53298C72.8571 8.95789 72.5546 8.47782 72.0996 8.09276C71.632 7.6977 71.0919 7.52017 70.4994 7.42266C69.3568 7.23263 68.3891 7.62269 67.7816 8.60534C67.2715 9.43046 67.194 10.7082 67.8216 11.5708C68.4391 12.4209 69.3142 12.711 70.3144 12.736H70.3194ZM48.8444 12.7885C49.332 12.8335 49.8195 12.6935 50.2871 12.4884C51.3847 12.0034 51.9448 10.8407 51.7022 9.62049C51.5972 9.09041 51.4097 8.60034 51.0297 8.21278C50.3371 7.50517 49.482 7.32014 48.5294 7.50017C47.1192 7.76521 46.1216 8.73536 46.1841 10.1756C46.2491 11.7008 47.2942 12.861 48.8419 12.7885H48.8444ZM99.6452 87.9126C99.5852 88.5577 100.835 89.4403 101.898 88.8077C102.293 88.5727 102.593 88.2476 102.926 87.9476C103.191 87.7075 103.426 87.4275 103.761 87.28C104.153 87.1074 104.613 87.4375 104.531 87.845C104.451 88.2426 104.258 88.5877 103.921 88.8402C103.443 89.1953 102.926 89.2103 102.388 89.0227C102.098 88.9227 102.093 89.1878 101.985 89.3128C101.848 89.4753 102.015 89.5428 102.113 89.6078C102.468 89.8454 102.831 90.0729 103.193 90.3029C103.306 90.3729 103.418 90.523 103.558 90.3929C103.691 90.2704 103.791 90.1079 103.691 89.9129C103.613 89.7628 103.653 89.6878 103.811 89.6253C104.483 89.3503 104.896 88.8352 105.116 88.1576C105.346 87.445 105.141 86.7924 104.578 86.4173C103.966 86.0048 103.371 86.0623 102.746 86.5723C102.411 86.8449 102.115 87.1524 101.808 87.45C101.628 87.6225 101.438 87.785 101.203 87.8801C100.828 88.0326 100.45 87.7725 100.418 87.3725C100.373 86.8249 101.128 85.8597 101.89 85.8397C102.175 85.8322 102.446 85.8822 102.708 85.9798C102.983 86.0798 103.016 85.8272 103.121 85.6922C103.241 85.5372 103.108 85.4722 102.993 85.3972C102.551 85.1096 102.113 84.8146 101.668 84.5295C101.588 84.4795 101.485 84.362 101.388 84.5095C101.3 84.6446 101.11 84.7821 101.258 84.9521C101.5 85.2271 101.315 85.2847 101.1 85.3947C100.26 85.8172 99.7302 86.4648 99.6427 87.9101L99.6452 87.9126ZM106.946 81.3966C106.866 81.3916 106.786 81.3941 106.708 81.3791C106.436 81.329 106.446 81.5791 106.371 81.7166C106.281 81.8816 106.433 81.9391 106.553 81.9916C106.966 82.1692 107.376 82.3467 107.789 82.5167C107.891 82.5592 108.031 82.6592 108.114 82.5292C108.194 82.4067 108.309 82.2617 108.186 82.0917C108.031 81.8791 108.154 81.7691 108.326 81.6341C109.049 81.0715 109.399 80.3339 109.231 79.4162C109.059 78.4686 107.794 77.921 107.029 78.5536C106.603 78.9037 106.316 79.3537 105.983 79.7713C105.783 80.0188 105.618 80.2989 105.328 80.4564C104.956 80.6589 104.526 80.4289 104.506 80.0063C104.476 79.4012 104.731 78.9287 105.208 78.5686C105.603 78.2686 106.053 78.2436 106.518 78.3211C106.788 78.3661 106.784 78.1311 106.869 77.9935C106.949 77.861 106.881 77.7735 106.746 77.716C106.251 77.506 105.761 77.2859 105.266 77.0809C105.176 77.0434 105.041 76.9159 104.971 77.1109C104.916 77.2659 104.733 77.4234 104.951 77.5885C105.161 77.7485 105.093 77.851 104.906 77.9785C104.143 78.4961 103.728 79.2037 103.773 80.1464C103.801 80.7315 104.071 81.1715 104.606 81.4291C105.098 81.6666 105.586 81.6666 106.051 81.344C106.351 81.139 106.591 80.879 106.806 80.5839C107.076 80.2139 107.324 79.8288 107.651 79.5038C107.854 79.3012 108.071 79.2537 108.326 79.4012C108.576 79.5463 108.651 79.7788 108.609 80.0363C108.479 80.814 107.844 81.4716 106.954 81.3966H106.946ZM29.3947 16.6516C29.3947 17.5317 30.0773 18.1718 30.9124 18.0593C31.2874 18.0093 31.6525 17.9093 32.005 17.7668C32.3275 17.6367 32.6476 17.4942 32.9926 17.4267C33.2752 17.3717 33.5177 17.4242 33.7077 17.6767C33.8877 17.9193 33.8602 18.1568 33.6927 18.3643C33.1851 18.9994 32.27 19.357 31.4924 18.8319C31.3624 18.7444 31.2449 18.6319 31.1249 18.5294C30.8924 18.3293 30.7699 18.5794 30.6123 18.6619C30.4398 18.7494 30.5623 18.8669 30.6223 18.9594C30.9024 19.3945 31.1899 19.8246 31.4749 20.2571C31.5399 20.3571 31.5975 20.4947 31.745 20.4222C31.8925 20.3496 32.095 20.2671 32.035 20.0596C31.95 19.7646 32.095 19.7596 32.3175 19.7396C32.8776 19.692 33.4152 19.562 33.8727 19.202C34.4328 18.7594 34.7378 18.2043 34.6028 17.4817C34.4253 16.5441 33.6327 16.089 32.6201 16.3565C32.015 16.5166 31.4299 16.7441 30.8349 16.9416C30.5998 17.0191 30.4173 16.9091 30.2773 16.7516C30.1223 16.5766 30.0723 16.344 30.2148 16.1415C30.4948 15.7489 30.8599 15.4789 31.3674 15.4239C31.865 15.3714 32.2675 15.5614 32.6176 15.879C32.8426 16.084 32.9576 15.869 33.1026 15.7864C33.2701 15.6914 33.1851 15.5789 33.1076 15.4639C32.8351 15.0588 32.5651 14.6513 32.3075 14.2387C32.235 14.1237 32.1575 14.1112 32.06 14.1712C31.9275 14.2562 31.7775 14.3312 31.7925 14.5313C31.805 14.6788 31.7325 14.7338 31.585 14.7563C31.2924 14.8038 30.9924 14.8238 30.7099 14.9363C29.9923 15.2214 29.3197 15.9215 29.3947 16.6491V16.6516ZM16.9333 82.4817C16.9333 82.3817 16.9408 82.2817 16.9333 82.1817C16.8658 81.4316 16.5833 80.7965 15.9382 80.3614C15.0806 79.7838 13.6204 80.2789 13.6104 81.4566C13.6079 81.8066 13.6304 82.1467 13.7079 82.4867C13.8154 82.9693 14.0155 83.4369 13.983 83.9469C13.9705 84.1595 13.8754 84.297 13.6829 84.3845C13.4904 84.4745 13.3129 84.467 13.1529 84.3295C13.0028 84.1995 12.8553 84.067 12.7578 83.8844C12.3753 83.1593 12.4978 82.4567 13.1454 81.8991C13.3679 81.7066 13.1704 81.5816 13.1204 81.4341C13.0729 81.2915 12.9703 81.2615 12.8353 81.3315C12.4103 81.5491 11.9802 81.7616 11.5577 81.9866C11.4702 82.0341 11.3302 82.0817 11.3752 82.2242C11.4177 82.3642 11.4627 82.5292 11.6502 82.5392C11.9052 82.5542 11.9602 82.7068 11.9452 82.9268C11.9377 83.0568 11.9352 83.1868 11.9452 83.3168C12.0202 84.132 12.4003 84.7521 13.1379 85.1221C13.9029 85.5047 15.1731 84.9296 15.0906 83.8569C15.0481 83.2943 14.9331 82.7568 14.8005 82.2167C14.7455 81.9941 14.7005 81.7716 14.7155 81.5366C14.7355 81.2565 14.8831 81.079 15.1331 80.969C15.3781 80.8615 15.5531 80.979 15.7182 81.1415C16.4582 81.8666 16.5407 82.9693 15.6256 83.6819C15.3906 83.8644 15.5706 84.0145 15.6356 84.177C15.7082 84.362 15.8357 84.3345 15.9757 84.2595C16.4432 84.0145 16.9108 83.7694 17.3783 83.5244C17.4809 83.4694 17.6209 83.4319 17.5409 83.2668C17.4734 83.1268 17.4283 82.9068 17.2308 82.9643C16.8508 83.0743 16.9083 82.8543 16.9333 82.6317C16.9383 82.5817 16.9333 82.5317 16.9333 82.4817ZM77.9827 10.8607C77.9427 11.0607 77.9177 11.2908 77.8427 11.5058C77.7577 11.7533 77.9027 11.7933 78.0752 11.8583C78.2578 11.9258 78.3628 11.9183 78.4278 11.6983C78.5728 11.2107 78.7253 10.7257 78.9153 10.2556C79.0128 10.0131 78.9628 9.92304 78.7303 9.84553C77.4627 9.42546 76.2 8.9979 74.9349 8.57033C74.7474 8.50782 74.5923 8.40281 74.4698 8.70785C74.3498 9.0029 74.5023 9.04291 74.6999 9.12542C75.0774 9.28294 75.0949 9.33295 74.9699 9.71051C74.6749 10.6006 74.3798 11.4883 74.0773 12.3759C73.9073 12.876 73.8473 12.921 73.3697 12.756C73.0972 12.6635 73.1022 12.826 73.0372 12.981C72.9572 13.166 72.9847 13.2686 73.1922 13.3361C73.8848 13.5561 74.5748 13.7886 75.2624 14.0237C75.4499 14.0887 75.5424 14.0637 75.615 13.8561C75.6925 13.6261 75.6675 13.5186 75.4199 13.4411C74.9649 13.2961 74.9299 13.2185 75.0649 12.801C75.1699 12.4784 75.2924 12.1634 75.4049 11.8433C75.4374 11.7533 75.4699 11.6758 75.585 11.6758C75.835 11.6758 76.085 11.9008 76.1125 12.1634C76.13 12.3234 76.11 12.4809 76.06 12.636C75.975 12.906 76.1725 12.9435 76.355 13.0135C76.5701 13.096 76.6126 12.9535 76.6626 12.806C76.8651 12.1909 77.0551 11.5708 77.2802 10.9632C77.3827 10.6857 77.2926 10.5981 77.0401 10.5281C76.7751 10.4556 76.7351 10.6457 76.6551 10.7957C76.4576 11.1682 76.295 11.2282 75.9 11.1132C75.7325 11.0657 75.6875 10.9832 75.7375 10.8332C75.85 10.4931 75.965 10.1531 76.075 9.81052C76.115 9.68801 76.185 9.628 76.32 9.6755C76.7326 9.82303 77.1601 9.92304 77.5527 10.1256C77.8452 10.2756 77.9402 10.5356 77.9802 10.8632L77.9827 10.8607ZM16.4857 35.4045C16.5432 35.4045 16.5833 35.3995 16.6233 35.4045C17.1483 35.4945 17.4358 35.487 17.0083 36.1121C16.9308 36.2246 16.9233 36.3171 17.0608 36.4121C17.3633 36.6197 17.4233 36.6147 17.6009 36.2871C17.9209 35.702 18.2284 35.1094 18.5535 34.5268C18.6435 34.3668 18.661 34.2593 18.4685 34.1718C18.3059 34.0968 18.1484 33.9617 18.0334 34.2318C17.9334 34.4643 17.7359 34.5118 17.5109 34.4793C16.2907 34.3068 15.0731 34.1218 13.8529 33.9642C13.6254 33.9342 13.3529 33.7717 13.1604 33.9442C12.9253 34.1543 12.7628 34.4568 12.7028 34.7669C12.6653 34.9619 12.8903 35.1044 13.0178 35.2469C13.8204 36.1446 14.6355 37.0347 15.4456 37.9249C15.6656 38.1649 15.7782 38.4324 15.5931 38.735C15.4556 38.9575 15.6306 38.985 15.7532 39.0525C15.8957 39.13 16.0332 39.2151 16.1407 38.9875C16.2857 38.6825 16.4557 38.3874 16.6158 38.0899C16.7608 37.8173 16.9158 37.5498 17.0483 37.2723C17.1733 37.0122 16.9008 37.0272 16.7908 36.9322C16.6783 36.8372 16.6083 36.8722 16.5307 36.9922C16.1582 37.5848 16.1532 37.5823 15.6956 37.0472C15.6881 37.0397 15.6831 37.0322 15.6756 37.0247C15.5256 36.8672 15.5081 36.7122 15.6281 36.5196C15.8132 36.2246 15.9832 35.9195 16.1432 35.6095C16.2232 35.4545 16.2932 35.317 16.4857 35.4045ZM103.328 35.8195C103.501 35.7995 103.608 35.8745 103.686 36.0296C103.828 36.3146 103.968 36.6022 104.136 36.8722C104.293 37.1297 104.296 37.3098 104.051 37.5348C103.591 37.9599 103.598 37.9849 103.278 37.4248C103.148 37.1972 103.021 37.3248 102.881 37.3823C102.741 37.4423 102.638 37.5023 102.741 37.6923C103.088 38.3424 103.423 39 103.756 39.6576C103.841 39.8277 103.946 39.8102 104.066 39.7251C104.181 39.6451 104.448 39.6351 104.311 39.4101C104.121 39.095 104.266 38.8775 104.456 38.665C105.321 37.6898 106.193 36.7197 107.064 35.7495C107.164 35.637 107.294 35.5245 107.206 35.3595C107.059 35.0844 107.001 34.7519 106.721 34.5593C106.693 34.5393 106.641 34.5493 106.603 34.5543C105.483 34.7169 104.363 34.8894 103.243 35.0444C102.743 35.1144 102.198 35.3695 101.833 34.7294C101.748 34.5793 101.585 34.7444 101.473 34.8119C101.373 34.8719 101.288 34.9294 101.363 35.0719C101.67 35.652 101.975 36.2346 102.28 36.8172C102.35 36.9497 102.443 36.9697 102.578 36.9022C102.866 36.7622 102.891 36.7022 102.741 36.4096C102.591 36.1146 102.613 35.9521 102.828 35.897C102.991 35.8545 103.161 35.842 103.328 35.817V35.8195ZM15.6081 85.7747C15.1581 85.8472 14.733 86.0198 14.4655 86.4523C14.258 86.7874 14.253 87.1599 14.373 87.515C14.7705 88.6827 15.6081 89.5953 16.2182 90.6405C16.2482 90.6905 16.2957 90.718 16.3707 90.7005C16.6558 90.6255 16.7533 90.4179 16.6183 90.1604C16.4107 89.7728 16.4157 89.7353 16.7883 89.4928C17.5634 88.9877 18.341 88.4876 19.126 87.9926C19.5961 87.6975 19.6136 87.6975 19.9186 88.1476C20.0911 88.4026 20.2037 88.1776 20.3362 88.1301C20.4812 88.0776 20.5362 87.9876 20.4337 87.83C20.0136 87.1874 19.6061 86.5398 19.1885 85.8972C19.1485 85.8347 19.111 85.7547 19.0085 85.7647C18.6985 85.7947 18.5685 86.0548 18.7335 86.3223C18.781 86.3973 18.821 86.4798 18.8585 86.5599C18.9285 86.7074 18.9035 86.8224 18.7585 86.9174C18.4485 87.1149 18.1409 87.3175 17.8359 87.5275C17.6659 87.6425 17.5559 87.605 17.4483 87.44C17.2208 87.0899 16.9858 86.7424 16.7433 86.4023C16.4732 86.0248 16.1032 85.8122 15.6081 85.7747ZM108.086 61.3335C108.086 61.4935 108.091 61.6535 108.086 61.8135C108.076 62.0186 108.169 62.0986 108.371 62.0961C108.561 62.0961 108.629 62.0186 108.646 61.8285C108.669 61.6035 108.636 61.296 108.961 61.266C109.306 61.2334 109.659 61.2159 110.006 61.286C110.379 61.361 110.419 61.401 110.356 61.7735C110.286 62.1911 110.324 62.6012 110.354 63.0212C110.424 63.9989 111.302 64.3414 112.087 64.1489C112.719 63.9939 112.914 63.4663 113.012 62.9137C113.192 61.9111 113.122 60.8884 113.197 59.8782C113.212 59.6782 113.154 59.5707 112.919 59.5532C112.672 59.5357 112.612 59.6557 112.584 59.8557C112.529 60.2658 112.512 60.2933 112.102 60.2783C111.166 60.2483 110.234 60.1958 109.299 60.1633C108.791 60.1458 108.781 60.1583 108.761 59.6457C108.751 59.4282 108.649 59.3757 108.459 59.3782C108.279 59.3782 108.131 59.4032 108.146 59.6332C108.181 60.2033 108.086 60.7659 108.086 61.3335ZM10.8501 47.8164C11.1451 47.8889 11.4252 47.9564 11.7052 48.0289C12.2778 48.1764 12.3153 48.2239 12.1727 48.784C12.1152 49.0116 12.1577 49.1066 12.3928 49.1616C12.6228 49.2166 12.6953 49.1316 12.7453 48.9291C12.9303 48.1864 13.1279 47.4463 13.3229 46.7037C13.3704 46.5212 13.4054 46.3637 13.1429 46.2986C12.9078 46.2411 12.7828 46.2811 12.7503 46.5362C12.7378 46.6437 12.6878 46.7462 12.6503 46.8487C12.5803 47.0363 12.4628 47.1113 12.2553 47.0488C11.9602 46.9613 11.6577 46.9012 11.3577 46.8262C11.2001 46.7862 11.0701 46.7062 10.9651 46.5737C10.4951 45.9811 10.02 45.396 9.54745 44.8034C9.40243 44.6209 9.27992 44.4409 9.36243 44.1783C9.43244 43.9533 9.21491 43.9583 9.0874 43.9133C8.95738 43.8683 8.82987 43.8758 8.78736 44.0508C8.62985 44.6684 8.47233 45.2835 8.31231 45.9011C8.27481 46.0436 8.33231 46.1311 8.46233 46.1836C8.74736 46.2962 8.81737 46.2611 8.90738 45.9561C8.93988 45.8386 8.96739 45.7136 9.0999 45.676C9.24242 45.6385 9.31742 45.7561 9.39243 45.8461C9.62746 46.1286 9.84499 46.4287 10.0875 46.7037C10.24 46.8762 10.185 46.9562 10.0075 47.0263C9.68247 47.1513 9.35993 47.2813 9.02989 47.3988C8.91488 47.4388 8.78486 47.5488 8.67235 47.4338C8.56234 47.3238 8.60234 47.1738 8.64235 47.0388C8.68985 46.8737 8.67985 46.7612 8.46483 46.7137C8.27481 46.6712 8.12979 46.6462 8.06978 46.8762C7.88476 47.5888 7.70224 48.3015 7.51972 49.0141C7.48222 49.1616 7.51222 49.2841 7.67974 49.3016C7.81976 49.3141 8.00478 49.4841 8.08478 49.1891C8.16979 48.879 8.39982 48.6965 8.70485 48.594C9.02489 48.4865 9.33743 48.354 9.65746 48.2389C10.06 48.0939 10.4651 47.9539 10.8601 47.8164H10.8501ZM13.9354 77.4934C14.2705 77.536 14.298 77.8035 14.3855 77.996C14.458 78.1536 14.478 78.2886 14.7105 78.1861C14.9031 78.1011 15.0531 78.056 14.9506 77.7935C14.6655 77.0609 14.388 76.3258 14.1255 75.5857C14.028 75.3131 13.8779 75.3506 13.6629 75.4231C13.4129 75.5056 13.5079 75.6532 13.5579 75.8007C13.5804 75.8657 13.6079 75.9307 13.6304 75.9957C13.7329 76.2833 13.6754 76.4208 13.3929 76.5308C13.1054 76.6433 12.8153 76.7483 12.5278 76.8584C12.4003 76.9059 12.2753 76.9009 12.1452 76.8634C11.4002 76.6483 10.6526 76.4383 9.90999 76.2158C9.71747 76.1582 9.52745 76.0657 9.46244 75.8532C9.36243 75.5331 9.16491 75.7232 9.00739 75.7607C8.79737 75.8132 8.86987 75.9607 8.92238 76.0932C9.1299 76.6433 9.34493 77.1884 9.53995 77.7435C9.61496 77.956 9.69247 78.0185 9.92749 77.9435C10.1825 77.861 10.1725 77.736 10.09 77.546C10.06 77.4734 10.03 77.3959 10.0225 77.3184C10.005 77.1559 10.0675 77.0684 10.245 77.1184C10.6651 77.2384 11.0851 77.3609 11.5077 77.4784C11.6777 77.526 11.7102 77.5985 11.6002 77.751C11.3977 78.0335 11.2126 78.3311 11.0201 78.6186C10.9451 78.7311 10.8851 78.8937 10.7276 78.8862C10.5476 78.8762 10.5026 78.6936 10.4651 78.5586C10.4025 78.3286 10.2675 78.3486 10.1 78.4111C9.91999 78.4786 9.82748 78.5536 9.92249 78.7861C10.1925 79.4488 10.4351 80.1239 10.6776 80.799C10.7426 80.9815 10.8251 81.029 11.0076 80.9565C11.1651 80.894 11.3277 80.859 11.2301 80.6314C11.1251 80.3864 11.1801 80.1639 11.3277 79.9563C11.7302 79.3762 12.1377 78.8012 12.5353 78.2161C12.8828 77.706 13.4829 77.7285 13.9304 77.4934H13.9354ZM113.199 58.178C113.239 57.9654 113.117 57.7054 113.139 57.4354C113.162 57.1528 113.079 56.8828 113.077 56.6027C113.077 56.4577 113.004 56.3902 112.857 56.3777C112.542 56.3477 112.499 56.3877 112.519 56.7278C112.539 57.0478 112.429 57.1653 112.209 57.0378C111.829 56.8203 111.467 56.5752 111.094 56.3452C110.976 56.2727 110.971 56.1902 111.069 56.1077C111.397 55.8351 111.724 55.5576 112.064 55.2975C112.232 55.1675 112.359 55.235 112.397 55.4526C112.407 55.5101 112.399 55.5726 112.409 55.6326C112.442 55.8476 112.599 55.8551 112.769 55.8551C112.949 55.8551 113.027 55.7701 113.017 55.5976C112.999 55.35 112.979 55.1025 112.959 54.855C112.919 54.3699 112.872 53.8848 112.844 53.3997C112.834 53.2097 112.737 53.1947 112.592 53.1997C112.449 53.2047 112.289 53.1922 112.289 53.3947C112.289 53.7898 112.052 54.0273 111.762 54.2449C111.419 54.5024 111.101 54.7875 110.756 55.04C110.501 55.225 110.304 55.5176 109.989 55.5851C109.631 55.6601 109.259 55.6751 108.889 55.6626C108.646 55.6551 108.546 55.5401 108.526 55.32C108.519 55.23 108.531 55.1375 108.516 55.05C108.491 54.9175 108.484 54.765 108.266 54.805C108.089 54.835 107.899 54.805 107.906 55.085C107.914 55.385 107.971 55.6776 107.976 55.9776C107.989 56.4927 108.051 57.0078 108.091 57.5229C108.101 57.6404 108.166 57.6929 108.281 57.7129C108.609 57.7654 108.691 57.6879 108.649 57.3654C108.589 56.9253 108.696 56.7903 109.136 56.7528C109.206 56.7478 109.271 56.7203 109.341 56.7153C109.756 56.6852 110.166 56.6427 110.544 56.9103C110.974 57.2153 111.437 57.4729 111.872 57.7679C112.199 57.9904 112.602 58.138 112.674 58.628C112.699 58.8006 112.932 58.7306 113.072 58.7256C113.237 58.7206 113.207 58.5905 113.202 58.478C113.197 58.398 113.202 58.318 113.202 58.178H113.199ZM82.3007 15.5314C82.3632 14.7063 82.7408 14.0412 83.3358 13.4811C83.7309 13.111 84.1834 12.961 84.7035 13.151C85.2186 13.3411 85.5386 13.6936 85.6061 14.2662C85.6386 14.5338 85.5911 14.7838 85.5211 15.0263C85.4361 15.3164 85.6611 15.3339 85.8111 15.4214C85.9961 15.5289 86.0511 15.3839 86.1187 15.2564C86.3437 14.8238 86.5737 14.3937 86.7987 13.9587C86.8537 13.8536 86.9938 13.7361 86.8362 13.6211C86.7012 13.5211 86.5537 13.3686 86.3612 13.5236C86.1787 13.6711 86.0786 13.6361 85.9586 13.4236C85.4761 12.5659 84.386 12.2134 83.6634 12.3109C82.0832 12.5259 81.0931 13.9612 81.2681 15.4789C81.4056 16.6666 82.5057 17.6067 83.6184 17.6417C84.3059 17.6642 84.836 17.3292 85.2436 16.7891C85.3261 16.6791 85.5011 16.5791 85.3286 16.4165C85.1135 16.2115 84.866 16.1965 84.721 16.354C84.4585 16.6391 84.1584 16.8641 83.7609 16.9066C83.0683 16.9841 82.2232 16.3815 82.3032 15.5264L82.3007 15.5314ZM101.488 33.2291C100.693 33.3492 99.8577 32.219 100.313 31.3913C100.788 30.5287 101.538 30.0111 102.518 29.8861C103.473 29.7636 104.208 30.6562 103.938 31.5764C103.863 31.8289 103.733 32.0615 103.526 32.224C103.263 32.429 103.368 32.5965 103.518 32.7991C103.706 33.0491 103.831 32.8291 103.961 32.7466C104.348 32.5015 104.728 32.2465 105.106 31.9864C105.203 31.9189 105.376 31.8739 105.288 31.6989C105.201 31.5289 105.131 31.2988 104.863 31.3788C104.661 31.4414 104.621 31.3513 104.616 31.1788C104.616 31.1013 104.576 31.0238 104.568 30.9463C104.438 29.7811 103.411 28.8585 102.078 28.881C100.93 28.901 99.9052 29.6536 99.4977 30.7412C99.0951 31.8089 99.4977 32.8091 100.195 33.4692C100.87 34.1093 101.67 34.0843 102.478 33.7192C102.571 33.6767 102.768 33.6792 102.688 33.4692C102.571 33.1641 102.383 33.0191 102.185 33.0966C101.96 33.1841 101.733 33.2491 101.493 33.2316L101.488 33.2291ZM7.79475 71.9776C7.80725 72.7452 8.01478 73.3303 8.48983 73.7879C9.1374 74.4155 9.91499 74.658 10.8176 74.513C12.7953 74.1929 13.6904 72.3002 12.7603 70.5974C12.4028 69.9423 11.7552 69.7423 11.0626 69.7172C10.5151 69.6997 10.4426 69.8123 10.5851 70.2273C10.6651 70.4649 10.8501 70.4299 11.0251 70.4299C11.6252 70.4349 12.1202 70.7599 12.2878 71.2575C12.4878 71.8551 12.3428 72.4627 11.8352 72.8077C11.1401 73.2828 10.3625 73.5153 9.51745 73.3403C8.53734 73.1378 8.06978 72.0301 8.63735 71.2875C8.83237 71.0324 9.0774 70.8299 9.37993 70.6999C9.62996 70.5924 9.47994 70.4024 9.45244 70.2373C9.41994 70.0448 9.30742 70.0673 9.16491 70.1048C8.69235 70.2298 8.2198 70.3423 7.74725 70.4624C7.61223 70.4974 7.41471 70.4649 7.44971 70.6999C7.47972 70.8974 7.49722 71.1125 7.78975 71.09C7.97227 71.075 7.97477 71.1825 7.93227 71.3225C7.85726 71.57 7.77975 71.8201 7.79975 71.9726L7.79475 71.9776ZM37.1281 16.9866C37.4056 17.0266 37.7006 16.9441 37.9957 16.8391C39.2358 16.3865 39.6809 15.3814 39.3133 14.1387C39.2458 13.9137 39.1558 13.9037 38.9458 13.9812C38.6158 14.1037 38.6533 14.3187 38.7108 14.5763C38.8283 15.0963 38.7108 15.5539 38.2782 15.884C37.7532 16.284 37.1781 16.344 36.6955 15.9815C35.8779 15.3639 35.4629 14.5288 35.5254 13.4836C35.5754 12.6035 36.743 11.9784 37.5381 12.5234C37.7382 12.661 37.9307 12.806 38.0657 13.0035C38.2457 13.2661 38.3957 13.0485 38.5507 12.991C38.7408 12.9185 38.6558 12.791 38.5983 12.6735C38.3757 12.2284 38.1532 11.7808 37.9307 11.3358C37.7857 11.0457 37.7032 11.0332 37.4356 11.2182C37.3131 11.3033 37.2981 11.4158 37.3181 11.5333C37.3531 11.7358 37.2631 11.7733 37.0881 11.7508C36.218 11.6383 35.5204 11.9834 34.9928 12.636C34.5178 13.2261 34.3628 13.9237 34.4928 14.6838C34.7053 15.9265 35.7954 17.0591 37.1306 16.9916L37.1281 16.9866ZM24.0116 21.4298C24.0116 20.8222 24.4041 20.3221 25.0242 20.1596C25.5393 20.0271 25.9668 20.2371 26.3494 20.5347C26.5994 20.7272 26.6769 20.5097 26.8119 20.4022C26.9744 20.2721 26.8869 20.1746 26.7794 20.0596C26.4469 19.7045 26.1243 19.337 25.7943 18.9794C25.7118 18.8894 25.6443 18.6769 25.4818 18.8244C25.3542 18.9394 25.0542 19.0069 25.2367 19.302C25.3192 19.437 25.3167 19.532 25.1092 19.5545C23.8466 19.6945 22.9065 21.0623 23.139 22.3875C23.444 24.1302 25.6943 25.5755 27.482 24.1052C28.3571 23.3876 28.5321 22.0874 27.8095 21.2223C27.7595 21.1623 27.7145 21.0898 27.6145 21.1248C27.3795 21.2048 27.2345 21.5448 27.3445 21.7724C27.472 22.0324 27.6095 22.305 27.577 22.595C27.477 23.5476 26.4894 24.0802 25.6168 23.6852C25.1942 23.4926 24.8767 23.1776 24.5892 22.835C24.2591 22.4425 23.9941 22.0099 24.0116 21.4298ZM88.5964 20.0346C88.4339 20.0171 88.2939 19.9621 88.1589 19.8971C87.8088 19.7221 87.5013 19.487 87.1838 19.2645C87.0263 19.1545 87.0063 19.082 87.1263 18.9119C87.6813 18.1218 88.2164 17.3167 88.7615 16.5216C89.2215 15.8515 89.209 15.974 89.7041 16.2965C89.9366 16.4465 89.9641 16.2415 90.0616 16.134C90.1766 16.0065 90.1966 15.9015 90.0341 15.7939C89.424 15.3814 88.8115 14.9738 88.2114 14.5438C88.0139 14.4012 87.9164 14.4387 87.7838 14.6238C87.6438 14.8188 87.6788 14.9213 87.8738 15.0463C88.2289 15.2764 88.2389 15.3814 88.0064 15.7164C87.4663 16.4941 86.9312 17.2717 86.3937 18.0518C86.0986 18.4819 86.0586 18.5069 85.6486 18.2093C85.3686 18.0068 85.3436 18.2643 85.2261 18.3818C85.0635 18.5419 85.1861 18.6244 85.3061 18.7069C86.4387 19.4845 87.5763 20.2521 88.7039 21.0398C88.929 21.1973 89.0515 21.1373 89.1815 20.9447C89.469 20.5147 89.7641 20.0871 90.0541 19.662C90.1516 19.5195 90.2666 19.397 90.0316 19.2545C89.8441 19.142 89.6941 19.0344 89.5465 19.2895C89.5165 19.342 89.4865 19.3945 89.4465 19.437C89.194 19.687 88.989 20.0021 88.5989 20.0396L88.5964 20.0346ZM108.319 38.9925C108.329 39.2301 108.176 39.2926 108.029 39.3501C107.139 39.6951 106.248 40.0402 105.356 40.3827C104.863 40.5703 104.831 40.5628 104.621 40.0752C104.511 39.8176 104.358 39.9527 104.206 39.9927C104.031 40.0377 103.988 40.1327 104.056 40.3027C104.566 41.6104 105.071 42.9181 105.573 44.2283C105.643 44.4109 105.751 44.4484 105.918 44.3809C106.453 44.1658 106.989 43.9483 107.529 43.7433C107.679 43.6857 107.699 43.6082 107.649 43.4682C107.566 43.2357 107.466 43.0756 107.179 43.2307C107.069 43.2907 106.934 43.3082 106.806 43.3357C106.266 43.4607 105.946 43.3182 105.708 42.8206C105.558 42.5081 105.451 42.173 105.306 41.858C105.216 41.6654 105.258 41.5829 105.456 41.5079C106.423 41.1404 107.386 40.7578 108.351 40.3852C108.721 40.2427 108.844 40.3027 108.991 40.6728C109.009 40.7178 109.029 40.7653 109.049 40.8103C109.164 41.0553 109.329 40.9003 109.479 40.8653C109.666 40.8203 109.644 40.7078 109.589 40.5678C109.324 39.8902 109.064 39.2126 108.804 38.535C108.729 38.3424 108.651 38.2449 108.406 38.3524C108.189 38.4474 108.159 38.54 108.244 38.7325C108.284 38.8225 108.301 38.9225 108.319 38.9875V38.9925ZM63.7761 10.3781C63.7761 10.1231 63.7761 9.91304 63.7761 9.70301C63.7761 9.54798 63.7511 9.42546 63.5561 9.41796C63.3836 9.41046 63.231 9.42546 63.201 9.638C63.186 9.73551 63.171 9.83553 63.1635 9.93304C63.116 10.6332 62.7835 10.9482 62.0834 10.9782C61.8209 10.9907 61.5684 10.8957 61.3108 10.9182C61.0308 10.9432 60.9583 10.8257 60.9533 10.5581C60.9358 9.638 61.0508 8.72536 61.0233 7.80521C61.0058 7.18262 61.0658 7.13511 61.6634 7.0901C61.6734 7.0901 61.6834 7.0901 61.6934 7.0901C61.9109 7.0901 61.9184 6.94008 61.9184 6.78006C61.9184 6.61253 61.8959 6.47001 61.6834 6.48001C60.9533 6.52002 60.2282 6.405 59.5006 6.4125C59.2531 6.415 59.1906 6.52752 59.2031 6.74755C59.2206 7.0301 59.4456 7.01759 59.6181 7.02509C59.8807 7.0351 59.9682 7.17512 59.9807 7.40265C59.9857 7.50267 59.9907 7.60268 59.9807 7.7027C59.8682 8.56533 59.9507 9.43547 59.8732 10.3006C59.8282 10.7957 59.8357 10.8407 59.3581 10.8532C59.1156 10.8607 59.0856 10.9857 59.0831 11.1807C59.0831 11.3808 59.1531 11.4808 59.3631 11.4708C60.1532 11.4258 60.9358 11.5608 61.7259 11.5308C62.2859 11.5083 62.8385 11.6258 63.3986 11.5958C63.5961 11.5858 63.6961 11.5458 63.7311 11.3183C63.7836 10.9882 63.7686 10.6607 63.7786 10.3781H63.7761ZM102.791 83.4569C102.873 83.4944 102.956 83.5244 103.036 83.5669C103.878 84.017 104.718 84.472 105.563 84.9171C106.036 85.1671 106.066 85.2246 105.808 85.6897C105.711 85.8672 105.746 85.9648 105.928 86.0298C106.068 86.0798 106.188 86.2648 106.328 85.9923C106.658 85.3447 107.009 84.7096 107.374 84.0795C107.516 83.8319 107.414 83.7319 107.219 83.6119C106.984 83.4669 106.934 83.6344 106.851 83.7869C106.653 84.147 106.546 84.187 106.198 84.002C105.388 83.5744 104.586 83.1343 103.776 82.7043C103.241 82.4217 103.226 82.4092 103.493 81.8766C103.586 81.6916 103.506 81.6216 103.356 81.5641C103.213 81.5116 103.073 81.329 102.938 81.5866C102.603 82.2317 102.268 82.8768 101.913 83.5094C101.778 83.7519 101.868 83.8569 102.065 83.9794C102.298 84.122 102.358 83.9644 102.436 83.8069C102.511 83.6519 102.623 83.5294 102.791 83.4519V83.4569ZM94.7571 19.597C94.7671 19.5145 94.7246 19.477 94.6746 19.437C94.0921 18.9569 93.5095 18.4744 92.9244 17.9943C92.8044 17.8943 92.6894 17.7592 92.5419 17.9893C92.4294 18.1618 92.3219 18.2668 92.5644 18.4419C92.9169 18.6994 92.9244 18.8119 92.6544 19.1495C92.0618 19.8871 91.4668 20.6197 90.8467 21.3323C90.5191 21.7099 90.5016 21.7699 90.0766 21.4273C90.0391 21.3973 89.9941 21.3698 89.9491 21.3498C89.7166 21.2473 89.7116 21.5073 89.594 21.5848C89.5015 21.6473 89.5265 21.7249 89.619 21.7999C90.2141 22.2824 90.8142 22.7575 91.3867 23.2651C91.6518 23.5001 91.7268 23.2551 91.8518 23.1376C92.0218 22.9751 91.8593 22.91 91.7468 22.825C91.4118 22.5675 91.3867 22.4 91.6268 22.1124C92.2393 21.3798 92.8494 20.6447 93.4595 19.9121C93.7945 19.5095 93.847 19.502 94.2496 19.8171C94.3146 19.8671 94.3696 19.9971 94.4671 19.9221C94.5846 19.8346 94.6971 19.7321 94.7571 19.602V19.597ZM96.8374 27.9483C96.6874 27.9933 96.5898 28.1158 96.4998 28.2284C96.4273 28.3184 96.5398 28.3884 96.5923 28.4534C97.0649 29.0435 97.5375 29.6336 98.01 30.2212C98.0725 30.3012 98.1475 30.3287 98.2475 30.2837C98.5301 30.1537 98.5776 29.9786 98.3925 29.7261C98.1425 29.3835 98.1225 29.361 98.4451 29.0885C99.2401 28.4109 100.055 27.7558 100.863 27.0957C101.015 26.9707 101.163 27.0207 101.285 27.1507C101.353 27.2232 101.408 27.3057 101.47 27.3857C101.638 27.6033 101.748 27.3882 101.865 27.3232C102.003 27.2457 102.02 27.1307 101.913 27.0007C101.423 26.4106 100.933 25.823 100.453 25.2254C100.365 25.1154 100.313 25.0929 100.19 25.1779C99.8827 25.3929 99.8727 25.4029 100.09 25.698C100.348 26.048 100.345 26.1055 100.013 26.3806C99.2526 27.0057 98.4875 27.6283 97.7225 28.2484C97.4499 28.4684 97.3299 28.4459 97.1099 28.1584C97.0399 28.0658 96.9799 27.9533 96.8374 27.9433V27.9483ZM21.8163 23.1401C21.7738 22.9851 21.6463 22.91 21.5188 22.83C21.3963 22.75 21.3663 22.855 21.3088 22.9175C20.7937 23.4751 20.2837 24.0327 19.7636 24.5853C19.6511 24.7028 19.6286 24.7878 19.7561 24.9079C19.9286 25.0729 20.0761 25.1579 20.2712 24.9179C20.4087 24.7453 20.5687 24.5353 20.8337 24.7828C21.5788 25.4754 22.3339 26.1555 23.0765 26.8481C23.4115 27.1632 23.4165 27.2182 23.0915 27.5458C22.9015 27.7358 22.9865 27.8308 23.124 27.9808C23.2965 28.1709 23.404 28.0833 23.534 27.9433C24.0191 27.4132 24.5041 26.8857 24.9942 26.3631C25.1142 26.2331 25.1067 26.143 24.9892 26.0055C24.8142 25.803 24.6917 25.8105 24.5117 26.0055C24.2016 26.3381 24.1191 26.3256 23.7816 26.0055C23.629 25.863 23.4765 25.7205 23.3215 25.5805C22.7389 25.0654 22.1739 24.5303 21.6038 24.0027C21.4163 23.8277 21.4013 23.6477 21.5913 23.4651C21.6863 23.3751 21.7563 23.2676 21.8113 23.1401H21.8163Z" fill="black"/>
<path d="M60.0407 43.7983C73.7147 43.7983 87.3888 43.7983 101.063 43.7983C101.418 43.7983 101.658 43.9641 101.783 44.2958C102.998 47.5288 103.808 50.8569 104.258 54.2824C104.591 56.8178 104.691 59.3607 104.583 61.9086C104.363 67.2494 103.226 72.3977 101.155 77.3334C101.015 77.6635 100.83 77.7385 100.5 77.7385C73.5422 77.731 46.5816 77.7335 19.6236 77.7335C19.2019 77.7335 18.9118 77.541 18.7535 77.1559C17.2583 73.5653 16.2682 69.8373 15.7431 65.9842C15.3831 63.3538 15.2806 60.7084 15.3931 58.0605C15.5956 53.3147 16.5207 48.7065 18.2059 44.2583C18.3226 43.9533 18.5418 43.7999 18.8635 43.7983C32.5875 43.7983 46.3116 43.7983 60.0357 43.7983H60.0407ZM58.738 59.6232C58.778 58.0005 58.6755 56.0126 58.7955 54.0273C58.8355 53.3597 59.0331 53.1047 59.6956 52.9722C60.2007 52.8697 60.7107 52.9347 61.2183 52.9272C61.4733 52.9247 61.5808 52.8447 61.5733 52.5796C61.5608 52.1395 61.5733 51.6995 61.5683 51.2594C61.5683 50.8744 61.5533 50.8619 61.1558 50.8619C59.7056 50.8619 58.258 50.8619 56.8078 50.8619C55.2976 50.8619 53.79 50.8669 52.2798 50.8569C52.0198 50.8569 51.9222 50.9469 51.9297 51.2069C51.9422 51.667 51.9397 52.127 51.9297 52.5871C51.9247 52.8297 52.0098 52.9322 52.2623 52.9247C52.7323 52.9122 53.2024 52.9122 53.6724 52.9247C54.44 52.9447 54.7576 53.1522 54.8676 53.7098C54.9101 53.9248 54.9401 54.1449 54.9401 54.3624C54.9476 55.6926 54.9401 57.0203 54.9476 58.3505C54.9476 58.5855 54.8601 58.6681 54.6301 58.6631C54.15 58.6531 53.6699 58.6631 53.1899 58.6606C51.3197 58.6606 49.452 58.6606 47.5818 58.6606C47.3992 58.6606 47.2167 58.6831 47.2192 58.4005C47.2267 56.9703 47.1992 55.5401 47.2317 54.1124C47.2517 53.2222 47.5968 52.9347 48.4919 52.9247C48.9619 52.9197 49.432 52.9172 49.902 52.9247C50.127 52.9297 50.2321 52.8547 50.2271 52.6146C50.2171 52.1345 50.2171 51.6545 50.2271 51.1744C50.2321 50.9394 50.137 50.8594 49.907 50.8594C46.8692 50.8644 43.8288 50.8644 40.791 50.8594C40.5835 50.8594 40.5084 50.9294 40.5134 51.1369C40.5235 51.637 40.526 52.1371 40.5134 52.6371C40.5084 52.8672 40.5985 52.9297 40.8135 52.9247C41.2635 52.9147 41.7161 52.8847 42.1611 52.9297C43.0887 53.0247 43.2038 53.1547 43.3488 53.9023C43.3738 54.0273 43.3638 54.1624 43.3638 54.2899C43.3638 58.088 43.3638 61.8861 43.3638 65.6841C43.3638 65.7642 43.3638 65.8442 43.3638 65.9242C43.3288 66.6968 43.0362 66.9993 42.2636 67.0468C41.7761 67.0769 41.2885 67.0994 40.801 67.1069C40.6035 67.1094 40.5084 67.1594 40.5134 67.3769C40.526 67.867 40.5235 68.357 40.5134 68.8471C40.5109 69.0397 40.576 69.1122 40.7735 69.1122C43.8213 69.1072 46.8692 69.1072 49.9195 69.1122C50.1345 69.1122 50.2296 69.0397 50.2271 68.8171C50.2196 68.347 50.2196 67.877 50.2271 67.4069C50.2321 67.1844 50.1345 67.0969 49.9195 67.1119C49.3795 67.1519 48.8444 67.0443 48.3068 67.0468C47.7693 67.0468 47.4317 66.8118 47.3192 66.3867C47.2692 66.1967 47.2267 65.9942 47.2267 65.7992C47.2192 64.2489 47.2267 62.7012 47.2192 61.1509C47.2192 60.9209 47.2942 60.8309 47.5292 60.8334C49.897 60.8384 52.2673 60.8384 54.6351 60.8334C54.8701 60.8334 54.9501 60.9234 54.9451 61.1534C54.9076 62.8012 55.0126 64.4489 54.8851 66.0942C54.8426 66.6493 54.6801 66.8893 54.1425 66.9868C53.5249 67.0994 52.8949 67.1219 52.2673 67.1094C52.0223 67.1044 51.9247 67.1944 51.9297 67.4419C51.9397 67.882 51.9422 68.322 51.9297 68.7621C51.9222 69.0172 52.0073 69.1372 52.2748 69.1147C52.4323 69.1022 52.5948 69.1147 52.7548 69.1147C55.5527 69.1147 58.353 69.1147 61.1508 69.1147C61.5608 69.1147 61.5683 69.1072 61.5683 68.6921C61.5683 68.272 61.5608 67.852 61.5683 67.4319C61.5733 67.2019 61.4808 67.1144 61.2483 67.1119C60.8008 67.1069 60.3532 67.0768 59.9057 67.0543C59.1481 67.0143 58.863 66.7693 58.803 66.0717C58.7655 65.6366 58.7405 65.1966 58.738 64.759C58.7305 63.1687 58.7355 61.581 58.7355 59.6257L58.738 59.6232ZM34.9003 69.1122C35.4504 69.1122 36.0004 69.1122 36.5505 69.1122C37.4606 69.1122 38.3682 69.1122 39.2783 69.1122C39.4483 69.1122 39.6058 69.1072 39.6058 68.8721C39.6058 68.3621 39.6058 67.852 39.6058 67.3419C39.6058 67.2169 39.5583 67.1294 39.4208 67.1169C39.1833 67.0944 38.9433 67.0493 38.7082 67.0568C37.9907 67.0844 37.4781 66.7843 37.1681 66.1392C37.0781 65.9517 36.9955 65.7566 36.9205 65.5616C36.1329 63.5463 35.4604 61.4885 34.7028 59.4607C33.6627 56.6777 32.5275 53.9323 31.5949 51.1094C31.5349 50.9269 31.4349 50.8569 31.2474 50.8569C30.1373 50.8619 29.0296 50.8619 27.9195 50.8569C27.7395 50.8569 27.6545 50.9144 27.5995 51.0919C27.4195 51.672 27.2244 52.2471 27.0219 52.8222C26.2143 55.1175 25.3967 57.4129 24.5916 59.7107C24.2566 60.6709 23.8991 61.621 23.609 62.5987C23.3315 63.5338 22.979 64.4464 22.6439 65.3616C22.3989 66.0292 22.0839 66.6468 21.3538 66.9193C20.9237 67.0794 20.4687 67.0368 20.0261 67.0994C19.8111 67.1294 19.7286 67.2019 19.7311 67.4144C19.7386 67.8745 19.7411 68.3345 19.7311 68.7946C19.7261 69.0272 19.8186 69.1122 20.0511 69.1097C22.6289 69.1047 25.2092 69.1047 27.787 69.1097C27.997 69.1097 28.102 69.0447 28.097 68.8171C28.087 68.347 28.087 67.877 28.097 67.4069C28.102 67.1869 28.0145 67.0919 27.797 67.1069C27.2069 67.1494 26.6219 67.0493 26.0343 67.0418C25.3492 67.0343 25.1117 66.7018 25.3242 66.0517C25.6018 65.2091 25.9018 64.3714 26.1843 63.5313C26.2443 63.3563 26.3368 63.2813 26.5294 63.2838C28.3071 63.2913 30.0873 63.2888 31.865 63.2838C32.0525 63.2838 32.155 63.3538 32.2175 63.5313C32.4275 64.1239 32.6551 64.709 32.8676 65.3016C32.9626 65.5641 33.0776 65.8192 33.1326 66.0967C33.2301 66.5893 33.0626 66.8668 32.58 66.9843C32.455 67.0143 32.325 67.0343 32.1975 67.0418C31.6399 67.0794 31.0824 67.1319 30.5248 67.1044C30.2973 67.0944 30.2323 67.2069 30.2348 67.4169C30.2423 67.857 30.2523 68.297 30.2323 68.7371C30.2198 69.0347 30.3348 69.1122 30.6173 69.1097C32.0475 69.0997 33.4751 69.1047 34.9053 69.1047L34.9003 69.1122ZM88.929 50.8644C87.2688 50.8644 85.6111 50.8694 83.9509 50.8594C83.6909 50.8594 83.5908 50.9444 83.5983 51.2069C83.6108 51.657 83.6133 52.107 83.5983 52.5571C83.5883 52.8247 83.6784 52.9397 83.9584 52.9272C84.3584 52.9097 84.7585 52.9147 85.1585 52.9272C85.9636 52.9472 86.2512 53.1847 86.3612 53.9173C86.3812 54.0448 86.3737 54.1774 86.3737 54.3074C86.3737 58.0955 86.3737 61.8836 86.3737 65.6716C86.3737 65.7616 86.3837 65.8517 86.3712 65.9417C86.2461 66.8718 86.1461 66.9268 85.301 67.0468C84.8685 67.1069 84.4259 67.1144 83.9884 67.1119C83.7059 67.1119 83.5883 67.1944 83.6008 67.4869C83.6183 67.907 83.6183 68.327 83.6008 68.7471C83.5883 69.0397 83.7034 69.1247 83.9859 69.1222C85.356 69.1097 86.7237 69.1172 88.0939 69.1172C89.694 69.1172 91.2917 69.1122 92.8919 69.1222C93.1519 69.1222 93.2519 69.0347 93.2444 68.7746C93.2319 68.3345 93.2344 67.8945 93.2444 67.4544C93.2494 67.2144 93.1644 67.1169 92.9144 67.1144C92.3868 67.1094 91.8593 67.0819 91.3317 67.0543C90.7267 67.0218 90.4191 66.8143 90.3166 66.3542C90.2666 66.1217 90.2266 65.8867 90.2266 65.6441C90.2316 64.2439 90.2266 62.8462 90.2291 61.446C90.2291 60.7959 90.1616 60.8534 90.8192 60.8409C92.7719 60.8009 94.7321 60.9709 96.6723 60.6084C97.93 60.3733 98.9251 59.7682 99.6752 58.7206C100.57 57.4729 100.493 56.0552 100.298 54.6824C100.085 53.1797 99.0551 52.2346 97.6899 51.6445C96.3573 51.0719 94.9496 50.8944 93.517 50.8744C91.9868 50.8544 90.4591 50.8694 88.929 50.8694V50.8644ZM72.5946 69.1122C74.2348 69.1122 75.8725 69.1072 77.5127 69.1172C77.7877 69.1172 77.8877 69.0297 77.8752 68.7521C77.8577 68.302 77.8652 67.852 77.8727 67.4019C77.8752 67.2019 77.8027 67.1044 77.5927 67.1119C76.9726 67.1319 76.3575 67.0794 75.74 67.0568C74.8799 67.0218 74.5348 66.7068 74.5273 65.8467C74.5173 64.4665 74.5273 63.0887 74.5223 61.7085C74.5223 61.541 74.5673 61.4035 74.6698 61.2685C75.2499 60.4833 75.825 59.6932 76.395 58.8981C77.6652 57.1353 78.9603 55.3926 80.258 53.6523C80.518 53.3022 80.873 53.0647 81.3181 52.9747C81.6056 52.9147 81.8957 52.9072 82.1832 52.9247C82.4782 52.9422 82.5682 52.8222 82.5557 52.5396C82.5382 52.0895 82.5407 51.6395 82.5557 51.1919C82.5632 50.9444 82.4707 50.8594 82.2232 50.8594C79.6554 50.8644 77.0851 50.8644 74.5173 50.8594C74.2623 50.8594 74.1873 50.9619 74.1948 51.1994C74.2073 51.6495 74.2123 52.0995 74.1948 52.5471C74.1823 52.8397 74.2898 52.9347 74.5773 52.9247C75.0674 52.9072 75.5574 52.9097 76.045 52.9247C76.6926 52.9447 76.9176 53.3472 76.6051 53.9098C76.475 54.1449 76.3425 54.3824 76.185 54.5999C75.2574 55.8726 74.3223 57.1378 73.3922 58.4105C73.2572 58.5955 73.1722 58.608 73.0246 58.4055C72.3521 57.4679 71.7295 56.4952 71.0344 55.5726C70.6369 55.0475 70.1993 54.5474 69.9293 53.9398C69.7068 53.4347 69.8393 53.0722 70.3743 52.9747C70.8619 52.8847 71.3495 52.9397 71.837 52.9272C72.2946 52.9147 72.2946 52.9247 72.2946 52.4546C72.2946 52.0345 72.2846 51.6145 72.2971 51.1944C72.3046 50.9469 72.2121 50.8619 71.9645 50.8619C69.0167 50.8669 66.0689 50.8669 63.121 50.8619C62.866 50.8619 62.791 50.9644 62.7985 51.2019C62.811 51.662 62.8135 52.122 62.7985 52.5821C62.791 52.8472 62.8935 52.9322 63.151 52.9297C63.5661 52.9247 63.9836 52.8897 64.3937 53.0472C65.0912 53.3197 65.5488 53.8523 65.9588 54.4324C66.8389 55.6776 67.6765 56.9503 68.5041 58.2305C69.1442 59.2181 69.8218 60.1833 70.4919 61.1509C70.6519 61.3835 70.7194 61.6235 70.7169 61.9061C70.7069 63.1262 70.7094 64.3439 70.7169 65.5641C70.7169 65.8167 70.6794 66.0617 70.6369 66.3067C70.5669 66.7043 70.3343 66.9443 69.9218 66.9968C69.1792 67.0894 68.4316 67.1294 67.684 67.1119C67.4565 67.1069 67.3565 67.1869 67.364 67.4244C67.3765 67.8645 67.3815 68.3045 67.364 68.7421C67.3515 69.0372 67.464 69.1172 67.7465 69.1172C69.3642 69.1072 70.9844 69.1122 72.6046 69.1122H72.5946Z" fill="black"/>
<path d="M97.6574 37.6573C96.3273 37.5523 94.9246 37.4373 93.5195 37.3298C91.2092 37.1522 88.9089 36.8722 86.6112 36.5722C84.8485 36.3421 83.0908 36.0771 81.3381 35.782C78.0852 35.2369 74.8498 34.6143 71.6395 33.8617C70.3868 33.5692 69.1592 33.1591 67.9216 32.7991C65.3213 32.0415 62.7385 31.2238 60.2232 30.2162C58.0079 29.3285 55.7952 28.4259 53.6449 27.3857C53.3574 27.2457 53.0749 27.0982 52.7873 26.9557C52.4823 26.8031 52.4748 26.7631 52.7098 26.5056C53.9375 25.1504 55.1451 23.7752 56.3252 22.38C58.1479 20.2296 59.9681 18.0793 61.7709 15.914C62.0309 15.6014 62.3309 15.5564 62.6685 15.5814C63.4335 15.6364 64.1986 15.6989 64.9587 15.7939C65.9263 15.914 66.8964 16.0365 67.854 16.214C69.7468 16.5666 71.6145 17.0266 73.4497 17.6142C74.3123 17.8918 75.1599 18.2168 76.0075 18.5394C77.8777 19.252 79.6654 20.1346 81.4156 21.0923C82.7532 21.8249 84.0309 22.6625 85.3035 23.5051C87.2412 24.7878 88.9789 26.3131 90.6691 27.8933C91.6317 28.791 92.5268 29.7561 93.3969 30.7413C94.227 31.6814 95.0221 32.654 95.7597 33.6692C96.6173 34.8469 97.4174 36.0621 98.16 37.3148C98.3325 37.6073 98.2975 37.6573 97.945 37.6573C97.875 37.6573 97.8049 37.6573 97.6599 37.6573H97.6574Z" fill="black"/>
<path d="M21.2237 80.869C23.674 81.1765 26.1793 81.4216 28.6696 81.8091C30.6548 82.1167 32.6375 82.4367 34.6102 82.7993C36.803 83.2018 38.9782 83.6744 41.151 84.1695C42.9137 84.5721 44.6689 85.0096 46.4191 85.4647C48.4818 85.9998 50.477 86.7449 52.4898 87.4425C54.7 88.2076 56.8953 89.0227 59.018 90.0054C61.0583 90.9505 63.121 91.8482 65.0962 92.9258C65.3512 93.0634 65.6038 93.2059 65.8563 93.3484C66.1413 93.5059 66.1463 93.5334 65.9138 93.7785C64.8662 94.8786 63.8011 95.9638 62.7709 97.079C60.6632 99.3643 58.568 101.66 56.4852 103.968C56.2227 104.258 55.9477 104.353 55.5901 104.303C54.8525 104.203 54.11 104.138 53.3724 104.02C52.5373 103.888 51.7047 103.743 50.8771 103.57C48.2593 103.02 45.709 102.245 43.2362 101.225C40.6509 100.157 38.1882 98.8542 35.8479 97.324C34.4652 96.4189 33.1051 95.4787 31.8249 94.4336C30.2948 93.1809 28.8721 91.8082 27.5169 90.3679C26.6868 89.4853 25.8843 88.5677 25.1342 87.615C24.0715 86.2598 23.0614 84.8646 22.1863 83.3794C21.7713 82.6768 21.3587 81.9717 20.9537 81.264C20.8912 81.1565 20.7687 81.0315 20.8362 80.9165C20.9012 80.804 21.0587 80.894 21.2237 80.874V80.869Z" fill="black"/>
<path d="M59.7381 15.5464C59.8856 15.5814 60.0756 15.4789 60.1407 15.6239C60.2032 15.7639 60.0281 15.8615 59.9406 15.964C57.5629 18.7544 55.2601 21.6123 52.8423 24.3703C52.1772 25.1304 51.5047 25.8805 50.8396 26.6431C50.032 27.5683 48.9494 28.1434 48.0043 28.891C46.6166 29.9911 44.9714 30.5762 43.3512 31.1988C40.4309 32.319 37.4831 33.3642 34.5227 34.3743C32.9351 34.9169 31.3124 35.352 29.6972 35.812C27.5845 36.4146 25.4942 37.0997 23.4015 37.7698C22.7439 37.9799 22.0838 38.1799 21.4088 38.3224C21.3262 38.3399 21.2237 38.4024 21.1612 38.3074C21.1037 38.2199 21.1887 38.1399 21.2237 38.0599C21.5238 37.3623 21.9963 36.7697 22.3814 36.1221C22.6564 35.657 22.9389 35.1944 23.249 34.7594C23.379 34.5768 23.4565 34.3243 23.679 34.1993C23.8015 34.1318 23.759 33.9843 23.8065 33.8792C23.9115 33.6442 24.1816 33.5992 24.3016 33.3717C24.4791 33.0341 24.7866 32.7716 24.9767 32.449C25.2542 31.9814 25.6817 31.6639 26.0018 31.2438C26.7194 30.2962 27.582 29.4711 28.4045 28.6159C28.9471 28.0508 29.4897 27.4758 30.1197 26.9982C30.1272 26.9932 30.1372 26.9857 30.1397 26.9782C30.2798 26.5631 30.7748 26.5231 30.9848 26.1906C31.2224 25.8155 31.6574 25.7205 31.965 25.4429C32.275 25.1629 32.615 24.9154 32.9476 24.6603C34.1602 23.7302 35.4153 22.865 36.718 22.0674C38.0456 21.2548 39.4108 20.5097 40.816 19.8346C42.2036 19.167 43.6163 18.5694 45.0664 18.0618C46.6741 17.4992 48.2993 16.9891 49.9695 16.6366C50.9346 16.4315 51.8947 16.229 52.8698 16.079C54.43 15.8415 55.9927 15.7014 57.5704 15.6589C58.2979 15.6389 59.0305 15.6664 59.7381 15.5514V15.5464Z" fill="black"/>
<path d="M60.8457 104.425C59.8256 104.425 59.0955 104.428 58.3679 104.423C58.2579 104.423 58.0979 104.485 58.0479 104.348C58.0079 104.24 58.1429 104.163 58.2154 104.083C59.7056 102.44 61.2033 100.802 62.6909 99.1568C64.3436 97.324 66.0388 95.5287 67.749 93.751C68.1241 93.3609 68.5366 93.0158 68.9942 92.7233C69.5317 92.3782 70.0793 92.0407 70.5918 91.6606C72.067 90.5705 73.7847 90.0229 75.4874 89.4478C78.2877 88.5001 81.113 87.6175 83.9459 86.7699C86.3586 86.0498 88.8239 85.5222 91.2592 84.8846C92.8444 84.472 94.417 84.0095 95.9997 83.5819C96.5298 83.4394 97.0698 83.3294 97.6049 83.2093C97.6874 83.1918 97.7949 83.1418 97.8599 83.2243C97.9274 83.3094 97.8474 83.3969 97.8024 83.4694C97.0623 84.6271 96.2998 85.7647 95.4672 86.8624C94.7496 87.805 94.002 88.7227 93.2194 89.6053C92.2043 90.7455 91.1292 91.8307 89.999 92.8608C89.2765 93.5184 88.5439 94.161 87.7838 94.7736C86.9937 95.4112 86.1536 95.9838 85.3235 96.5664C83.3558 97.9491 81.2806 99.1568 79.1128 100.192C76.9276 101.237 74.6798 102.13 72.337 102.767C71.4344 103.012 70.5393 103.29 69.6242 103.48C68.3891 103.737 67.1489 103.978 65.8963 104.135C64.1236 104.355 62.3484 104.488 60.8507 104.43L60.8457 104.425Z" fill="black"/>
<path d="M59.9756 42.9456C46.4116 42.9456 32.8476 42.9456 19.2835 42.9456C19.1285 42.9456 18.9085 43.0231 18.831 42.8881C18.736 42.7281 18.911 42.5581 18.9735 42.3931C19.0135 42.288 19.0985 42.243 19.211 42.2455C19.311 42.2455 19.411 42.2455 19.511 42.2455C46.4991 42.2455 73.4897 42.2455 100.478 42.2455C100.973 42.2455 101.033 42.293 101.163 42.7256C101.21 42.8856 101.17 42.9531 101.003 42.9506C100.883 42.9506 100.763 42.9506 100.643 42.9506C87.0887 42.9506 73.5347 42.9506 59.9806 42.9506L59.9756 42.9456Z" fill="black"/>
<path d="M11.3326 52.9947C11.3851 53.2872 11.2801 53.5673 11.2726 53.8573C11.2676 54.0398 11.2051 54.1499 10.9551 54.1149C9.85496 53.9523 8.75234 53.8223 7.64971 53.6773C7.49719 53.6573 7.39968 53.6023 7.44219 53.4022C7.50719 53.1022 7.5222 52.7922 7.5822 52.4921C7.69972 51.927 8.05476 51.582 8.61732 51.4669C9.3149 51.3269 9.99498 51.4169 10.62 51.737C11.1126 51.987 11.4201 52.3946 11.3301 52.9972L11.3326 52.9947Z" fill="black"/>
<path d="M57.0478 9.33795C57.0428 9.93805 56.9203 10.5056 56.4177 10.8832C55.6577 11.4533 54.57 11.2633 54.1225 10.2306C53.8649 9.6355 53.7949 9.0004 53.9425 8.3603C54.1175 7.60519 54.6475 7.13261 55.3351 7.09511C56.0477 7.0551 56.6128 7.46767 56.8653 8.22528C56.9853 8.58534 57.0528 8.9579 57.0478 9.34046V9.33795Z" fill="black"/>
<path d="M106.476 74.293C106.523 73.1828 107.299 72.5477 108.346 72.6877C108.836 72.7527 109.296 72.8952 109.724 73.1428C110.431 73.5503 110.724 74.263 110.476 74.9606C110.244 75.6232 109.616 76.0982 108.689 75.9482C108.099 75.8532 107.541 75.7007 107.066 75.3231C106.706 75.0381 106.501 74.663 106.473 74.293H106.476Z" fill="black"/>
<path d="M11.0426 59.2031C11.0401 60.1758 10.525 60.7584 9.66994 60.9184C9.04487 61.0359 8.4273 60.9884 7.82973 60.7509C7.30217 60.5408 6.88212 59.9433 6.92463 59.3932C6.96963 58.7806 7.17965 58.2555 7.87473 58.013C8.68233 57.7304 9.49242 57.7254 10.2775 58.118C10.8026 58.383 11.0276 58.8306 11.0426 59.2006V59.2031Z" fill="black"/>
<path d="M71.797 9.69051C71.7895 10.2356 71.667 10.7557 71.4195 11.2407C71.0994 11.8708 70.4493 12.2059 69.8593 12.0959C69.0217 11.9409 68.5916 11.3083 68.5691 10.6382C68.5441 9.93555 68.6566 9.27545 69.0592 8.68285C69.4492 8.11027 70.0568 7.89023 70.7219 8.08526C71.3319 8.26279 71.7745 8.83788 71.797 9.47798C71.797 9.54799 71.797 9.618 71.797 9.68801V9.69051Z" fill="black"/>
<path d="M47.3417 9.90554C47.3417 8.64035 48.0868 7.97274 49.1744 8.11777C49.562 8.17028 49.8495 8.40031 50.0545 8.72286C50.5546 9.50548 50.7471 10.3506 50.4471 11.2482C50.2545 11.8283 49.767 12.0909 49.1894 12.1609C48.6894 12.2234 48.2868 12.0184 47.9618 11.6308C47.5017 11.0807 47.3817 10.4256 47.3392 9.90304L47.3417 9.90554Z" fill="black"/>
<path d="M14.2254 35.0444C14.6255 35.1044 15.0255 35.1694 15.4256 35.2244C15.5931 35.2469 15.5581 35.342 15.5106 35.432C15.3981 35.652 15.2731 35.8645 15.1581 36.0846C15.078 36.2371 14.988 36.2271 14.8855 36.1146C14.608 35.817 14.333 35.5195 14.0554 35.2219C14.0229 35.1869 13.9729 35.1444 14.0054 35.0944C14.0579 35.0144 14.1479 35.0544 14.2229 35.0419L14.2254 35.0444Z" fill="black"/>
<path d="M105.683 35.4645C105.708 35.4745 105.768 35.477 105.793 35.5095C105.828 35.5545 105.781 35.602 105.748 35.6395C105.481 35.9471 105.216 36.2571 104.946 36.5647C104.836 36.6922 104.741 36.7047 104.656 36.5321C104.551 36.3171 104.428 36.1121 104.316 35.902C104.251 35.7795 104.281 35.692 104.421 35.6545C104.448 35.647 104.481 35.6495 104.511 35.6445C104.893 35.587 105.276 35.5295 105.683 35.467V35.4645Z" fill="black"/>
<path d="M15.9206 86.8199C16.1757 86.8599 16.3632 86.9699 16.5007 87.1499C16.6707 87.37 16.8283 87.6 16.9933 87.8251C17.0833 87.9476 17.0608 88.0351 16.9308 88.1151C16.5932 88.3251 16.2582 88.5427 15.9281 88.7627C15.8181 88.8352 15.7481 88.8127 15.6781 88.7127C15.4831 88.4351 15.3031 88.1476 15.1906 87.8251C15.028 87.3575 15.4456 86.8049 15.9181 86.8224L15.9206 86.8199Z" fill="black"/>
<path d="M110.924 61.8861C110.916 61.2485 110.916 61.2585 111.557 61.3535C111.792 61.3885 112.034 61.3735 112.274 61.3735C112.427 61.3735 112.517 61.4185 112.522 61.5935C112.529 61.9336 112.522 62.2711 112.414 62.5987C112.297 62.9512 112.077 63.1062 111.694 63.0987C111.349 63.0912 111.069 62.8837 110.981 62.5687C110.959 62.4911 110.931 62.4136 110.926 62.3361C110.919 62.1861 110.924 62.0361 110.924 61.8861Z" fill="black"/>
<path d="M29.1021 54.9375C29.3797 55.6751 29.6347 56.3427 29.8847 57.0103C30.3623 58.278 30.8398 59.5482 31.3174 60.8159C31.4324 61.1184 31.4074 61.1659 31.0824 61.1659C29.8547 61.1684 28.6271 61.1684 27.3969 61.1659C27.0719 61.1659 27.0344 61.1109 27.1319 60.8159C27.747 58.9331 28.367 57.0503 28.9871 55.1675C29.0046 55.1125 29.0371 55.0625 29.1021 54.935V54.9375Z" fill="black"/>
<path d="M91.6217 52.9222C92.7894 52.9072 93.8495 52.9472 94.8821 53.2747C95.8597 53.5848 96.3373 54.2774 96.4248 55.26C96.4623 55.6851 96.4598 56.1202 96.4123 56.5452C96.2923 57.6479 95.6047 58.2555 94.5796 58.5355C93.767 58.7581 92.9344 58.8106 92.0968 58.8356C91.5992 58.8506 91.0992 58.8256 90.5991 58.8431C90.3141 58.8531 90.2191 58.7556 90.2216 58.468C90.2341 57.0603 90.2266 55.6526 90.2266 54.2449C90.2266 53.9048 90.2341 53.5648 90.2266 53.2272C90.2191 53.0097 90.3041 52.9172 90.5241 52.9222C90.9242 52.9297 91.3217 52.9222 91.6242 52.9222H91.6217Z" fill="black"/>
</svg>
