<svg width="340" height="91" viewBox="0 0 340 91" fill="none" xmlns="http://www.w3.org/2000/svg">
<path d="M47.0389 90.4455H42.9903C42.6884 90.3817 42.379 90.4023 42.0752 90.3836C40.8057 90.3029 39.5436 90.1585 38.2854 89.9729C36.1945 89.6635 34.1374 89.2003 32.1141 88.5964C28.733 87.5875 25.517 86.1942 22.4605 84.4295C19.5089 82.7249 16.7879 80.7052 14.2939 78.3817C12.3868 76.6058 10.6504 74.6724 9.08081 72.5908C6.31862 68.9247 4.16212 64.934 2.61882 60.6115C1.63621 57.8623 0.933006 55.0438 0.496081 52.1558C0.246678 50.4962 0.070408 48.8309 0.0272781 47.1563C-0.0121014 45.6073 -0.0233527 44.0564 0.0947857 42.5056C0.182921 41.3485 0.295434 40.1971 0.456702 39.0494C0.760486 36.8891 1.22554 34.7644 1.84623 32.6753C3.7327 26.3293 6.86618 20.6716 11.2279 15.6965C12.8612 13.8324 14.6483 12.1259 16.5704 10.56C20.0883 7.69459 23.9512 5.41237 28.1555 3.71336C31.6209 2.31251 35.2063 1.36362 38.9117 0.859166C40.3725 0.660385 41.8408 0.510362 43.3128 0.474731C45.0793 0.433475 46.8476 0.424099 48.6122 0.589124C49.6548 0.686639 50.6937 0.797281 51.7307 0.94918C53.8215 1.25673 55.8786 1.71992 57.902 2.32377C61.2905 3.33455 64.514 4.72976 67.5762 6.49816C70.5278 8.20467 73.2468 10.2244 75.7409 12.5478C77.3161 14.0162 78.775 15.5952 80.1251 17.2754C82.1879 19.8446 83.9468 22.6088 85.4039 25.5623C86.994 28.7878 88.181 32.1559 88.9593 35.6664C89.4581 37.9186 89.7956 40.1934 89.9362 42.5C89.955 42.8131 89.94 43.1282 90 43.4395V47.4882C89.9906 47.5539 89.9738 47.6214 89.9738 47.687C89.9587 48.5553 89.8725 49.4198 89.7806 50.2824C89.6362 51.6214 89.4299 52.9491 89.1674 54.2711C88.3761 58.2524 87.069 62.0573 85.2463 65.6842C83.3674 69.4216 81.014 72.8327 78.1824 75.9157C76.476 77.776 74.627 79.4788 72.6355 81.0278C69.1983 83.6963 65.4535 85.8248 61.3974 87.4037C57.0788 89.0859 52.6083 90.091 47.9784 90.3855C47.6671 90.4061 47.3502 90.3855 47.0407 90.4492L47.0389 90.4455ZM45.0699 11.6852C35.7932 11.839 27.8029 15.0213 21.2434 21.5342C14.6221 28.1071 11.4211 36.1671 11.2504 45.4648C11.3367 64.2252 26.3684 79.2575 45.0793 79.2106C63.6139 79.1656 78.6118 64.3883 78.7337 45.4985C78.5762 36.6622 75.7296 28.846 69.6314 22.3912C62.9801 15.3476 54.7122 11.8559 45.068 11.6852H45.0699ZM2.30004 45.6261C2.33191 46.4174 2.27191 47.3963 2.33754 48.3752C2.3863 49.0897 2.45568 49.8042 2.53819 50.5131C2.69946 51.8839 2.96574 53.2416 3.22077 54.5974C3.44204 55.7657 3.82083 56.8965 4.13024 58.0442C4.32902 58.7793 4.65905 59.4751 4.87658 60.2027C5.11473 60.9959 5.50665 61.7235 5.77481 62.5018C5.99421 63.1431 6.34675 63.732 6.63365 64.3471C6.99369 65.1253 7.41562 65.8754 7.84317 66.6199C8.30259 67.4188 8.79953 68.197 9.27958 68.9847C9.30583 69.0297 9.32833 69.0897 9.38834 69.0841C9.53086 69.0709 9.69963 68.6659 9.61899 68.5402C8.38323 66.6462 7.31623 64.6602 6.39738 62.5956C5.71105 61.0503 5.12036 59.4713 4.62905 57.8529C3.95772 55.6345 3.45517 53.3823 3.15326 51.0813C2.98824 49.823 2.88323 48.5609 2.81197 47.2951C2.77259 46.6106 2.79884 45.9224 2.80634 45.236C2.81384 44.6153 2.80072 43.9946 2.8401 43.3738C2.87573 42.8225 2.89823 42.2693 2.95074 41.7198C3.04637 40.7109 3.17576 39.7058 3.3389 38.7044C3.65582 36.7559 4.11712 34.8413 4.70031 32.9585C5.26475 31.1357 5.95295 29.3598 6.76867 27.6364C7.56563 25.9524 8.45074 24.3172 9.4671 22.7532C10.2172 21.5999 11.0104 20.4803 11.8617 19.4001C12.6062 18.455 13.3844 17.538 14.2133 16.6679C14.8958 15.9534 15.5934 15.2539 16.321 14.5825C16.9586 13.9937 17.6055 13.4199 18.2769 12.8723C19.5858 11.8071 20.9565 10.8226 22.3817 9.91681C23.955 8.91728 25.5921 8.03965 27.2798 7.25015C29.0237 6.43628 30.8164 5.75367 32.656 5.19671C34.8594 4.52911 37.0984 4.03215 39.3843 3.73211C40.6425 3.56708 41.9045 3.46207 43.1703 3.39081C43.8548 3.35142 44.543 3.38518 45.2293 3.38143C46.1125 3.37768 46.992 3.39831 47.8733 3.46582C48.4603 3.51082 49.0491 3.55021 49.6342 3.61959C50.6037 3.73586 51.5694 3.87275 52.5314 4.05091C54.2359 4.36596 55.918 4.77852 57.5701 5.29797C58.9971 5.74617 60.3941 6.26937 61.7668 6.86947C63.2407 7.51457 64.679 8.23093 66.0704 9.0373C67.6231 9.93556 69.1101 10.9351 70.5372 12.0228C71.6792 12.8929 72.7799 13.8118 73.8169 14.8019C75.1089 16.0378 76.3503 17.3242 77.4811 18.7157C78.248 19.6608 78.9888 20.6266 79.677 21.6299C80.5358 22.8807 81.3346 24.169 82.0491 25.508C82.7636 26.8469 83.4218 28.214 83.9937 29.6205C84.635 31.192 85.1863 32.7953 85.627 34.4343C85.9814 35.7527 86.289 37.0841 86.5121 38.4325C86.6565 39.3157 86.7709 40.2027 86.8759 41.0897C86.9828 41.988 87.0315 42.8881 87.084 43.7883C87.1234 44.4728 87.0878 45.161 87.0934 45.8473C87.1047 46.9106 87.0484 47.9683 86.9659 49.0278C86.9059 49.7873 86.8234 50.5431 86.7221 51.2951C86.5421 52.6415 86.2871 53.9748 85.9664 55.2951C85.5595 56.9809 85.0626 58.6387 84.4512 60.2646C84.0725 61.2716 83.6637 62.2655 83.2061 63.2407C82.7054 64.3114 82.1804 65.3691 81.5859 66.3893C81.2221 67.0156 80.8415 67.6326 80.4683 68.2533C80.4289 68.3171 80.3727 68.3771 80.4364 68.4558C80.5302 68.5721 80.6296 68.6846 80.7233 68.799C80.7852 68.8759 80.8115 68.859 80.8677 68.7784C81.3346 68.1201 81.7266 67.4188 82.1297 66.7231C82.6323 65.8511 83.1217 64.9715 83.5268 64.0452C83.8062 63.4057 84.1231 62.7812 84.4006 62.138C84.8582 61.0766 85.2201 59.9833 85.627 58.9031C85.9233 58.1155 86.0864 57.2904 86.334 56.4896C86.5777 55.7039 86.7634 54.9012 86.9172 54.093C87.1009 53.1272 87.2547 52.1539 87.3991 51.1825C87.5003 50.5037 87.581 49.823 87.6372 49.1385C87.686 48.5534 87.731 47.9664 87.7272 47.3738C87.7122 45.7798 87.7722 44.1858 87.6916 42.5937C87.6466 41.7067 87.5378 40.8272 87.4272 39.9458C87.2734 38.7231 87.0278 37.5154 86.8084 36.304C86.6021 35.1638 86.2158 34.0649 85.9289 32.9416C85.7039 32.0621 85.3232 31.2313 85.0532 30.365C84.8507 29.7199 84.5319 29.116 84.2919 28.4822C84.0256 27.7789 83.6693 27.1076 83.3336 26.4362C82.8967 25.5623 82.4373 24.6997 81.9347 23.8596C81.4997 23.132 81.0609 22.4044 80.5883 21.7011C80.1439 21.041 79.6807 20.3941 79.2044 19.7527C78.8087 19.2201 78.3924 18.7063 77.9743 18.1962C77.6517 17.8024 77.3198 17.4123 76.9729 17.0335C76.3916 16.4016 75.8234 15.7565 75.2083 15.1564C74.4039 14.3687 73.5956 13.5849 72.7143 12.8816C72.3542 12.5947 72.0392 12.2572 71.6548 11.9965C71.3304 11.7752 71.0453 11.4939 70.7247 11.2651C69.8508 10.6425 68.977 10.02 68.075 9.43674C67.3999 8.99979 66.7099 8.58723 66.0104 8.1953C65.1591 7.7171 64.3077 7.23515 63.4057 6.84884C62.8094 6.5938 62.2394 6.2825 61.6299 6.05372C61.0636 5.84181 60.5254 5.55114 59.9535 5.36736C58.8958 5.02793 57.8664 4.60224 56.7806 4.34345C55.6649 4.07716 54.5716 3.72461 53.4333 3.5352C52.0738 3.30829 50.7218 3.03638 49.3454 2.91073C48.5803 2.84135 47.8171 2.74196 47.0482 2.74196C45.5781 2.74196 44.1098 2.74008 42.6396 2.74383C42.3565 2.74383 42.0714 2.76258 41.7901 2.79259C40.9163 2.88635 40.0406 2.97637 39.1686 3.09263C38.1991 3.22203 37.2428 3.42081 36.2808 3.58208C35.09 3.78274 33.933 4.15217 32.7685 4.4766C31.8928 4.72039 31.0339 5.02981 30.177 5.33923C29.4831 5.59052 28.7987 5.86994 28.1217 6.16436C27.3341 6.50754 26.5503 6.86009 25.7852 7.2464C25.367 7.45831 24.9639 7.70397 24.5382 7.90463C24.0244 8.14654 23.5612 8.47284 23.0643 8.74476C22.5242 9.0373 22.0123 9.39173 21.4928 9.72553C21.1722 9.92994 20.8815 10.1812 20.5609 10.3838C19.7039 10.9276 18.9182 11.5689 18.1231 12.1953C17.718 12.5141 17.3299 12.861 16.9398 13.2042C16.2029 13.8493 15.4865 14.5169 14.7871 15.2014C14.3127 15.6664 13.8757 16.169 13.4182 16.651C12.9269 17.1686 12.4581 17.7086 12.0136 18.2637C11.6198 18.755 11.2185 19.2426 10.8416 19.7527C10.3672 20.3941 9.90778 21.0448 9.45585 21.6993C8.89891 22.5075 8.38885 23.3495 7.90692 24.2046C7.41749 25.0748 6.92056 25.943 6.52114 26.8619C6.23986 27.5089 5.9192 28.139 5.63792 28.7897C5.18224 29.8436 4.82032 30.9294 4.41903 32.0021C4.15275 32.7128 4.00836 33.4573 3.78145 34.1774C3.40079 35.3926 3.16076 36.6397 2.93948 37.8886C2.75009 38.9519 2.57569 40.0189 2.47256 41.0972C2.40692 41.7873 2.32254 42.4775 2.30754 43.1713C2.29066 43.9271 2.30379 44.6828 2.30379 45.6261H2.30004ZM68.6376 81.2172C68.195 80.5121 67.79 79.8576 67.3737 79.2106C67.2687 79.0475 67.2574 78.9068 67.3381 78.7305C67.6437 78.0554 67.9381 77.3747 68.2325 76.6958C68.255 76.6452 68.3132 76.5833 68.2663 76.5327C68.2213 76.4839 68.1538 76.5289 68.0975 76.5439C67.3887 76.7296 66.678 76.9078 65.9729 77.1047C65.7797 77.159 65.6541 77.114 65.5116 76.9846C64.9847 76.5083 64.4446 76.0432 63.9083 75.5763C63.867 75.5407 63.8277 75.4694 63.7601 75.5069C63.7151 75.5313 63.7076 75.5951 63.7039 75.6476C63.6439 76.3846 63.5782 77.1197 63.5239 77.8585C63.5126 78.0086 63.4657 78.1061 63.3326 78.1811C62.7157 78.5355 62.1025 78.8974 61.4911 79.2575C61.4124 79.3044 61.313 79.3288 61.268 79.4394C61.9768 79.7188 62.6669 80.0001 63.3664 80.2608C63.612 80.3527 63.7508 80.4783 63.7995 80.7558C63.9308 81.4891 64.0996 82.2148 64.2552 82.9462C64.3658 82.9256 64.4015 82.8449 64.4521 82.7849C64.9078 82.2392 65.3635 81.6916 65.8116 81.1403C65.9073 81.0221 66.0085 80.9678 66.1567 80.9809C66.5805 81.0221 67.0043 81.0578 67.4281 81.099C67.8125 81.1347 68.1969 81.174 68.6395 81.2172H68.6376ZM28.4049 79.2856C28.2792 79.2087 28.2024 79.1618 28.1273 79.1168C27.5142 78.7568 26.901 78.3967 26.2859 78.0386C26.1921 77.9842 26.1171 77.9242 26.1077 77.8004C26.0496 77.0559 25.9859 76.3114 25.9258 75.5669C25.9202 75.4919 25.9315 75.4 25.8583 75.3663C25.789 75.3363 25.7421 75.4188 25.6933 75.46C25.157 75.927 24.6207 76.3939 24.09 76.8684C23.9662 76.979 23.8556 77.0203 23.6868 76.9734C22.9724 76.7784 22.2561 76.5965 21.5397 76.4108C21.4778 76.3939 21.4028 76.3395 21.3541 76.4033C21.3184 76.4521 21.3747 76.5158 21.3972 76.5683C21.6935 77.2472 21.9898 77.926 22.2936 78.603C22.3686 78.7718 22.3611 78.9087 22.2579 79.0643C22.0385 79.3944 21.8323 79.7338 21.6222 80.0695C21.4216 80.3902 21.2191 80.7127 21.0072 81.0503C21.2003 81.099 21.3597 81.0334 21.5191 81.0221C22.106 80.9753 22.693 80.9077 23.2799 80.8571C23.4581 80.8421 23.6456 80.7896 23.7956 80.9771C24.1688 81.446 24.5513 81.9073 24.9395 82.363C25.0707 82.5167 25.1739 82.7024 25.3689 82.8243C25.5358 82.0348 25.7046 81.2697 25.8565 80.5008C25.8902 80.3302 25.9784 80.2383 26.1265 80.1801C26.5165 80.0282 26.9066 79.8763 27.2948 79.7244C27.6473 79.5857 27.9998 79.445 28.4049 79.2856ZM48.8447 83.6119C48.7153 83.5594 48.6234 83.5444 48.5278 83.5313C47.8246 83.4319 47.1233 83.325 46.4201 83.2312C46.27 83.2106 46.1988 83.1356 46.1388 83.0156C45.8144 82.3742 45.4843 81.7347 45.1543 81.0972C45.1205 81.0334 45.1055 80.9321 45.023 80.9303C44.9349 80.9265 44.9255 81.0315 44.8936 81.0953C44.5748 81.731 44.2561 82.3686 43.941 83.0062C43.8773 83.1356 43.8023 83.2162 43.6429 83.235C43.1084 83.295 42.5759 83.3737 42.0433 83.4469C41.7695 83.4844 41.4939 83.5219 41.2201 83.5594C41.2107 83.5819 41.2013 83.6044 41.1901 83.6269C41.2351 83.655 41.2857 83.6757 41.3232 83.7113C41.8577 84.2251 42.3865 84.7465 42.9284 85.2528C43.084 85.3991 43.1272 85.5435 43.0878 85.7479C42.9603 86.4305 42.844 87.1168 42.7259 87.8013C42.7146 87.8651 42.6546 87.942 42.7221 87.9888C42.784 88.0338 42.8478 87.9645 42.904 87.9344C43.5322 87.6006 44.1642 87.2725 44.7867 86.9293C44.9649 86.8318 45.1055 86.8318 45.2855 86.9293C45.9081 87.2744 46.5382 87.6025 47.1683 87.9363C47.2245 87.9663 47.2864 88.0376 47.3502 87.987C47.4158 87.9363 47.3539 87.8613 47.3427 87.7976C47.217 87.0831 47.097 86.3686 46.9582 85.656C46.9264 85.4928 46.962 85.3878 47.0783 85.2809C47.5227 84.8684 47.9615 84.4483 48.404 84.032C48.5447 83.9007 48.6834 83.7676 48.8447 83.6157V83.6119ZM13.977 21.2098C13.9901 21.1967 14.0051 21.1835 14.0182 21.1704C14.0445 21.1798 14.0726 21.1854 14.0951 21.2004C14.6071 21.5755 15.1209 21.9468 15.6291 22.3256C15.9985 22.6013 16.0003 22.6088 15.7416 23.0082C15.6291 23.1807 15.7922 23.207 15.8691 23.2801C15.946 23.3533 16.0247 23.4095 16.111 23.2914C16.441 22.8394 16.7729 22.3875 17.103 21.9374C17.178 21.8361 17.163 21.7649 17.043 21.7086C16.938 21.6599 16.8479 21.5023 16.726 21.673C16.5085 21.9768 16.4973 22.0368 16.1129 21.7443C16.0716 21.7124 16.0247 21.6861 15.9835 21.6561C15.4472 21.2642 14.9108 20.8741 14.3745 20.4822C14.2376 20.3828 14.1983 20.2647 14.3089 20.1203C14.3445 20.0734 14.3727 20.0171 14.412 19.974C14.4908 19.8877 14.4964 19.8015 14.3858 19.7583C14.2845 19.7189 14.2039 19.4977 14.0576 19.6946C13.7782 20.0715 13.5044 20.4541 13.2232 20.831C13.1519 20.9266 13.1706 21.0035 13.2307 21.0954C13.4951 21.5023 13.7557 21.9112 14.0164 22.32C14.1495 22.5281 14.2808 22.7363 14.4139 22.9426C14.4814 23.0457 14.4345 23.0795 14.3333 23.0645C14.2676 23.0551 14.2058 23.0251 14.1401 23.0045C13.5119 22.8094 12.8856 22.6163 12.2593 22.4194C12.1449 22.3837 12.0586 22.3969 11.9855 22.4981C11.7192 22.8676 11.4548 23.2389 11.1792 23.6008C11.0723 23.7414 11.0835 23.8352 11.2261 23.9346C11.3611 24.0284 11.4473 24.0302 11.5523 23.8765C11.7155 23.6327 11.7792 23.627 12.0211 23.8015C12.6006 24.2215 13.1781 24.6472 13.752 25.0748C14.0445 25.2923 14.0445 25.3111 13.8476 25.6092C13.8138 25.6599 13.7351 25.6936 13.7763 25.7799C13.872 25.9805 14.1158 26.0087 14.247 25.8324C14.5002 25.4911 14.7477 25.1442 15.0084 24.8085C15.1321 24.6491 15.1209 24.5553 14.9465 24.4372C14.7758 24.3209 14.7158 24.4147 14.6296 24.5253C14.4345 24.7785 14.3989 24.7841 14.142 24.6003C13.8213 24.3697 13.5063 24.1296 13.1875 23.8952C12.9306 23.7077 12.6587 23.5408 12.4262 23.3083C12.5256 23.237 12.6006 23.2932 12.6737 23.3158C13.5382 23.5783 14.4008 23.8446 15.2653 24.1052C15.3571 24.1334 15.4547 24.2009 15.5428 24.0696C15.6272 23.944 15.6834 23.8408 15.5803 23.6889C15.344 23.3439 15.1265 22.9857 14.8996 22.635C14.5921 22.1587 14.2845 21.6842 13.9751 21.2079L13.977 21.2098ZM34.1262 10.1662C33.8843 10.1662 33.858 9.98057 33.8092 9.84743C33.5692 9.1967 33.3386 8.54035 33.1098 7.88587C32.9879 7.53519 32.9916 7.51644 33.3536 7.38705C33.528 7.32329 33.5036 7.2314 33.4605 7.0945C33.4154 6.94823 33.3573 6.90322 33.2035 6.96136C32.686 7.15639 32.1666 7.34016 31.6452 7.52394C31.5252 7.56707 31.4952 7.62708 31.529 7.76023C31.5796 7.96839 31.6734 7.99839 31.8628 7.92713C32.1816 7.80711 32.2116 7.82774 32.341 8.14466C32.4197 8.33782 32.4891 8.53472 32.5622 8.73163C32.6035 8.84039 32.5791 8.91166 32.4572 8.95104C32.1872 9.03918 31.9228 9.13857 31.6527 9.23046C31.0752 9.42549 31.0789 9.42361 30.8764 8.85352C30.7095 8.3847 30.6589 8.34344 31.1577 8.16904C31.3471 8.10341 31.2308 7.97776 31.2121 7.87275C31.1896 7.75085 31.1202 7.71147 31.0002 7.7546C30.4732 7.94401 29.9482 8.13716 29.4194 8.31907C29.2318 8.3847 29.275 8.48972 29.3162 8.63224C29.365 8.80476 29.4512 8.78789 29.5844 8.74288C29.8825 8.64349 29.9557 8.68662 30.0644 8.98854C30.3045 9.65615 30.5482 10.3219 30.7901 10.9895C30.8877 11.2576 30.8427 11.3702 30.5707 11.4639C30.4207 11.5146 30.3607 11.5746 30.4245 11.7358C30.4864 11.8952 30.5576 11.9571 30.7395 11.8859C31.2252 11.6946 31.7184 11.5164 32.2116 11.3477C32.3803 11.2895 32.3991 11.2108 32.356 11.0495C32.2922 10.8057 32.1497 10.8938 32.0109 10.9407C31.709 11.0401 31.6565 11.0157 31.5496 10.7213C31.4784 10.5244 31.4165 10.3237 31.3321 10.1325C31.2477 9.94119 31.3133 9.8418 31.4971 9.77991C31.8796 9.65052 32.2622 9.523 32.6391 9.38048C32.761 9.3336 32.7966 9.3861 32.8285 9.48174C32.8979 9.67865 32.9691 9.87556 33.0367 10.0725C33.1829 10.4925 33.1829 10.4963 32.7648 10.6726C32.6429 10.7232 32.5979 10.7869 32.6654 10.9107C32.7216 11.012 32.716 11.1751 32.9185 11.0945C33.2017 10.982 33.4961 10.892 33.7849 10.7888C34.0305 10.7007 34.2743 10.6069 34.52 10.5169C34.6362 10.4738 34.6493 10.41 34.6118 10.2919C34.5518 10.1043 34.4637 10.0293 34.2724 10.125C34.2199 10.1512 34.1599 10.1587 34.1262 10.1681V10.1662ZM82.1972 38.5262C82.2366 38.665 82.1391 38.7006 82.0416 38.7212C81.8522 38.7625 81.6609 38.7906 81.4697 38.8281C81.0271 38.9144 80.9934 38.8994 80.8958 38.4587C80.8621 38.3031 80.7608 38.3068 80.6596 38.3368C80.5696 38.3631 80.4177 38.3424 80.457 38.5318C80.5733 39.0869 80.6821 39.642 80.7852 40.2009C80.8115 40.3415 80.8865 40.364 81.0065 40.3565C81.2315 40.3434 81.2334 40.2027 81.2071 40.0321C81.1677 39.7583 81.2128 39.6945 81.4659 39.6439C82.1766 39.5051 82.8892 39.3814 83.5962 39.2276C83.9487 39.1507 84.0012 39.2107 84.065 39.5426C84.1043 39.747 84.2112 39.7001 84.3369 39.687C84.4831 39.672 84.5263 39.6101 84.4962 39.4639C84.3837 38.9163 84.2787 38.3668 84.1737 37.8174C84.1418 37.6467 84.0387 37.6617 83.9056 37.688C83.7705 37.7142 83.6918 37.7517 83.7443 37.9074C83.763 37.9636 83.7499 38.0274 83.7649 38.0855C83.8118 38.2749 83.7199 38.3706 83.5511 38.41C83.3261 38.4606 83.0973 38.5018 82.8723 38.5506C82.7336 38.5806 82.6717 38.5318 82.6454 38.3893C82.5798 38.0293 82.4991 37.673 82.4279 37.3148C82.366 37.0016 82.3679 37.0016 82.6942 36.9322C82.8254 36.9041 82.9567 36.8741 83.088 36.8497C83.478 36.7785 83.5061 36.7897 83.5868 37.1741C83.6299 37.3842 83.7443 37.3823 83.9093 37.3467C84.0968 37.3054 84.0443 37.1816 84.0218 37.0672C83.9243 36.5703 83.8193 36.0733 83.7312 35.5745C83.703 35.4114 83.6749 35.3082 83.4686 35.3514C83.2755 35.3907 83.2511 35.4845 83.2924 35.657C83.3524 35.9064 83.2942 35.9815 83.0467 36.0321C82.3454 36.1727 81.6422 36.3115 80.9408 36.454C80.5808 36.5272 80.5489 36.5122 80.4364 36.1577C80.3933 36.0208 80.3258 35.9721 80.1701 36.0152C80.0239 36.0565 79.9676 36.1052 80.0014 36.2609C80.1083 36.7634 80.2039 37.2698 80.3033 37.7742C80.352 38.0199 80.397 38.0368 80.6389 37.9843C80.8621 37.9355 80.7533 37.793 80.7346 37.688C80.6989 37.4967 80.7046 37.3373 80.9333 37.2867C81.209 37.2266 81.4884 37.176 81.7659 37.1179C81.8672 37.0972 81.9122 37.1254 81.9328 37.2323C82.0172 37.6636 82.1091 38.093 82.1991 38.5243L82.1972 38.5262ZM5.81981 52.0714C5.81419 51.7545 5.84231 51.7095 6.18548 51.6645C6.85118 51.5764 7.51688 51.4976 8.18445 51.4301C8.59138 51.3888 8.59325 51.402 8.70389 51.7808C8.73202 51.8745 8.7639 51.9327 8.88578 51.927C9.12206 51.9158 9.17457 51.867 9.14269 51.6251C9.13144 51.537 9.11269 51.4488 9.10331 51.3607C9.05455 50.9463 9.0133 50.5299 8.95517 50.1174C8.94204 50.0199 8.93642 49.8698 8.7639 49.8998C8.6195 49.9242 8.45261 49.9317 8.50512 50.1624C8.52012 50.2261 8.50324 50.2974 8.50512 50.3649C8.51262 50.5056 8.42823 50.5787 8.30822 50.5975C8.04381 50.6387 7.77566 50.6631 7.50938 50.6987C7.35749 50.7175 7.28248 50.6387 7.2656 50.5037C7.21497 50.1043 7.16996 49.7048 7.12308 49.3035C7.10621 49.1535 7.16621 49.0897 7.32561 49.086C7.50375 49.0841 7.68377 49.0597 7.86004 49.0297C8.29134 48.9547 8.35885 48.9941 8.41511 49.4235C8.43386 49.5698 8.51824 49.6035 8.63263 49.5754C8.73577 49.5492 8.88953 49.5623 8.86516 49.3729C8.79202 48.8047 8.71702 48.2346 8.65513 47.6645C8.63451 47.4751 8.52387 47.5314 8.41511 47.5445C8.30072 47.5576 8.1657 47.5482 8.21071 47.7245C8.28947 48.0339 8.27447 48.1746 7.80004 48.2252C7.22997 48.2852 6.66178 48.364 6.09172 48.4352C5.93607 48.454 5.78043 48.484 5.62479 48.4859C5.35476 48.4859 5.35476 48.2552 5.33413 48.0827C5.30225 47.8277 5.13161 47.9777 5.0266 47.9589C4.89533 47.9364 4.89346 48.0283 4.90658 48.1333C4.97222 48.6959 5.03222 49.2604 5.09598 49.823C5.11098 49.9505 5.19349 50.0011 5.31913 49.9842C5.52915 49.9561 5.57228 49.8867 5.52728 49.6579C5.48602 49.4423 5.55916 49.311 5.76168 49.2791C6.00358 49.2397 6.24923 49.2154 6.49301 49.1872C6.5849 49.176 6.65053 49.2004 6.66366 49.3129C6.71429 49.7573 6.77054 50.2018 6.82868 50.6443C6.8418 50.7456 6.80055 50.7775 6.71054 50.7887C6.50426 50.815 6.29799 50.8562 6.08984 50.875C5.72042 50.9087 5.68667 50.8769 5.64167 50.4999C5.62854 50.3837 5.59291 50.2786 5.45414 50.3049C5.32476 50.3293 5.15224 50.3274 5.18224 50.5468C5.25912 51.1 5.33413 51.6532 5.40164 52.2083C5.41477 52.3058 5.45227 52.3283 5.54415 52.3302C5.81419 52.3377 5.82544 52.3302 5.81981 52.0695V52.0714ZM7.98756 31.8539C8.07007 31.8296 8.09632 31.8183 8.12445 31.8127C9.06393 31.6477 10.0015 31.4658 10.9429 31.3251C11.3179 31.2689 11.5523 31.1413 11.648 30.7513C11.7192 30.4625 11.7511 30.4737 11.4623 30.3593C10.6485 30.0405 9.83652 29.7217 9.02455 29.3992C8.67951 29.2623 8.67201 29.2567 8.78452 28.8966C8.84266 28.711 8.73202 28.6903 8.60638 28.6397C8.47511 28.5872 8.41323 28.5891 8.35885 28.7428C8.20133 29.1779 8.03444 29.6111 7.84879 30.0349C7.77378 30.2056 7.81691 30.2637 7.97068 30.3387C8.20696 30.4531 8.23321 30.2806 8.28947 30.1399C8.39823 29.8699 8.45824 29.8418 8.72639 29.9468C9.17832 30.1231 9.63212 30.2937 10.0822 30.4775C10.1853 30.5206 10.3147 30.5337 10.3953 30.6538C10.3128 30.6781 10.2434 30.7081 10.1703 30.7213C9.30396 30.8732 8.43761 31.0251 7.57126 31.1676C7.44937 31.1882 7.38186 31.2332 7.33873 31.3401C7.17934 31.7508 7.01807 32.1615 6.85493 32.5703C6.81742 32.6659 6.83618 32.7184 6.93556 32.7616C7.19434 32.8741 7.20559 32.876 7.31811 32.5984C7.39499 32.4053 7.5075 32.3265 7.71565 32.4147C8.03819 32.5516 8.36635 32.6772 8.69264 32.8047C9.06018 32.9491 9.43147 33.0879 9.79901 33.236C10.0765 33.3485 10.1047 33.4161 10.0109 33.6917C9.99966 33.7274 9.99404 33.7667 9.97528 33.7986C9.8684 33.9749 10.0203 33.9974 10.1215 34.0424C10.2322 34.093 10.3222 34.1118 10.3803 33.9505C10.5453 33.5023 10.7254 33.0598 10.911 32.6191C10.9898 32.4315 10.9541 32.349 10.7535 32.2796C10.5866 32.2215 10.5622 32.3059 10.5153 32.4128C10.3466 32.7953 10.3447 32.7935 9.95466 32.6397C9.664 32.5234 9.36959 32.4147 9.07706 32.3003C8.72639 32.1615 8.3776 32.019 7.98193 31.8577L7.98756 31.8539ZM83.6749 50.5843C83.6037 50.71 83.5043 50.7362 83.418 50.7719C82.6098 51.1038 81.8109 51.4582 80.9877 51.7508C80.6127 51.8839 80.4102 52.0733 80.4045 52.4671C80.4045 52.4821 80.397 52.4952 80.3952 52.5102C80.3764 52.6603 80.3952 52.7578 80.5883 52.7878C81.479 52.9228 82.3679 53.0785 83.2567 53.2247C83.628 53.2847 83.6637 53.3185 83.6093 53.6879C83.5774 53.9055 83.7387 53.838 83.8324 53.8736C83.9506 53.9186 84.02 53.8811 84.0406 53.7554C84.1156 53.2922 84.1943 52.829 84.2637 52.3658C84.2787 52.259 84.3294 52.1146 84.1325 52.0958C83.9806 52.0808 83.8606 52.0508 83.8306 52.2852C83.7855 52.6359 83.673 52.6884 83.3186 52.6246C83.1573 52.5965 82.9961 52.5721 82.8329 52.544C82.441 52.4784 82.0491 52.4127 81.6253 52.3415C81.7303 52.2177 81.8428 52.1971 81.9403 52.1558C82.7073 51.8408 83.4743 51.5313 84.2412 51.2163C84.3444 51.175 84.4606 51.1357 84.4813 51.0044C84.5469 50.5768 84.6031 50.1493 84.6744 49.7236C84.6988 49.5735 84.6706 49.4967 84.5075 49.4854C84.3612 49.4742 84.2581 49.461 84.2431 49.6729C84.2206 49.9805 84.11 50.0592 83.8699 50.0199C83.1874 49.9055 82.5029 49.7892 81.8203 49.6729C81.3628 49.596 81.359 49.5942 81.3909 49.1347C81.3984 49.0203 81.4003 48.9397 81.2559 48.9472C81.1396 48.9528 80.9915 48.8384 80.9577 49.0785C80.8865 49.5792 80.7927 50.078 80.7064 50.5768C80.6783 50.74 80.8021 50.7606 80.909 50.7906C81.0252 50.8225 81.119 50.7906 81.1527 50.6631C81.1734 50.5843 81.1884 50.5037 81.2053 50.423C81.2334 50.2787 81.3215 50.2224 81.4622 50.2449C82.1897 50.3593 82.9173 50.4737 83.6712 50.5918L83.6749 50.5843ZM71.8892 16.9979C71.9548 17.0935 71.9098 17.1629 71.8929 17.2342C71.681 18.0968 71.4691 18.9576 71.2591 19.8202C71.1222 20.3828 71.1297 20.3772 71.5273 20.7841C71.6529 20.9116 71.7279 20.9116 71.8517 20.7841C72.4555 20.169 73.0668 19.5633 73.6763 18.9538C74.0026 18.6275 74.0044 18.6238 74.3964 18.8826C74.5389 18.9763 74.5801 18.8451 74.6514 18.7851C74.7208 18.7269 74.7958 18.6613 74.6983 18.5638C74.3382 18.2037 73.9782 17.8437 73.6181 17.4836C73.5469 17.4105 73.4831 17.4161 73.4044 17.4817C73.2 17.6468 73.1962 17.673 73.3912 17.8755C73.6013 18.0949 73.6013 18.185 73.3894 18.3987C73.0256 18.7644 72.6599 19.1301 72.2924 19.4939C72.2417 19.5445 72.2005 19.6158 72.1142 19.6139C72.0561 19.5408 72.1011 19.4714 72.118 19.4001C72.3205 18.5656 72.5211 17.7311 72.7293 16.9004C72.7705 16.7316 72.7593 16.606 72.6243 16.4784C72.3392 16.2122 72.0673 15.9346 71.7973 15.6533C71.6923 15.5446 71.621 15.5333 71.5048 15.6458C71.3735 15.7733 71.3623 15.8559 71.501 15.989C71.7242 16.2009 71.7167 16.2965 71.5048 16.5085C71.0191 16.996 70.5297 17.4836 70.0421 17.9712C69.7233 18.29 69.7158 18.2975 69.4083 17.9862C69.2751 17.8512 69.2039 17.9093 69.0989 18.0106C68.9882 18.1156 68.9751 18.1906 69.0933 18.3031C69.4327 18.6313 69.7627 18.9688 70.0965 19.3026C70.284 19.4902 70.3028 19.4845 70.4734 19.2876C70.6234 19.1151 70.4509 19.0495 70.3721 18.9632C70.1677 18.7419 70.1621 18.7007 70.374 18.4869C70.7547 18.1043 71.1354 17.7218 71.5179 17.343C71.6342 17.2286 71.7336 17.0954 71.8911 17.0035L71.8892 16.9979ZM6.98807 38.0968C6.27736 38.1305 5.7373 38.3856 5.44102 39.0476C5.30788 39.3457 5.246 39.6551 5.20474 39.9739C5.12598 40.5722 5.0341 41.1685 4.95909 41.7648C4.94596 41.8661 4.89346 42.0086 5.09973 42.0293C5.27037 42.0443 5.39601 42.0368 5.39976 41.8286C5.40351 41.5679 5.54791 41.4967 5.78043 41.5286C5.85357 41.5379 5.93045 41.5342 6.00358 41.5436C6.6299 41.6279 7.2581 41.7142 7.88442 41.8005C8.22383 41.8474 8.35697 41.9261 8.25384 42.2693C8.21633 42.3949 8.26884 42.4812 8.40948 42.4718C8.52199 42.4643 8.68701 42.5693 8.70389 42.3256C8.72264 42.0443 8.78265 41.7648 8.81265 41.4836C8.87641 40.8572 9.05268 40.2402 8.97017 39.6008C8.91579 39.1807 8.76202 38.8188 8.41698 38.5431C7.98756 38.2018 7.47937 38.1493 6.99182 38.0968H6.98807ZM41.777 5.3036C41.0869 5.30923 40.5413 5.43487 40.1043 5.84743C39.5324 6.38564 39.4143 7.05512 39.568 7.79961C39.6749 8.30781 39.9318 8.71288 40.3706 8.99042C40.8975 9.32422 41.4714 9.3711 42.0714 9.25483C42.4859 9.1742 42.8646 9.01105 43.1534 8.70725C43.8266 7.99839 43.8454 6.91072 43.3428 6.1381C42.9584 5.54739 42.3677 5.30735 41.777 5.30172V5.3036ZM81.3421 54.1099C80.9634 54.1155 80.8546 54.153 80.6389 54.2318C79.7145 54.5656 79.2738 55.8145 79.3863 56.6378C79.5607 57.9148 80.9408 58.468 81.9141 58.2299C83.1855 57.9186 83.6918 56.2983 83.2867 55.3119C82.9323 54.4493 82.2179 54.138 81.3403 54.1117L81.3421 54.1099ZM6.72929 47.0644C7.42124 47.1132 8.04194 46.7831 8.37573 46.2899C8.68139 45.8361 8.75827 45.3298 8.74514 44.7953C8.72452 43.9289 8.13195 43.1676 7.28998 42.9819C6.52114 42.8131 5.80856 42.9256 5.25537 43.537C4.79782 44.0452 4.69281 44.6584 4.76219 45.3316C4.87658 46.4324 5.74855 47.1188 6.72929 47.0663V47.0644ZM52.7395 10.0012C53.304 10.0275 53.7934 9.84555 54.1741 9.43486C54.6541 8.91728 54.7798 8.27406 54.6972 7.59895C54.6429 7.16764 54.416 6.80758 54.0747 6.51879C53.724 6.22249 53.319 6.08935 52.8745 6.01621C52.0176 5.87369 51.2919 6.16623 50.8362 6.90322C50.4536 7.52207 50.3955 8.48034 50.8662 9.12731C51.3294 9.76491 51.9857 9.98245 52.7358 10.0012H52.7395ZM36.6333 10.0406C36.999 10.0743 37.3646 9.96932 37.7153 9.81555C38.5385 9.45174 38.9586 8.57973 38.7767 7.66459C38.6979 7.26703 38.5573 6.89947 38.2723 6.6088C37.7528 6.07809 37.1115 5.93932 36.397 6.07434C35.3394 6.27312 34.5912 7.00074 34.6381 8.0809C34.6868 9.22483 35.4707 10.095 36.6314 10.0406H36.6333ZM74.7339 66.3836C74.6889 66.8675 75.6265 67.5294 76.4235 67.055C76.7197 66.8787 76.9448 66.6349 77.1942 66.4099C77.393 66.2299 77.5692 66.0198 77.8205 65.9092C78.1149 65.7798 78.4599 66.0273 78.3981 66.333C78.3381 66.6312 78.1937 66.89 77.9405 67.0794C77.5823 67.3457 77.1942 67.3569 76.791 67.2163C76.5735 67.1413 76.5697 67.34 76.4891 67.4338C76.386 67.5557 76.5116 67.6063 76.5847 67.6551C76.851 67.8332 77.1229 68.0039 77.3948 68.1764C77.4792 68.2289 77.5636 68.3414 77.6686 68.2439C77.768 68.152 77.843 68.0301 77.768 67.8839C77.7099 67.7713 77.7399 67.7151 77.858 67.6682C78.3624 67.4619 78.6718 67.0756 78.8369 66.5674C79.0094 66.033 78.8556 65.5435 78.4337 65.2622C77.9743 64.9528 77.528 64.9959 77.0592 65.3785C76.8079 65.5829 76.5866 65.8135 76.356 66.0367C76.2209 66.1661 76.0784 66.288 75.9022 66.3593C75.6209 66.4736 75.3377 66.2786 75.3133 65.9786C75.2796 65.5679 75.8459 64.844 76.4178 64.829C76.6316 64.8234 76.8341 64.8609 77.031 64.934C77.2373 65.009 77.2617 64.8196 77.3404 64.7184C77.4305 64.6021 77.3311 64.5534 77.2448 64.4971C76.9129 64.2814 76.5847 64.0602 76.2509 63.8464C76.1909 63.8089 76.1141 63.7207 76.0409 63.8314C75.9753 63.9326 75.8328 64.0358 75.9434 64.1633C76.1253 64.3696 75.9865 64.4127 75.8253 64.4952C75.1952 64.8121 74.7977 65.2978 74.732 66.3818L74.7339 66.3836ZM80.2095 61.4966C80.1495 61.4929 80.0895 61.4948 80.0314 61.4835C79.827 61.446 79.8345 61.6335 79.7782 61.7367C79.7107 61.8604 79.8251 61.9036 79.9151 61.943C80.2245 62.0761 80.5321 62.2092 80.8415 62.3368C80.9183 62.3686 81.0234 62.4437 81.0852 62.3461C81.1452 62.2542 81.2315 62.1455 81.1396 62.018C81.0234 61.8586 81.1152 61.776 81.2446 61.6748C81.7866 61.2528 82.0491 60.6996 81.9235 60.0114C81.7941 59.3007 80.8452 58.89 80.2714 59.3644C79.9526 59.627 79.737 59.9645 79.4876 60.2777C79.3375 60.4633 79.2138 60.6734 78.9963 60.7915C78.7168 60.9434 78.3943 60.7709 78.3793 60.454C78.3568 60.0002 78.5481 59.6457 78.9062 59.3757C79.2025 59.1506 79.5401 59.1319 79.8889 59.19C80.0914 59.2238 80.0876 59.0475 80.1514 58.9444C80.2114 58.845 80.1608 58.7793 80.0595 58.7362C79.6882 58.5787 79.3207 58.4137 78.9494 58.2599C78.8819 58.2318 78.7806 58.1361 78.7281 58.2824C78.6868 58.3987 78.5499 58.5168 78.7131 58.6406C78.8706 58.7606 78.82 58.8375 78.6793 58.9331C78.1074 59.3213 77.7961 59.852 77.8299 60.559C77.8505 60.9978 78.053 61.3279 78.4543 61.521C78.8237 61.6992 79.1894 61.6992 79.5382 61.4572C79.7632 61.3035 79.9432 61.1084 80.1045 60.8872C80.307 60.6096 80.4927 60.3208 80.7383 60.077C80.8902 59.9251 81.0534 59.8895 81.2446 60.0001C81.4322 60.1089 81.4884 60.2833 81.4565 60.4765C81.359 61.0597 80.8827 61.5529 80.2151 61.4966H80.2095ZM22.046 12.9379C22.046 13.598 22.558 14.0781 23.1843 13.9937C23.4656 13.9562 23.7393 13.8812 24.0038 13.7743C24.2457 13.6768 24.4857 13.5699 24.7445 13.5192C24.9564 13.478 25.1383 13.5174 25.2808 13.7068C25.4158 13.8887 25.3952 14.0668 25.2695 14.2225C24.8889 14.6988 24.2025 14.967 23.6193 14.5732C23.5218 14.5075 23.4337 14.4231 23.3437 14.3462C23.1693 14.1962 23.0774 14.3837 22.9593 14.4456C22.8299 14.5113 22.9218 14.5994 22.9668 14.6688C23.1768 14.9951 23.3924 15.3176 23.6062 15.6421C23.655 15.7171 23.6981 15.8202 23.8087 15.7658C23.9194 15.7115 24.0713 15.6496 24.0263 15.4939C23.9625 15.2726 24.0713 15.2689 24.2382 15.2539C24.6582 15.2183 25.0614 15.1207 25.4045 14.8507C25.8246 14.5188 26.0534 14.1025 25.9521 13.5605C25.819 12.8573 25.2245 12.516 24.4651 12.7166C24.0113 12.8366 23.5725 13.0073 23.1262 13.1554C22.9499 13.2136 22.813 13.1311 22.708 13.0129C22.5917 12.8816 22.5542 12.7072 22.6611 12.5553C22.8711 12.2609 23.1449 12.0584 23.5256 12.0171C23.8987 11.9778 24.2007 12.1203 24.4632 12.3584C24.632 12.5122 24.7182 12.3509 24.827 12.2891C24.9526 12.2178 24.8889 12.1334 24.8307 12.0471C24.6263 11.7433 24.4238 11.4377 24.2307 11.1282C24.1763 11.042 24.1181 11.0326 24.045 11.0776C23.9456 11.1414 23.8331 11.1976 23.8444 11.3477C23.8537 11.4583 23.7994 11.4996 23.6887 11.5164C23.4693 11.5521 23.2443 11.5671 23.0324 11.6515C22.4942 11.8652 21.9898 12.3903 22.046 12.936V12.9379ZM12.7 62.3105C12.7 62.2355 12.7056 62.1605 12.7 62.0855C12.6493 61.5229 12.4374 61.0466 11.9536 60.7203C11.3104 60.2871 10.2153 60.6584 10.2078 61.5416C10.2059 61.8042 10.2228 62.0592 10.2809 62.3143C10.3616 62.6762 10.5116 63.0269 10.4872 63.4094C10.4778 63.5688 10.4066 63.672 10.2622 63.7376C10.1178 63.8051 9.98466 63.7995 9.86465 63.6963C9.75213 63.5988 9.64149 63.4994 9.56836 63.3625C9.28145 62.8187 9.37334 62.2918 9.85902 61.8736C10.0259 61.7292 9.87777 61.6354 9.84027 61.5248C9.80464 61.4179 9.72775 61.3954 9.62649 61.4479C9.30771 61.611 8.98517 61.7704 8.66826 61.9392C8.60263 61.9748 8.49761 62.0105 8.53137 62.1174C8.56325 62.2224 8.597 62.3461 8.73764 62.3536C8.92892 62.3649 8.97017 62.4793 8.95892 62.6443C8.95329 62.7418 8.95142 62.8393 8.95892 62.9369C9.01517 63.5482 9.30021 64.0133 9.85339 64.2908C10.4272 64.5777 11.3798 64.1464 11.3179 63.3419C11.2861 62.92 11.1998 62.5168 11.1004 62.1117C11.0592 61.9448 11.0254 61.7779 11.0367 61.6016C11.0517 61.3916 11.1623 61.2585 11.3498 61.176C11.5336 61.0953 11.6649 61.1835 11.7886 61.3053C12.3437 61.8492 12.4056 62.6762 11.7192 63.2106C11.543 63.3475 11.678 63.4601 11.7267 63.582C11.7811 63.7207 11.8767 63.7001 11.9818 63.6438C12.3324 63.4601 12.6831 63.2763 13.0338 63.0925C13.1106 63.0512 13.2157 63.0231 13.1556 62.8993C13.105 62.7943 13.0713 62.6293 12.9231 62.6724C12.6381 62.7549 12.6812 62.5899 12.7 62.423C12.7037 62.3855 12.7 62.348 12.7 62.3105ZM58.487 8.59473C58.457 8.74476 58.4383 8.91728 58.382 9.07856C58.3183 9.26421 58.427 9.29422 58.5564 9.34297C58.6933 9.39361 58.7721 9.38798 58.8208 9.22295C58.9296 8.85727 59.044 8.49347 59.1865 8.14091C59.2596 7.95901 59.2221 7.8915 59.0477 7.83337C58.097 7.51832 57.15 7.19764 56.2012 6.87697C56.0605 6.83009 55.9443 6.75132 55.8524 6.98011C55.7624 7.20139 55.8768 7.2314 56.0249 7.29328C56.308 7.41143 56.3212 7.44893 56.2274 7.7321C56.0061 8.3997 55.7849 9.06543 55.558 9.73116C55.4305 10.1062 55.3854 10.14 55.0273 10.0162C54.8229 9.94682 54.8266 10.0687 54.7779 10.185C54.7179 10.3237 54.7385 10.4006 54.8941 10.4513C55.4136 10.6163 55.9311 10.7907 56.4468 10.967C56.5875 11.0157 56.6568 10.997 56.7112 10.8413C56.7694 10.6688 56.7506 10.5882 56.565 10.53C56.2237 10.4213 56.1974 10.3631 56.2987 10.05C56.3774 9.80804 56.4693 9.57176 56.5537 9.33172C56.5781 9.26421 56.6025 9.20608 56.6887 9.20608C56.8762 9.20608 57.0638 9.37485 57.0844 9.57176C57.0975 9.69178 57.0825 9.80992 57.045 9.92619C56.9813 10.1287 57.1294 10.1568 57.2663 10.2094C57.4276 10.2712 57.4594 10.1643 57.4969 10.0537C57.6488 9.59239 57.7913 9.12731 57.9601 8.67162C58.037 8.46346 57.9695 8.39783 57.7801 8.34532C57.5813 8.29094 57.5513 8.43346 57.4913 8.54598C57.3432 8.82539 57.2213 8.8704 56.925 8.78414C56.7994 8.74851 56.7656 8.68662 56.8031 8.57411C56.8875 8.31907 56.9738 8.06403 57.0563 7.80711C57.0863 7.71522 57.1388 7.67022 57.24 7.70585C57.5494 7.81649 57.8701 7.8915 58.1645 8.0434C58.3839 8.15592 58.4552 8.35095 58.4852 8.59661L58.487 8.59473ZM12.3643 27.0026C12.4074 27.0026 12.4374 26.9988 12.4674 27.0026C12.8612 27.0701 13.0769 27.0645 12.7562 27.5333C12.6981 27.6177 12.6925 27.687 12.7956 27.7583C13.0225 27.914 13.0675 27.9102 13.2006 27.6645C13.4407 27.2257 13.6713 26.7813 13.9151 26.3443C13.9826 26.2243 13.9957 26.1437 13.8513 26.0781C13.7295 26.0218 13.6113 25.9205 13.5251 26.1231C13.4501 26.2975 13.3019 26.3331 13.1331 26.3087C12.218 26.1793 11.3048 26.0405 10.3897 25.9224C10.2191 25.8999 10.0147 25.778 9.87027 25.9074C9.694 26.0649 9.57211 26.2918 9.52711 26.5244C9.49898 26.6706 9.66775 26.7775 9.76338 26.8844C10.3653 27.5577 10.9766 28.2253 11.5842 28.8929C11.7492 29.0729 11.8336 29.2735 11.6949 29.5005C11.5917 29.6674 11.723 29.688 11.8149 29.7386C11.9218 29.7967 12.0249 29.8605 12.1055 29.6899C12.2143 29.4611 12.3418 29.2398 12.4618 29.0166C12.5706 28.8122 12.6868 28.6116 12.7862 28.4034C12.88 28.2084 12.6756 28.2196 12.5931 28.1484C12.5087 28.0771 12.4562 28.1034 12.3981 28.1934C12.1187 28.6378 12.1149 28.6359 11.7717 28.2346C11.7661 28.229 11.7624 28.2234 11.7567 28.2178C11.6442 28.0996 11.6311 27.9833 11.7211 27.8389C11.8599 27.6177 11.9874 27.3889 12.1074 27.1563C12.1674 27.0401 12.2199 26.9369 12.3643 27.0026ZM77.4961 27.3139C77.6255 27.2989 77.7061 27.3551 77.7642 27.4714C77.8711 27.6852 77.9761 27.9008 78.1018 28.1034C78.2199 28.2965 78.2218 28.4315 78.038 28.6003C77.693 28.9191 77.6986 28.9379 77.4586 28.5178C77.3611 28.3471 77.2654 28.4428 77.1604 28.4859C77.0554 28.5309 76.9785 28.5759 77.0554 28.7185C77.3161 29.206 77.5673 29.6992 77.8167 30.1924C77.8805 30.32 77.9593 30.3068 78.0493 30.2431C78.1355 30.1831 78.3362 30.1756 78.233 30.0068C78.0905 29.7705 78.1993 29.6073 78.3418 29.4479C78.9906 28.7166 79.6451 27.989 80.2977 27.2614C80.3727 27.177 80.4702 27.0926 80.4045 26.9688C80.2939 26.7625 80.2508 26.5131 80.0407 26.3687C80.0201 26.3537 79.9807 26.3612 79.9526 26.365C79.1125 26.4869 78.2724 26.6163 77.4323 26.7325C77.0573 26.785 76.6485 26.9763 76.3747 26.4962C76.3109 26.3837 76.1891 26.5075 76.1047 26.5581C76.0297 26.6031 75.9659 26.6463 76.0222 26.7532C76.2528 27.1882 76.4816 27.6252 76.7104 28.0621C76.7629 28.1615 76.8323 28.1765 76.9335 28.1259C77.1492 28.0208 77.1679 27.9758 77.0554 27.7564C76.9429 27.5352 76.9598 27.4133 77.121 27.372C77.2429 27.3401 77.3704 27.3307 77.4961 27.312V27.3139ZM11.7061 64.7803C11.3686 64.8346 11.0498 64.964 10.8491 65.2885C10.6935 65.5398 10.6897 65.8192 10.7797 66.0855C11.0779 66.9612 11.7061 67.6457 12.1637 68.4296C12.1862 68.4671 12.2218 68.4877 12.278 68.4746C12.4918 68.4183 12.565 68.2627 12.4637 68.0695C12.308 67.7788 12.3118 67.7507 12.5912 67.5688C13.1725 67.19 13.7557 66.8149 14.3445 66.4436C14.6971 66.2224 14.7102 66.2224 14.939 66.5599C15.0684 66.7512 15.1527 66.5824 15.2521 66.5468C15.3609 66.5074 15.4021 66.4399 15.3253 66.3217C15.0102 65.8398 14.7046 65.3541 14.3914 64.8722C14.3614 64.8253 14.3333 64.7653 14.2564 64.7728C14.0239 64.7953 13.9264 64.9903 14.0501 65.1909C14.0858 65.2472 14.1158 65.3091 14.1439 65.3691C14.1964 65.4797 14.1776 65.566 14.0689 65.6373C13.8363 65.7854 13.6057 65.9373 13.3769 66.0948C13.2494 66.1811 13.1669 66.153 13.0863 66.0292C12.9156 65.7667 12.7393 65.506 12.5575 65.251C12.3549 64.9678 12.0774 64.8084 11.7061 64.7803ZM81.0646 46.4493C81.0646 46.5693 81.0684 46.6894 81.0646 46.8094C81.0571 46.9631 81.1265 47.0232 81.2784 47.0213C81.4209 47.0213 81.4715 46.9631 81.4847 46.8206C81.5015 46.6518 81.4772 46.4212 81.7209 46.3987C81.9797 46.3743 82.2441 46.3612 82.5048 46.4137C82.7842 46.4699 82.8142 46.4999 82.7673 46.7794C82.7148 47.0925 82.7429 47.4001 82.7654 47.7151C82.8179 48.4484 83.4761 48.7053 84.065 48.5609C84.5394 48.4446 84.6857 48.0489 84.7588 47.6345C84.8938 46.8825 84.8413 46.1155 84.8975 45.3579C84.9088 45.2079 84.8657 45.1272 84.6894 45.1141C84.5038 45.101 84.4587 45.191 84.4381 45.341C84.3969 45.6486 84.3837 45.6692 84.0762 45.6579C83.3749 45.6354 82.6754 45.5961 81.9741 45.5717C81.5934 45.5586 81.5859 45.5679 81.5709 45.1835C81.5634 45.0203 81.4865 44.981 81.344 44.9828C81.209 44.9828 81.0984 45.0016 81.1096 45.1741C81.1359 45.6017 81.0646 46.0236 81.0646 46.4493ZM8.13757 36.3115C8.35885 36.3659 8.56887 36.4165 8.7789 36.4709C9.20832 36.5815 9.23645 36.6172 9.12956 37.0372C9.08643 37.2079 9.11831 37.2792 9.29458 37.3204C9.4671 37.3617 9.52148 37.2979 9.55899 37.146C9.69775 36.589 9.84589 36.034 9.99216 35.477C10.0278 35.3401 10.054 35.222 9.85714 35.1732C9.68087 35.1301 9.58711 35.1601 9.56274 35.3514C9.55336 35.432 9.51586 35.5089 9.48773 35.5858C9.43522 35.7264 9.34709 35.7827 9.19144 35.7358C8.97017 35.6702 8.74327 35.6251 8.51824 35.5689C8.4001 35.5389 8.30259 35.4789 8.22383 35.3795C7.87129 34.935 7.515 34.4962 7.16059 34.0518C7.05183 33.9149 6.95994 33.7799 7.02182 33.583C7.07433 33.4142 6.91119 33.4179 6.81555 33.3842C6.71804 33.3504 6.6224 33.356 6.59052 33.4873C6.47239 33.9505 6.35425 34.4118 6.23423 34.875C6.2061 34.9819 6.24924 35.0476 6.34675 35.0869C6.56052 35.1713 6.61303 35.1451 6.68053 34.9163C6.70491 34.8282 6.72554 34.7344 6.82493 34.7063C6.93181 34.6781 6.98807 34.7663 7.04432 34.8338C7.22059 35.0457 7.38374 35.2707 7.56563 35.477C7.68002 35.6064 7.63877 35.6664 7.50563 35.7189C7.26185 35.8127 7.01995 35.9102 6.77242 35.9983C6.68616 36.0283 6.58865 36.1108 6.50426 36.0246C6.42175 35.9421 6.45176 35.8296 6.48176 35.7283C6.51739 35.6045 6.50989 35.5201 6.34862 35.4845C6.2061 35.4526 6.09734 35.4339 6.05234 35.6064C5.91357 36.1409 5.77668 36.6753 5.63979 37.2098C5.61166 37.3204 5.63417 37.4123 5.7598 37.4254C5.86482 37.4348 6.00358 37.5623 6.06359 37.341C6.12735 37.1085 6.29987 36.9716 6.52864 36.8947C6.76867 36.8141 7.00307 36.7147 7.2431 36.6284C7.54501 36.5197 7.84879 36.4146 8.14507 36.3115H8.13757ZM10.4516 58.5693C10.7029 58.6012 10.7235 58.8018 10.7891 58.9462C10.8435 59.0644 10.8585 59.1656 11.0329 59.0888C11.1773 59.025 11.2898 58.9912 11.2129 58.7943C10.9991 58.2449 10.791 57.6935 10.5941 57.1385C10.521 56.9341 10.4085 56.9622 10.2472 57.0166C10.0597 57.0784 10.1309 57.1891 10.1684 57.2997C10.1853 57.3485 10.2059 57.3973 10.2228 57.446C10.2997 57.6617 10.2566 57.7648 10.0447 57.8473C9.82902 57.9317 9.61149 58.0105 9.39584 58.093C9.30021 58.1286 9.20645 58.1249 9.10894 58.0967C8.55012 57.9355 7.98943 57.7779 7.43249 57.611C7.2881 57.5679 7.14559 57.4985 7.09683 57.3391C7.02182 57.0991 6.87368 57.2416 6.75554 57.2697C6.59802 57.3091 6.65241 57.4198 6.69178 57.5191C6.84743 57.9317 7.0087 58.3405 7.15496 58.7568C7.21122 58.9162 7.26935 58.9631 7.44562 58.9069C7.63689 58.845 7.62939 58.7512 7.56751 58.6087C7.54501 58.5543 7.5225 58.4962 7.51688 58.438C7.50375 58.3161 7.55063 58.2505 7.68377 58.288C7.99881 58.378 8.31384 58.4699 8.63076 58.5581C8.75827 58.5937 8.78265 58.6481 8.70014 58.7625C8.54825 58.9744 8.40948 59.1975 8.26509 59.4132C8.20883 59.4976 8.16383 59.6195 8.04569 59.6138C7.91067 59.6063 7.87692 59.4694 7.84879 59.3682C7.80191 59.1957 7.70065 59.2107 7.57501 59.2575C7.44 59.3082 7.37061 59.3644 7.44187 59.5388C7.64439 60.0358 7.82629 60.5421 8.00818 61.0484C8.05694 61.1853 8.11882 61.221 8.25571 61.1666C8.37385 61.1197 8.49574 61.0934 8.42261 60.9228C8.34385 60.739 8.3851 60.5721 8.49574 60.4165C8.79765 59.9814 9.10331 59.5501 9.40147 59.1113C9.66212 58.7287 10.1122 58.7456 10.4478 58.5693H10.4516ZM84.8994 44.0827C84.9294 43.9233 84.8375 43.7283 84.8544 43.5257C84.8713 43.3138 84.8094 43.1113 84.8075 42.9013C84.8075 42.7925 84.7532 42.7419 84.6425 42.7325C84.4062 42.71 84.3744 42.74 84.3894 42.995C84.4044 43.2351 84.3219 43.3232 84.1568 43.2276C83.8718 43.0644 83.5999 42.8806 83.3205 42.7081C83.2324 42.6537 83.2286 42.5918 83.3017 42.53C83.5474 42.3256 83.793 42.1174 84.0481 41.9224C84.1737 41.8249 84.2693 41.8755 84.2975 42.0386C84.305 42.0818 84.2994 42.1287 84.3069 42.1737C84.3312 42.3349 84.4494 42.3406 84.5769 42.3406C84.7119 42.3406 84.77 42.2768 84.7625 42.1474C84.7494 41.9618 84.7344 41.7761 84.7194 41.5904C84.6894 41.2266 84.6538 40.8628 84.6331 40.499C84.6256 40.3565 84.5525 40.3452 84.4437 40.349C84.3369 40.3528 84.2168 40.3434 84.2168 40.4953C84.2168 40.7916 84.0387 40.9697 83.8212 41.1329C83.5643 41.326 83.3261 41.5398 83.0673 41.7292C82.8761 41.868 82.7279 42.0874 82.4917 42.138C82.2235 42.1943 81.9441 42.2055 81.6666 42.1962C81.4847 42.1905 81.4097 42.1043 81.3947 41.9392C81.389 41.8717 81.3984 41.8023 81.3871 41.7367C81.3684 41.6373 81.3628 41.5229 81.1996 41.5529C81.0665 41.5754 80.924 41.5529 80.9296 41.763C80.9352 41.988 80.9784 42.2074 80.9821 42.4324C80.9915 42.8188 81.0384 43.2051 81.0684 43.5914C81.0759 43.6795 81.1246 43.7189 81.2109 43.7339C81.4565 43.7733 81.5184 43.7151 81.4865 43.4732C81.4415 43.1432 81.5222 43.0419 81.8522 43.0138C81.9047 43.01 81.9535 42.9894 82.006 42.9857C82.3173 42.9632 82.6248 42.9313 82.9079 43.1319C83.2305 43.3607 83.5774 43.5539 83.9037 43.7752C84.1493 43.9421 84.4512 44.0527 84.5056 44.4202C84.5244 44.5496 84.6988 44.4971 84.8038 44.4934C84.9276 44.4896 84.905 44.3921 84.9013 44.3077C84.8975 44.2477 84.9013 44.1877 84.9013 44.0827H84.8994ZM61.7255 12.0978C61.7724 11.4789 62.0556 10.9801 62.5019 10.56C62.7982 10.2825 63.1376 10.17 63.5276 10.3125C63.9139 10.455 64.1539 10.7194 64.2046 11.1489C64.229 11.3495 64.1933 11.5371 64.1408 11.719C64.0771 11.9365 64.2458 11.9496 64.3583 12.0153C64.4971 12.0959 64.5384 11.9871 64.589 11.8915C64.7578 11.5671 64.9303 11.2445 65.0991 10.9182C65.1403 10.8395 65.2453 10.7513 65.1272 10.6651C65.0259 10.59 64.9153 10.4756 64.7709 10.5919C64.634 10.7026 64.559 10.6763 64.469 10.5169C64.1071 9.87368 63.2895 9.60926 62.7475 9.6824C61.5624 9.84368 60.8198 10.9201 60.9511 12.0584C61.0542 12.9492 61.8793 13.6543 62.7138 13.6805C63.2295 13.6974 63.627 13.4461 63.9327 13.041C63.9945 12.9585 64.1258 12.8835 63.9964 12.7616C63.8352 12.6079 63.6495 12.5966 63.5407 12.7147C63.3438 12.9285 63.1188 13.0973 62.8207 13.1292C62.3012 13.1873 61.6674 12.7354 61.7274 12.094L61.7255 12.0978ZM76.1159 25.3711C75.5196 25.4611 74.8933 24.6135 75.2346 23.9927C75.5909 23.3458 76.1534 22.9576 76.8885 22.8638C77.6048 22.7719 78.1562 23.4414 77.9536 24.1315C77.8974 24.3209 77.7999 24.4953 77.6442 24.6172C77.4473 24.771 77.5261 24.8966 77.6386 25.0485C77.7792 25.236 77.873 25.071 77.9705 25.0091C78.2612 24.8254 78.5462 24.6341 78.8294 24.439C78.9025 24.3884 79.0319 24.3547 78.9662 24.2234C78.9006 24.0959 78.8481 23.9233 78.6475 23.9834C78.4956 24.0302 78.4656 23.9627 78.4618 23.8333C78.4618 23.7752 78.4318 23.7171 78.4262 23.6589C78.3287 22.785 77.558 22.0931 76.5585 22.1099C75.6978 22.1249 74.9289 22.6894 74.6233 23.5052C74.3213 24.3059 74.6233 25.056 75.1464 25.5511C75.6527 26.0312 76.2528 26.0124 76.8585 25.7386C76.9279 25.7067 77.076 25.7086 77.016 25.5511C76.9279 25.3223 76.7872 25.2135 76.6391 25.2717C76.4703 25.3373 76.2997 25.3861 76.1197 25.3729L76.1159 25.3711ZM5.84606 54.4324C5.85544 55.0081 6.01108 55.4469 6.36737 55.7901C6.85305 56.2608 7.43624 56.4427 8.1132 56.334C9.59649 56.0939 10.2678 54.6743 9.57024 53.3973C9.30208 52.9059 8.8164 52.7559 8.29697 52.7372C7.8863 52.724 7.83191 52.8084 7.9388 53.1197C7.99881 53.2979 8.13758 53.2716 8.26884 53.2716C8.71889 53.2754 9.09018 53.5191 9.21582 53.8923C9.36584 54.3405 9.25708 54.7962 8.87641 55.055C8.3551 55.4113 7.77191 55.5857 7.13809 55.4545C6.403 55.3026 6.05234 54.4718 6.47801 53.9148C6.62428 53.7236 6.80805 53.5717 7.03495 53.4741C7.22247 53.3935 7.10996 53.251 7.08933 53.1272C7.06495 52.9828 6.98057 52.9997 6.87368 53.0278C6.51927 53.1216 6.16485 53.206 5.81044 53.296C5.70917 53.3222 5.56103 53.2979 5.58729 53.4741C5.60979 53.6223 5.62291 53.7836 5.84231 53.7667C5.9792 53.7554 5.98108 53.8361 5.9492 53.9411C5.89294 54.1267 5.83481 54.3143 5.84981 54.4287L5.84606 54.4324ZM27.8461 13.1892C28.0542 13.2192 28.2755 13.1573 28.4968 13.0785C29.4269 12.7391 29.7607 11.9853 29.485 11.0532C29.4344 10.8845 29.3669 10.877 29.2093 10.9351C28.9618 11.027 28.9899 11.1883 29.0331 11.3814C29.1212 11.7715 29.0331 12.1146 28.7087 12.3622C28.3149 12.6622 27.8836 12.7072 27.5217 12.4353C26.9085 11.9721 26.5972 11.3458 26.6441 10.5619C26.6816 9.90181 27.5573 9.43299 28.1536 9.8418C28.3036 9.94494 28.448 10.0537 28.5493 10.2019C28.6843 10.3988 28.7968 10.2356 28.9131 10.1925C29.0556 10.1381 28.9918 10.0425 28.9487 9.95432C28.7818 9.62052 28.6149 9.28484 28.448 8.95104C28.3392 8.7335 28.2774 8.72413 28.0767 8.8629C27.9848 8.92666 27.9736 9.01105 27.9886 9.09919C28.0148 9.25108 27.9473 9.27921 27.8161 9.26234C27.1635 9.17795 26.6403 9.43674 26.2446 9.92619C25.8883 10.3688 25.7721 10.892 25.8696 11.462C26.029 12.3941 26.8466 13.2436 27.8479 13.1929L27.8461 13.1892ZM18.0087 16.5216C18.0087 16.0659 18.3031 15.6908 18.7682 15.5689C19.1545 15.4695 19.4751 15.6271 19.762 15.8502C19.9495 15.9946 20.0077 15.8315 20.1089 15.7508C20.2308 15.6533 20.1652 15.5802 20.0846 15.4939C19.8352 15.2276 19.5933 14.952 19.3457 14.6838C19.2838 14.6163 19.2332 14.4569 19.1113 14.5675C19.0157 14.6538 18.7907 14.7044 18.9275 14.9257C18.9894 15.027 18.9876 15.0982 18.8319 15.1151C17.8849 15.2201 17.1799 16.2459 17.3542 17.2398C17.583 18.5469 19.2707 19.6308 20.6115 18.5281C21.2678 17.9899 21.3991 17.0148 20.8571 16.3659C20.8196 16.3209 20.7859 16.2665 20.7109 16.2928C20.5346 16.3528 20.4258 16.6078 20.5084 16.7785C20.604 16.9735 20.7071 17.1779 20.6827 17.3955C20.6077 18.1099 19.867 18.5094 19.2126 18.2131C18.8957 18.0687 18.6575 17.8324 18.4419 17.5755C18.1943 17.2811 17.9956 16.9566 18.0087 16.5216ZM66.4473 15.4752C66.3254 15.462 66.2204 15.4208 66.1192 15.372C65.8566 15.2408 65.626 15.0645 65.3878 14.8976C65.2697 14.8151 65.2547 14.7607 65.3447 14.6332C65.761 14.0406 66.1623 13.4367 66.5711 12.8404C66.9161 12.3378 66.9068 12.4297 67.278 12.6716C67.4524 12.7841 67.4731 12.6304 67.5462 12.5497C67.6325 12.4541 67.6475 12.3753 67.5256 12.2947C67.068 11.9853 66.6086 11.6796 66.1585 11.357C66.0104 11.2501 65.9373 11.2783 65.8379 11.417C65.7329 11.5633 65.7591 11.6402 65.9054 11.734C66.1717 11.9065 66.1792 11.9853 66.0048 12.2365C65.5997 12.8198 65.1984 13.403 64.7953 13.9881C64.574 14.3106 64.544 14.3294 64.2365 14.1062C64.0264 13.9543 64.0077 14.1475 63.9195 14.2356C63.7977 14.3556 63.8895 14.4175 63.9795 14.4794C64.829 15.0626 65.6822 15.6383 66.528 16.229C66.6967 16.3472 66.7886 16.3022 66.8861 16.1578C67.1018 15.8352 67.3231 15.5145 67.5406 15.1957C67.6137 15.0889 67.7 14.997 67.5237 14.8901C67.3831 14.8057 67.2705 14.7251 67.1599 14.9163C67.1374 14.9557 67.1149 14.9951 67.0849 15.027C66.8955 15.2145 66.7417 15.4508 66.4492 15.4789L66.4473 15.4752ZM81.239 29.6936C81.2465 29.8718 81.1321 29.9186 81.0215 29.9618C80.3539 30.2206 79.6863 30.4794 79.0169 30.7363C78.6475 30.8769 78.6231 30.8713 78.4656 30.5056C78.3831 30.3125 78.2687 30.4137 78.1543 30.4437C78.023 30.4775 77.9911 30.5487 78.0418 30.6763C78.4243 31.657 78.8031 32.6378 79.18 33.6205C79.2325 33.7574 79.3132 33.7855 79.4388 33.7349C79.8401 33.5736 80.2414 33.4104 80.6464 33.2567C80.7589 33.2135 80.774 33.1554 80.7365 33.0504C80.6746 32.876 80.5996 32.756 80.3839 32.8722C80.3014 32.9172 80.2001 32.9304 80.1045 32.951C79.6995 33.0448 79.4594 32.9379 79.2813 32.5647C79.1688 32.3303 79.0881 32.079 78.9794 31.8427C78.9119 31.6983 78.9437 31.6364 79.0919 31.5801C79.8176 31.3045 80.5396 31.0176 81.2634 30.7381C81.5409 30.6313 81.6328 30.6763 81.7434 30.9538C81.7566 30.9876 81.7716 31.0232 81.7866 31.0569C81.8728 31.2407 81.9966 31.1245 82.1091 31.0982C82.2497 31.0644 82.2329 30.9801 82.1916 30.875C81.9928 30.3668 81.7978 29.8586 81.6028 29.3504C81.5465 29.206 81.4884 29.1329 81.3046 29.2135C81.1415 29.2848 81.119 29.3542 81.1828 29.4986C81.2128 29.5661 81.2259 29.6411 81.239 29.6899V29.6936ZM47.8321 8.2328C47.8321 8.04152 47.8321 7.884 47.8321 7.72647C47.8321 7.61021 47.8133 7.51832 47.6671 7.51269C47.5377 7.50706 47.4233 7.51832 47.4008 7.67772C47.3895 7.75085 47.3783 7.82586 47.3727 7.899C47.337 8.42408 47.0876 8.66037 46.5626 8.68287C46.3657 8.69225 46.1763 8.62099 45.9831 8.63786C45.7731 8.65662 45.7187 8.56848 45.715 8.36782C45.7018 7.67772 45.7881 6.99324 45.7675 6.30313C45.7544 5.83618 45.7994 5.80055 46.2475 5.7668C46.255 5.7668 46.2625 5.7668 46.27 5.7668C46.4332 5.7668 46.4388 5.65428 46.4388 5.53426C46.4388 5.40862 46.4219 5.30172 46.2625 5.30923C45.715 5.33923 45.1712 5.25297 44.6255 5.25859C44.4398 5.26047 44.3929 5.34486 44.4023 5.50988C44.4154 5.72179 44.5842 5.71241 44.7136 5.71804C44.9105 5.72554 44.9761 5.83056 44.9855 6.00121C44.9893 6.07622 44.993 6.15123 44.9855 6.22624C44.9011 6.87322 44.963 7.52582 44.9049 8.17467C44.8711 8.54598 44.8768 8.57973 44.5186 8.58911C44.3367 8.59473 44.3142 8.6885 44.3123 8.83477C44.3123 8.98479 44.3648 9.0598 44.5223 9.0523C45.1149 9.01855 45.7018 9.11981 46.2944 9.09731C46.7145 9.08043 47.1289 9.16857 47.5489 9.14607C47.6971 9.13857 47.7721 9.10856 47.7983 8.93791C47.8377 8.69037 47.8265 8.44471 47.834 8.2328H47.8321ZM77.0929 63.0419C77.1548 63.07 77.2167 63.0925 77.2767 63.1244C77.9086 63.4619 78.5387 63.8032 79.1725 64.137C79.5269 64.3246 79.5494 64.3677 79.3563 64.7165C79.2832 64.8496 79.3094 64.9228 79.4463 64.9715C79.5513 65.009 79.6413 65.1478 79.7463 64.9434C79.9939 64.4577 80.2564 63.9814 80.5302 63.5088C80.6371 63.3232 80.5602 63.2481 80.4139 63.1581C80.2376 63.0494 80.2001 63.175 80.1383 63.2894C79.9901 63.5594 79.9095 63.5895 79.6488 63.4507C79.0413 63.13 78.4393 62.8 77.8317 62.4774C77.4305 62.2655 77.4192 62.2561 77.6199 61.8567C77.6892 61.7179 77.6292 61.6654 77.5167 61.6223C77.4098 61.5829 77.3048 61.446 77.2036 61.6391C76.9523 62.123 76.701 62.6068 76.4347 63.0812C76.3335 63.2631 76.401 63.3419 76.5491 63.4338C76.7235 63.5407 76.7685 63.4226 76.8266 63.3044C76.8829 63.1881 76.9673 63.0963 77.0929 63.0381V63.0419ZM71.0678 15.147C71.0754 15.0851 71.0435 15.057 71.006 15.027C70.569 14.6669 70.1321 14.305 69.6933 13.9449C69.6033 13.8699 69.517 13.7687 69.4064 13.9412C69.322 14.0706 69.2414 14.1493 69.4233 14.2806C69.6877 14.4738 69.6933 14.5582 69.4908 14.8113C69.0464 15.3645 68.6001 15.914 68.135 16.4484C67.8894 16.7316 67.8762 16.7766 67.5574 16.5197C67.5293 16.4972 67.4956 16.4766 67.4618 16.4616C67.2874 16.3847 67.2837 16.5797 67.1955 16.6378C67.1262 16.6847 67.1449 16.7429 67.2143 16.7991C67.6606 17.1611 68.1106 17.5174 68.5401 17.898C68.7388 18.0743 68.7951 17.8905 68.8889 17.8024C69.0164 17.6805 68.8945 17.6318 68.8101 17.568C68.5588 17.3748 68.5401 17.2492 68.7201 17.0335C69.1795 16.4841 69.6371 15.9327 70.0946 15.3833C70.3459 15.0814 70.3853 15.0757 70.6872 15.312C70.7359 15.3495 70.7772 15.447 70.8503 15.3908C70.9385 15.3251 71.0229 15.2483 71.0678 15.1507V15.147ZM72.628 21.4105C72.5155 21.4442 72.4424 21.5361 72.3749 21.6205C72.3205 21.688 72.4049 21.7405 72.4443 21.7893C72.7987 22.2318 73.1531 22.6744 73.5075 23.1151C73.5544 23.1751 73.6106 23.1957 73.6856 23.162C73.8975 23.0645 73.9332 22.9332 73.7944 22.7438C73.6069 22.4869 73.5919 22.47 73.8338 22.2656C74.4301 21.7574 75.0414 21.2661 75.6471 20.771C75.7615 20.6772 75.8721 20.7147 75.964 20.8122C76.0147 20.8666 76.0559 20.9285 76.1028 20.9885C76.2284 21.1517 76.3109 20.9904 76.3991 20.9416C76.5022 20.8835 76.5153 20.7972 76.4347 20.6997C76.0672 20.2572 75.6996 19.8165 75.3396 19.3683C75.274 19.2858 75.2346 19.2689 75.1427 19.3326C74.912 19.4939 74.9045 19.5014 75.0677 19.7227C75.2608 19.9852 75.2589 20.0284 75.0095 20.2347C74.4395 20.7035 73.8657 21.1704 73.2919 21.6355C73.0875 21.8005 72.9974 21.7836 72.8324 21.568C72.7799 21.4986 72.7349 21.4142 72.628 21.4067V21.4105ZM16.3623 17.8043C16.3304 17.688 16.2347 17.6318 16.1391 17.5717C16.0472 17.5117 16.0247 17.5905 15.9816 17.6374C15.5953 18.0556 15.2128 18.4738 14.8227 18.8882C14.7383 18.9763 14.7214 19.0401 14.8171 19.1301C14.9465 19.2539 15.0571 19.3176 15.2034 19.1376C15.3065 19.0082 15.4265 18.8507 15.6253 19.0363C16.1841 19.5558 16.7504 20.0659 17.3074 20.5853C17.5586 20.8216 17.5624 20.8629 17.3186 21.1085C17.1761 21.2511 17.2399 21.3223 17.343 21.4348C17.4724 21.5774 17.553 21.5117 17.6505 21.4067C18.0143 21.0091 18.3781 20.6135 18.7457 20.2215C18.8357 20.124 18.83 20.0565 18.7419 19.9534C18.6106 19.8015 18.5188 19.8071 18.3837 19.9534C18.1512 20.2028 18.0893 20.1934 17.8362 19.9534C17.7218 19.8465 17.6074 19.7396 17.4911 19.6346C17.0542 19.2482 16.6304 18.8469 16.2029 18.4513C16.0622 18.32 16.051 18.185 16.1935 18.0481C16.2647 17.9806 16.3173 17.8999 16.3585 17.8043H16.3623Z" fill="white"/>
<path d="M45.0305 33.2979C55.286 33.2979 65.5415 33.2979 75.7971 33.2979C76.0633 33.2979 76.2434 33.4222 76.3371 33.671C77.2485 36.0958 77.856 38.5918 78.1936 41.1609C78.443 43.0625 78.518 44.9697 78.4374 46.8806C78.2723 50.8862 77.4191 54.7474 75.8664 58.4492C75.7614 58.6968 75.6227 58.753 75.3751 58.753C55.1566 58.7474 34.9362 58.7493 14.7176 58.7493C14.4013 58.7493 14.1838 58.6049 14.0651 58.3161C12.9437 55.6232 12.2011 52.8271 11.8073 49.9373C11.5373 47.9645 11.4604 45.9804 11.5448 43.9945C11.6967 40.4352 12.3905 36.979 13.6544 33.6429C13.7419 33.4141 13.9063 33.2991 14.1476 33.2979C24.4406 33.2979 34.7337 33.2979 45.0267 33.2979H45.0305ZM44.0535 45.1666C44.0835 43.9495 44.0066 42.4586 44.0966 40.9697C44.1266 40.469 44.2747 40.2777 44.7717 40.1783C45.1505 40.1014 45.533 40.1502 45.9137 40.1445C46.1049 40.1427 46.1856 40.0826 46.18 39.8839C46.1706 39.5538 46.18 39.2238 46.1762 38.8937C46.1762 38.6049 46.165 38.5955 45.8668 38.5955C44.7792 38.5955 43.6934 38.5955 42.6058 38.5955C41.4732 38.5955 40.3424 38.5993 39.2098 38.5918C39.0148 38.5918 38.9416 38.6593 38.9473 38.8543C38.9566 39.1994 38.9548 39.5444 38.9473 39.8895C38.9435 40.0714 39.0073 40.1483 39.1967 40.1427C39.5492 40.1333 39.9017 40.1333 40.2543 40.1427C40.83 40.1577 41.0681 40.3133 41.1506 40.7315C41.1825 40.8928 41.205 41.0578 41.205 41.2209C41.2106 42.2186 41.205 43.2144 41.2106 44.212C41.2106 44.3883 41.145 44.4502 40.9725 44.4464C40.6124 44.4389 40.2524 44.4464 39.8924 44.4446C38.4897 44.4446 37.0889 44.4446 35.6863 44.4446C35.5494 44.4446 35.4125 44.4614 35.4144 44.2495C35.42 43.1769 35.3994 42.1042 35.4237 41.0334C35.4387 40.3658 35.6975 40.1502 36.3688 40.1427C36.7214 40.1389 37.0739 40.137 37.4265 40.1427C37.5952 40.1464 37.674 40.0901 37.6702 39.9101C37.6627 39.5501 37.6627 39.19 37.6702 38.83C37.674 38.6537 37.6027 38.5937 37.4302 38.5937C35.1518 38.5974 32.8716 38.5974 30.5932 38.5937C30.4375 38.5937 30.3813 38.6462 30.385 38.8018C30.3925 39.1769 30.3944 39.5519 30.385 39.927C30.3813 40.0995 30.4488 40.1464 30.6101 40.1427C30.9476 40.1352 31.287 40.1127 31.6208 40.1464C32.3165 40.2177 32.4028 40.3152 32.5115 40.8759C32.5303 40.9697 32.5228 41.0709 32.5228 41.1666C32.5228 44.0151 32.5228 46.8637 32.5228 49.7123C32.5228 49.7723 32.5228 49.8323 32.5228 49.8923C32.4965 50.4717 32.2771 50.6987 31.6977 50.7343C31.332 50.7568 30.9664 50.7737 30.6007 50.7793C30.4525 50.7812 30.3813 50.8187 30.385 50.9818C30.3944 51.3494 30.3925 51.7169 30.385 52.0845C30.3832 52.2289 30.4319 52.2833 30.5801 52.2833C32.8659 52.2795 35.1518 52.2795 37.4396 52.2833C37.6009 52.2833 37.6721 52.2289 37.6702 52.062C37.6646 51.7094 37.6646 51.3569 37.6702 51.0043C37.674 50.8374 37.6009 50.7718 37.4396 50.783C37.0345 50.8131 36.6332 50.7324 36.2301 50.7343C35.8269 50.7343 35.5738 50.558 35.4894 50.2392C35.4519 50.0967 35.42 49.9448 35.42 49.7985C35.4144 48.6358 35.42 47.475 35.4144 46.3124C35.4144 46.1398 35.4706 46.0723 35.6469 46.0742C37.4227 46.0779 39.2004 46.0779 40.9762 46.0742C41.1525 46.0742 41.2125 46.1417 41.2088 46.3142C41.1806 47.55 41.2594 48.7859 41.1638 50.0198C41.1319 50.4361 41.01 50.6161 40.6068 50.6893C40.1436 50.7737 39.6711 50.7905 39.2004 50.7812C39.0166 50.7774 38.9435 50.8449 38.9473 51.0306C38.9548 51.3606 38.9566 51.6907 38.9473 52.0207C38.9416 52.212 39.0054 52.302 39.206 52.2852C39.3242 52.2758 39.4461 52.2852 39.5661 52.2852C41.6644 52.2852 43.7647 52.2852 45.863 52.2852C46.1706 52.2852 46.1762 52.2795 46.1762 51.9682C46.1762 51.6532 46.1706 51.3381 46.1762 51.0231C46.18 50.8506 46.1106 50.7849 45.9362 50.783C45.6005 50.7793 45.2649 50.7568 44.9292 50.7399C44.361 50.7099 44.1472 50.5261 44.1022 50.0029C44.0741 49.6766 44.0553 49.3466 44.0535 49.0184C44.0478 47.8257 44.0516 46.6349 44.0516 45.1684L44.0535 45.1666ZM26.1752 52.2833C26.5877 52.2833 27.0003 52.2833 27.4128 52.2833C28.0954 52.2833 28.7761 52.2833 29.4587 52.2833C29.5862 52.2833 29.7043 52.2795 29.7043 52.1033C29.7043 51.7207 29.7043 51.3381 29.7043 50.9556C29.7043 50.8618 29.6687 50.7962 29.5656 50.7868C29.3874 50.7699 29.2074 50.7362 29.0311 50.7418C28.4929 50.7624 28.1085 50.5374 27.876 50.0536C27.8085 49.9129 27.7466 49.7666 27.6904 49.6204C27.0997 48.1089 26.5952 46.5655 26.027 45.0447C25.247 42.9575 24.3956 40.8984 23.6962 38.7812C23.6511 38.6443 23.5761 38.5918 23.4355 38.5918C22.6029 38.5955 21.7722 38.5955 20.9396 38.5918C20.8046 38.5918 20.7408 38.6349 20.6996 38.7681C20.5645 39.2031 20.4183 39.6345 20.2664 40.0658C19.6607 41.7873 19.0475 43.5088 18.4437 45.2322C18.1924 45.9523 17.9242 46.6649 17.7067 47.3981C17.4986 48.0995 17.2342 48.784 16.9829 49.4703C16.7991 49.971 16.5628 50.4342 16.0153 50.6387C15.6927 50.7587 15.3515 50.7268 15.0195 50.7737C14.8583 50.7962 14.7964 50.8506 14.7983 51.01C14.8039 51.355 14.8058 51.7001 14.7983 52.0451C14.7945 52.2195 14.8639 52.2833 15.0383 52.2814C16.9716 52.2777 18.9069 52.2777 20.8402 52.2814C20.9977 52.2814 21.0765 52.2326 21.0727 52.062C21.0652 51.7094 21.0652 51.3569 21.0727 51.0043C21.0765 50.8393 21.0108 50.768 20.8477 50.7793C20.4052 50.8112 19.9664 50.7362 19.5257 50.7305C19.0119 50.7249 18.8337 50.4755 18.9931 49.9879C19.2013 49.356 19.4263 48.7277 19.6382 48.0976C19.6832 47.9664 19.7526 47.9101 19.897 47.912C21.2302 47.9176 22.5654 47.9157 23.8987 47.912C24.0393 47.912 24.1162 47.9645 24.1631 48.0976C24.3206 48.5421 24.4912 48.9809 24.6506 49.4253C24.7219 49.6222 24.8082 49.8135 24.8494 50.0217C24.9225 50.3911 24.7969 50.5993 24.435 50.6874C24.3412 50.7099 24.2437 50.7249 24.1481 50.7305C23.7299 50.7587 23.3117 50.798 22.8936 50.7774C22.7229 50.7699 22.6742 50.8543 22.676 51.0118C22.6817 51.3419 22.6892 51.6719 22.6742 52.002C22.6648 52.2251 22.751 52.2833 22.9629 52.2814C24.0356 52.2739 25.1063 52.2777 26.1789 52.2777L26.1752 52.2833ZM66.6967 38.5974C65.4515 38.5974 64.2083 38.6012 62.9631 38.5937C62.7681 38.5937 62.6931 38.6574 62.6987 38.8543C62.7081 39.1919 62.71 39.5294 62.6987 39.867C62.6912 40.0676 62.7587 40.1539 62.9687 40.1445C63.2688 40.1314 63.5688 40.1352 63.8688 40.1445C64.4727 40.1595 64.6883 40.3377 64.7708 40.8871C64.7858 40.9828 64.7802 41.0822 64.7802 41.1797C64.7802 44.0208 64.7802 46.8618 64.7802 49.7029C64.7802 49.7704 64.7877 49.8379 64.7783 49.9054C64.6846 50.603 64.6095 50.6443 63.9757 50.7343C63.6513 50.7793 63.3194 50.7849 62.9912 50.783C62.7793 50.783 62.6912 50.8449 62.7006 51.0643C62.7137 51.3794 62.7137 51.6944 62.7006 52.0095C62.6912 52.2289 62.7775 52.2927 62.9894 52.2908C64.017 52.2814 65.0427 52.287 66.0703 52.287C67.2705 52.287 68.4687 52.2833 69.6689 52.2908C69.8639 52.2908 69.9389 52.2251 69.9333 52.0301C69.9239 51.7001 69.9258 51.37 69.9333 51.04C69.937 50.8599 69.8733 50.7868 69.6857 50.7849C69.2901 50.7812 68.8944 50.7605 68.4987 50.7399C68.0449 50.7155 67.8143 50.5599 67.7374 50.2148C67.6999 50.0404 67.6699 49.8642 67.6699 49.6823C67.6736 48.6321 67.6699 47.5838 67.6718 46.5336C67.6718 46.0461 67.6211 46.0892 68.1143 46.0798C69.5789 46.0498 71.049 46.1773 72.5042 45.9054C73.4474 45.7291 74.1938 45.2753 74.7563 44.4896C75.4277 43.5538 75.3695 42.4905 75.2233 41.461C75.0639 40.3339 74.2913 39.6251 73.2674 39.1825C72.2679 38.7531 71.2122 38.6199 70.1377 38.6049C68.99 38.5899 67.8443 38.6012 66.6967 38.6012V38.5974ZM54.4459 52.2833C55.676 52.2833 56.9043 52.2795 58.1344 52.287C58.3407 52.287 58.4157 52.2214 58.4063 52.0132C58.3932 51.6757 58.3988 51.3381 58.4045 51.0006C58.4063 50.8506 58.352 50.7774 58.1944 50.783C57.7294 50.798 57.2681 50.7587 56.8049 50.7418C56.1598 50.7155 55.9011 50.4792 55.8954 49.8342C55.8879 48.799 55.8954 47.7657 55.8917 46.7305C55.8917 46.6049 55.9254 46.5018 56.0023 46.4005C56.4374 45.8117 56.8687 45.2191 57.2962 44.6227C58.2488 43.3006 59.2202 41.9936 60.1934 40.6884C60.3884 40.4258 60.6547 40.2477 60.9885 40.1802C61.2042 40.1352 61.4217 40.1295 61.6373 40.1427C61.8586 40.1558 61.9261 40.0658 61.9167 39.8539C61.9036 39.5163 61.9055 39.1788 61.9167 38.8431C61.9224 38.6574 61.853 38.5937 61.6673 38.5937C59.7415 38.5974 57.8138 38.5974 55.8879 38.5937C55.6967 38.5937 55.6404 38.6706 55.646 38.8487C55.6554 39.1863 55.6592 39.5238 55.646 39.8595C55.6367 40.0789 55.7173 40.1502 55.9329 40.1427C56.3005 40.1295 56.668 40.1314 57.0337 40.1427C57.5194 40.1577 57.6881 40.4596 57.4537 40.8815C57.3562 41.0578 57.2568 41.2359 57.1387 41.3991C56.443 42.3536 55.7417 43.3025 55.0441 44.257C54.9428 44.3958 54.8791 44.4052 54.7684 44.2533C54.264 43.5501 53.7971 42.8206 53.2758 42.1286C52.9776 41.7348 52.6494 41.3597 52.4469 40.904C52.28 40.5252 52.3794 40.2533 52.7807 40.1802C53.1464 40.1127 53.512 40.1539 53.8777 40.1445C54.2209 40.1352 54.2209 40.1427 54.2209 39.7901C54.2209 39.4751 54.2134 39.16 54.2227 38.845C54.2284 38.6593 54.159 38.5955 53.9733 38.5955C51.7625 38.5993 49.5516 38.5993 47.3407 38.5955C47.1494 38.5955 47.0932 38.6724 47.0988 38.8506C47.1082 39.1956 47.1101 39.5407 47.0988 39.8857C47.0932 40.0845 47.1701 40.1483 47.3632 40.1464C47.6745 40.1427 47.9877 40.1164 48.2952 40.2345C48.8184 40.439 49.1615 40.8384 49.4691 41.2735C50.1292 42.2073 50.7574 43.1619 51.378 44.122C51.8581 44.8628 52.3663 45.5866 52.8688 46.3124C52.9889 46.4868 53.0395 46.6668 53.0376 46.8787C53.0301 47.7938 53.032 48.7071 53.0376 49.6222C53.0376 49.8116 53.0095 49.9954 52.9776 50.1792C52.9251 50.4774 52.7507 50.6574 52.4413 50.6968C51.8844 50.7662 51.3237 50.7962 50.763 50.783C50.5923 50.7793 50.5173 50.8393 50.523 51.0175C50.5323 51.3475 50.5361 51.6776 50.523 52.0057C50.5136 52.227 50.598 52.287 50.8099 52.287C52.0231 52.2795 53.2383 52.2833 54.4534 52.2833H54.4459Z" fill="white"/>
<path d="M73.2432 28.6922C72.2456 28.6134 71.1936 28.5272 70.1397 28.4465C68.407 28.3134 66.6818 28.1033 64.9585 27.8783C63.6365 27.7058 62.3182 27.507 61.0037 27.2857C58.564 26.8769 56.1375 26.41 53.7297 25.8455C52.7902 25.6261 51.8695 25.3185 50.9413 25.0485C48.991 24.4803 47.0539 23.8671 45.1675 23.1113C43.506 22.4456 41.8465 21.7686 40.2338 20.9885C40.0181 20.8835 39.8062 20.7728 39.5906 20.6659C39.3618 20.5516 39.3562 20.5215 39.5325 20.3284C40.4532 19.312 41.3589 18.2806 42.244 17.2342C43.611 15.6214 44.9762 14.0087 46.3282 12.3847C46.5233 12.1503 46.7483 12.1165 47.0014 12.1353C47.5753 12.1765 48.1491 12.2234 48.7191 12.2947C49.4448 12.3847 50.1724 12.4766 50.8906 12.6097C52.3102 12.8741 53.7109 13.2192 55.0874 13.6599C55.7343 13.868 56.37 14.1118 57.0057 14.3537C58.4084 14.8882 59.7491 15.5502 61.0618 16.2684C62.065 16.8179 63.0233 17.4461 63.9777 18.078C65.431 19.0401 66.7343 20.184 68.0019 21.3692C68.7239 22.0424 69.3952 22.7663 70.0478 23.5051C70.6704 24.2102 71.2667 24.9397 71.8199 25.7011C72.4631 26.5844 73.0631 27.4957 73.6201 28.4353C73.7495 28.6547 73.7232 28.6922 73.4588 28.6922C73.4063 28.6922 73.3538 28.6922 73.245 28.6922H73.2432Z" fill="white"/>
<path d="M15.9177 61.101C17.7555 61.3316 19.6344 61.5154 21.5021 61.8061C22.9911 62.0368 24.4781 62.2768 25.9576 62.5487C27.6022 62.8506 29.2336 63.2051 30.8632 63.5764C32.1852 63.8783 33.5016 64.2065 34.8143 64.5478C36.3613 64.9491 37.8577 65.5079 39.3673 66.0311C41.025 66.605 42.6714 67.2163 44.2635 67.9533C45.7936 68.6622 47.3407 69.3354 48.8221 70.1436C49.0134 70.2468 49.2028 70.3537 49.3922 70.4606C49.6059 70.5787 49.6097 70.5993 49.4353 70.7831C48.6496 71.6082 47.8507 72.4221 47.0782 73.2585C45.4974 74.9725 43.9259 76.694 42.3639 78.4249C42.167 78.6424 41.9607 78.7137 41.6926 78.6762C41.1394 78.6012 40.5824 78.5524 40.0292 78.4643C39.4029 78.3649 38.7785 78.2561 38.1578 78.1267C36.1944 77.7142 34.2817 77.1328 32.4271 76.3677C30.4882 75.567 28.6411 74.5899 26.8859 73.4423C25.8489 72.7634 24.8288 72.0583 23.8687 71.2744C22.721 70.3349 21.654 69.3054 20.6377 68.2252C20.0151 67.5632 19.4131 66.875 18.8506 66.1605C18.0536 65.1441 17.296 64.0977 16.6397 62.9838C16.3284 62.4568 16.019 61.928 15.7152 61.3973C15.6683 61.3166 15.5765 61.2229 15.6271 61.1366C15.6758 61.0522 15.794 61.1197 15.9177 61.1047V61.101Z" fill="white"/>
<path d="M44.8037 12.1092C44.9143 12.1354 45.0568 12.0585 45.1056 12.1673C45.1525 12.2723 45.0212 12.3455 44.9556 12.4223C43.1723 14.5152 41.4452 16.6586 39.6318 18.7271C39.133 19.2972 38.6286 19.8597 38.1298 20.4317C37.5241 21.1256 36.7121 21.5569 36.0033 22.1176C34.9626 22.9427 33.7287 23.3815 32.5135 23.8485C30.3233 24.6886 28.1124 25.4725 25.8922 26.2301C24.7014 26.637 23.4844 26.9633 22.273 27.3084C20.6884 27.7603 19.1208 28.2742 17.5512 28.7767C17.058 28.9343 16.563 29.0843 16.0567 29.1912C15.9948 29.2043 15.9179 29.2512 15.871 29.1799C15.8279 29.1143 15.8917 29.0543 15.9179 28.9943C16.1429 28.4711 16.4973 28.0266 16.7861 27.5409C16.9924 27.1921 17.2043 26.8452 17.4368 26.5189C17.5343 26.382 17.5925 26.1926 17.7594 26.0988C17.8512 26.0482 17.8194 25.9375 17.855 25.8588C17.9338 25.6825 18.1363 25.6488 18.2263 25.4781C18.3594 25.2249 18.5901 25.028 18.7326 24.7861C18.9407 24.4354 19.2614 24.1973 19.5014 23.8822C20.0396 23.1715 20.6866 22.5527 21.3035 21.9113C21.7104 21.4875 22.1174 21.0562 22.5899 20.698C22.5955 20.6942 22.603 20.6886 22.6049 20.683C22.7099 20.3717 23.0812 20.3417 23.2387 20.0923C23.4169 19.811 23.7432 19.7397 23.9738 19.5316C24.2063 19.3215 24.4614 19.1359 24.7108 18.9446C25.6203 18.247 26.5616 17.5981 27.5386 16.9999C28.5343 16.3905 29.5582 15.8316 30.6121 15.3253C31.6528 14.8246 32.7123 14.3764 33.7999 13.9957C35.0057 13.5738 36.2246 13.1912 37.4772 12.9268C38.2011 12.773 38.9211 12.6211 39.6525 12.5086C40.8226 12.3305 41.9946 12.2254 43.1779 12.1936C43.7236 12.1786 44.273 12.1992 44.8037 12.1129V12.1092Z" fill="white"/>
<path d="M45.6343 78.7681C44.8692 78.7681 44.3217 78.77 43.776 78.7663C43.6935 78.7663 43.5735 78.8131 43.536 78.71C43.506 78.6294 43.6072 78.5712 43.6616 78.5112C44.7792 77.2791 45.9025 76.0508 47.0182 74.8169C48.2578 73.4423 49.5291 72.0959 50.8118 70.7625C51.0931 70.47 51.4025 70.2112 51.7456 69.9918C52.1488 69.733 52.5595 69.4798 52.9439 69.1948C54.0503 68.3772 55.3386 67.9665 56.6156 67.5351C58.7158 66.8244 60.8348 66.1624 62.9594 65.5267C64.769 64.9866 66.618 64.5909 68.4444 64.1127C69.6333 63.8033 70.8128 63.4564 71.9998 63.1357C72.3974 63.0288 72.8024 62.9463 73.2037 62.8563C73.2656 62.8432 73.3462 62.8057 73.395 62.8676C73.4456 62.9313 73.3856 62.9969 73.3518 63.0513C72.7968 63.9196 72.2248 64.7728 71.6004 65.5961C71.0622 66.3031 70.5015 66.9913 69.9146 67.6533C69.1532 68.5084 68.3469 69.3223 67.4993 70.0949C66.9574 70.5881 66.4079 71.0701 65.8379 71.5295C65.2453 72.0077 64.6152 72.4372 63.9927 72.8741C62.5169 73.9111 60.9604 74.8169 59.3346 75.5933C57.6957 76.3771 56.0099 77.0466 54.2528 77.5248C53.5759 77.7086 52.9045 77.9167 52.2182 78.0593C51.2918 78.2524 50.3617 78.4325 49.4223 78.5506C48.0927 78.7156 46.7613 78.815 45.6381 78.7719L45.6343 78.7681Z" fill="white"/>
<path d="M44.9818 32.6585C34.8088 32.6585 24.6357 32.6585 14.4627 32.6585C14.3465 32.6585 14.1814 32.7166 14.1233 32.6153C14.052 32.4953 14.1833 32.3678 14.2302 32.244C14.2602 32.1653 14.3239 32.1315 14.4083 32.1334C14.4833 32.1334 14.5584 32.1334 14.6334 32.1334C34.8744 32.1334 55.1173 32.1334 75.3584 32.1334C75.7297 32.1334 75.7747 32.169 75.8722 32.4934C75.9078 32.6134 75.8778 32.6641 75.7522 32.6622C75.6622 32.6622 75.5722 32.6622 75.4822 32.6622C65.3166 32.6622 55.1511 32.6622 44.9856 32.6622L44.9818 32.6585Z" fill="white"/>
<path d="M8.49955 40.1952C8.53893 40.4146 8.46017 40.6246 8.45454 40.8422C8.45079 40.9791 8.40391 41.0616 8.21639 41.0353C7.3913 40.9134 6.56433 40.8159 5.73736 40.7072C5.62297 40.6922 5.54984 40.6509 5.58172 40.5009C5.63047 40.2758 5.64172 40.0433 5.68673 39.8183C5.77486 39.3945 6.04114 39.1357 6.46307 39.0494C6.98625 38.9444 7.49631 39.0119 7.96511 39.2519C8.33453 39.4395 8.56518 39.7451 8.49767 40.1971L8.49955 40.1952Z" fill="white"/>
<path d="M42.7859 7.45269C42.7821 7.90275 42.6902 8.32845 42.3133 8.61161C41.7432 9.03918 40.9275 8.89666 40.5919 8.12216C40.3987 7.67584 40.3462 7.19952 40.4568 6.71945C40.5881 6.15311 40.9857 5.79868 41.5013 5.77055C42.0358 5.74055 42.4596 6.04997 42.649 6.61818C42.739 6.88822 42.7896 7.16764 42.7859 7.45456V7.45269Z" fill="white"/>
<path d="M79.8569 56.169C79.8925 55.3364 80.4738 54.8601 81.2595 54.9651C81.6271 55.0138 81.9721 55.1207 82.2928 55.3064C82.8234 55.6121 83.0428 56.1465 82.8572 56.6697C82.6828 57.1667 82.2121 57.523 81.5164 57.4105C81.0739 57.3392 80.6557 57.2248 80.2994 56.9416C80.0294 56.7279 79.8756 56.4466 79.855 56.169H79.8569Z" fill="white"/>
<path d="M8.28186 44.8518C8.27999 45.5813 7.89369 46.0182 7.25237 46.1382C6.78357 46.2264 6.32039 46.1907 5.87221 46.0126C5.47654 45.8551 5.16151 45.4069 5.19339 44.9943C5.22714 44.5349 5.38466 44.1411 5.90597 43.9592C6.51166 43.7472 7.11923 43.7435 7.70805 44.0379C8.10184 44.2367 8.27061 44.5724 8.28186 44.8499V44.8518Z" fill="white"/>
<path d="M53.8477 7.71705C53.8421 8.12586 53.7502 8.51592 53.5645 8.87972C53.3245 9.3523 52.837 9.60359 52.3944 9.52107C51.7662 9.40481 51.4437 8.93036 51.4268 8.42778C51.408 7.90082 51.4924 7.40575 51.7943 6.9613C52.0869 6.53186 52.5425 6.36684 53.0413 6.51311C53.4989 6.64626 53.8308 7.07757 53.8477 7.55765C53.8477 7.61015 53.8477 7.66266 53.8477 7.71517V7.71705Z" fill="white"/>
<path d="M35.5063 7.87846C35.5063 6.92956 36.0651 6.42886 36.8808 6.53762C37.1715 6.577 37.3871 6.74953 37.5409 6.99144C37.9159 7.57841 38.0603 8.21226 37.8353 8.88549C37.6909 9.32055 37.3252 9.51746 36.8921 9.56997C36.517 9.61685 36.2151 9.46307 35.9713 9.17241C35.6263 8.75984 35.5363 8.26852 35.5044 7.87658L35.5063 7.87846Z" fill="white"/>
<path d="M10.669 26.7323C10.9691 26.7774 11.2691 26.8261 11.5691 26.8674C11.6948 26.8842 11.6685 26.9555 11.6329 27.023C11.5485 27.188 11.4547 27.3474 11.3685 27.5125C11.3085 27.6269 11.241 27.6194 11.1641 27.535C10.9559 27.3118 10.7497 27.0886 10.5415 26.8655C10.5171 26.8392 10.4796 26.8074 10.504 26.7699C10.5434 26.7098 10.6109 26.7398 10.6671 26.7305L10.669 26.7323Z" fill="white"/>
<path d="M79.2625 27.0474C79.2812 27.0549 79.3262 27.0567 79.345 27.0811C79.3712 27.1149 79.3356 27.1505 79.3112 27.1786C79.1106 27.4093 78.9118 27.6418 78.7093 27.8725C78.6268 27.9681 78.5555 27.9775 78.4918 27.8481C78.413 27.6868 78.3211 27.5331 78.2367 27.3755C78.188 27.2836 78.2105 27.218 78.3155 27.1899C78.3361 27.1843 78.3605 27.1861 78.383 27.1824C78.6699 27.1393 78.9568 27.0961 79.2625 27.0492V27.0474Z" fill="white"/>
<path d="M11.9406 65.564C12.1319 65.594 12.2725 65.6765 12.3756 65.8115C12.5032 65.9765 12.6213 66.1491 12.7451 66.3178C12.8126 66.4097 12.7957 66.4754 12.6982 66.5354C12.445 66.6929 12.1937 66.856 11.9462 67.0211C11.8637 67.0754 11.8112 67.0586 11.7587 66.9836C11.6124 66.7754 11.4774 66.5597 11.393 66.3178C11.2711 65.9671 11.5843 65.5527 11.9387 65.5658L11.9406 65.564Z" fill="white"/>
<path d="M83.1929 46.8638C83.1872 46.3856 83.1872 46.3931 83.6673 46.4643C83.8436 46.4906 84.0255 46.4793 84.2055 46.4793C84.3199 46.4793 84.3874 46.5131 84.3911 46.6444C84.3968 46.8994 84.3911 47.1526 84.3105 47.3982C84.2224 47.6626 84.0573 47.7789 83.7704 47.7733C83.5117 47.7677 83.3016 47.612 83.236 47.3757C83.2191 47.3176 83.1985 47.2595 83.1948 47.2013C83.1891 47.0888 83.1929 46.9763 83.1929 46.8638Z" fill="white"/>
<path d="M21.8266 41.6523C22.0347 42.2055 22.226 42.7062 22.4135 43.2069C22.7717 44.1576 23.1298 45.1103 23.488 46.0611C23.5743 46.288 23.5555 46.3236 23.3117 46.3236C22.391 46.3255 21.4703 46.3255 20.5477 46.3236C20.3039 46.3236 20.2758 46.2824 20.3489 46.0611C20.8102 44.649 21.2752 43.2369 21.7403 41.8248C21.7534 41.7835 21.7778 41.746 21.8266 41.6504V41.6523Z" fill="white"/>
<path d="M68.7164 40.1407C69.5921 40.1294 70.3872 40.1594 71.1617 40.4051C71.8949 40.6376 72.2531 41.1571 72.3187 41.894C72.3468 42.2128 72.345 42.5391 72.3093 42.8579C72.2193 43.6849 71.7036 44.1406 70.9348 44.3507C70.3254 44.5176 69.7009 44.557 69.0727 44.5757C68.6995 44.587 68.3245 44.5682 67.9495 44.5813C67.7357 44.5888 67.6644 44.5157 67.6663 44.3C67.6757 43.2443 67.67 42.1885 67.67 41.1327C67.67 40.8776 67.6757 40.6226 67.67 40.3694C67.6644 40.2063 67.7282 40.1369 67.8932 40.1407C68.1932 40.1463 68.4914 40.1407 68.7183 40.1407H68.7164Z" fill="white"/>
<path d="M121.2 60.9492V58.5492L139.08 20.7492H149.88L167.76 58.5492V60.9492H158.04L154.56 53.1492H134.34L130.92 60.9492H121.2ZM150.6 44.1492L144.48 30.4092L138.36 44.1492H150.6ZM184.863 20.7492V36.3492H205.863V20.7492H216.663V60.9492H205.863V45.9492H184.863V60.9492H174.063V20.7492H184.863ZM238.639 46.0092L222.919 23.1492V20.7492H233.539L244.039 37.4292L254.599 20.7492H265.159V23.1492L249.439 46.0092V60.9492H238.639V46.0092ZM311.367 36.3492C311.367 38.3492 311.107 40.2292 310.587 41.9892C310.107 43.7092 309.267 45.2292 308.067 46.5492C306.867 47.8292 305.227 48.8492 303.147 49.6092C301.107 50.3692 298.527 50.7492 295.407 50.7492H293.727C291.567 50.7492 289.447 50.7292 287.367 50.6892C285.327 50.6492 283.327 50.4692 281.367 50.1492V60.9492H270.567V20.7492C274.007 20.3492 277.607 20.0492 281.367 19.8492C285.167 19.6492 288.887 19.5492 292.527 19.5492H294.207C297.567 19.5492 300.347 19.9292 302.547 20.6892C304.747 21.4492 306.507 22.4892 307.827 23.8092C309.147 25.0892 310.067 26.6092 310.587 28.3692C311.107 30.1292 311.367 31.9892 311.367 33.9492V36.3492ZM292.047 41.1492C294.167 41.1492 295.807 41.0092 296.967 40.7292C298.127 40.4092 298.967 39.9892 299.487 39.4692C300.047 38.9092 300.367 38.2692 300.447 37.5492C300.527 36.8292 300.567 36.0292 300.567 35.1492C300.567 34.2692 300.527 33.4692 300.447 32.7492C300.367 31.9892 300.067 31.3492 299.547 30.8292C299.027 30.3092 298.227 29.9092 297.147 29.6292C296.067 29.3092 294.507 29.1492 292.467 29.1492C291.187 29.1492 289.507 29.1892 287.427 29.2692C285.387 29.3492 283.367 29.4892 281.367 29.6892V40.6092C283.247 40.8492 285.027 41.0092 286.707 41.0892C288.387 41.1292 290.167 41.1492 292.047 41.1492Z" fill="white"/>
</svg>
