<svg width="109" height="38" viewBox="0 0 109 38" fill="none" xmlns="http://www.w3.org/2000/svg">
<path d="M31.9683 20.92C31.9683 21.2763 31.9489 21.6642 31.9083 22.0857H24.7801C24.99 24.8774 26.3197 26.2723 28.7692 26.2723C29.9931 26.2723 30.9472 25.9108 31.6314 25.186C31.4075 25.8385 31.2682 26.5051 31.217 27.1823C30.3088 27.4433 29.3741 27.5738 28.413 27.5738C26.623 27.5738 25.214 27.0748 24.1876 26.0766C23.1612 25.0784 22.648 23.6853 22.648 21.897C22.648 20.2146 23.0483 18.8884 23.8525 17.915C24.7343 16.8639 25.997 16.3384 27.6441 16.3384C30.3772 16.3384 31.9683 18.2619 31.9683 20.9183V20.92ZM29.8944 20.92C29.9067 18.6169 29.1078 17.4653 27.4942 17.4653C25.8806 17.4653 24.9247 18.6169 24.7801 20.92H29.8944Z" fill="white"/>
<path d="M43.3219 22.2339C43.3219 25.5716 41.3291 28.482 36.2924 27.3375C35.0761 27.0611 34.0616 25.544 34.0616 23.8263C34.0616 23.59 34.0775 23.232 34.111 22.7523C34.1999 21.4087 34.1409 20.0644 34.1409 18.7191C34.1409 17.6152 34.2203 16.7599 34.3773 16.155C34.6541 15.0633 35.2925 14.2433 36.2924 13.6896C37.1478 13.2169 38.1812 12.9789 39.3927 12.9789C40.3274 12.9789 41.1827 13.1446 41.9604 13.4726C41.6977 14.0528 41.486 14.6507 41.3291 15.2697C40.8282 14.5854 40.0787 14.2433 39.0788 14.2433C38.7102 14.2433 38.3452 14.3385 37.9837 14.529C36.776 15.1653 36.0191 16.0457 36.0191 17.5199V19.7314C36.691 18.2571 37.8426 17.5199 39.4739 17.5199C40.8036 17.5199 41.8035 17.9873 42.4754 18.9184C43.0415 19.7332 43.3236 20.8371 43.3236 22.2286L43.3219 22.2339ZM41.4067 22.964C41.4067 21.9535 41.2162 21.107 40.8335 20.4245C40.3468 19.5974 39.6361 19.1847 38.7014 19.1847C37.6486 19.1847 36.9238 19.4669 36.5305 20.0312C36.2272 20.4915 36.0773 21.2727 36.0773 22.3749C36.0773 23.4771 36.169 24.4418 36.3542 25.3094C36.7033 26.9454 39.6591 26.4473 40.539 25.7027C41.1175 25.2036 41.4084 24.2919 41.4084 22.9657L41.4067 22.964Z" fill="white"/>
<path d="M59.4493 11.852C58.9873 12.6279 58.4953 13.8007 57.968 15.3667L55.2821 23.3043C54.7954 24.7522 54.261 25.7733 53.6826 26.3641C52.9331 27.1541 51.8785 27.5492 50.5241 27.5492C50.339 27.5492 50.0832 27.535 49.7535 27.5104C50.0303 26.8261 50.2067 26.1083 50.286 25.3588C50.5365 25.6093 50.838 25.7345 51.1943 25.7345C51.905 25.7345 52.4975 25.4118 52.9719 24.7663C53.2082 24.4365 53.5239 23.7981 53.9189 22.8511C53.4851 22.8511 53.1024 22.8705 52.7726 22.9111C51.2066 17.1955 49.8505 13.5097 48.7059 11.8537C49.1803 11.9067 49.6671 11.9331 50.1661 11.9331C50.5735 11.9331 51.1343 11.9067 51.845 11.8537C51.7921 12.0372 51.7657 12.247 51.7657 12.4851C51.7657 13.2205 52.0496 14.4356 52.6139 16.1303L54.4303 21.5884C54.4691 21.3116 54.6543 20.6538 54.9823 19.6133C55.3633 18.4158 55.7459 17.2237 56.1269 16.0404C56.6277 14.3809 56.8764 13.2099 56.8764 12.5256C56.8764 12.3017 56.8376 12.0777 56.7582 11.8537C57.3366 11.9067 57.7916 11.9331 58.1196 11.9331C58.4477 11.9331 58.8903 11.9067 59.4423 11.8537L59.4493 11.852Z" fill="white"/>
<path d="M66.3733 16.7934C66.137 17.3983 65.9589 17.9979 65.8407 18.5904C65.2358 17.9714 64.4581 17.6628 63.5111 17.6628C62.3789 17.6628 61.5095 18.0772 60.9046 18.9061C60.365 19.6432 60.0951 20.5973 60.0951 21.7683C60.0951 23.098 60.4179 24.1773 61.0633 25.0061C61.774 25.9143 62.7739 26.3676 64.0648 26.3676C64.8813 26.3676 65.5727 26.1366 66.137 25.6763C65.9271 26.2547 65.7878 26.8208 65.7226 27.3745C64.9854 27.5333 64.347 27.6109 63.8074 27.6109C61.9768 27.6109 60.5501 27.1277 59.522 26.1595C57.3648 24.1246 57.4454 19.9391 59.492 17.8674C60.499 16.848 61.8639 16.3366 63.5887 16.3366C64.4052 16.3366 65.3328 16.4883 66.3715 16.7898L66.3733 16.7934Z" fill="white"/>
<path d="M76.8448 16.4372C76.5556 18.2924 76.411 19.7279 76.411 20.7419V24.9074C76.411 25.9867 76.5415 26.8543 76.806 27.5139C76.2258 27.4345 75.7796 27.3957 75.464 27.3957C75.1483 27.3957 74.7145 27.4345 74.1607 27.5139C74.397 26.6321 74.5169 24.7099 74.5169 21.7489C74.5169 21.2234 74.5099 20.5709 74.4975 19.7949C74.4975 18.4917 74.4975 17.8462 74.4975 17.8603H70.094V24.731C70.094 25.9285 70.2263 26.8561 70.489 27.5139C69.9106 27.4345 69.4627 27.3957 69.147 27.3957C68.8313 27.3957 68.3975 27.4345 67.8438 27.5139C68.0677 26.6586 68.1788 25.5458 68.1788 24.1773V19.6962C68.1788 18.3806 68.066 17.2942 67.8438 16.4389H76.8466L76.8448 16.4372Z" fill="white"/>
<path d="M87.2496 20.92C87.2496 21.2763 87.2302 21.6642 87.1897 22.0857H80.0615C80.2713 24.8774 81.601 26.2723 84.0506 26.2723C85.2745 26.2723 86.2285 25.9108 86.9128 25.186C86.6888 25.8385 86.5513 26.5051 86.4983 27.1823C85.5901 27.4433 84.6555 27.5738 83.6943 27.5738C81.9044 27.5738 80.4953 27.0748 79.4689 26.0766C78.4425 25.0784 77.9294 23.6853 77.9294 21.897C77.9294 20.2146 78.3314 18.8884 79.1339 17.915C80.7265 16.0165 84.4057 15.6431 86.1421 17.5623C86.8793 18.3788 87.2478 19.4969 87.2478 20.9183L87.2496 20.92ZM85.1775 20.92C85.2015 16.4327 80.3328 16.6272 80.0632 20.92H85.1775Z" fill="white"/>
<path d="M98.9982 27.5333C98.2999 27.4274 97.7602 27.3745 97.3793 27.3745C97.0495 27.3745 96.5311 27.4274 95.8204 27.5333C95.7145 26.9672 95.3989 26.2635 94.8716 25.4205C94.4236 24.7628 93.9757 24.105 93.5295 23.4454C93.0551 24.1067 92.5755 24.7751 92.0887 25.4488C91.4697 26.3746 91.1082 27.0694 91.0024 27.5315C90.3975 27.4398 89.9231 27.3939 89.581 27.3939C89.1472 27.3939 88.7116 27.4398 88.2777 27.5315C89.0008 26.9513 89.7785 26.1013 90.6074 24.9797C91.2916 24.0432 91.9688 23.1015 92.6407 22.151C91.9829 21.1616 91.3181 20.1723 90.6462 19.1847C89.8684 18.0631 89.126 17.1408 88.4153 16.416C89.126 16.4812 89.6656 16.5147 90.0342 16.5147C90.4028 16.5147 90.9618 16.4812 91.6725 16.416C91.6461 16.4953 91.6337 16.5676 91.6337 16.6329C91.6337 16.9221 91.9441 17.5746 92.5649 18.5869C93.0005 19.2323 93.429 19.8831 93.8522 20.5426C94.3549 19.8972 94.8486 19.2464 95.3371 18.5869C95.8909 17.7968 96.2542 17.0738 96.427 16.416C97.0072 16.4812 97.4622 16.5147 97.792 16.5147C98.2399 16.5147 98.6438 16.4812 99 16.416C98.3387 17.1408 96.9102 18.9572 94.7146 21.8653C95.3724 22.8528 96.0302 23.8387 96.6898 24.8262C97.4922 25.9708 98.2628 26.8719 99 27.5315L98.9982 27.5333Z" fill="white"/>
<path d="M20.0457 12.8357L22.092 13.6976L13.5362 19.5894V15.5968H14.731V15.6006C14.9064 15.6053 15.2166 15.6166 15.5174 15.6374C15.5212 15.6374 15.5231 15.6374 15.5269 15.6374C15.5316 15.6374 15.5353 15.6374 15.5401 15.6383C15.6268 15.644 15.7136 15.6515 15.7947 15.659C15.8239 15.6619 15.8541 15.6647 15.8814 15.6685C16.0606 15.6883 16.2096 15.7118 16.2775 15.743C16.2831 15.7458 16.2822 15.7505 16.286 15.7533C16.3227 15.7647 16.3529 15.776 16.384 15.7882C16.4057 15.7958 16.4302 15.8014 16.4491 15.8109C16.4529 15.8127 16.4557 15.8156 16.4595 15.8175C16.55 15.858 16.6085 15.8976 16.6434 15.9259C16.7961 16.0287 16.9065 16.1626 16.9527 16.3135C16.9555 16.3191 16.9593 16.3238 16.9621 16.3286L20.023 14.221C19.9014 14.0692 19.7713 13.923 19.626 13.7881C19.2111 13.4044 18.7189 13.1026 18.1493 12.8829C17.5797 12.6622 16.9574 12.5406 16.285 12.5179L15.2987 12.4849H10V24.7834L26.5627 10.3887L20.0457 12.8357Z" fill="white"/>
<path d="M10.001 25.5972V27.4945H16.1596C16.8329 27.4945 17.4581 27.3945 18.0352 27.1927C18.6114 26.9919 19.114 26.7071 19.5412 26.3374C19.9684 25.9678 20.3022 25.5274 20.5426 25.0154C20.7822 24.5043 20.9019 23.9366 20.9019 23.3142C20.9019 23.003 20.8661 22.689 20.7954 22.3722C20.7237 22.0544 20.6077 21.7498 20.4455 21.4584C20.2833 21.167 20.0759 20.9011 19.8241 20.6616C19.6317 20.4796 19.3979 20.3296 19.1423 20.1957L17.0093 22.5098C17.0762 22.6739 17.113 22.8569 17.113 23.0624C17.113 23.2048 17.0932 23.3472 17.0545 23.4896C17.0159 23.632 16.9451 23.7687 16.8423 23.8979C16.7396 24.028 16.6038 24.1308 16.4359 24.2091C16.2681 24.2874 16.0559 24.326 15.7975 24.326H14.3265L23.0878 14.8226L23.5593 17.0518L27.0304 10.8677L10.001 25.5972Z" fill="white"/>
</svg>
