<svg width="745" height="720" viewBox="0 0 745 720" fill="none" xmlns="http://www.w3.org/2000/svg">
<g opacity="0.9">
<path d="M733.839 446.807C739.879 363.173 597.55 284.745 415.939 271.633C234.327 258.522 82.2058 315.692 76.1659 399.326C70.1259 482.96 212.455 561.388 394.066 574.499C575.678 587.611 727.799 530.441 733.839 446.807Z" stroke="white" stroke-width="2" stroke-miterlimit="10"/>
<path d="M721.793 429.387C724.163 347.619 582.123 277.162 404.538 272.017C226.953 266.871 81.0701 328.985 78.7001 410.753C76.33 492.52 218.37 562.977 395.955 568.123C573.54 573.269 719.423 511.154 721.793 429.387Z" stroke="white" stroke-width="2" stroke-miterlimit="10"/>
<path d="M397.823 561.741C571.39 558.924 711.042 491.86 709.744 411.949C708.447 332.038 566.691 269.541 393.124 272.358C219.557 275.175 79.9053 342.24 81.2027 422.15C82.5001 502.061 224.256 564.558 397.823 561.741Z" stroke="white" stroke-width="2" stroke-miterlimit="10"/>
<path d="M399.711 555.411C569.243 544.628 702.648 472.6 697.681 394.532C692.714 316.464 551.255 261.919 381.723 272.702C212.191 283.485 78.7855 355.513 83.7526 433.581C88.7198 511.649 230.179 566.194 399.711 555.411Z" stroke="white" stroke-width="2" stroke-miterlimit="10"/>
<path d="M401.528 549.055C567.03 530.318 694.199 453.347 685.569 377.134C676.938 300.921 535.775 254.327 370.273 273.064C204.77 291.8 77.6007 368.772 86.2316 444.985C94.8625 521.197 236.025 567.791 401.528 549.055Z" stroke="white" stroke-width="2" stroke-miterlimit="10"/>
<path d="M403.405 542.705C564.874 516.007 685.801 434.093 673.504 359.744C661.207 285.395 520.342 246.766 358.874 273.463C197.405 300.161 76.4776 382.075 88.7747 456.424C101.072 530.773 241.937 569.402 403.405 542.705Z" stroke="white" stroke-width="2" stroke-miterlimit="10"/>
<path d="M405.288 536.33C562.725 501.663 677.409 414.79 661.44 342.294C645.472 269.798 504.898 239.131 347.461 273.798C190.023 308.465 75.3396 395.337 91.3081 467.834C107.277 540.33 247.85 570.997 405.288 536.33Z" stroke="white" stroke-width="2" stroke-miterlimit="10"/>
<path d="M407.131 529.959C560.54 487.336 668.988 395.524 649.357 324.892C629.726 254.26 489.449 231.554 336.041 274.177C182.632 316.801 74.1842 408.613 93.8154 479.245C113.447 549.877 253.723 572.583 407.131 529.959Z" stroke="white" stroke-width="2" stroke-miterlimit="10"/>
<path d="M409.033 523.524C558.415 472.911 660.618 376.129 637.309 307.356C613.999 238.582 474.005 223.86 324.623 274.472C175.241 325.085 73.0384 421.867 96.3477 490.641C119.657 559.414 259.651 574.137 409.033 523.524Z" stroke="white" stroke-width="2" stroke-miterlimit="10"/>
<path d="M410.873 517.215C556.222 458.647 652.183 356.918 625.208 289.995C598.233 223.073 458.537 216.3 313.188 274.868C167.839 333.435 71.8778 435.165 98.8527 502.087C125.828 569.01 265.524 575.783 410.873 517.215Z" stroke="white" stroke-width="2" stroke-miterlimit="10"/>
<g filter="url(#filter0_dd_202_515)">
<path d="M406.831 605.882C427.83 599.13 414.117 498.055 376.2 380.124C338.284 262.193 290.523 172.064 269.523 178.816C248.524 185.567 262.237 286.643 300.154 404.574C338.07 522.505 385.831 612.634 406.831 605.882Z" stroke="#FFD166" stroke-width="2" stroke-miterlimit="10" shape-rendering="crispEdges"/>
</g>
<g filter="url(#filter1_dd_202_515)">
<path d="M402.902 593.663C428.655 585.383 420.554 488.539 384.807 377.356C349.061 266.173 299.205 182.754 273.451 191.034C247.698 199.314 255.799 296.158 291.546 407.341C327.293 518.524 377.148 601.943 402.902 593.663Z" stroke="#FFD166" stroke-width="2" stroke-miterlimit="10" shape-rendering="crispEdges"/>
</g>
<g filter="url(#filter2_dd_202_515)">
<path d="M398.969 581.43C429.465 571.625 426.97 479.022 393.395 374.595C359.821 270.169 307.881 193.462 277.385 203.267C246.889 213.072 249.384 305.675 282.959 410.102C316.533 514.529 368.473 591.235 398.969 581.43Z" stroke="#FFD166" stroke-width="2" stroke-miterlimit="10" shape-rendering="crispEdges"/>
</g>
<g filter="url(#filter3_dd_202_515)">
<path d="M395.039 569.211C430.279 557.882 433.387 469.513 401.982 371.834C370.577 274.156 316.551 204.156 281.312 215.486C246.073 226.816 242.965 315.185 274.369 412.863C305.774 510.542 359.8 580.541 395.039 569.211Z" stroke="#FFD166" stroke-width="2" stroke-miterlimit="10" shape-rendering="crispEdges"/>
</g>
<g filter="url(#filter4_dd_202_515)">
<path d="M391.107 556.978C431.1 544.12 439.823 459.989 410.59 369.067C381.357 278.144 325.239 214.861 285.246 227.719C245.253 240.578 236.53 324.708 265.763 415.63C294.996 506.553 351.114 569.836 391.107 556.978Z" stroke="#FFD166" stroke-width="2" stroke-miterlimit="10" shape-rendering="crispEdges"/>
</g>
<g filter="url(#filter5_dd_202_515)">
<path d="M387.179 544.759C431.914 530.376 446.241 450.48 419.178 366.306C392.115 282.132 333.91 225.555 289.175 239.938C244.439 254.321 230.112 334.218 257.175 418.392C284.238 502.566 342.443 559.143 387.179 544.759Z" stroke="#FFD166" stroke-width="2" stroke-miterlimit="10" shape-rendering="crispEdges"/>
</g>
<g filter="url(#filter6_dd_202_515)">
<path d="M383.25 532.541C432.729 516.633 452.659 440.97 427.766 363.545C402.873 286.119 342.582 236.249 293.103 252.157C243.625 268.065 223.694 343.727 248.588 421.153C273.481 498.579 333.772 548.449 383.25 532.541Z" stroke="#FFD166" stroke-width="2" stroke-miterlimit="10" shape-rendering="crispEdges"/>
</g>
<g filter="url(#filter7_dd_202_515)">
<path d="M379.317 520.308C433.549 502.871 459.094 431.447 436.373 360.777C413.652 290.108 351.269 246.954 297.036 264.39C242.804 281.826 217.259 353.25 239.98 423.92C262.701 494.59 325.085 537.744 379.317 520.308Z" stroke="#FFD166" stroke-width="2" stroke-miterlimit="10" shape-rendering="crispEdges"/>
</g>
<path d="M412.724 510.861C554.046 444.34 643.773 337.664 613.133 272.593C582.494 207.522 443.092 208.697 301.77 275.217C160.447 341.738 70.7207 448.414 101.36 513.485C131.999 578.556 271.401 577.381 412.724 510.861Z" stroke="white" stroke-width="2" stroke-miterlimit="10"/>
<path d="M414.604 504.456C551.888 429.96 635.363 318.326 601.05 255.114C566.738 191.902 427.631 201.05 290.347 275.546C153.062 350.042 69.5874 461.676 103.9 524.888C138.213 588.099 277.319 578.952 414.604 504.456Z" stroke="white" stroke-width="2" stroke-miterlimit="10"/>
<path d="M416.44 498.124C549.711 415.667 626.964 299.085 588.99 237.73C551.016 176.374 412.194 193.481 278.924 275.937C145.653 358.394 68.3998 474.977 106.374 536.332C144.348 597.687 283.169 580.581 416.44 498.124Z" stroke="white" stroke-width="2" stroke-miterlimit="10"/>
<path d="M418.344 491.694C547.574 401.255 618.574 279.713 576.927 220.223C535.28 160.733 396.757 185.822 267.527 276.262C138.297 366.701 67.2966 488.243 108.943 547.733C150.59 607.223 289.113 582.134 418.344 491.694Z" stroke="white" stroke-width="2" stroke-miterlimit="10"/>
<path d="M420.221 485.336C545.423 386.934 610.186 260.443 564.873 202.809C519.561 145.175 381.333 178.224 256.132 276.625C130.931 375.026 66.1678 501.517 111.48 559.151C156.792 616.785 295.02 583.737 420.221 485.336Z" stroke="white" stroke-width="2" stroke-miterlimit="10"/>
<path d="M422.046 478.96C543.218 372.6 601.747 241.165 552.774 185.39C503.802 129.616 365.872 170.623 244.7 276.982C123.529 383.342 64.9996 514.777 113.972 570.552C162.945 626.326 300.875 585.319 422.046 478.96Z" stroke="white" stroke-width="2" stroke-miterlimit="10"/>
<path d="M423.918 472.55C541.051 358.223 593.334 221.838 540.695 167.924C488.056 114.011 350.428 162.985 233.295 277.312C116.161 391.639 63.878 528.024 116.517 581.938C169.156 635.851 306.784 586.877 423.918 472.55Z" stroke="white" stroke-width="2" stroke-miterlimit="10"/>
<path d="M425.801 466.212C538.904 343.921 584.943 202.579 528.632 150.515C472.32 98.4521 334.983 155.383 221.879 277.674C108.776 399.966 62.7372 541.308 119.049 593.371C175.36 645.435 312.698 588.503 425.801 466.212Z" stroke="white" stroke-width="2" stroke-miterlimit="10"/>
<path d="M427.617 459.864C536.694 329.616 576.508 183.335 516.544 133.135C456.581 82.9346 319.547 147.826 210.47 278.074C101.394 408.321 61.5796 554.603 121.543 604.803C181.506 655.003 318.54 590.112 427.617 459.864Z" stroke="white" stroke-width="2" stroke-miterlimit="10"/>
<path d="M429.49 453.473C534.533 315.257 568.103 164.02 504.47 115.675C440.838 67.3309 304.099 140.186 199.056 278.402C94.0123 416.619 60.4424 567.856 124.075 616.2C187.708 664.544 324.447 591.689 429.49 453.473Z" stroke="white" stroke-width="2" stroke-miterlimit="10"/>
<path d="M431.331 447.081C532.342 300.899 559.671 144.709 492.371 98.2201C425.071 51.7312 288.627 132.548 187.616 278.73C86.6046 424.911 59.2762 581.101 126.576 627.59C193.876 674.079 330.32 593.262 431.331 447.081Z" stroke="white" stroke-width="2" stroke-miterlimit="10"/>
<path d="M433.2 440.793C530.2 286.668 551.312 125.535 480.356 80.8933C409.399 36.2518 273.245 125.006 176.245 279.132C79.2462 433.258 58.1341 594.391 129.09 639.033C200.046 683.674 336.201 594.919 433.2 440.793Z" stroke="white" stroke-width="2" stroke-miterlimit="10"/>
</g>
<g opacity="0.9">
<path d="M277.605 203.733C183.812 235.161 135.392 343.051 169.457 444.711C203.522 546.371 307.171 603.304 400.965 571.875C494.758 540.446 543.178 432.557 509.113 330.897C475.048 229.237 371.398 172.304 277.605 203.733Z" stroke="url(#paint0_linear_202_515)" stroke-miterlimit="10"/>
<path d="M284.116 223.165C182.78 257.121 125.33 358.36 155.799 449.287C186.267 540.215 293.116 586.399 394.453 552.443C495.789 518.486 553.239 417.248 522.77 326.32C492.302 235.392 385.453 189.208 284.116 223.165Z" stroke="url(#paint1_linear_202_515)" stroke-miterlimit="10"/>
<path d="M290.636 242.62C181.739 279.11 115.242 373.691 142.11 453.874C168.978 534.056 279.037 569.476 387.934 532.986C496.83 496.497 563.328 401.915 536.459 321.733C509.591 241.55 399.532 206.13 290.636 242.62Z" stroke="url(#paint2_linear_202_515)" stroke-miterlimit="10"/>
<path d="M297.147 262.053C180.707 301.07 105.18 389.001 128.452 458.451C151.724 527.901 264.982 552.572 381.422 513.555C497.861 474.537 573.389 386.607 550.117 317.157C526.845 247.706 413.587 223.035 297.147 262.053Z" stroke="url(#paint3_linear_202_515)" stroke-miterlimit="10"/>
<path d="M303.666 281.508C179.684 323.053 95.1227 404.322 114.794 463.027C134.465 521.733 250.92 535.644 374.903 494.099C498.885 452.554 583.446 371.285 563.775 312.58C544.104 253.875 427.649 239.963 303.666 281.508Z" stroke="url(#paint4_linear_202_515)" stroke-miterlimit="10"/>
<path d="M310.178 300.941C178.635 345.019 85.0305 419.641 101.106 467.614C117.181 515.587 236.849 518.745 368.391 474.667C499.934 430.589 593.539 355.966 577.464 307.993C561.389 260.02 441.721 256.863 310.178 300.941Z" stroke="url(#paint5_linear_202_515)" stroke-miterlimit="10"/>
<path d="M316.691 320.373C177.605 366.978 74.9698 434.95 87.4487 472.19C99.9277 509.431 222.795 501.84 361.881 455.234C500.967 408.628 603.602 340.657 591.123 303.416C578.644 266.175 455.777 273.767 316.691 320.373Z" stroke="url(#paint6_linear_202_515)" stroke-miterlimit="10"/>
<path d="M323.208 339.828C176.579 388.962 64.9105 450.271 73.7889 476.767C82.6673 503.263 208.731 484.912 355.36 435.779C501.989 386.645 613.658 325.336 604.779 298.84C595.901 272.344 469.837 290.695 323.208 339.828Z" stroke="url(#paint7_linear_202_515)" stroke-miterlimit="10"/>
<path d="M329.72 359.261C175.531 410.928 54.8183 465.591 60.1005 481.354C65.3827 497.118 194.66 468.013 348.849 416.346C503.038 364.68 623.751 310.017 618.468 294.253C613.186 278.489 483.909 307.594 329.72 359.261Z" stroke="url(#paint8_linear_202_515)" stroke-miterlimit="10"/>
</g>
<defs>
<filter id="filter0_dd_202_515" x="258.683" y="177.459" width="160.989" height="432.779" filterUnits="userSpaceOnUse" color-interpolation-filters="sRGB">
<feFlood flood-opacity="0" result="BackgroundImageFix"/>
<feColorMatrix in="SourceAlpha" type="matrix" values="0 0 0 0 0 0 0 0 0 0 0 0 0 0 0 0 0 0 127 0" result="hardAlpha"/>
<feOffset dx="2" dy="3"/>
<feComposite in2="hardAlpha" operator="out"/>
<feColorMatrix type="matrix" values="0 0 0 0 0.0235294 0 0 0 0 0.839216 0 0 0 0 0.627451 0 0 0 1 0"/>
<feBlend mode="normal" in2="BackgroundImageFix" result="effect1_dropShadow_202_515"/>
<feColorMatrix in="SourceAlpha" type="matrix" values="0 0 0 0 0 0 0 0 0 0 0 0 0 0 0 0 0 0 127 0" result="hardAlpha"/>
<feOffset dx="2" dy="1"/>
<feComposite in2="hardAlpha" operator="out"/>
<feColorMatrix type="matrix" values="0 0 0 0 0.937255 0 0 0 0 0.278431 0 0 0 0 0.435294 0 0 0 1 0"/>
<feBlend mode="normal" in2="effect1_dropShadow_202_515" result="effect2_dropShadow_202_515"/>
<feBlend mode="normal" in="SourceGraphic" in2="effect2_dropShadow_202_515" result="shape"/>
</filter>
<filter id="filter1_dd_202_515" x="257.397" y="189.467" width="163.559" height="408.763" filterUnits="userSpaceOnUse" color-interpolation-filters="sRGB">
<feFlood flood-opacity="0" result="BackgroundImageFix"/>
<feColorMatrix in="SourceAlpha" type="matrix" values="0 0 0 0 0 0 0 0 0 0 0 0 0 0 0 0 0 0 127 0" result="hardAlpha"/>
<feOffset dx="2" dy="3"/>
<feComposite in2="hardAlpha" operator="out"/>
<feColorMatrix type="matrix" values="0 0 0 0 0.0235294 0 0 0 0 0.839216 0 0 0 0 0.627451 0 0 0 1 0"/>
<feBlend mode="normal" in2="BackgroundImageFix" result="effect1_dropShadow_202_515"/>
<feColorMatrix in="SourceAlpha" type="matrix" values="0 0 0 0 0 0 0 0 0 0 0 0 0 0 0 0 0 0 127 0" result="hardAlpha"/>
<feOffset dx="2" dy="1"/>
<feComposite in2="hardAlpha" operator="out"/>
<feColorMatrix type="matrix" values="0 0 0 0 0.937255 0 0 0 0 0.278431 0 0 0 0 0.435294 0 0 0 1 0"/>
<feBlend mode="normal" in2="effect1_dropShadow_202_515" result="effect2_dropShadow_202_515"/>
<feBlend mode="normal" in="SourceGraphic" in2="effect2_dropShadow_202_515" result="shape"/>
</filter>
<filter id="filter2_dd_202_515" x="255.05" y="201.422" width="168.254" height="384.854" filterUnits="userSpaceOnUse" color-interpolation-filters="sRGB">
<feFlood flood-opacity="0" result="BackgroundImageFix"/>
<feColorMatrix in="SourceAlpha" type="matrix" values="0 0 0 0 0 0 0 0 0 0 0 0 0 0 0 0 0 0 127 0" result="hardAlpha"/>
<feOffset dx="2" dy="3"/>
<feComposite in2="hardAlpha" operator="out"/>
<feColorMatrix type="matrix" values="0 0 0 0 0.0235294 0 0 0 0 0.839216 0 0 0 0 0.627451 0 0 0 1 0"/>
<feBlend mode="normal" in2="BackgroundImageFix" result="effect1_dropShadow_202_515"/>
<feColorMatrix in="SourceAlpha" type="matrix" values="0 0 0 0 0 0 0 0 0 0 0 0 0 0 0 0 0 0 127 0" result="hardAlpha"/>
<feOffset dx="2" dy="1"/>
<feComposite in2="hardAlpha" operator="out"/>
<feColorMatrix type="matrix" values="0 0 0 0 0.937255 0 0 0 0 0.278431 0 0 0 0 0.435294 0 0 0 1 0"/>
<feBlend mode="normal" in2="effect1_dropShadow_202_515" result="effect2_dropShadow_202_515"/>
<feBlend mode="normal" in="SourceGraphic" in2="effect2_dropShadow_202_515" result="shape"/>
</filter>
<filter id="filter3_dd_202_515" x="251.707" y="213.283" width="174.937" height="361.132" filterUnits="userSpaceOnUse" color-interpolation-filters="sRGB">
<feFlood flood-opacity="0" result="BackgroundImageFix"/>
<feColorMatrix in="SourceAlpha" type="matrix" values="0 0 0 0 0 0 0 0 0 0 0 0 0 0 0 0 0 0 127 0" result="hardAlpha"/>
<feOffset dx="2" dy="3"/>
<feComposite in2="hardAlpha" operator="out"/>
<feColorMatrix type="matrix" values="0 0 0 0 0.0235294 0 0 0 0 0.839216 0 0 0 0 0.627451 0 0 0 1 0"/>
<feBlend mode="normal" in2="BackgroundImageFix" result="effect1_dropShadow_202_515"/>
<feColorMatrix in="SourceAlpha" type="matrix" values="0 0 0 0 0 0 0 0 0 0 0 0 0 0 0 0 0 0 127 0" result="hardAlpha"/>
<feOffset dx="2" dy="1"/>
<feComposite in2="hardAlpha" operator="out"/>
<feColorMatrix type="matrix" values="0 0 0 0 0.937255 0 0 0 0 0.278431 0 0 0 0 0.435294 0 0 0 1 0"/>
<feBlend mode="normal" in2="effect1_dropShadow_202_515" result="effect2_dropShadow_202_515"/>
<feBlend mode="normal" in="SourceGraphic" in2="effect2_dropShadow_202_515" result="shape"/>
</filter>
<filter id="filter4_dd_202_515" x="247.475" y="225.06" width="183.404" height="337.577" filterUnits="userSpaceOnUse" color-interpolation-filters="sRGB">
<feFlood flood-opacity="0" result="BackgroundImageFix"/>
<feColorMatrix in="SourceAlpha" type="matrix" values="0 0 0 0 0 0 0 0 0 0 0 0 0 0 0 0 0 0 127 0" result="hardAlpha"/>
<feOffset dx="2" dy="3"/>
<feComposite in2="hardAlpha" operator="out"/>
<feColorMatrix type="matrix" values="0 0 0 0 0.0235294 0 0 0 0 0.839216 0 0 0 0 0.627451 0 0 0 1 0"/>
<feBlend mode="normal" in2="BackgroundImageFix" result="effect1_dropShadow_202_515"/>
<feColorMatrix in="SourceAlpha" type="matrix" values="0 0 0 0 0 0 0 0 0 0 0 0 0 0 0 0 0 0 127 0" result="hardAlpha"/>
<feOffset dx="2" dy="1"/>
<feComposite in2="hardAlpha" operator="out"/>
<feColorMatrix type="matrix" values="0 0 0 0 0.937255 0 0 0 0 0.278431 0 0 0 0 0.435294 0 0 0 1 0"/>
<feBlend mode="normal" in2="effect1_dropShadow_202_515" result="effect2_dropShadow_202_515"/>
<feBlend mode="normal" in="SourceGraphic" in2="effect2_dropShadow_202_515" result="shape"/>
</filter>
<filter id="filter5_dd_202_515" x="242.493" y="236.702" width="193.368" height="314.293" filterUnits="userSpaceOnUse" color-interpolation-filters="sRGB">
<feFlood flood-opacity="0" result="BackgroundImageFix"/>
<feColorMatrix in="SourceAlpha" type="matrix" values="0 0 0 0 0 0 0 0 0 0 0 0 0 0 0 0 0 0 127 0" result="hardAlpha"/>
<feOffset dx="2" dy="3"/>
<feComposite in2="hardAlpha" operator="out"/>
<feColorMatrix type="matrix" values="0 0 0 0 0.0235294 0 0 0 0 0.839216 0 0 0 0 0.627451 0 0 0 1 0"/>
<feBlend mode="normal" in2="BackgroundImageFix" result="effect1_dropShadow_202_515"/>
<feColorMatrix in="SourceAlpha" type="matrix" values="0 0 0 0 0 0 0 0 0 0 0 0 0 0 0 0 0 0 127 0" result="hardAlpha"/>
<feOffset dx="2" dy="1"/>
<feComposite in2="hardAlpha" operator="out"/>
<feColorMatrix type="matrix" values="0 0 0 0 0.937255 0 0 0 0 0.278431 0 0 0 0 0.435294 0 0 0 1 0"/>
<feBlend mode="normal" in2="effect1_dropShadow_202_515" result="effect2_dropShadow_202_515"/>
<feBlend mode="normal" in="SourceGraphic" in2="effect2_dropShadow_202_515" result="shape"/>
</filter>
<filter id="filter6_dd_202_515" x="236.866" y="248.199" width="204.621" height="291.3" filterUnits="userSpaceOnUse" color-interpolation-filters="sRGB">
<feFlood flood-opacity="0" result="BackgroundImageFix"/>
<feColorMatrix in="SourceAlpha" type="matrix" values="0 0 0 0 0 0 0 0 0 0 0 0 0 0 0 0 0 0 127 0" result="hardAlpha"/>
<feOffset dx="2" dy="3"/>
<feComposite in2="hardAlpha" operator="out"/>
<feColorMatrix type="matrix" values="0 0 0 0 0.0235294 0 0 0 0 0.839216 0 0 0 0 0.627451 0 0 0 1 0"/>
<feBlend mode="normal" in2="BackgroundImageFix" result="effect1_dropShadow_202_515"/>
<feColorMatrix in="SourceAlpha" type="matrix" values="0 0 0 0 0 0 0 0 0 0 0 0 0 0 0 0 0 0 127 0" result="hardAlpha"/>
<feOffset dx="2" dy="1"/>
<feComposite in2="hardAlpha" operator="out"/>
<feColorMatrix type="matrix" values="0 0 0 0 0.937255 0 0 0 0 0.278431 0 0 0 0 0.435294 0 0 0 1 0"/>
<feBlend mode="normal" in2="effect1_dropShadow_202_515" result="effect2_dropShadow_202_515"/>
<feBlend mode="normal" in="SourceGraphic" in2="effect2_dropShadow_202_515" result="shape"/>
</filter>
<filter id="filter7_dd_202_515" x="230.683" y="259.521" width="216.988" height="268.655" filterUnits="userSpaceOnUse" color-interpolation-filters="sRGB">
<feFlood flood-opacity="0" result="BackgroundImageFix"/>
<feColorMatrix in="SourceAlpha" type="matrix" values="0 0 0 0 0 0 0 0 0 0 0 0 0 0 0 0 0 0 127 0" result="hardAlpha"/>
<feOffset dx="2" dy="3"/>
<feComposite in2="hardAlpha" operator="out"/>
<feColorMatrix type="matrix" values="0 0 0 0 0.0235294 0 0 0 0 0.839216 0 0 0 0 0.627451 0 0 0 1 0"/>
<feBlend mode="normal" in2="BackgroundImageFix" result="effect1_dropShadow_202_515"/>
<feColorMatrix in="SourceAlpha" type="matrix" values="0 0 0 0 0 0 0 0 0 0 0 0 0 0 0 0 0 0 127 0" result="hardAlpha"/>
<feOffset dx="2" dy="1"/>
<feComposite in2="hardAlpha" operator="out"/>
<feColorMatrix type="matrix" values="0 0 0 0 0.937255 0 0 0 0 0.278431 0 0 0 0 0.435294 0 0 0 1 0"/>
<feBlend mode="normal" in2="effect1_dropShadow_202_515" result="effect2_dropShadow_202_515"/>
<feBlend mode="normal" in="SourceGraphic" in2="effect2_dropShadow_202_515" result="shape"/>
</filter>
<linearGradient id="paint0_linear_202_515" x1="434.809" y1="666.929" x2="257.469" y2="654.735" gradientUnits="userSpaceOnUse">
<stop stop-color="#FF5336"/>
<stop offset="1" stop-color="#FF2400"/>
</linearGradient>
<linearGradient id="paint1_linear_202_515" x1="425.058" y1="637.35" x2="240.944" y2="611.445" gradientUnits="userSpaceOnUse">
<stop stop-color="#FF5336"/>
<stop offset="1" stop-color="#FF2400"/>
</linearGradient>
<linearGradient id="paint2_linear_202_515" x1="415.296" y1="607.735" x2="229.254" y2="565.486" gradientUnits="userSpaceOnUse">
<stop stop-color="#FF5336"/>
<stop offset="1" stop-color="#FF2400"/>
</linearGradient>
<linearGradient id="paint3_linear_202_515" x1="405.544" y1="578.157" x2="224.368" y2="517.93" gradientUnits="userSpaceOnUse">
<stop stop-color="#FF5336"/>
<stop offset="1" stop-color="#FF2400"/>
</linearGradient>
<linearGradient id="paint4_linear_202_515" x1="395.781" y1="548.542" x2="228.254" y2="470.806" gradientUnits="userSpaceOnUse">
<stop stop-color="#FF5336"/>
<stop offset="1" stop-color="#FF2400"/>
</linearGradient>
<linearGradient id="paint5_linear_202_515" x1="386.031" y1="518.963" x2="242.132" y2="427.89" gradientUnits="userSpaceOnUse">
<stop stop-color="#FF5336"/>
<stop offset="1" stop-color="#FF2400"/>
</linearGradient>
<linearGradient id="paint6_linear_202_515" x1="376.281" y1="489.384" x2="265.203" y2="394.14" gradientUnits="userSpaceOnUse">
<stop stop-color="#FF5336"/>
<stop offset="1" stop-color="#FF2400"/>
</linearGradient>
<linearGradient id="paint7_linear_202_515" x1="366.516" y1="459.77" x2="293.485" y2="374.232" gradientUnits="userSpaceOnUse">
<stop stop-color="#FF5336"/>
<stop offset="1" stop-color="#FF2400"/>
</linearGradient>
<linearGradient id="paint8_linear_202_515" x1="356.765" y1="430.191" x2="320.137" y2="370.135" gradientUnits="userSpaceOnUse">
<stop stop-color="#FF5336"/>
<stop offset="1" stop-color="#FF2400"/>
</linearGradient>
</defs>
</svg>
