<svg width="992" height="655" viewBox="0 0 992 655" fill="none" xmlns="http://www.w3.org/2000/svg">
<mask id="mask0_202_516" style="mask-type:alpha" maskUnits="userSpaceOnUse" x="159" y="159" width="747" height="746">
<circle cx="532.294" cy="532.006" r="372.778" fill="#D9D9D9"/>
</mask>
<g mask="url(#mask0_202_516)">
<path d="M1062.14 381.938C606.847 352.09 606.847 301.281 1062.14 271.447C606.847 301.294 600.215 250.913 1047.72 161.896C600.215 250.913 587.06 201.831 1019.11 55.1643C587.06 201.831 567.617 154.89 976.83 -46.9248C567.617 154.877 542.206 110.879 921.585 -142.616C542.206 110.879 511.28 70.5577 854.318 -230.279C511.28 70.5577 475.353 34.6304 776.19 -308.407C475.353 34.6304 435.045 3.70517 688.527 -375.674C435.032 3.70517 391.034 -21.7065 592.836 -430.919C391.034 -21.7065 344.094 -41.1487 490.747 -473.203C344.08 -41.1487 294.998 -54.3037 384.015 -501.807C294.998 -54.3037 244.63 -60.9365 274.464 -516.233C244.616 -60.9365 193.807 -60.9365 163.973 -516.233C193.821 -60.9365 143.439 -54.3037 54.4223 -501.807C143.439 -54.3037 94.357 -41.1487 -52.3096 -473.203C94.357 -41.1487 47.4165 -21.7065 -154.399 -430.919C47.4027 -21.7065 3.40546 3.70517 -250.09 -375.674C3.40546 3.70517 -36.9161 34.6304 -337.753 -308.407C-36.9161 34.6304 -72.8435 70.5577 -415.881 -230.279C-72.8435 70.5577 -103.769 110.879 -483.148 -142.616C-103.769 110.879 -129.18 154.877 -538.393 -46.9248C-129.18 154.877 -148.623 201.817 -580.677 55.1643C-148.623 201.831 -161.778 250.913 -609.281 161.896C-161.778 250.913 -168.41 301.281 -623.707 271.447C-168.41 301.294 -168.41 352.104 -623.707 381.938C-168.41 352.09 -161.778 402.471 -609.281 491.488C-161.778 402.471 -148.623 451.554 -580.677 598.22C-148.623 451.554 -129.18 498.494 -538.393 700.309C-129.18 498.508 -103.769 542.505 -483.148 796.001C-103.769 542.505 -72.8435 582.827 -415.881 883.663C-72.8435 582.827 -36.9161 618.754 -337.753 961.792C-36.9161 618.754 3.39165 649.68 -250.09 1029.06C3.40546 649.68 47.4027 675.091 -154.399 1084.3C47.4027 675.091 94.3432 694.533 -52.3096 1126.59C94.357 694.533 143.439 707.688 54.4223 1155.19C143.439 707.688 193.807 714.321 163.973 1169.62C193.821 714.321 244.63 714.321 274.464 1169.62C244.616 714.321 294.998 707.688 384.015 1155.19C294.998 707.688 344.08 694.533 490.747 1126.59C344.08 694.533 391.02 675.091 592.836 1084.3C391.034 675.091 435.032 649.68 688.527 1029.06C435.032 649.68 475.353 618.754 776.19 961.792C475.353 618.754 511.28 582.827 854.318 883.663C511.28 582.827 542.206 542.519 921.585 796.001C542.206 542.505 567.617 498.508 976.83 700.309C567.617 498.508 587.06 451.568 1019.11 598.22C587.06 451.554 600.215 402.471 1047.72 491.488C600.215 402.471 606.847 352.104 1062.14 381.938ZM1006.76 483.336C581.38 398.727 568.889 445.377 979.58 584.789C568.889 445.377 550.4 489.996 939.383 681.821C550.4 489.996 526.246 531.824 886.874 772.786C526.26 531.824 496.854 570.142 822.937 856.11C496.854 570.142 462.709 604.3 748.664 930.383C462.696 604.3 424.378 633.706 665.34 994.32C424.378 633.706 382.55 657.86 574.375 1046.83C382.55 657.846 337.931 676.335 477.343 1087.03C337.931 676.335 291.281 688.84 375.89 1114.21C291.281 688.827 243.387 695.141 271.755 1127.91C243.387 695.128 195.092 695.128 166.723 1127.91C195.092 695.128 147.198 688.827 62.5889 1114.21C147.198 688.827 100.548 676.335 -38.8645 1087.03C100.548 676.335 55.9285 657.846 -135.896 1046.83C55.9285 657.846 14.1008 633.692 -226.861 994.32C14.0869 633.706 -24.2172 604.3 -310.185 930.383C-24.2172 604.3 -58.3758 570.156 -384.458 856.11C-58.3758 570.142 -87.781 531.824 -448.395 772.786C-87.781 531.824 -111.935 489.996 -500.904 681.821C-111.921 489.996 -130.41 445.377 -541.102 584.789C-130.41 445.377 -142.916 398.727 -568.282 483.336C-142.902 398.727 -149.217 350.833 -581.99 379.202C-149.217 350.833 -149.217 302.538 -581.99 274.169C-149.217 302.538 -142.902 254.644 -568.282 170.035C-142.902 254.644 -130.41 207.994 -541.102 68.5817C-130.41 207.994 -111.921 163.375 -500.904 -28.4498C-111.921 163.375 -87.7672 121.547 -448.395 -119.415C-87.781 121.547 -58.3758 83.229 -384.458 -202.739C-58.3758 83.229 -24.231 49.0704 -310.185 -277.012C-24.2172 49.0704 14.1008 19.6652 -226.861 -340.949C14.0869 19.6652 55.9285 -4.48903 -135.896 -393.458C55.9285 -4.4752 100.548 -22.964 -38.8645 -433.655C100.548 -22.964 147.198 -35.4695 62.5889 -460.836C147.198 -35.4557 195.092 -41.7706 166.723 -474.543C195.092 -41.7567 243.387 -41.7567 271.755 -474.543C243.387 -41.7567 291.281 -35.4557 375.89 -460.836C291.281 -35.4557 337.931 -22.964 477.343 -433.655C337.931 -22.964 382.55 -4.4752 574.375 -393.458C382.55 -4.4752 424.378 19.6791 665.34 -340.949C424.378 19.6652 462.696 49.0704 748.664 -277.012C462.696 49.0704 496.854 83.2152 822.937 -202.739C496.854 83.229 526.26 121.547 886.874 -119.415C526.26 121.547 550.414 163.375 939.383 -28.4498C550.4 163.375 568.889 207.994 979.58 68.5817C568.889 207.994 581.394 254.644 1006.76 170.035C581.38 254.644 587.695 302.538 1020.47 274.169C587.681 302.538 587.681 350.833 1020.47 379.202C587.681 350.833 581.38 398.727 1006.76 483.336Z" fill="#FF2400"/>
<path d="M979.828 376.535C568.999 349.603 568.999 303.754 979.828 276.836C568.999 303.768 563.015 258.306 966.812 177.981C563.015 258.306 551.146 214.019 941.013 81.6677C551.146 214.005 533.61 171.652 902.861 -10.4446C533.61 171.652 510.686 131.938 853.005 -96.7947C510.672 131.938 482.773 95.5688 792.315 -175.89C482.773 95.5688 450.355 63.1513 721.814 -246.391C450.355 63.1513 413.986 35.2385 642.719 -307.08C413.986 35.2523 374.272 12.3279 556.369 -356.936C374.272 12.314 331.919 -5.23509 464.257 -395.089C331.919 -5.22126 287.632 -17.0911 367.944 -420.887C287.618 -17.0911 242.17 -23.0744 269.088 -433.904C242.156 -23.0744 196.307 -23.0744 169.389 -433.904C196.321 -23.0744 150.859 -17.0911 70.534 -420.887C150.859 -17.0911 106.572 -5.22126 -25.7652 -395.089C106.572 -5.22126 64.2191 12.314 -117.877 -356.936C64.2191 12.314 24.5055 35.2385 -204.228 -307.08C24.5055 35.2523 -11.8641 63.1513 -283.323 -246.391C-11.8641 63.1513 -44.2817 95.5688 -353.824 -175.89C-44.2817 95.5688 -72.1945 131.938 -414.513 -96.7947C-72.1806 131.938 -95.1051 171.652 -464.369 -10.4446C-95.1189 171.652 -112.668 214.005 -502.522 81.6677C-112.654 214.005 -124.524 258.292 -528.32 177.981C-124.524 258.306 -130.507 303.754 -541.337 276.836C-130.507 303.768 -130.507 349.617 -541.337 376.535C-130.507 349.603 -124.524 395.065 -528.32 475.39C-124.524 395.065 -112.654 439.352 -502.522 571.703C-112.654 439.366 -95.1189 481.719 -464.369 663.816C-95.1189 481.719 -72.1945 521.433 -414.513 750.166C-72.1806 521.433 -44.2817 557.802 -353.824 829.261C-44.2817 557.802 -11.8641 590.22 -283.323 899.762C-11.8641 590.22 24.5055 618.133 -204.228 960.451C24.5055 618.119 64.2191 641.043 -117.877 1010.31C64.2191 641.057 106.572 658.606 -25.7652 1048.46C106.572 658.592 150.859 670.462 70.534 1074.26C150.859 670.462 196.307 676.446 169.389 1087.28C196.321 676.446 242.17 676.446 269.088 1087.28C242.156 676.446 287.618 670.462 367.944 1074.26C287.618 670.462 331.906 658.592 464.257 1048.46C331.919 658.592 374.272 641.057 556.369 1010.31C374.272 641.057 413.986 618.133 642.719 960.451C413.986 618.119 450.355 590.22 721.814 899.762C450.355 590.22 482.773 557.802 792.315 829.261C482.773 557.802 510.686 521.433 853.005 750.166C510.672 521.433 533.596 481.719 902.861 663.816C533.61 481.719 551.159 439.366 941.013 571.703C551.146 439.366 563.015 395.079 966.812 475.39C563.015 395.065 568.999 349.617 979.828 376.535ZM927.899 467.638C545.121 391.5 533.873 433.48 903.441 558.935C533.873 433.48 517.236 473.635 867.279 646.253C517.249 473.635 495.513 511.276 820.021 728.098C495.513 511.276 469.051 545.753 762.481 803.076C469.051 545.753 438.32 576.484 695.657 869.901C438.334 576.471 403.843 602.932 620.679 927.44C403.857 602.932 366.216 624.668 538.834 974.698C366.216 624.668 326.061 641.292 451.516 1010.86C326.061 641.292 284.081 652.54 360.219 1035.32C284.081 652.54 240.982 658.205 266.518 1047.66C240.996 658.219 197.523 658.219 172.001 1047.66C197.523 658.219 154.438 652.54 78.2998 1035.32C154.438 652.54 112.458 641.292 -12.9972 1010.86C112.458 641.292 72.3027 624.655 -100.315 974.698C72.3027 624.668 34.6619 602.932 -182.16 927.44C34.6619 602.932 0.185398 576.471 -257.138 869.901C0.185398 576.471 -30.5463 545.739 -323.962 803.076C-30.5325 545.753 -56.9944 511.262 -381.502 728.098C-56.9944 511.276 -78.7305 473.635 -428.76 646.253C-78.7305 473.635 -95.3538 433.48 -464.922 558.935C-95.3538 433.48 -106.602 391.5 -489.38 467.638C-106.602 391.5 -112.267 348.415 -501.72 373.937C-112.281 348.415 -112.281 304.942 -501.72 279.42C-112.281 304.942 -106.602 261.857 -489.38 185.719C-106.602 261.857 -95.3538 219.878 -464.922 94.4219C-95.3538 219.878 -78.7166 179.722 -428.76 7.10456C-78.7305 179.722 -56.9944 142.081 -381.502 -74.7408C-56.9944 142.081 -30.5325 107.605 -323.962 -149.718C-30.5325 107.605 0.199209 76.8728 -257.138 -216.543C0.185398 76.8866 34.6757 50.4247 -182.16 -274.082C34.6619 50.4247 72.3027 28.6886 -100.315 -321.341C72.3027 28.6886 112.458 12.0653 -12.9972 -357.503C112.458 12.0653 154.438 0.8173 78.2998 -381.961C154.438 0.8173 197.523 -4.84819 172.001 -394.301C197.523 -4.86202 240.996 -4.86202 266.518 -394.301C240.996 -4.86202 284.081 0.8173 360.219 -381.961C284.081 0.8173 326.061 12.0653 451.516 -357.503C326.061 12.0653 366.216 28.7025 538.834 -321.341C366.216 28.6886 403.857 50.4247 620.679 -274.082C403.857 50.4247 438.334 76.8866 695.657 -216.543C438.334 76.8866 469.065 107.618 762.481 -149.718C469.051 107.605 495.513 142.095 820.021 -74.7408C495.513 142.081 517.249 179.722 867.279 7.10456C517.249 179.722 533.873 219.878 903.441 94.4219C533.873 219.878 545.121 261.857 927.899 185.719C545.121 261.857 550.786 304.942 940.239 279.42C550.8 304.942 550.8 348.415 940.239 373.937C550.8 348.415 545.121 391.5 927.899 467.638Z" fill="#FF2400"/>
<path d="M901.686 371.422C533.058 347.268 533.058 306.117 901.686 281.963C533.058 306.117 527.696 265.34 890.01 193.264C527.696 265.34 517.042 225.598 866.851 106.858C517.042 225.598 501.303 187.598 832.609 24.2116C501.289 187.598 480.728 151.975 787.879 -53.2672C480.728 151.961 455.675 119.336 733.422 -124.238C455.675 119.336 426.588 90.2488 670.162 -187.497C426.588 90.2488 393.95 65.1964 599.192 -241.955C393.963 65.1964 358.326 44.6349 521.713 -286.685C358.326 44.6349 320.312 28.8959 439.066 -320.926C320.326 28.8821 280.585 18.2421 352.661 -344.086C280.585 18.2283 239.807 12.8668 263.961 -355.762C239.807 12.8668 198.657 12.8668 174.502 -355.762C198.657 12.8668 157.879 18.2283 85.8031 -344.086C157.865 18.2283 118.138 28.8821 -0.616052 -320.926C118.124 28.8821 80.1238 44.6211 -83.2629 -286.685C80.1238 44.6349 44.5004 65.1964 -160.742 -241.955C44.5004 65.1964 11.8618 90.2488 -231.712 -187.497C11.8618 90.2488 -17.2256 119.336 -294.972 -124.238C-17.2256 119.336 -42.278 151.975 -349.429 -53.2672C-42.278 151.961 -62.8395 187.598 -394.159 24.2116C-62.8395 187.598 -78.5785 225.612 -428.401 106.858C-78.5923 225.598 -89.2323 265.34 -451.56 193.264C-89.2461 265.34 -94.6076 306.117 -463.236 281.963C-94.6076 306.117 -94.6076 347.268 -463.236 371.422C-94.6076 347.268 -89.2461 388.045 -451.56 460.121C-89.2461 388.045 -78.5923 427.787 -428.401 546.527C-78.5923 427.787 -62.8533 465.787 -394.159 629.173C-62.8395 465.787 -42.278 501.41 -349.429 706.652C-42.278 501.41 -17.2256 534.049 -294.972 777.623C-17.2256 534.049 11.8618 563.136 -231.712 840.882C11.8618 563.136 44.5004 588.189 -160.742 895.34C44.5004 588.189 80.1238 608.75 -83.2629 940.07C80.1238 608.75 118.138 624.489 -0.616052 974.311C118.124 624.503 157.865 635.143 85.8031 997.471C157.865 635.157 198.657 640.518 174.502 1009.15C198.657 640.518 239.807 640.518 263.961 1009.15C239.807 640.518 280.585 635.157 352.661 997.471C280.585 635.157 320.326 624.503 439.066 974.311C320.326 624.503 358.326 608.764 521.713 940.07C358.326 608.75 393.95 588.189 599.192 895.34C393.963 588.189 426.588 563.136 670.162 840.882C426.588 563.136 455.675 534.049 733.422 777.623C455.675 534.049 480.728 501.41 787.879 706.652C480.728 501.41 501.289 465.787 832.609 629.173C501.289 465.787 517.028 427.773 866.851 546.527C517.042 427.787 527.682 388.045 890.01 460.121C527.696 388.045 533.058 347.268 901.686 371.422ZM853.143 452.784C510.741 384.674 500.681 422.232 831.255 534.449C500.668 422.232 485.785 458.145 798.906 612.564C485.799 458.159 466.357 491.82 756.636 685.787C466.357 491.834 442.686 522.676 705.164 752.86C442.686 522.676 415.202 550.161 645.386 812.638C415.202 550.161 384.36 573.831 578.312 864.111C384.36 573.831 350.685 593.274 505.089 906.381C350.685 593.274 314.757 608.156 426.975 938.729C314.757 608.142 277.199 618.202 345.309 960.617C277.199 618.216 238.66 623.287 261.488 971.658C238.66 623.287 199.776 623.287 176.948 971.658C199.776 623.287 161.237 618.216 93.1267 960.617C161.237 618.216 123.679 608.156 11.4611 938.729C123.679 608.142 87.7653 593.26 -66.6533 906.381C87.7515 593.274 54.0902 573.831 -139.876 864.111C54.0764 573.831 23.2342 550.161 -206.95 812.638C23.2342 550.161 -4.25027 522.676 -266.727 752.86C-4.25027 522.676 -27.9209 491.834 -318.2 685.787C-27.9209 491.834 -47.3631 458.159 -360.47 612.564C-47.3631 458.159 -62.2453 422.232 -392.819 534.449C-62.2315 422.232 -72.2912 384.674 -414.707 452.784C-72.305 384.674 -77.3763 346.135 -425.747 368.962C-77.3763 346.135 -77.3763 307.25 -425.747 284.423C-77.3763 307.25 -72.305 268.711 -414.707 200.601C-72.305 268.711 -62.2453 231.153 -392.819 118.935C-62.2315 231.153 -47.3493 195.24 -360.47 40.8211C-47.3631 195.226 -27.9209 161.565 -318.2 -32.4017C-27.9209 161.551 -4.26408 130.709 -266.727 -99.4754C-4.25027 130.709 23.2342 103.224 -206.95 -159.253C23.2342 103.224 54.0764 79.5535 -139.876 -210.726C54.0764 79.5535 87.7515 60.1113 -66.6533 -252.996C87.7515 60.1113 123.679 45.2291 11.4611 -285.344C123.679 45.2429 161.237 35.1832 93.1267 -307.232C161.237 35.1694 199.776 30.0981 176.948 -318.273C199.776 30.0981 238.66 30.0981 261.488 -318.273C238.66 30.0981 277.199 35.1694 345.309 -307.232C277.199 35.1694 314.757 45.2291 426.975 -285.344C314.757 45.2429 350.671 60.1251 505.089 -252.996C350.685 60.1113 384.346 79.5535 578.312 -210.726C384.36 79.5535 415.202 103.224 645.386 -159.253C415.202 103.224 442.686 130.709 705.164 -99.4754C442.686 130.709 466.357 161.551 756.636 -32.4017C466.357 161.551 485.799 195.226 798.906 40.8211C485.799 195.226 500.681 231.153 831.255 118.935C500.668 231.153 510.727 268.711 853.143 200.601C510.741 268.711 515.812 307.25 864.184 284.423C515.812 307.25 515.812 346.135 864.184 368.962C515.812 346.135 510.741 384.674 853.143 452.784Z" fill="#FF2400"/>
<path d="M827.732 366.572C499.065 345.029 499.065 308.356 827.732 286.813C499.065 308.356 494.27 271.986 817.327 207.731C494.284 271.986 484.791 236.556 796.682 130.681C484.791 236.556 470.752 202.674 766.158 56.9884C470.752 202.674 452.415 170.906 726.278 -12.089C452.415 170.906 430.085 141.805 677.721 -75.3764C430.085 141.791 404.148 115.854 621.315 -131.782C404.148 115.854 375.047 93.5238 558.028 -180.34C375.033 93.5238 343.265 75.187 488.95 -220.219C343.265 75.187 309.382 61.1477 415.258 -250.743C309.382 61.1477 273.953 51.6545 338.207 -271.388C273.953 51.6545 237.583 46.8734 259.126 -281.793C237.583 46.8734 200.91 46.8734 179.367 -281.793C200.91 46.8734 164.54 51.6683 100.285 -271.388C164.54 51.6545 129.11 61.1477 23.2347 -250.743C129.11 61.1477 95.2277 75.187 -50.4578 -220.219C95.2277 75.187 63.4596 93.5238 -119.535 -180.34C63.4596 93.5238 34.3584 115.854 -182.823 -131.782C34.3446 115.854 8.4078 141.791 -239.229 -75.3764C8.4078 141.791 -13.9224 170.892 -287.786 -12.089C-13.9224 170.906 -32.2592 202.674 -327.665 56.9884C-32.2592 202.674 -46.2985 236.556 -358.19 130.681C-46.2985 236.556 -55.7917 271.986 -378.834 207.731C-55.7917 271.986 -60.5728 308.356 -389.239 286.813C-60.5728 308.356 -60.5728 345.029 -389.239 366.572C-60.5728 345.029 -55.7779 381.399 -378.834 445.654C-55.7917 381.399 -46.2985 416.829 -358.19 522.704C-46.2985 416.829 -32.2592 450.711 -327.665 596.397C-32.2592 450.711 -13.9224 482.479 -287.786 665.474C-13.9224 482.479 8.4078 511.58 -239.229 728.761C8.4078 511.594 34.3446 537.531 -182.823 785.167C34.3446 537.531 63.4458 559.861 -119.535 833.725C63.4596 559.861 95.2277 578.198 -50.4578 873.604C95.2277 578.198 129.11 592.237 23.2347 904.128C129.11 592.237 164.54 601.73 100.285 924.773C164.54 601.73 200.91 606.511 179.367 935.178C200.91 606.511 237.583 606.511 259.126 935.178C237.583 606.511 273.953 601.716 338.207 924.773C273.953 601.73 309.382 592.237 415.258 904.128C309.382 592.237 343.265 578.198 488.95 873.604C343.265 578.198 375.033 559.861 558.028 833.725C375.033 559.861 404.134 537.531 621.315 785.167C404.148 537.531 430.085 511.594 677.721 728.761C430.085 511.594 452.415 482.493 726.278 665.474C452.415 482.479 470.752 450.711 766.158 596.397C470.752 450.711 484.791 416.829 796.682 522.704C484.791 416.829 494.284 381.399 817.327 445.654C494.284 381.399 499.065 345.029 827.732 366.572ZM782.505 438.731C478.255 378.207 469.315 411.578 763.063 511.29C469.315 411.578 456.104 443.498 734.321 580.699C456.104 443.498 438.832 473.414 696.763 645.755C438.832 473.414 417.814 500.816 651.038 705.353C417.814 500.816 393.384 525.246 597.921 758.47C393.384 525.246 365.982 546.278 538.323 804.195C365.982 546.264 336.066 563.537 473.267 841.753C336.066 563.537 304.145 576.761 403.858 870.495C304.145 576.747 270.775 585.687 331.298 889.937C270.775 585.687 236.533 590.206 256.818 899.748C236.533 590.206 201.987 590.206 181.702 899.748C201.987 590.206 167.746 585.701 107.222 889.937C167.746 585.687 134.375 576.747 34.6624 870.495C134.375 576.747 102.455 563.537 -34.7465 841.753C102.455 563.537 72.5382 546.264 -99.8027 804.195C72.5382 546.264 45.1367 525.246 -159.401 758.47C45.1367 525.246 20.706 500.816 -212.518 705.353C20.706 500.816 -0.325308 473.414 -258.242 645.755C-0.311476 473.414 -17.5843 443.498 -295.8 580.699C-17.5843 443.498 -30.8083 411.578 -324.542 511.29C-30.7945 411.578 -39.7487 378.207 -343.985 438.731C-39.7349 378.207 -44.2535 343.965 -353.795 364.25C-44.2535 343.965 -44.2535 309.42 -353.795 289.135C-44.2535 309.42 -39.7487 275.178 -343.985 214.654C-39.7349 275.178 -30.7945 241.807 -324.542 142.095C-30.7945 241.807 -17.5843 209.887 -295.8 72.6859C-17.5843 209.887 -0.311476 179.971 -258.242 7.62968C-0.311476 179.971 20.706 152.569 -212.518 -51.9683C20.706 152.569 45.1367 128.138 -159.401 -105.086C45.1367 128.138 72.5382 107.107 -99.8027 -150.81C72.5382 107.121 102.455 89.8481 -34.7465 -188.368C102.455 89.8481 134.375 76.6241 34.6624 -217.11C134.375 76.6379 167.746 67.6975 107.222 -236.552C167.746 67.6975 201.987 63.1789 181.702 -246.363C201.987 63.1789 236.533 63.1789 256.818 -246.363C236.533 63.1789 270.775 67.6837 331.298 -236.552C270.775 67.6975 304.145 76.6379 403.858 -217.11C304.145 76.6379 336.066 89.8481 473.267 -188.368C336.066 89.8481 365.982 107.121 538.323 -150.81C365.982 107.121 393.384 128.138 597.921 -105.086C393.384 128.138 417.814 152.569 651.038 -51.9683C417.814 152.569 438.846 179.971 696.763 7.62968C438.832 179.971 456.104 209.887 734.321 72.6859C456.104 209.887 469.329 241.807 763.063 142.095C469.315 241.807 478.269 275.178 782.505 214.654C478.255 275.178 482.774 309.42 792.316 289.135C482.774 309.42 482.774 343.965 792.316 364.25C482.774 343.965 478.269 378.207 782.505 438.731Z" fill="#FF2400"/>
<path d="M757.936 361.998C466.966 342.929 466.966 310.456 757.936 291.387C466.966 310.456 462.724 278.26 748.719 221.37C462.724 278.26 454.322 246.892 730.438 153.163C454.322 246.892 441.886 216.893 703.409 87.9273C441.886 216.893 425.649 188.773 668.104 26.7679C425.649 188.773 405.875 163.002 625.115 -29.2512C405.875 163.016 382.923 140.05 575.176 -79.1903C382.91 140.05 357.152 120.276 519.157 -122.179C357.152 120.276 329.032 104.039 457.998 -157.484C329.032 104.039 299.033 91.6168 392.762 -184.513C299.033 91.603 267.666 83.2015 324.555 -202.794C267.666 83.2015 235.469 78.9593 254.538 -212.011C235.469 78.9593 202.996 78.9593 183.927 -212.011C202.996 78.9593 170.8 83.2015 113.91 -202.794C170.8 83.2015 139.433 91.603 45.7035 -184.513C139.433 91.603 109.433 104.039 -19.5323 -157.484C109.433 104.039 81.3131 120.276 -80.6918 -122.179C81.3131 120.276 55.5421 140.05 -136.711 -79.1903C55.5559 140.05 32.59 163.002 -186.65 -29.2512C32.59 163.016 12.8161 188.773 -229.638 26.7679C12.8161 188.773 -3.42029 216.893 -264.944 87.9273C-3.42029 216.893 -15.8429 246.892 -291.972 153.163C-15.8567 246.892 -24.2582 278.26 -310.254 221.37C-24.2582 278.26 -28.5004 310.456 -319.471 291.387C-28.5004 310.456 -28.5004 342.929 -319.471 361.998C-28.5004 342.929 -24.2582 375.125 -310.254 432.015C-24.2582 375.125 -15.8567 406.493 -291.972 500.222C-15.8567 406.493 -3.42029 436.492 -264.944 565.457C-3.42029 436.492 12.8161 464.612 -229.638 626.617C12.8161 464.612 32.59 490.383 -186.65 682.636C32.59 490.369 55.5421 513.335 -136.711 732.575C55.5559 513.335 81.3131 533.109 -80.6918 775.564C81.3131 533.109 109.433 549.345 -19.5323 810.869C109.433 549.345 139.433 561.768 45.7035 837.898C139.433 561.782 170.8 570.183 113.91 856.179C170.8 570.183 202.996 574.425 183.927 865.396C202.996 574.425 235.469 574.425 254.538 865.396C235.469 574.425 267.666 570.183 324.555 856.179C267.666 570.183 299.033 561.782 392.762 837.898C299.033 561.782 329.032 549.345 457.998 810.869C329.032 549.345 357.152 533.109 519.157 775.564C357.152 533.109 382.923 513.335 575.176 732.575C382.91 513.335 405.875 490.383 625.115 682.636C405.875 490.369 425.649 464.612 668.104 626.617C425.649 464.612 441.886 436.492 703.409 565.457C441.886 436.492 454.308 406.493 730.438 500.222C454.322 406.493 462.724 375.125 748.719 432.015C462.724 375.125 466.966 342.929 757.936 361.998ZM715.956 425.493C447.662 372.127 439.772 401.546 698.808 489.485C439.772 401.56 428.109 429.693 673.452 550.686C428.109 429.693 412.881 456.072 640.329 608.059C412.881 456.086 394.337 480.254 600.008 660.61C394.337 480.24 372.795 501.783 553.164 707.454C372.795 501.783 348.627 520.327 500.613 747.789C348.64 520.341 322.248 535.569 443.24 780.911C322.248 535.569 294.1 547.231 382.039 806.268C294.114 547.231 264.681 555.108 318.047 823.416C264.681 555.121 234.474 559.087 252.369 832.066C234.474 559.101 204.019 559.101 186.124 832.066C204.019 559.101 173.812 555.121 120.446 823.416C173.812 555.121 144.393 547.231 56.454 806.268C144.379 547.231 116.246 535.569 -4.74685 780.911C116.246 535.569 89.8665 520.341 -62.1201 747.789C89.8527 520.341 65.6847 501.797 -114.671 707.454C65.6985 501.783 44.1559 480.24 -161.515 660.61C44.1559 480.24 25.6118 456.072 -201.836 608.059C25.6118 456.086 10.3841 429.693 -234.958 550.686C10.3841 429.693 -1.27844 401.546 -260.315 489.485C-1.27844 401.56 -9.15487 372.127 -277.463 425.493C-9.16868 372.127 -13.1345 341.92 -286.114 359.815C-13.1483 341.92 -13.1483 311.465 -286.114 293.57C-13.1483 311.465 -9.16868 281.258 -277.463 227.892C-9.16868 281.258 -1.27844 251.839 -260.315 163.9C-1.27844 251.825 10.3841 223.691 -234.958 102.699C10.3841 223.691 25.6118 197.312 -201.836 45.3258C25.6118 197.299 44.1559 173.13 -161.515 -7.22495C44.1559 173.144 65.6985 151.602 -114.671 -54.0687C65.6985 151.602 89.8665 133.058 -62.1201 -94.3903C89.8527 133.058 116.246 117.83 -4.74685 -127.513C116.246 117.83 144.393 106.167 56.454 -152.869C144.379 106.167 173.812 98.291 120.446 -170.017C173.812 98.2772 204.019 94.3113 186.124 -178.668C204.019 94.2975 234.474 94.2975 252.369 -178.668C234.474 94.2975 264.681 98.2772 318.047 -170.017C264.681 98.2772 294.1 106.167 382.039 -152.869C294.114 106.167 322.248 117.83 443.24 -127.513C322.248 117.83 348.627 133.058 500.613 -94.3903C348.64 133.058 372.808 151.602 553.164 -54.0687C372.795 151.602 394.337 173.144 600.008 -7.22495C394.337 173.144 412.881 197.312 640.329 45.3258C412.881 197.299 428.109 223.691 673.452 102.699C428.109 223.691 439.772 251.839 698.808 163.9C439.772 251.825 447.648 281.258 715.956 227.892C447.662 281.258 451.628 311.465 724.607 293.57C451.641 311.465 451.641 341.92 724.607 359.815C451.641 341.92 447.662 372.127 715.956 425.493Z" fill="#FF2400"/>
<path d="M692.313 357.701C436.787 340.953 436.787 312.432 692.313 295.684C436.787 312.432 433.056 284.16 684.216 234.207C433.056 284.16 425.677 256.62 668.159 174.305C425.677 256.62 414.761 230.269 644.433 117.015C414.761 230.269 400.5 205.576 613.425 63.3033C400.5 205.576 383.145 182.955 575.674 14.1104C383.145 182.955 362.984 162.794 531.829 -29.7349C362.984 162.794 340.363 145.439 482.636 -67.4862C340.363 145.439 315.67 131.178 428.924 -98.4943C315.67 131.178 289.319 120.262 371.634 -122.22C289.319 120.262 261.779 112.883 311.732 -138.277C261.779 112.883 233.493 109.166 250.255 -146.374C233.507 109.152 204.986 109.152 188.238 -146.374C204.986 109.152 176.714 112.883 126.761 -138.277C176.714 112.883 149.174 120.262 66.8592 -122.22C149.174 120.262 122.823 131.178 9.56887 -98.4943C122.823 131.178 98.1299 145.439 -44.1426 -67.4862C98.1299 145.439 75.5094 162.794 -93.3354 -29.7349C75.5094 162.794 55.3486 182.955 -137.181 14.1104C55.3486 182.955 37.9929 205.576 -174.932 63.3033C37.9929 205.576 23.7325 230.269 -205.94 117.015C23.7325 230.269 12.8161 256.62 -229.666 174.305C12.8161 256.62 5.43721 284.16 -245.723 234.207C5.43721 284.16 1.70627 312.446 -253.82 295.684C1.70627 312.432 1.70627 340.953 -253.82 357.701C1.70627 340.953 5.43721 369.225 -245.723 419.178C5.43721 369.225 12.8161 396.765 -229.666 479.08C12.8161 396.765 23.7325 423.116 -205.94 536.37C23.7325 423.116 37.9929 447.809 -174.932 590.082C37.9929 447.809 55.3486 470.43 -137.181 639.275C55.3486 470.43 75.5094 490.59 -93.3354 683.12C75.5094 490.59 98.1299 507.946 -44.1426 720.871C98.1299 507.946 122.823 522.207 9.56887 751.879C122.823 522.207 149.174 533.123 66.8592 775.605C149.174 533.109 176.714 540.502 126.761 791.662C176.714 540.502 205 544.219 188.238 799.759C204.986 544.233 233.507 544.233 250.255 799.759C233.507 544.233 261.779 540.502 311.732 791.662C261.779 540.502 289.319 533.123 371.634 775.605C289.319 533.109 315.67 522.207 428.924 751.879C315.67 522.207 340.363 507.946 482.636 720.871C340.363 507.946 362.984 490.59 531.829 683.12C362.984 490.59 383.145 470.43 575.674 639.275C383.145 470.43 400.5 447.809 613.425 590.082C400.5 447.809 414.761 423.116 644.433 536.37C414.761 423.116 425.677 396.765 668.159 479.08C425.677 396.765 433.056 369.225 684.216 419.178C433.056 369.225 436.773 340.939 692.313 357.701ZM653.512 413.07C418.934 366.406 412.052 392.136 638.519 469.02C412.038 392.136 401.854 416.746 616.355 522.524C401.854 416.746 388.534 439.808 587.392 572.684C388.534 439.808 372.311 460.936 552.128 618.63C372.311 460.936 353.477 479.771 511.17 659.587C353.477 479.771 332.349 495.979 465.225 694.851C332.349 495.993 309.286 509.314 415.065 723.814C309.286 509.314 284.676 519.498 361.56 745.979C284.69 519.498 258.96 526.393 305.61 760.972C258.946 526.393 232.54 529.876 248.182 768.53C232.54 529.876 205.912 529.876 190.27 768.53C205.912 529.876 179.505 526.393 132.841 760.972C179.505 526.393 153.776 519.512 76.8913 745.979C153.762 519.498 129.166 509.314 23.3871 723.814C129.166 509.314 106.103 495.993 -26.7731 694.851C106.103 495.993 84.9749 479.771 -72.7187 659.587C84.9749 479.771 66.1407 460.936 -113.676 618.63C66.1407 460.936 49.9319 439.808 -148.94 572.684C49.9181 439.808 36.5973 416.746 -177.903 522.524C36.5973 416.746 26.4132 392.136 -200.067 469.02C26.4132 392.136 19.518 366.42 -215.06 413.07C19.518 366.406 16.0358 339.999 -222.619 355.642C16.0358 339.999 16.0358 313.372 -222.619 297.729C16.0358 313.372 19.518 286.965 -215.06 240.301C19.518 286.965 26.3994 261.235 -200.067 184.351C26.4132 261.235 36.5973 236.625 -177.903 130.847C36.5973 236.625 49.9181 213.563 -148.94 80.6866C49.9181 213.563 66.1407 192.435 -113.676 34.741C66.1407 192.435 84.9749 173.6 -72.7187 -6.21625C84.9749 173.6 106.103 157.392 -26.7731 -41.4803C106.103 157.378 129.166 144.057 23.3871 -70.4433C129.166 144.057 153.776 133.873 76.8913 -92.6078C153.762 133.873 179.492 126.978 132.841 -107.601C179.505 126.978 205.912 123.495 190.27 -115.159C205.912 123.495 232.54 123.495 248.182 -115.159C232.54 123.495 258.946 126.978 305.61 -107.601C258.946 126.978 284.676 133.859 361.56 -92.6078C284.69 133.873 309.286 144.057 415.065 -70.4433C309.286 144.057 332.349 157.378 465.225 -41.4803C332.349 157.378 353.477 173.6 511.17 -6.21625C353.477 173.6 372.311 192.435 552.128 34.741C372.311 192.435 388.52 213.563 587.392 80.6866C388.534 213.563 401.854 236.625 616.355 130.847C401.854 236.625 412.038 261.235 638.519 184.351C412.038 261.235 418.934 286.951 653.512 240.301C418.934 286.965 422.416 313.372 661.07 297.729C422.416 313.372 422.416 339.999 661.07 355.642C422.416 339.999 418.934 366.406 653.512 413.07Z" fill="#FF2400"/>
<path d="M630.878 353.666C408.529 339.087 408.529 314.284 630.878 299.705C408.529 314.284 405.295 289.673 623.83 246.201C405.295 289.673 398.869 265.699 609.86 194.079C398.869 265.699 389.363 242.774 589.216 144.223C389.376 242.774 376.968 221.287 562.242 97.4896C376.968 221.287 361.864 201.596 529.396 54.6807C361.864 201.596 344.329 184.047 491.244 16.5286C344.329 184.061 324.638 168.944 448.435 -16.3173C324.638 168.957 303.151 156.549 401.702 -43.2905C303.151 156.549 280.226 147.056 351.846 -63.9349C280.226 147.056 256.252 140.644 299.724 -77.9051C256.252 140.63 231.655 137.397 246.22 -84.9524C231.641 137.397 206.838 137.397 192.259 -84.9524C206.838 137.397 182.227 140.63 138.755 -77.9051C182.227 140.63 158.253 147.056 86.633 -63.9349C158.253 147.056 135.328 156.562 36.7768 -43.2905C135.328 156.549 113.841 168.957 -9.95643 -16.3173C113.841 168.957 94.15 184.061 -52.7653 16.5286C94.15 184.061 76.6009 201.596 -90.9174 54.6807C76.6009 201.596 61.4976 221.287 -123.763 97.4896C61.5114 221.287 49.1026 242.774 -150.737 144.223C49.1026 242.774 39.6095 265.699 -171.381 194.079C39.6095 265.699 33.1979 289.673 -185.351 246.201C33.1841 289.673 29.9506 314.27 -192.398 299.705C29.9506 314.284 29.9506 339.087 -192.398 353.666C29.9506 339.087 33.1841 363.698 -185.351 407.17C33.1841 363.698 39.6095 387.672 -171.381 459.292C39.6095 387.672 49.1165 410.597 -150.737 509.148C49.1026 410.597 61.5114 432.084 -123.763 555.881C61.5114 432.084 76.6147 451.775 -90.9174 598.69C76.6009 451.775 94.15 469.324 -52.7653 636.842C94.15 469.31 113.841 484.427 -9.95643 669.688C113.841 484.414 135.328 496.822 36.7768 696.675C135.328 496.836 158.253 506.329 86.633 717.32C158.253 506.329 182.227 512.741 138.755 731.29C182.227 512.755 206.824 515.988 192.259 738.337C206.838 515.988 231.641 515.988 246.22 738.337C231.641 515.988 256.252 512.755 299.724 731.29C256.252 512.755 280.226 506.329 351.846 717.32C280.226 506.329 303.151 496.822 401.702 696.675C303.151 496.836 324.638 484.427 448.435 669.688C324.638 484.414 344.329 469.31 491.244 636.842C344.329 469.31 361.878 451.775 529.396 598.69C361.864 451.775 376.981 432.084 562.242 555.881C376.968 432.084 389.376 410.597 589.216 509.148C389.376 410.597 398.869 387.672 609.86 459.292C398.869 387.672 405.281 363.698 623.83 407.17C405.295 363.698 408.529 339.101 630.878 353.666ZM595.185 401.463C392.126 361.072 386.157 383.347 582.21 449.896C386.157 383.347 377.341 404.641 563.016 496.214C377.327 404.641 365.803 424.608 537.95 539.631C365.803 424.608 351.763 442.904 507.425 579.414C351.763 442.904 335.458 459.209 471.968 614.871C335.458 459.209 317.162 473.249 432.185 645.396C317.162 473.249 297.195 484.773 388.768 670.462C297.195 484.773 275.901 493.603 342.45 689.656C275.901 493.603 253.626 499.572 294.017 702.631C253.626 499.572 230.771 502.585 244.313 709.181C230.771 502.585 207.722 502.585 194.18 709.181C207.722 502.585 184.867 499.572 144.476 702.631C184.867 499.572 162.592 493.603 96.0432 689.656C162.592 493.603 141.298 484.787 49.7245 670.462C141.298 484.773 121.33 473.249 6.3076 645.396C121.33 473.249 103.035 459.209 -33.4751 614.871C103.035 459.209 86.7297 442.904 -68.9326 579.414C86.7297 442.904 72.6903 424.608 -99.4571 539.631C72.6903 424.608 61.166 404.641 -124.523 496.214C61.166 404.641 52.3361 383.347 -143.717 449.896C52.3361 383.347 46.3666 361.072 -156.692 401.463C46.3666 361.072 43.3543 338.217 -163.242 351.759C43.3543 338.217 43.3543 315.168 -163.242 301.626C43.3543 315.168 46.3666 292.313 -156.692 251.922C46.3666 292.313 52.3361 270.038 -143.717 203.489C52.3361 270.038 61.1521 248.744 -124.523 157.17C61.166 248.744 72.6903 228.777 -99.4571 113.754C72.6903 228.777 86.7297 210.481 -68.9326 73.9709C86.7297 210.481 103.035 194.176 -33.4751 38.5134C103.035 194.176 121.33 180.136 6.3076 7.98892C121.33 180.136 141.298 168.612 49.7245 -17.0773C141.298 168.612 162.592 159.782 96.0432 -36.2708C162.592 159.782 184.867 153.813 144.476 -49.2461C184.867 153.813 207.722 150.8 194.18 -55.796C207.722 150.8 230.771 150.8 244.313 -55.796C230.771 150.8 253.626 153.813 294.017 -49.2461C253.626 153.813 275.901 159.782 342.45 -36.2708C275.901 159.782 297.195 168.598 388.768 -17.0773C297.195 168.612 317.162 180.136 432.185 7.98892C317.162 180.136 335.458 194.176 471.968 38.5134C335.458 194.176 351.763 210.481 507.425 73.9709C351.763 210.481 365.803 228.777 537.95 113.754C365.803 228.777 377.327 248.744 563.016 157.17C377.327 248.744 386.157 270.038 582.21 203.489C386.157 270.038 392.126 292.313 595.185 251.922C392.126 292.313 395.139 315.168 601.735 301.626C395.139 315.168 395.139 338.217 601.735 351.759C395.139 338.217 392.126 361.072 595.185 401.463Z" fill="#FF2400"/>
<path d="M573.615 349.921C382.205 337.374 382.205 316.011 573.615 303.464C382.205 316.011 379.414 294.828 567.549 257.408C379.414 294.828 373.887 274.197 555.527 212.54C373.887 274.197 365.706 254.465 537.757 169.621C365.72 254.465 355.039 235.962 514.529 129.396C355.039 235.962 342.036 219.021 486.257 92.5426C342.036 219.021 326.932 203.917 453.411 59.6967C326.932 203.917 309.991 190.915 416.557 31.4108C309.991 190.901 291.489 180.219 376.333 8.18237C291.489 180.219 271.756 172.053 333.413 -9.58785C271.756 172.053 251.126 166.525 288.545 -21.6097C251.126 166.525 229.942 163.734 242.489 -27.6759C229.942 163.734 208.579 163.734 196.032 -27.6759C208.579 163.734 187.396 166.525 149.976 -21.6097C187.396 166.525 166.765 172.053 105.109 -9.58785C166.765 172.053 147.033 180.233 62.1891 8.18237C147.033 180.219 128.53 190.901 21.9643 31.4108C128.53 190.901 111.589 203.904 -14.8889 59.6967C111.589 203.917 96.486 219.021 -47.7348 92.5426C96.486 219.021 83.483 235.962 -76.0069 129.396C83.483 235.962 72.8015 254.465 -99.2353 169.621C72.8015 254.465 64.635 274.197 -117.019 212.54C64.6211 274.197 59.0939 294.828 -129.041 257.408C59.0939 294.828 56.3026 316.011 -135.107 303.464C56.3026 316.011 56.3026 337.374 -135.107 349.921C56.3026 337.374 59.0939 358.557 -129.041 395.977C59.0939 358.557 64.6211 379.188 -117.019 440.845C64.6211 379.188 72.8015 398.92 -99.2353 483.764C72.8015 398.92 83.483 417.423 -76.0069 523.989C83.483 417.423 96.486 434.364 -47.7348 560.842C96.486 434.364 111.589 449.467 -14.8889 593.688C111.589 449.467 128.53 462.47 21.9643 621.96C128.53 462.47 147.033 473.152 62.1891 645.189C147.033 473.152 166.765 481.318 105.109 662.959C166.765 481.318 187.396 486.846 149.976 674.981C187.396 486.846 208.579 489.637 196.032 681.047C208.579 489.637 229.942 489.637 242.489 681.047C229.942 489.637 251.126 486.846 288.545 674.981C251.126 486.846 271.756 481.318 333.413 662.959C271.756 481.318 291.489 473.138 376.333 645.189C291.489 473.152 309.991 462.47 416.557 621.96C309.991 462.47 326.932 449.467 453.411 593.688C326.932 449.467 342.036 434.364 486.257 560.842C342.036 434.364 355.039 417.423 514.529 523.989C355.039 417.423 365.72 398.92 537.757 483.764C365.72 398.92 373.887 379.188 555.527 440.845C373.887 379.188 379.414 358.557 567.549 395.977C379.414 358.557 382.205 337.374 573.615 349.921ZM540.949 390.685C367.185 356.125 362.072 375.18 529.839 432.125C362.072 375.18 354.527 393.407 513.423 471.77C354.527 393.407 344.661 410.5 491.977 508.927C344.661 410.5 332.653 426.156 465.861 542.961C332.653 426.142 318.711 440.098 435.516 573.306C318.697 440.098 303.041 452.107 401.482 599.423C303.055 452.107 285.961 461.973 364.325 620.868C285.961 461.973 267.735 469.518 324.68 637.285C267.735 469.518 248.666 474.616 283.239 648.394C248.68 474.63 229.113 477.2 240.707 653.991C229.113 477.2 209.395 477.2 197.801 653.991C209.395 477.2 189.828 474.63 155.269 648.394C189.828 474.63 170.773 469.518 113.828 637.285C170.773 469.518 152.546 461.959 74.1833 620.868C152.546 461.973 135.453 452.107 37.0262 599.423C135.453 452.107 119.797 440.098 2.99188 573.306C119.811 440.098 105.855 426.156 -27.3529 542.961C105.855 426.142 93.8467 410.486 -53.4693 508.927C93.8467 410.5 83.9805 393.407 -74.9153 471.77C83.9805 393.407 76.4357 375.18 -91.3313 432.125C76.4357 375.18 71.3368 356.111 -102.441 390.685C71.323 356.125 68.7528 336.559 -108.038 348.152C68.7528 336.559 68.7528 316.84 -108.038 305.246C68.7528 316.84 71.323 297.273 -102.441 262.714C71.323 297.273 76.4357 278.218 -91.3313 221.273C76.4357 278.218 83.9805 259.992 -74.9153 181.629C83.9805 259.992 93.8467 242.899 -53.4693 144.471C93.8467 242.899 105.855 227.243 -27.3529 110.437C105.855 227.256 119.797 213.3 2.99188 80.0924C119.811 213.3 135.467 201.292 37.0262 53.976C135.453 201.292 152.546 191.426 74.1833 32.5301C152.546 191.426 170.773 183.881 113.828 16.114C170.773 183.881 189.842 178.782 155.269 5.00419C189.828 178.768 209.395 176.198 197.801 -0.592212C209.395 176.198 229.113 176.198 240.707 -0.592212C229.113 176.198 248.68 178.768 283.239 5.00419C248.68 178.768 267.735 183.881 324.68 16.114C267.735 183.881 285.961 191.44 364.325 32.5301C285.961 191.426 303.055 201.292 401.482 53.976C303.055 201.292 318.711 213.3 435.516 80.0924C318.697 213.3 332.653 227.243 465.861 110.437C332.653 227.256 344.661 242.912 491.977 144.471C344.661 242.899 354.527 259.992 513.423 181.629C354.527 259.992 362.072 278.218 529.839 221.273C362.072 278.218 367.171 297.287 540.949 262.714C367.185 297.273 369.755 316.84 546.545 305.246C369.755 316.84 369.755 336.559 546.545 348.152C369.755 336.559 367.185 356.125 540.949 390.685Z" fill="#FF2400"/>
<path d="M520.524 346.439C357.786 335.771 357.786 317.614 520.524 306.946C357.786 317.614 355.423 299.609 515.369 267.785C355.423 299.595 350.711 282.06 505.144 229.633C350.711 282.06 343.761 265.27 490.027 193.139C343.761 265.27 334.682 249.545 470.28 158.939C334.682 249.545 323.628 235.133 446.237 127.613C323.628 235.147 310.777 222.296 418.31 99.6867C310.777 222.296 296.378 211.241 386.984 75.643C296.378 211.241 280.653 202.163 352.784 55.8968C280.653 202.163 263.878 195.212 316.29 40.7796C263.864 195.212 246.329 190.514 278.138 30.5541C246.329 190.5 228.31 188.137 238.977 25.3999C228.31 188.137 210.152 188.137 199.485 25.3999C210.152 188.137 192.147 190.5 160.324 30.5541C192.133 190.5 174.598 195.198 122.172 40.7796C174.598 195.212 157.809 202.163 85.6779 55.8968C157.809 202.163 142.084 211.241 51.4778 75.643C142.084 211.241 127.671 222.296 20.1519 99.6867C127.685 222.296 114.834 235.147 -7.77479 127.613C114.834 235.147 103.78 249.545 -31.8185 158.939C103.78 249.545 94.7011 265.27 -51.5647 193.139C94.7011 265.27 87.7506 282.046 -66.6819 229.633C87.7506 282.06 83.0524 299.595 -76.9074 267.785C83.0386 299.595 80.6757 317.614 -82.0615 306.946C80.6757 317.614 80.6757 335.771 -82.0615 346.439C80.6757 335.771 83.0386 353.776 -76.9074 385.6C83.0386 353.79 87.7368 371.325 -66.6819 423.752C87.7506 371.325 94.7011 388.114 -51.5647 460.246C94.7011 388.114 103.78 403.84 -31.8185 494.446C103.78 403.84 114.834 418.252 -7.77479 525.772C114.834 418.238 127.685 431.089 20.1519 553.698C127.685 431.089 142.084 442.144 51.4778 577.742C142.084 442.144 157.809 451.222 85.6779 597.488C157.809 451.222 174.584 458.173 122.172 612.605C174.598 458.173 192.133 462.871 160.324 622.831C192.133 462.885 210.152 465.248 199.485 627.985C210.152 465.248 228.31 465.248 238.977 627.985C228.31 465.248 246.315 462.885 278.138 622.831C246.329 462.885 263.864 458.187 316.29 612.605C263.864 458.173 280.653 451.222 352.784 597.488C280.653 451.222 296.378 442.144 386.984 577.742C296.378 442.144 310.791 431.089 418.31 553.698C310.777 431.089 323.628 418.238 446.237 525.772C323.628 418.238 334.682 403.84 470.28 494.446C334.682 403.84 343.761 388.114 490.027 460.246C343.761 388.114 350.711 371.339 505.144 423.752C350.711 371.325 355.41 353.79 515.369 385.6C355.423 353.79 357.786 335.771 520.524 346.439ZM490.814 380.708C344.12 351.524 339.809 367.622 481.446 415.696C339.823 367.622 333.452 383.002 467.586 449.163C333.452 383.016 325.12 397.442 449.47 480.531C325.12 397.442 314.977 410.652 427.416 509.259C314.964 410.652 303.19 422.425 401.811 534.864C303.204 422.411 289.98 432.554 373.083 556.918C289.994 432.568 275.568 440.886 341.716 575.034C275.568 440.9 260.174 447.27 308.248 588.893C260.174 447.27 244.09 451.582 273.26 598.262C244.076 451.568 227.563 453.751 237.347 602.988C227.563 453.751 210.912 453.751 201.129 602.988C210.912 453.751 194.4 451.568 165.216 598.262C194.4 451.568 178.301 447.256 130.228 588.893C178.301 447.27 162.922 440.9 96.7601 575.034C162.908 440.9 148.482 432.568 65.3927 556.918C148.482 432.568 135.271 422.425 36.6646 534.864C135.271 422.411 123.498 410.638 11.0595 509.259C123.512 410.652 113.37 397.428 -10.9944 480.531C113.356 397.442 105.037 383.016 -29.1101 449.163C105.023 383.016 98.6532 367.622 -42.9698 415.696C98.6532 367.622 94.3419 351.538 -52.3386 380.708C94.3557 351.524 92.1724 335.011 -57.0644 344.794C92.1724 335.011 92.1724 318.36 -57.0644 308.577C92.1724 318.36 94.3557 301.847 -52.3386 272.663C94.3557 301.847 98.667 285.749 -42.9698 237.675C98.6532 285.749 105.023 270.369 -29.1101 204.208C105.023 270.356 113.356 255.929 -10.9944 172.84C113.356 255.929 123.498 242.719 11.0595 144.112C123.512 242.719 135.285 230.946 36.6646 118.507C135.271 230.96 148.496 220.817 65.3927 96.4533C148.482 220.803 162.908 212.485 96.7601 78.3375C162.908 212.471 178.301 206.101 130.228 64.4779C178.301 206.101 194.386 201.79 165.216 55.1091C194.4 201.803 210.912 199.62 201.129 50.3833C210.912 199.62 227.563 199.62 237.347 50.3833C227.563 199.62 244.076 201.803 273.26 55.1091C244.076 201.803 260.174 206.115 308.248 64.4779C260.174 206.101 275.554 212.471 341.716 78.3375C275.568 212.471 289.994 220.803 373.083 96.4533C289.994 220.803 303.204 230.946 401.811 118.507C303.204 230.96 314.977 242.733 427.416 144.112C314.964 242.719 325.106 255.943 449.47 172.84C325.12 255.929 333.439 270.356 467.586 204.208C333.452 270.356 339.823 285.749 481.446 237.675C339.823 285.749 344.134 301.834 490.814 272.663C344.12 301.847 346.303 318.36 495.54 308.577C346.303 318.36 346.303 335.011 495.54 344.794C346.303 335.011 344.12 351.524 490.814 380.708Z" fill="#FF2400"/>
<path d="M471.608 343.233C335.291 334.292 335.291 319.092 471.608 310.152C335.291 319.092 333.315 304.003 467.297 277.348C333.315 304.003 329.377 289.3 458.729 245.4C329.377 289.314 323.546 275.261 446.072 214.834C323.559 275.247 315.946 262.078 429.531 186.189C315.946 262.078 306.687 250.015 409.398 159.948C306.687 250.015 295.937 239.265 386.004 136.554C295.937 239.265 283.86 229.993 359.763 116.421C283.874 230.006 270.691 222.392 331.118 99.8801C270.705 222.392 256.638 216.575 300.552 87.2227C256.638 216.575 241.949 212.637 268.604 78.6554C241.949 212.637 226.873 210.647 235.8 74.3441C226.859 210.661 211.659 210.661 202.719 74.3441C211.659 210.661 196.57 212.637 169.915 78.6554C196.57 212.637 181.867 216.575 137.967 87.2227C181.881 216.575 167.828 222.406 107.401 99.8801C167.814 222.392 154.645 230.006 78.7558 116.421C154.645 230.006 142.582 239.265 52.515 136.554C142.582 239.265 131.832 250.015 29.1208 159.948C131.832 250.015 122.56 262.092 8.98759 186.189C122.573 262.078 114.96 275.261 -7.55282 214.834C114.96 275.247 109.142 289.314 -20.2103 245.4C109.142 289.314 105.204 304.003 -28.7776 277.348C105.204 304.003 103.214 319.079 -33.0889 310.152C103.228 319.092 103.228 334.292 -33.0889 343.233C103.228 334.292 105.204 349.382 -28.7776 376.037C105.204 349.382 109.142 364.085 -20.2103 407.985C109.142 364.071 114.973 378.124 -7.55282 438.551C114.96 378.138 122.573 391.306 8.98759 467.196C122.573 391.306 131.832 403.37 29.1208 493.437C131.832 403.37 142.582 414.12 52.515 516.831C142.582 414.12 154.659 423.392 78.7558 536.964C154.645 423.379 167.828 430.992 107.401 553.505C167.814 430.992 181.881 436.81 137.967 566.162C181.881 436.81 196.57 440.748 169.915 574.73C196.57 440.748 211.646 442.738 202.719 579.041C211.659 442.724 226.859 442.724 235.8 579.041C226.859 442.724 241.949 440.748 268.604 574.73C241.949 440.748 256.652 436.81 300.552 566.162C256.638 436.81 270.691 430.979 331.118 553.505C270.705 430.992 283.874 423.379 359.763 536.964C283.874 423.379 295.937 414.12 386.004 516.831C295.937 414.12 306.687 403.37 409.398 493.437C306.687 403.37 315.959 391.293 429.531 467.196C315.946 391.306 323.559 378.124 446.072 438.551C323.559 378.138 329.377 364.071 458.729 407.985C329.377 364.071 333.315 349.382 467.297 376.037C333.315 349.382 335.305 334.306 471.608 343.233ZM444.787 371.56C322.965 347.323 319.373 360.685 437.007 400.62C319.386 360.699 314.094 373.467 425.496 428.408C314.094 373.467 307.171 385.448 410.462 454.456C307.185 385.448 298.756 396.419 392.153 478.32C298.77 396.419 288.986 406.202 370.887 499.586C288.986 406.202 278.015 414.618 347.023 517.895C278.015 414.618 266.034 421.527 320.975 532.929C266.034 421.527 253.252 426.819 293.187 544.44C253.266 426.819 239.904 430.398 264.127 552.22C239.89 430.398 226.182 432.195 234.308 556.144C226.182 432.195 212.35 432.195 204.225 556.144C212.35 432.195 198.629 430.384 174.406 552.22C198.643 430.398 185.281 426.806 145.346 544.44C185.267 426.819 172.499 421.527 117.557 532.929C172.499 421.527 160.518 414.604 91.51 517.895C160.518 414.618 149.547 406.189 67.646 499.586C149.547 406.202 139.763 396.419 46.3797 478.32C139.763 396.419 131.348 385.448 28.0706 454.456C131.348 385.448 124.439 373.467 13.0363 428.408C124.439 373.467 119.146 360.685 1.52576 400.62C119.146 360.699 115.568 347.337 -6.2539 371.56C115.568 347.323 113.771 333.615 -10.1783 341.741C113.771 333.615 113.771 319.783 -10.1783 311.658C113.771 319.783 115.581 306.062 -6.2539 281.838C115.568 306.076 119.16 292.713 1.52576 252.779C119.146 292.7 124.439 279.932 13.0363 224.99C124.439 279.932 131.362 267.951 28.0706 198.943C131.348 267.951 139.777 256.98 46.3797 175.079C139.763 256.98 149.547 247.196 67.646 153.813C149.547 247.196 160.518 238.781 91.51 135.504C160.518 238.781 172.499 231.872 117.557 120.469C172.499 231.872 185.281 226.579 145.346 108.959C185.267 226.579 198.629 223.001 174.406 101.179C198.643 223.001 212.35 221.204 204.225 97.2547C212.35 221.204 226.182 221.204 234.308 97.2547C226.182 221.204 239.904 223.014 264.127 101.179C239.89 223.001 253.252 226.593 293.187 108.959C253.266 226.579 266.034 231.872 320.975 120.469C266.034 231.872 278.015 238.795 347.023 135.504C278.015 238.781 288.986 247.21 370.887 153.813C288.986 247.196 298.77 256.98 392.153 175.079C298.77 256.98 307.185 267.951 410.462 198.943C307.185 267.951 314.094 279.932 425.496 224.99C314.094 279.932 319.386 292.713 437.007 252.779C319.386 292.7 322.965 306.062 444.787 281.838C322.965 306.076 324.762 319.783 448.711 311.658C324.762 319.783 324.762 333.615 448.711 341.741C324.762 333.615 322.951 347.337 444.787 371.56Z" fill="#FF2400"/>
<path d="M426.866 340.303C314.718 332.952 314.718 320.433 426.866 313.081C314.718 320.433 313.087 308.024 423.315 286.094C313.087 308.024 309.854 295.933 416.268 259.798C309.84 295.919 305.059 284.367 405.849 234.649C305.045 284.353 298.799 273.52 392.238 211.075C298.785 273.52 291.171 263.585 375.67 189.477C291.171 263.585 282.328 254.727 356.421 170.229C282.314 254.727 272.392 247.113 334.823 153.661C272.379 247.113 261.545 240.854 311.249 140.05C261.545 240.854 249.979 236.059 286.1 129.631C249.979 236.059 237.888 232.811 259.818 122.583C237.888 232.811 225.479 231.181 232.831 119.032C225.479 231.181 212.96 231.181 205.609 119.032C212.96 231.181 200.551 232.811 178.622 122.583C200.551 232.811 188.46 236.045 152.326 129.631C188.447 236.059 176.895 240.84 127.177 140.05C176.881 240.854 166.047 247.099 103.603 153.661C166.047 247.113 156.112 254.727 82.0048 170.229C156.112 254.727 147.254 263.571 62.7561 189.477C147.254 263.585 139.641 273.506 46.188 211.075C139.641 273.52 133.381 284.353 32.5771 234.649C133.367 284.353 128.586 295.919 22.1581 259.798C128.586 295.919 125.339 308.01 15.1108 286.094C125.339 308.024 123.708 320.433 11.5596 313.081C123.708 320.433 123.708 332.952 11.5596 340.303C123.708 332.952 125.339 345.361 15.1108 367.29C125.339 345.361 128.572 357.452 22.1581 393.586C128.586 357.465 133.367 369.018 32.5771 418.736C133.367 369.031 139.627 379.865 46.188 442.309C139.641 379.865 147.254 389.8 62.7561 463.907C147.254 389.8 156.098 398.658 82.0048 483.156C156.112 398.658 166.033 406.271 103.603 499.724C166.047 406.271 176.881 412.531 127.177 513.335C176.881 412.531 188.447 417.326 152.326 523.754C188.447 417.326 200.538 420.573 178.622 530.801C200.551 420.573 212.96 422.204 205.609 534.353C212.96 422.204 225.479 422.204 232.831 534.353C225.479 422.204 237.888 420.573 259.818 530.801C237.888 420.573 249.979 417.34 286.1 523.754C249.979 417.326 261.531 412.545 311.249 513.335C261.545 412.531 272.379 406.285 334.823 499.724C272.379 406.271 282.314 398.658 356.421 483.156C282.314 398.658 291.171 389.814 375.67 463.907C291.171 389.8 298.785 379.879 392.238 442.309C298.785 379.865 305.045 369.031 405.849 418.736C305.045 369.031 309.84 357.465 416.268 393.586C309.84 357.465 313.087 345.375 423.315 367.29C313.087 345.361 314.718 332.952 426.866 340.303ZM402.864 363.214C303.677 343.481 300.761 354.356 396.521 386.871C300.761 354.37 296.45 364.775 387.153 409.491C296.45 364.762 290.826 374.517 374.91 430.702C290.826 374.517 283.972 383.458 360 450.131C283.972 383.458 276.013 391.417 342.686 467.445C276.013 391.417 267.072 398.271 323.257 482.355C267.072 398.271 257.317 403.909 302.046 494.598C257.317 403.895 246.911 408.206 279.426 503.966C246.925 408.206 236.037 411.122 255.769 510.309C236.037 411.122 224.871 412.6 231.49 513.501C224.871 412.586 213.61 412.586 207.005 513.501C213.623 412.586 202.458 411.122 182.726 510.309C202.458 411.122 191.583 408.206 159.069 503.966C191.57 408.206 181.164 403.895 136.449 494.598C181.178 403.895 171.423 398.271 115.238 482.355C171.423 398.271 162.482 391.417 95.8092 467.445C162.482 391.417 154.523 383.458 78.495 450.131C154.523 383.458 147.669 374.517 63.5852 430.702C147.669 374.517 142.031 364.762 51.3422 409.491C142.045 364.762 137.734 354.356 41.9734 386.871C137.734 354.37 134.818 343.481 35.6309 363.214C134.818 343.481 133.34 332.316 32.4389 338.935C133.353 332.316 133.353 321.055 32.4389 314.449C133.353 321.068 134.818 309.903 35.6309 290.171C134.818 309.903 137.734 299.028 41.9734 266.514C137.734 299.014 142.045 288.609 51.3422 243.894C142.045 288.623 147.669 278.867 63.5852 222.683C147.669 278.867 154.523 269.927 78.495 203.254C154.523 269.927 162.482 261.968 95.8092 185.94C162.482 261.968 171.423 255.114 115.238 171.03C171.423 255.114 181.178 249.476 136.449 158.787C181.178 249.49 191.583 245.179 159.069 149.418C191.57 245.179 202.458 242.263 182.726 143.076C202.458 242.263 213.623 240.784 207.005 139.884C213.623 240.798 224.885 240.798 231.49 139.884C224.871 240.798 236.037 242.263 255.769 143.076C236.037 242.263 246.911 245.179 279.426 149.418C246.925 245.179 257.33 249.49 302.046 158.787C257.317 249.49 267.072 255.114 323.257 171.03C267.072 255.114 276.013 261.968 342.686 185.94C276.013 261.968 283.972 269.927 360 203.254C283.972 269.927 290.826 278.867 374.91 222.683C290.826 278.867 296.464 288.623 387.153 243.894C296.45 288.623 300.761 299.028 396.521 266.514C300.761 299.014 303.677 309.903 402.864 290.171C303.677 309.903 305.155 321.068 406.056 314.449C305.142 321.068 305.142 332.33 406.056 338.935C305.142 332.316 303.677 343.481 402.864 363.214Z" fill="#FF2400"/>
<path d="M386.294 337.636C296.061 331.722 296.061 321.649 386.294 315.735C296.061 321.649 294.748 311.658 383.434 294.026C294.748 311.672 292.137 301.944 377.768 272.87C292.137 301.944 288.281 292.63 369.394 252.641C288.295 292.63 283.252 283.911 358.45 233.682C283.265 283.925 277.13 275.938 345.116 216.312C277.13 275.938 270.014 268.822 329.626 200.822C270 268.808 262.013 262.686 312.256 187.488C262.013 262.673 253.294 257.643 293.298 176.544C253.308 257.643 243.994 253.787 273.068 168.17C243.994 253.801 234.28 251.19 251.912 162.504C234.266 251.19 224.289 249.877 230.203 159.644C224.289 249.877 214.216 249.877 208.302 159.644C214.216 249.877 204.225 251.19 186.593 162.504C204.239 251.19 194.511 253.801 165.437 168.17C194.511 253.801 185.198 257.657 145.208 176.544C185.198 257.643 176.478 262.686 126.249 187.488C176.492 262.673 168.505 268.808 108.879 200.822C168.505 268.808 161.389 275.938 93.3892 216.312C161.375 275.938 155.253 283.925 80.0546 233.682C155.24 283.925 150.21 292.644 69.1106 252.641C150.21 292.63 146.355 301.944 60.7368 272.87C146.368 301.944 143.757 311.672 55.0713 294.026C143.757 311.672 142.444 321.649 52.2109 315.735C142.444 321.649 142.444 331.722 52.2109 337.636C142.444 331.722 143.757 341.713 55.0713 359.345C143.757 341.699 146.368 351.427 60.7368 380.501C146.368 351.427 150.224 360.741 69.1106 400.73C150.21 360.741 155.253 369.46 80.0546 419.689C155.24 369.446 161.375 377.433 93.3892 437.059C161.375 377.433 168.491 384.549 108.879 452.549C168.505 384.563 176.492 390.685 126.249 465.883C176.492 390.698 185.211 395.728 145.208 476.827C185.198 395.728 194.511 399.584 165.437 485.201C194.511 399.57 204.239 402.181 186.593 490.867C204.239 402.181 214.216 403.494 208.302 493.727C214.216 403.494 224.289 403.494 230.203 493.727C224.289 403.494 234.28 402.181 251.912 490.867C234.266 402.181 243.994 399.57 273.068 485.201C243.994 399.57 253.308 395.714 293.298 476.827C253.308 395.728 262.027 390.685 312.256 465.883C262.013 390.698 270 384.563 329.626 452.549C270 384.563 277.116 377.447 345.116 437.059C277.13 377.433 283.252 369.446 358.45 419.689C283.265 369.446 288.295 360.727 369.394 400.73C288.295 360.741 292.151 351.427 377.768 380.501C292.137 351.427 294.748 341.699 383.434 359.345C294.748 341.699 296.061 331.722 386.294 337.636ZM365.042 355.683C286.292 340.013 283.97 348.65 360.012 374.462C283.97 348.65 280.557 356.913 352.564 392.426C280.543 356.913 276.08 364.651 342.836 409.27C276.066 364.665 270.622 371.754 330.994 424.691C270.622 371.754 264.293 378.069 317.244 438.44C264.307 378.069 257.204 383.513 301.823 450.283C257.218 383.513 249.466 387.99 284.979 460.011C249.466 387.99 241.203 391.417 267.015 467.459C241.203 391.417 232.566 393.738 248.236 472.488C232.566 393.738 223.709 394.899 228.96 475.031C223.709 394.899 214.769 394.899 209.518 475.031C214.769 394.899 205.897 393.738 190.241 472.488C205.911 393.738 197.275 391.417 171.462 467.459C197.275 391.417 189.011 388.004 153.498 460.011C189.011 387.99 181.273 383.527 136.654 450.283C181.259 383.513 174.171 378.069 121.233 438.44C174.171 378.069 167.856 371.74 107.484 424.691C167.856 371.754 162.411 364.651 95.6416 409.27C162.411 364.665 157.934 356.913 85.9136 392.426C157.934 356.913 154.507 348.65 78.4656 374.462C154.507 348.65 152.186 340.013 73.4358 355.683C152.186 340.013 151.025 331.156 70.8932 336.407C151.025 331.156 151.025 322.215 70.8932 316.964C151.025 322.215 152.186 313.344 73.4358 297.688C152.186 313.358 154.507 304.721 78.4656 278.909C154.507 304.721 157.92 296.458 85.9136 260.945C157.934 296.458 162.397 288.72 95.6416 244.101C162.411 288.706 167.856 281.617 107.484 228.68C167.856 281.617 174.184 275.302 121.233 214.931C174.171 275.302 181.273 269.858 136.654 203.088C181.259 269.858 189.011 265.381 153.498 193.36C189.011 265.381 197.275 261.954 171.462 185.912C197.275 261.954 205.911 259.633 190.241 180.883C205.911 259.633 214.769 258.472 209.518 178.34C214.769 258.472 223.709 258.472 228.96 178.34C223.709 258.472 232.58 259.633 248.236 180.883C232.566 259.633 241.203 261.954 267.015 185.912C241.203 261.954 249.466 265.367 284.979 193.36C249.466 265.381 257.204 269.844 301.823 203.088C257.218 269.858 264.307 275.302 317.244 214.931C264.307 275.302 270.622 281.617 330.994 228.68C270.622 281.617 276.066 288.72 342.836 244.101C276.066 288.706 280.543 296.458 352.564 260.945C280.543 296.458 283.97 304.721 360.012 278.909C283.97 304.721 286.292 313.358 365.042 297.688C286.292 313.358 287.452 322.215 367.584 316.964C287.452 322.215 287.452 331.156 367.584 336.407C287.452 331.156 286.292 340.027 365.042 355.683Z" fill="#FF2400"/>
<path d="M349.913 335.26C279.33 330.631 279.33 322.754 349.913 318.125C279.33 322.754 278.307 314.947 347.675 301.143C278.307 314.947 276.262 307.333 343.239 284.602C276.262 307.333 273.25 300.065 336.689 268.78C273.25 300.065 269.312 293.239 328.122 253.953C269.312 293.252 264.517 287.007 317.689 240.37C264.517 287.007 258.948 281.438 305.571 228.251C258.934 281.424 252.688 276.629 291.987 217.819C252.688 276.629 245.876 272.691 277.147 209.251C245.862 272.691 238.58 269.678 261.325 202.702C238.594 269.678 230.98 267.633 244.784 198.266C230.98 267.633 223.173 266.611 227.802 196.027C223.173 266.611 215.296 266.611 210.667 196.027C215.296 266.611 207.489 267.633 193.685 198.266C207.489 267.633 199.875 269.678 177.144 202.702C199.875 269.678 192.607 272.691 161.322 209.251C192.607 272.691 185.781 276.629 146.495 217.819C185.794 276.629 179.549 281.424 132.912 228.251C179.549 281.424 173.98 286.993 120.793 240.37C173.966 287.007 169.171 293.252 110.361 253.953C169.171 293.252 165.233 300.065 101.793 268.78C165.233 300.065 162.22 307.347 95.2436 284.602C162.22 307.333 160.175 314.947 90.8079 301.143C160.175 314.947 159.153 322.754 88.5693 318.125C159.153 322.754 159.153 330.631 88.5693 335.26C159.153 330.631 160.175 338.438 90.8079 352.242C160.175 338.438 162.22 346.052 95.2436 368.783C162.22 346.052 165.233 353.32 101.793 384.605C165.233 353.32 169.171 360.146 110.361 399.445C169.171 360.146 173.966 366.392 120.793 413.029C173.966 366.392 179.535 371.961 132.912 425.147C179.549 371.975 185.794 376.77 146.495 435.58C185.794 376.77 192.607 380.708 161.322 444.147C192.607 380.708 199.889 383.72 177.144 450.697C199.875 383.72 207.489 385.765 193.685 455.133C207.489 385.765 215.296 386.788 210.667 457.371C215.296 386.788 223.173 386.788 227.802 457.371C223.173 386.788 230.98 385.765 244.784 455.133C230.98 385.765 238.594 383.72 261.325 450.697C238.594 383.72 245.862 380.708 277.147 444.147C245.862 380.708 252.688 376.77 291.987 435.58C252.688 376.77 258.934 371.975 305.571 425.147C258.934 371.975 264.503 366.406 317.689 413.029C264.517 366.392 269.312 360.146 328.122 399.445C269.312 360.146 273.25 353.334 336.689 384.605C273.25 353.32 276.262 346.038 343.239 368.783C276.262 346.052 278.307 338.438 347.675 352.242C278.307 338.438 279.33 330.631 349.913 335.26ZM331.328 348.995C270.79 336.946 269.008 343.592 327.459 363.435C269.008 343.592 266.368 349.949 321.738 377.24C266.368 349.935 262.942 355.89 314.262 390.187C262.942 355.89 258.755 361.349 305.156 402.043C258.741 361.349 253.891 366.199 294.585 412.614C253.891 366.199 248.432 370.386 282.729 421.72C248.432 370.4 242.477 373.826 269.782 429.196C242.477 373.826 236.134 376.466 255.977 434.917C236.134 376.466 229.501 378.248 241.537 438.786C229.488 378.248 222.675 379.146 226.71 440.734C222.675 379.133 215.794 379.133 211.759 440.734C215.794 379.133 208.981 378.234 196.932 438.786C208.981 378.248 202.335 376.466 182.492 434.917C202.335 376.466 195.978 373.826 168.687 429.196C195.992 373.826 190.037 370.4 155.74 421.72C190.037 370.4 184.578 366.213 143.884 412.614C184.578 366.199 179.728 361.349 133.313 402.043C179.728 361.349 175.541 355.89 124.207 390.187C175.527 355.89 172.1 349.935 116.731 377.24C172.1 349.935 169.461 343.592 111.01 363.435C169.461 343.592 167.679 336.959 107.141 348.995C167.679 336.946 166.781 330.133 105.193 334.168C166.794 330.133 166.794 323.252 105.193 319.217C166.794 323.252 167.692 316.439 107.141 304.39C167.679 316.439 169.461 309.793 111.01 289.95C169.461 309.793 172.1 303.436 116.731 276.145C172.1 303.45 175.527 297.495 124.207 263.198C175.527 297.495 179.714 292.036 133.313 251.342C179.728 292.036 184.578 287.186 143.884 240.771C184.578 287.186 190.037 282.999 155.74 231.664C190.037 282.985 195.992 279.558 168.687 224.189C195.992 279.558 202.335 276.919 182.492 218.468C202.335 276.919 208.967 275.137 196.932 214.599C208.981 275.137 215.794 274.238 211.759 212.651C215.794 274.252 222.675 274.252 226.71 212.651C222.675 274.252 229.488 275.15 241.537 214.599C229.488 275.137 236.134 276.919 255.977 218.468C236.134 276.919 242.491 279.558 269.782 224.189C242.477 279.558 248.432 282.985 282.729 231.664C248.432 282.985 253.891 287.172 294.585 240.771C253.891 287.186 258.741 292.036 305.156 251.342C258.741 292.036 262.928 297.495 314.262 263.198C262.942 297.495 266.368 303.45 321.738 276.145C266.368 303.45 269.008 309.793 327.459 289.95C269.008 309.793 270.79 316.425 331.328 304.39C270.79 316.439 271.688 323.252 333.276 319.217C271.675 323.252 271.675 330.133 333.276 334.168C271.675 330.133 270.776 336.946 331.328 348.995Z" fill="#FF2400"/>
<path d="M317.687 333.145C264.514 329.663 264.514 323.721 317.687 320.239C264.514 323.721 263.741 317.835 316.001 307.444C263.727 317.835 262.193 312.114 312.657 294.98C262.193 312.114 259.927 306.628 307.724 283.054C259.927 306.628 256.956 301.488 301.271 271.875C256.956 301.488 253.349 296.776 293.408 261.636C253.336 296.776 249.149 292.575 284.288 252.516C249.149 292.589 244.437 288.969 274.049 244.654C244.437 288.969 239.296 285.998 262.87 238.2C239.296 285.998 233.81 283.732 250.945 233.267C233.81 283.732 228.076 282.198 238.481 229.923C228.09 282.198 222.203 281.41 225.685 228.238C222.203 281.41 216.261 281.41 212.779 228.238C216.261 281.41 210.375 282.184 199.983 229.923C210.375 282.198 204.654 283.732 187.519 233.267C204.654 283.732 199.168 285.998 175.594 238.2C199.168 285.998 194.028 288.969 164.415 244.654C194.028 288.969 189.316 292.575 154.176 252.516C189.316 292.589 185.115 296.776 145.056 261.636C185.129 296.776 181.508 301.488 137.193 271.875C181.508 301.488 178.538 306.628 130.74 283.054C178.538 306.628 176.271 312.114 125.807 294.98C176.271 312.114 174.738 317.849 122.463 307.444C174.738 317.835 173.95 323.721 120.777 320.239C173.95 323.721 173.95 329.663 120.777 333.145C173.95 329.663 174.724 335.55 122.463 345.941C174.738 335.55 176.271 341.271 125.807 358.405C176.271 341.271 178.538 346.756 130.74 370.33C178.538 346.756 181.508 351.897 137.193 381.509C181.508 351.897 185.115 356.609 145.056 391.749C185.129 356.609 189.316 360.81 154.176 400.869C189.316 360.796 194.028 364.416 164.415 408.731C194.028 364.416 199.168 367.387 175.594 415.184C199.168 367.387 204.654 369.653 187.519 420.117C204.654 369.653 210.389 371.187 199.983 423.461C210.375 371.187 216.261 371.975 212.779 425.147C216.261 371.975 222.203 371.975 225.685 425.147C222.203 371.975 228.09 371.201 238.481 423.461C228.09 371.187 233.81 369.653 250.945 420.117C233.81 369.653 239.296 367.387 262.87 415.184C239.296 367.387 244.437 364.416 274.049 408.731C244.437 364.416 249.149 360.81 284.288 400.869C249.149 360.796 253.349 356.609 293.408 391.749C253.336 356.609 256.956 351.897 301.271 381.509C256.956 351.897 259.927 346.756 307.724 370.33C259.927 346.756 262.193 341.271 312.657 358.405C262.193 341.271 263.727 335.536 316.001 345.941C263.727 335.55 264.514 329.663 317.687 333.145ZM301.713 343.095C257.163 334.237 255.85 339.115 298.867 353.721C255.85 339.115 253.916 343.799 294.652 363.877C253.916 343.785 251.387 348.166 289.152 373.398C251.387 348.166 248.306 352.173 282.451 382.131C248.306 352.187 244.727 355.766 274.671 389.911C244.727 355.766 240.706 358.847 265.938 396.613C240.706 358.847 236.325 361.376 256.417 402.112C236.325 361.376 231.655 363.311 246.261 406.327C231.655 363.311 226.777 364.623 235.634 409.173C226.777 364.623 221.761 365.287 224.732 410.61C221.761 365.287 216.703 365.287 213.733 410.61C216.703 365.287 211.687 364.623 202.83 409.173C211.687 364.623 206.81 363.311 192.204 406.327C206.81 363.311 202.125 361.376 182.047 402.112C202.139 361.376 197.759 358.847 172.527 396.613C197.759 358.847 193.751 355.766 163.793 389.911C193.738 355.766 190.159 352.187 156.014 382.131C190.159 352.187 187.077 348.166 149.312 373.398C187.077 348.166 184.548 343.785 143.812 363.877C184.548 343.785 182.614 339.115 139.598 353.721C182.614 339.115 181.301 334.237 136.751 343.095C181.301 334.237 180.638 329.221 135.314 332.192C180.638 329.221 180.638 324.164 135.314 321.193C180.638 324.164 181.301 319.148 136.751 310.29C181.301 319.148 182.614 314.27 139.598 299.664C182.614 314.27 184.548 309.585 143.812 289.508C184.548 309.599 187.077 305.219 149.312 279.987C187.077 305.219 190.159 301.212 156.014 271.254C190.159 301.198 193.738 297.619 163.793 263.474C193.738 297.619 197.759 294.537 172.527 256.772C197.759 294.537 202.139 292.009 182.047 251.272C202.139 292.009 206.81 290.074 192.204 247.058C206.81 290.074 211.687 288.761 202.83 244.211C211.687 288.761 216.703 288.098 213.733 242.774C216.703 288.098 221.761 288.098 224.732 242.774C221.761 288.098 226.777 288.761 235.634 244.211C226.777 288.761 231.655 290.074 246.261 247.058C231.655 290.074 236.339 292.009 256.417 251.272C236.325 292.009 240.706 294.537 265.938 256.772C240.706 294.537 244.713 297.619 274.671 263.474C244.727 297.619 248.306 301.198 282.451 271.254C248.306 301.198 251.387 305.219 289.152 279.987C251.387 305.219 253.916 309.599 294.652 289.508C253.916 309.599 255.85 314.27 298.867 299.664C255.85 314.27 257.163 319.148 301.713 310.29C257.163 319.148 257.826 324.164 303.15 321.193C257.826 324.164 257.826 329.221 303.15 332.192C257.826 329.221 257.163 334.237 301.713 343.095Z" fill="#FF2400"/>
<path d="M289.652 331.308C251.625 328.821 251.625 324.564 289.652 322.077C251.625 324.564 251.072 320.364 288.45 312.929C251.072 320.364 249.966 316.26 286.06 304.017C249.966 316.274 248.35 312.349 282.522 295.491C248.336 312.349 246.222 308.674 277.907 287.504C246.222 308.674 243.638 305.316 272.283 280.18C243.624 305.316 240.625 302.303 265.761 273.658C240.625 302.317 237.268 299.733 258.437 268.034C237.268 299.719 233.592 297.605 250.45 263.419C233.592 297.605 229.667 295.975 241.924 259.881C229.667 295.975 225.577 294.869 233.012 257.491C225.577 294.869 221.363 294.316 223.864 256.289C221.377 294.316 217.121 294.316 214.633 256.289C217.121 294.316 212.92 294.869 205.486 257.491C212.92 294.869 208.816 295.975 196.573 259.881C208.83 295.975 204.905 297.591 188.047 263.419C204.905 297.605 201.23 299.719 180.06 268.034C201.23 299.719 197.872 302.303 172.736 273.658C197.872 302.317 194.859 305.316 166.214 280.18C194.873 305.316 192.289 308.674 160.59 287.504C192.275 308.674 190.161 312.349 155.975 295.491C190.161 312.349 188.531 316.274 152.438 304.017C188.531 316.274 187.425 320.364 150.047 312.929C187.425 320.364 186.872 324.578 148.845 322.077C186.872 324.564 186.872 328.821 148.845 331.308C186.872 328.821 187.425 333.021 150.047 340.455C187.425 333.021 188.531 337.125 152.438 349.368C188.531 337.111 190.147 341.036 155.975 357.894C190.161 341.036 192.275 344.711 160.59 365.881C192.275 344.711 194.859 348.069 166.214 373.205C194.873 348.069 197.872 351.082 172.736 379.727C197.872 351.068 201.23 353.652 180.06 385.351C201.23 353.666 204.905 355.78 188.047 389.966C204.905 355.78 208.83 357.41 196.573 393.504C208.83 357.41 212.92 358.516 205.486 395.894C212.92 358.516 217.134 359.069 214.633 397.096C217.121 359.069 221.377 359.069 223.864 397.096C221.377 359.069 225.577 358.516 233.012 395.894C225.577 358.516 229.681 357.41 241.924 393.504C229.667 357.41 233.592 355.794 250.45 389.966C233.592 355.78 237.268 353.666 258.437 385.351C237.268 353.666 240.625 351.082 265.761 379.727C240.625 351.068 243.638 348.069 272.283 373.205C243.624 348.069 246.208 344.711 277.907 365.881C246.222 344.711 248.336 341.036 282.522 357.894C248.336 341.036 249.966 337.111 286.06 349.368C249.966 337.111 251.072 333.021 288.45 340.455C251.072 333.021 251.625 328.807 289.652 331.308ZM276.207 338.023C245.434 331.902 244.536 335.274 274.245 345.361C244.536 335.274 243.196 338.507 271.343 352.381C243.209 338.507 241.454 341.533 267.543 358.958C241.454 341.533 239.326 344.297 262.914 364.983C239.326 344.297 236.853 346.77 257.539 370.358C236.853 346.77 234.076 348.898 251.514 374.987C234.089 348.898 231.063 350.653 244.937 378.787C231.063 350.653 227.83 351.994 237.917 381.689C227.83 351.98 224.458 352.892 230.58 383.651C224.458 352.878 220.99 353.334 223.049 384.646C221.004 353.348 217.507 353.348 215.449 384.646C217.494 353.348 214.039 352.892 207.918 383.651C214.039 352.878 210.667 351.98 200.58 381.689C210.667 351.98 207.434 350.639 193.56 378.787C207.434 350.653 204.408 348.898 186.983 374.987C204.408 348.898 201.644 346.77 180.958 370.358C201.644 346.77 199.171 344.297 175.583 364.983C199.171 344.297 197.043 341.519 170.954 358.958C197.043 341.533 195.288 338.507 167.154 352.381C195.288 338.507 193.947 335.274 164.252 345.361C193.961 335.274 193.049 331.902 162.29 338.023C193.063 331.902 192.607 328.434 161.295 330.492C192.593 328.447 192.593 324.951 161.295 322.892C192.593 324.938 193.049 321.483 162.29 315.362C193.063 321.483 193.961 318.111 164.252 308.024C193.961 318.111 195.302 314.878 167.154 301.004C195.288 314.878 197.043 311.852 170.954 294.427C197.043 311.852 199.171 309.088 175.583 288.402C199.171 309.088 201.644 306.615 180.958 283.027C201.644 306.615 204.422 304.487 186.983 278.398C204.408 304.487 207.434 302.732 193.56 274.598C207.434 302.732 210.667 301.391 200.58 271.696C210.667 301.405 214.039 300.493 207.918 269.734C214.039 300.507 217.507 300.051 215.449 268.739C217.494 300.037 220.99 300.037 223.049 268.739C221.004 300.037 224.458 300.493 230.58 269.734C224.458 300.507 227.83 301.405 237.917 271.696C227.83 301.405 231.063 302.745 244.937 274.598C231.063 302.732 234.089 304.487 251.514 278.398C234.089 304.487 236.853 306.615 257.539 283.027C236.853 306.615 239.326 309.088 262.914 288.402C239.326 309.088 241.454 311.866 267.543 294.427C241.454 311.852 243.209 314.878 271.343 301.004C243.209 314.878 244.55 318.111 274.245 308.024C244.536 318.111 245.448 321.483 276.207 315.362C245.434 321.483 245.89 324.951 277.202 322.892C245.904 324.938 245.904 328.434 277.202 330.492C245.904 328.447 245.448 331.902 276.207 338.023Z" fill="#FF2400"/>
<path d="M265.787 329.746C240.652 328.102 240.652 325.297 265.787 323.639C240.652 325.283 240.278 322.505 264.985 317.586C240.278 322.505 239.546 319.797 263.41 311.686C239.546 319.783 238.482 317.199 261.075 306.048C238.482 317.185 237.073 314.767 258.021 300.769C237.073 314.767 235.359 312.542 254.304 295.933C235.359 312.542 233.383 310.566 249.993 291.622C233.383 310.566 231.158 308.853 245.156 287.905C231.158 308.853 228.726 307.457 239.878 284.851C228.74 307.444 226.142 306.38 234.24 282.516C226.142 306.38 223.434 305.647 228.34 280.94C223.42 305.647 220.643 305.288 222.287 280.139C220.643 305.274 217.838 305.274 216.18 280.139C217.824 305.274 215.046 305.647 210.127 280.94C215.046 305.647 212.338 306.38 204.227 282.516C212.324 306.38 209.726 307.444 198.589 284.851C209.726 307.444 207.308 308.853 193.31 287.905C207.308 308.853 205.083 310.566 188.474 291.622C205.083 310.566 203.107 312.542 184.163 295.933C203.107 312.542 201.394 314.767 180.446 300.769C201.394 314.767 199.998 317.199 177.392 306.048C199.985 317.185 198.921 319.783 175.056 311.686C198.921 319.783 198.188 322.492 173.481 317.586C198.188 322.505 197.829 325.283 172.68 323.639C197.815 325.283 197.815 328.088 172.68 329.746C197.815 328.102 198.188 330.879 173.481 335.799C198.188 330.879 198.921 333.588 175.056 341.699C198.921 333.601 199.985 336.199 177.392 347.337C199.985 336.199 201.394 338.618 180.446 352.615C201.394 338.618 203.107 340.842 184.163 357.452C203.107 340.842 205.083 342.818 188.474 361.763C205.083 342.818 207.308 344.532 193.31 365.48C207.308 344.532 209.74 345.927 198.589 368.534C209.726 345.941 212.324 347.005 204.227 370.869C212.324 347.005 215.033 347.737 210.127 372.444C215.046 347.737 217.824 348.097 216.18 373.246C217.824 348.111 220.629 348.111 222.287 373.246C220.643 348.111 223.42 347.737 228.34 372.444C223.42 347.737 226.129 347.005 234.24 370.869C226.142 347.005 228.726 345.941 239.878 368.534C228.74 345.941 231.158 344.532 245.156 365.48C231.158 344.532 233.383 342.818 249.993 361.763C233.383 342.818 235.359 340.842 254.304 357.452C235.359 340.842 237.073 338.618 258.021 352.615C237.073 338.618 238.468 336.185 261.075 347.337C238.482 336.199 239.546 333.601 263.41 341.699C239.546 333.601 240.278 330.893 264.985 335.799C240.278 330.879 240.638 328.102 265.787 329.746ZM254.801 333.767C235.594 329.953 235.028 332.054 253.572 338.355C235.028 332.054 234.198 334.071 251.761 342.735C234.198 334.071 233.107 335.964 249.385 346.839C233.107 335.964 231.78 337.692 246.497 350.598C231.766 337.692 230.233 339.225 243.139 353.956C230.233 339.225 228.492 340.566 239.38 356.844C228.505 340.566 226.612 341.657 235.276 359.22C226.612 341.657 224.595 342.487 230.896 361.031C224.595 342.487 222.494 343.053 226.308 362.26C222.494 343.053 220.325 343.343 221.61 362.882C220.325 343.343 218.142 343.343 216.87 362.882C218.156 343.343 215.986 343.053 212.172 362.26C215.986 343.053 213.886 342.487 207.585 361.031C213.886 342.487 211.868 341.657 203.204 359.22C211.868 341.657 209.975 340.566 199.1 356.844C209.975 340.566 208.248 339.239 195.342 353.956C208.248 339.225 206.714 337.692 191.984 350.598C206.714 337.692 205.374 335.951 189.096 346.839C205.374 335.964 204.282 334.071 186.719 342.735C204.282 334.071 203.453 332.054 184.909 338.355C203.453 332.054 202.886 329.953 183.679 333.767C202.886 329.953 202.596 327.784 183.057 329.069C202.596 327.784 202.596 325.601 183.057 324.329C202.596 325.615 202.886 323.445 183.679 319.631C202.886 323.445 203.453 321.345 184.909 315.044C203.453 321.345 204.282 319.327 186.719 310.663C204.282 319.327 205.374 317.434 189.096 306.559C205.374 317.434 206.7 315.707 191.984 302.801C206.714 315.707 208.248 314.173 195.342 299.443C208.248 314.173 209.989 312.833 199.1 296.555C209.975 312.833 211.868 311.741 203.204 294.178C211.868 311.741 213.886 310.912 207.585 292.368C213.886 310.912 215.986 310.345 212.172 291.138C215.986 310.345 218.156 310.055 216.87 290.516C218.156 310.055 220.325 310.055 221.61 290.516C220.325 310.055 222.494 310.345 226.308 291.138C222.494 310.345 224.595 310.912 230.896 292.368C224.595 310.912 226.612 311.741 235.276 294.178C226.612 311.741 228.505 312.833 239.38 296.555C228.505 312.833 230.233 314.159 243.139 299.443C230.233 314.173 231.766 315.707 246.497 302.801C231.766 315.707 233.107 317.448 249.385 306.559C233.107 317.434 234.198 319.327 251.761 310.663C234.198 319.327 235.028 321.345 253.572 315.044C235.028 321.345 235.594 323.445 254.801 319.631C235.594 323.445 235.884 325.615 255.423 324.329C235.884 325.615 235.884 327.798 255.423 329.069C235.884 327.784 235.594 329.953 254.801 333.767Z" fill="#FF2400"/>
<path d="M246.096 328.447C231.587 327.494 231.587 325.877 246.096 324.924C231.587 325.877 231.38 324.274 245.64 321.428C231.38 324.26 230.965 322.699 244.728 318.028C230.965 322.699 230.343 321.207 243.388 314.781C230.343 321.207 229.542 319.811 241.633 311.727C229.542 319.797 228.561 318.526 239.491 308.936C228.561 318.526 227.414 317.379 237.004 306.449C227.414 317.379 226.129 316.398 234.212 304.307C226.143 316.398 224.733 315.583 231.159 302.552C224.733 315.596 223.227 314.974 227.911 301.212C223.241 314.974 221.679 314.56 224.512 300.3C221.679 314.56 220.076 314.339 221.016 299.844C220.063 314.353 218.446 314.353 217.492 299.844C218.446 314.353 216.843 314.56 213.996 300.3C216.829 314.56 215.268 314.974 210.597 301.212C215.268 314.974 213.775 315.596 207.35 302.552C213.775 315.596 212.38 316.398 204.296 304.307C212.366 316.398 211.094 317.379 201.505 306.449C211.094 317.379 209.948 318.526 199.017 308.936C209.948 318.526 208.966 319.811 196.876 311.727C208.966 319.797 208.151 321.207 195.121 314.781C208.151 321.207 207.543 322.713 193.766 318.028C207.529 322.699 207.115 324.26 192.854 321.428C207.115 324.26 206.894 325.863 192.398 324.924C206.908 325.877 206.908 327.494 192.398 328.447C206.908 327.494 207.115 329.097 192.854 331.943C207.115 329.111 207.529 330.672 193.766 335.343C207.529 330.672 208.151 332.164 195.121 338.59C208.151 332.164 208.966 333.56 196.876 341.644C208.966 333.574 209.948 334.845 199.017 344.435C209.948 334.845 211.094 335.992 201.505 346.922C211.094 335.992 212.38 336.973 204.296 349.064C212.366 336.973 213.775 337.788 207.35 350.819C213.775 337.775 215.281 338.396 210.597 352.173C215.268 338.41 216.829 338.825 213.996 353.085C216.829 338.825 218.432 339.046 217.492 353.541C218.446 339.032 220.063 339.032 221.016 353.541C220.063 339.032 221.665 338.825 224.512 353.085C221.679 338.825 223.241 338.41 227.911 352.173C223.241 338.41 224.733 337.788 231.159 350.819C224.733 337.775 226.129 336.973 234.212 349.064C226.143 336.973 227.414 335.992 237.004 346.922C227.414 335.992 228.561 334.845 239.491 344.435C228.561 334.845 229.542 333.56 241.633 341.644C229.542 333.574 230.357 332.164 243.388 338.59C230.343 332.164 230.965 330.658 244.728 335.343C230.965 330.672 231.38 329.111 245.64 331.943C231.38 329.111 231.601 327.508 246.096 328.447ZM237.501 330.313C227.635 328.351 227.345 329.428 236.865 332.662C227.345 329.428 226.916 330.465 235.94 334.914C226.916 330.465 226.364 331.432 234.724 337.028C226.364 331.446 225.687 332.33 233.245 338.963C225.687 332.33 224.899 333.132 231.518 340.69C224.885 333.132 224.001 333.809 229.583 342.169C224.001 333.809 223.033 334.361 227.469 343.385C223.02 334.361 221.983 334.79 225.217 344.311C221.983 334.79 220.905 335.08 222.868 344.946C220.905 335.08 219.8 335.232 220.449 345.264C219.786 335.232 218.667 335.232 218.017 345.264C218.681 335.232 217.561 335.08 215.599 344.946C217.561 335.08 216.484 334.79 213.25 344.311C216.484 334.79 215.447 334.361 210.998 343.385C215.447 334.361 214.48 333.809 208.884 342.169C214.466 333.809 213.582 333.132 206.949 340.69C213.582 333.132 212.78 332.344 205.222 338.963C212.78 332.33 212.103 331.446 203.743 337.028C212.103 331.446 211.551 330.479 202.527 334.914C211.551 330.465 211.122 329.428 201.601 332.662C211.122 329.428 210.832 328.351 200.966 330.313C210.832 328.351 210.68 327.245 200.648 327.895C210.68 327.231 210.68 326.112 200.648 325.462C210.68 326.126 210.832 325.006 200.966 323.044C210.832 325.006 211.122 323.929 201.601 320.695C211.122 323.929 211.551 322.892 202.527 318.443C211.551 322.892 212.103 321.925 203.743 316.329C212.103 321.911 212.78 321.027 205.222 314.394C212.78 321.027 213.568 320.225 206.949 312.667C213.582 320.225 214.466 319.548 208.884 311.188C214.466 319.548 215.433 318.996 210.998 309.972C215.447 318.996 216.484 318.567 213.25 309.046C216.484 318.567 217.561 318.277 215.599 308.411C217.561 318.277 218.667 318.125 218.017 308.093C218.681 318.125 219.8 318.125 220.449 308.093C219.786 318.125 220.905 318.277 222.868 308.411C220.905 318.277 221.983 318.567 225.217 309.046C221.983 318.567 223.02 318.996 227.469 309.972C223.02 318.996 223.987 319.548 229.583 311.188C224.001 319.548 224.885 320.225 231.518 312.667C224.885 320.225 225.673 321.013 233.245 314.394C225.687 321.027 226.364 321.911 234.724 316.329C226.364 321.911 226.916 322.879 235.94 318.443C226.916 322.892 227.345 323.929 236.865 320.695C227.345 323.929 227.635 325.006 237.501 323.044C227.635 325.006 227.787 326.112 237.819 325.462C227.787 326.126 227.787 327.245 237.819 327.895C227.787 327.231 227.635 328.351 237.501 330.313Z" fill="#FF2400"/>
<path d="M230.576 327.439C224.455 327.038 224.455 326.347 230.576 325.946C224.455 326.347 224.358 325.67 230.383 324.468C224.358 325.67 224.178 325.007 229.996 323.031C224.178 325.007 223.916 324.371 229.429 321.663C223.929 324.371 223.584 323.791 228.683 320.378C223.584 323.791 223.169 323.252 227.785 319.203C223.169 323.252 222.686 322.768 226.734 318.153C222.686 322.768 222.147 322.354 225.56 317.255C222.147 322.354 221.553 322.022 224.275 316.508C221.567 322.008 220.931 321.746 222.907 315.942C220.931 321.759 220.268 321.58 221.47 315.555C220.268 321.58 219.59 321.483 219.991 315.362C219.59 321.483 218.9 321.483 218.499 315.362C218.9 321.483 218.222 321.58 217.02 315.555C218.222 321.58 217.559 321.759 215.583 315.942C217.559 321.759 216.924 322.022 214.215 316.508C216.924 322.008 216.343 322.354 212.93 317.255C216.343 322.354 215.804 322.768 211.756 318.153C215.804 322.768 215.321 323.252 210.705 319.203C215.321 323.252 214.906 323.791 209.807 320.378C214.906 323.791 214.574 324.385 209.061 321.663C214.561 324.371 214.298 325.007 208.494 323.031C214.312 325.007 214.132 325.67 208.108 324.468C214.132 325.67 214.036 326.347 207.914 325.946C214.036 326.347 214.036 327.038 207.914 327.439C214.036 327.038 214.132 327.715 208.108 328.917C214.132 327.715 214.312 328.378 208.494 330.354C214.312 328.378 214.574 329.014 209.061 331.722C214.561 329.014 214.906 329.594 209.807 333.007C214.906 329.594 215.321 330.133 210.705 334.182C215.321 330.133 215.804 330.617 211.756 335.232C215.804 330.617 216.343 331.031 212.93 336.13C216.343 331.031 216.937 331.363 214.215 336.877C216.924 331.377 217.559 331.639 215.583 337.443C217.559 331.626 218.222 331.805 217.02 337.83C218.222 331.805 218.9 331.902 218.499 338.023C218.9 331.902 219.59 331.902 219.991 338.023C219.59 331.902 220.268 331.805 221.47 337.83C220.268 331.805 220.931 331.626 222.907 337.443C220.931 331.626 221.567 331.363 224.275 336.877C221.567 331.377 222.147 331.031 225.56 336.13C222.147 331.031 222.686 330.617 226.734 335.232C222.686 330.617 223.169 330.133 227.785 334.182C223.169 330.133 223.584 329.594 228.683 333.007C223.584 329.594 223.916 329 229.429 331.722C223.929 329.014 224.192 328.378 229.996 330.354C224.178 328.378 224.358 327.715 230.383 328.917C224.358 327.715 224.455 327.038 230.576 327.439ZM224.385 327.038C221.608 326.858 221.566 327.162 224.302 327.701C221.566 327.162 221.484 327.453 224.123 328.351C221.484 327.453 221.359 327.743 223.86 328.973C221.359 327.743 221.207 328.005 223.529 329.553C221.207 328.005 221.028 328.254 223.114 330.092C221.014 328.254 220.793 328.475 222.631 330.575C220.793 328.475 220.544 328.668 222.092 330.99C220.544 328.668 220.281 328.834 221.511 331.322C220.281 328.82 219.991 328.945 220.889 331.584C219.991 328.945 219.687 329.028 220.24 331.764C219.701 329.028 219.383 329.069 219.577 331.847C219.397 329.069 219.079 329.069 218.9 331.847C219.079 329.069 218.775 329.028 218.236 331.764C218.775 329.028 218.485 328.945 217.587 331.584C218.485 328.945 218.195 328.82 216.965 331.322C218.195 328.82 217.932 328.668 216.385 330.99C217.932 328.668 217.684 328.489 215.846 330.575C217.684 328.475 217.462 328.254 215.362 330.092C217.462 328.254 217.269 328.005 214.948 329.553C217.269 328.005 217.103 327.743 214.616 328.973C217.117 327.743 216.993 327.453 214.353 328.351C216.993 327.453 216.91 327.148 214.174 327.701C216.91 327.162 216.868 326.845 214.091 327.038C216.868 326.858 216.868 326.541 214.091 326.361C216.868 326.541 216.91 326.237 214.174 325.698C216.91 326.237 216.993 325.946 214.353 325.048C216.993 325.946 217.117 325.656 214.616 324.426C217.117 325.656 217.269 325.394 214.948 323.846C217.269 325.394 217.449 325.145 215.362 323.307C217.462 325.145 217.684 324.924 215.846 322.823C217.684 324.924 217.932 324.73 216.385 322.409C217.932 324.73 218.195 324.564 216.965 322.077C218.195 324.578 218.485 324.454 217.587 321.815C218.485 324.454 218.789 324.371 218.236 321.635C218.775 324.371 219.093 324.33 218.9 321.552C219.079 324.33 219.397 324.33 219.577 321.552C219.397 324.33 219.701 324.371 220.24 321.635C219.701 324.371 219.991 324.454 220.889 321.815C219.991 324.454 220.281 324.578 221.511 322.077C220.281 324.578 220.544 324.73 222.092 322.409C220.544 324.73 220.793 324.91 222.631 322.823C220.793 324.924 221.014 325.145 223.114 323.307C221.014 325.145 221.207 325.394 223.529 323.846C221.207 325.394 221.373 325.656 223.86 324.426C221.359 325.656 221.484 325.946 224.123 325.048C221.484 325.946 221.566 326.25 224.302 325.698C221.566 326.237 221.608 326.554 224.385 326.361C221.608 326.541 221.608 326.858 224.385 327.038Z" fill="#FF2400"/>
</g>
<path d="M276.767 256.625C277.949 255.32 279.124 253.966 280.336 252.682C279.153 253.987 277.97 255.291 276.767 256.625Z" fill="#F9F9F9"/>
<path d="M369.565 186.917L359.739 191.813C359.739 191.813 359.739 191.813 359.76 191.784C359.479 191.935 359.218 192.056 358.937 192.207C357.925 192.715 356.95 193.293 355.937 193.8C356.59 193.431 357.243 193.063 357.896 192.694C356.341 193.474 354.837 194.246 353.291 195.076L346.879 198.845C347.461 198.514 348.024 198.212 348.606 197.881C340.718 202.442 332.969 207.363 325.495 212.696C296.966 237.965 271.891 267.113 232.967 320.324C308.313 224.057 346.693 199.849 359.71 191.792C362.951 190.107 366.249 188.462 369.536 186.896L369.565 186.917Z" fill="#F9F9F9"/>
<path d="M281.976 244.06C278.279 247.257 274.599 250.554 271.476 253.37L269.558 255.16C259.626 265.395 247.117 290.71 232.967 320.324C234.252 317.825 235.595 315.367 236.967 312.93C262.914 265.62 272.658 253.55 281.976 244.06Z" fill="#F9F9F9"/>
<path d="M252.951 271.946C250.066 275.105 246.546 279.039 243.822 282.094C243.781 282.152 243.761 282.181 243.719 282.239C243.412 282.983 243.38 283.091 233.017 320.314C248.28 279.302 250.57 275.811 253.734 271.145C253.499 271.416 253.235 271.666 253 271.937L252.951 271.946Z" fill="#F9F9F9"/>
<path d="M232.576 296.598C232.072 296.941 231.457 297.38 230.982 297.743C230.962 297.772 230.941 297.801 230.921 297.831C228.491 300.962 227.034 302.902 226.89 303.106C225.585 304.892 223.881 307.182 222.494 309.085C225.232 305.516 225.41 305.511 228.737 305.371C230.746 307.838 232.183 312.826 233.045 320.334C235.245 299.923 234.031 298.367 232.626 296.589L232.576 296.598Z" fill="#F9F9F9"/>
<path d="M441.084 903.462C616.433 941.516 769.265 834.724 813.511 790.162C813.705 789.95 813.919 789.708 814.113 789.495C816.326 787.041 819.041 783.937 821.143 781.578L825.374 776.574C825.374 776.574 825.497 776.4 825.579 776.283C801.725 804.197 596.221 966.806 377.362 881.523C380.477 882.98 383.505 884.376 386.387 885.668C401.797 891.397 422.469 898.134 438.57 902.822C439.425 903.032 440.23 903.251 441.055 903.441L441.084 903.462Z" fill="#F9F9F9"/>
<path d="M216.899 322.076C224.597 316.857 226.386 317.597 232.997 320.343C225.045 306.956 217.249 317.564 210.338 326.919C208.167 330.364 205.331 334.999 203.248 338.506L201.287 341.838C204.403 336.745 210.873 326.162 216.899 322.076Z" fill="#F9F9F9"/>
<path d="M839.199 758.911C840.042 757.716 840.923 756.592 841.788 755.368L842.137 754.873C842.261 754.698 842.425 754.465 842.549 754.29C843.495 752.95 844.442 751.609 845.388 750.269C846.211 749.103 846.993 747.996 847.684 746.956C847.725 746.897 847.766 746.839 847.807 746.781C830.693 770.154 462.873 1018.58 240.783 779.666L240.842 779.707C246.86 786.751 255.489 795.596 261.771 802.39C270.19 810.605 282.054 820.86 290.881 828.621C520.894 999.418 814.3 787.748 839.24 758.853L839.199 758.911Z" fill="#F9F9F9"/>
<path d="M185.031 373.631C184.695 374.355 184.388 375.099 184.031 375.851C204.443 333.105 225.099 323.805 232.967 320.322C213.488 322.767 200.421 341.705 185.031 373.631Z" fill="#F9F9F9"/>
<path d="M186.875 696.015C354.899 1021.07 814.605 767.485 858.839 729.551C859.065 729.23 859.233 728.869 859.459 728.548L860.733 726.435C860.96 726.114 861.128 725.753 861.325 725.412C862.788 722.908 864.472 719.905 865.926 717.351C866.103 717.039 866.3 716.698 866.448 716.366C786.343 741.721 716.775 792.245 634.954 813.42C594.915 823.793 501.114 848.036 407.776 835.052C221.041 809.045 178.15 684.527 162.37 627.185C162.86 629.147 163.371 631.08 163.853 632.992L166.37 642.586C171.815 658.657 179.921 679.795 186.603 695.473C186.716 695.684 186.8 695.874 186.884 696.064L186.875 696.015Z" fill="#F9F9F9"/>
<path d="M178.04 389.832C178.126 389.587 178.22 389.392 178.286 389.176C178.052 389.753 177.798 390.36 177.556 390.888C175.885 394.861 173.919 400.24 172.493 404.299C169.505 412.669 165.806 423.899 163.603 432.518C162.253 437.765 160.39 444.79 159.256 450.102C157.895 456.477 156.346 465.034 155.172 471.453C153.994 478.001 152.832 486.875 152.255 493.498C151.577 501.316 150.954 511.094 150.604 519.929C149.419 612.539 183.428 710.349 265.783 758.283C460.02 871.331 731.882 752.565 834.243 707.86C857.863 697.553 872.176 693.366 877.18 695.298C877.274 695.103 877.369 694.908 877.463 694.712C879.701 689.874 882.373 683.682 884.474 678.79C884.548 678.624 884.622 678.458 884.716 678.263C885.262 676.377 883.861 673.729 883.379 671.817C874.058 670.562 864.221 674.053 813.155 694.236C681.778 746.181 540.46 792.066 397.412 776.033C74.4992 739.892 129.547 406.68 232.995 320.344C210.482 335.363 191.865 359.814 178.04 389.832Z" fill="#F9F9F9"/>
<path d="M795.488 664.03C878.465 634.546 898.238 627.547 894.271 652.562C894.357 652.317 894.443 652.072 894.508 651.856C895.651 648.384 896.849 644.339 898.044 640.423C898.81 637.733 899.576 635.042 900.341 632.351C906.696 597.407 873.621 608.419 794.685 634.774C707.327 663.916 598.581 700.182 472.227 706.897C99.2692 726.681 123.144 441.324 232.997 320.342C94.1164 447.901 75.2102 919.947 795.517 664.051L795.488 664.03Z" fill="#F9F9F9"/>
<path d="M773.258 596.549C874.13 565.072 911.962 553.316 907.511 601.132C907.58 600.787 907.648 600.443 907.688 600.078C909.014 592.455 910.288 582.744 911.361 575.293C914.62 537.814 889.143 535.718 861.144 539.048C744.029 552.942 636.115 605.079 519.685 621.771C144.898 675.589 133.808 454.142 232.995 320.344C122.459 450.015 101.419 806.105 773.258 596.549Z" fill="#F9F9F9"/>
<path d="M767.265 512.931C865.65 484.545 910.128 481.105 913.804 535.882C913.83 526.949 913.25 515.23 912.907 506.08C912.552 501.332 912.105 496.343 911.584 491.522C905.948 446.933 881.819 452.689 592.743 521.703C173.722 621.796 175.709 444.778 219.364 346.568C178.747 434.915 99.9424 705.589 767.245 512.96L767.265 512.931Z" fill="#F9F9F9"/>
<path d="M230.788 324.026C226.823 330.877 222.957 338.452 219.334 346.549C224.098 336.158 228.327 328.315 230.788 324.026Z" fill="#F9F9F9"/>
<path d="M232.996 320.344C232.852 320.548 232.055 321.863 230.839 324.017C231.545 322.77 232.281 321.542 232.996 320.344Z" fill="#F9F9F9"/>
<path d="M656.325 452.848C819.86 406.014 888.381 393.482 906.788 459.273C906.69 458.854 906.651 458.477 906.554 458.059C904.525 448.33 901.349 436.088 898.986 426.647C898.923 426.428 898.868 426.258 898.805 426.039C880.202 366.704 816.904 366.156 628.443 423.641C136.747 573.592 212.749 363.906 232.996 320.345C216.692 350.971 90.0154 615.003 656.325 452.848Z" fill="#F9F9F9"/>
<path d="M602.495 381.256C780.457 323.257 851.058 322.543 881.62 378.532C880.736 376.51 879.831 374.518 878.964 372.595L878.097 370.673C877.452 369.301 876.845 367.999 876.237 366.696L867.699 350.187C866.549 348.109 865.457 346.072 864.325 344.093C820.977 272.482 672.384 322.925 573.752 356.42C252.607 465.539 211.173 397.025 232.996 320.343C209.622 382.481 198.823 512.798 602.495 381.256Z" fill="#F9F9F9"/>
<path d="M535.72 325.155C686.571 271.329 782.19 242.781 835.609 300.5C833.908 298.338 832.236 296.197 830.601 294.125C824.273 286.47 816.956 278.115 811.176 271.414C755.018 218.006 661.615 249.036 513.857 304.041C416.254 340.402 234.547 408.029 233.005 320.393C211.397 440.938 455.544 353.823 535.728 325.205L535.72 325.155Z" fill="#F9F9F9"/>
<path d="M485.863 278.206C649.125 212.795 713.535 196.88 768.847 232.705C767.811 231.886 766.825 231.059 765.818 230.261L752.93 220.592L739.975 211.882C738.478 210.912 737.011 209.963 735.494 209.023C675.755 173.784 576.006 216.272 449.922 269.988C361.259 307.772 260.729 350.625 232.946 320.352C243.94 375.144 389.514 316.806 485.813 278.214L485.863 278.206Z" fill="#F9F9F9"/>
<path d="M430.51 250.778C571.929 184.179 632.025 163.996 687.562 183.256C678.393 179.314 666.371 174.843 656.209 171.073C654.063 170.344 651.967 169.606 649.821 168.877C590.144 153.811 513.754 190.523 384.394 256.599C292.917 303.311 260.353 316.997 233.017 320.314C263.927 329.171 333.813 296.295 430.53 250.749L430.51 250.778Z" fill="#F9F9F9"/>
<path d="M597.925 156.074C596.684 155.853 595.424 155.662 594.134 155.449L577.212 152.976L566.756 151.969C564.833 151.789 562.938 151.631 560.994 151.481C528.663 150.135 493.859 164.336 448.303 187.712C373.058 226.323 305.172 276.813 232.976 320.372C259.38 309.541 301.504 285.096 354.842 254.158C496.338 172.068 546.848 151.623 597.933 156.123L597.925 156.074Z" fill="#F9F9F9"/>
<path d="M510.539 151.094C509.429 151.183 508.389 151.235 507.2 151.313C506.467 151.363 505.763 151.433 505.03 151.483C504.147 151.559 503.215 151.643 502.333 151.719C493.747 152.512 484.351 153.649 476.772 154.499C429.799 162.028 347.785 217.824 232.996 320.344C419.805 173.835 471.274 156.293 510.539 151.094Z" fill="#F9F9F9"/>
<path d="M423.936 166.316C417.234 168.395 410.098 170.779 403.95 172.814C402.722 173.256 401.522 173.719 400.273 174.191C360.852 190.546 304.624 239.66 232.996 320.344C279.542 271.598 366.586 186.997 429.816 164.66C427.813 165.211 425.86 165.753 423.936 166.316Z" fill="#F9F9F9"/>
<path d="M281.711 251.167C287.845 244.581 294.187 238.317 300.775 232.446C311.669 221.405 313.254 220.21 323.047 212.889C322.745 213.069 322.402 213.308 322.101 213.488C316.864 216.951 310.104 221.828 304.951 225.482C304.93 225.511 304.889 225.569 304.84 225.578C293.107 234.411 283.098 247.473 271.529 262.622C272.101 261.935 272.682 261.297 273.264 260.66C266.89 268.08 260.812 275.884 255.031 284.072C246.754 297.091 245.726 298.855 232.975 320.374C254.474 287.085 265.035 272.622 281.72 251.216L281.711 251.167ZM276.716 256.635C277.899 255.33 279.073 253.976 280.285 252.692C279.102 253.997 277.92 255.301 276.716 256.635Z" fill="#F9F9F9"/>
</svg>
